<svg width="20" height="20" viewBox="0 0 20 20" fill="none" xmlns="http://www.w3.org/2000/svg">
<path d="M15.8335 8.0172C15.8335 10.1665 14.7753 11.821 13.1654 12.9097C12.7904 13.1633 12.6029 13.2901 12.5103 13.4343C12.4178 13.5785 12.3862 13.7678 12.3232 14.1464L12.2741 14.4406C12.1632 15.1058 12.1078 15.4383 11.8747 15.6358C11.6416 15.8333 11.3044 15.8333 10.6301 15.8333H8.45383C7.77956 15.8333 7.4424 15.8333 7.20929 15.6358C6.97616 15.4383 6.92074 15.1058 6.80988 14.4406L6.76084 14.1464C6.69795 13.769 6.6665 13.5804 6.5749 13.4369C6.4833 13.2934 6.2954 13.165 5.9196 12.908C4.32675 11.8193 3.3335 10.1655 3.3335 8.0172C3.3335 4.50988 6.13171 1.66663 9.5835 1.66663C10.0116 1.66663 10.4296 1.71036 10.8335 1.79366" stroke="white" stroke-width="1.25" stroke-linecap="round" stroke-linejoin="round"/>
<path d="M13.7502 1.66663L13.9651 2.24748C14.2469 3.00914 14.3878 3.38998 14.6657 3.66778C14.9435 3.9456 15.3243 4.08652 16.086 4.36836L16.6668 4.58329L16.086 4.79823C15.3243 5.08007 14.9435 5.22099 14.6657 5.4988C14.3878 5.77661 14.2469 6.15744 13.9651 6.9191L13.7502 7.49996L13.5352 6.9191C13.2534 6.15744 13.1125 5.77661 12.8347 5.4988C12.5568 5.22099 12.176 5.08007 11.4143 4.79823L10.8335 4.58329L11.4143 4.36836C12.176 4.08652 12.5568 3.9456 12.8347 3.66778C13.1125 3.38998 13.2534 3.00914 13.5352 2.24748L13.7502 1.66663Z" stroke="white" stroke-width="1.25" stroke-linejoin="round"/>
<path d="M11.2498 15.8334V16.6667C11.2498 17.4524 11.2498 17.8452 11.0058 18.0893C10.7617 18.3334 10.3688 18.3334 9.58317 18.3334C8.7975 18.3334 8.40467 18.3334 8.16058 18.0893C7.9165 17.8452 7.9165 17.4524 7.9165 16.6667V15.8334" stroke="white" stroke-width="1.25" stroke-linejoin="round"/>
</svg>
