<svg width="132" height="117" viewBox="0 0 132 117" fill="none" xmlns="http://www.w3.org/2000/svg">
<path d="M90.9194 117L6.14649 111.719L0.00537109 102.508L41.5858 0.00012207L125.768 4.39353L131.105 15.5443L90.9194 117Z" fill="#BBDEFB"/>
<path d="M84.1861 106.901L90.9194 116.999L6.14649 111.718L0.00537109 102.507L84.1861 106.901Z" fill="#90CAF9"/>
<path d="M130.255 13.78L125.761 4.39294L84.1807 106.9L0 102.507L6.14112 111.719L7.5462 111.807L90.914 116.999L130.408 17.2926L131.1 15.5438L130.255 13.78ZM89.9033 115.653L6.65279 110.467L2.21915 103.817L85.0155 108.534L125.712 7.64804L129.557 15.5449L89.9033 115.653Z" fill="#1565C0"/>
<path d="M84.1807 106.901L0 102.507L41.5805 0L125.762 4.39341L84.1807 106.901Z" fill="#1E88E5"/>
<path d="M53.4292 0.618589L41.5805 0L0 102.507L11.8476 103.126L53.4292 0.618589Z" fill="#1565C0"/>
<path d="M59.4584 18.6768L52.5746 35.6491C51.9031 37.3048 53.0644 39.1295 54.8489 39.2215L93.0868 41.1934C94.1929 41.2509 95.2128 40.6013 95.629 39.5745L102.498 22.6413C103.169 20.9867 102.009 19.1632 100.226 19.0689L62.0041 17.0578C60.8968 17.0004 59.8747 17.65 59.4584 18.6768Z" fill="#BBDEFB"/>
<path d="M96.9897 25.613L60.5845 23.602C60.212 23.5813 59.8958 23.8653 59.8751 24.2367C59.8544 24.6081 60.1384 24.9254 60.5098 24.9461L96.9149 26.9572C96.9276 26.9583 96.9402 26.9583 96.9528 26.9583C97.3081 26.9583 97.6048 26.6812 97.6244 26.3225C97.645 25.9511 97.361 25.6337 96.9897 25.613Z" fill="#1565C0"/>
<path d="M94.5502 33.3066L58.145 31.2956C57.7748 31.2783 57.4563 31.5589 57.4356 31.9302C57.4149 32.3016 57.6989 32.619 58.0703 32.6397L94.4755 34.6507C94.4881 34.6518 94.5007 34.6518 94.5134 34.6518C94.8687 34.6518 95.1654 34.3747 95.1849 34.016C95.2056 33.6446 94.9216 33.3273 94.5502 33.3066Z" fill="#1565C0"/>
<path d="M33.4704 19.9987C30.9557 18.9524 28.6918 16.179 29.3023 12.3433C29.5852 10.5634 30.6349 9.02378 32.2573 8.00965C33.4623 7.25653 34.8835 6.85754 36.3667 6.85754C36.8048 6.85754 37.2498 6.89317 37.6878 6.96216C39.6195 7.26916 41.3385 8.22121 42.5262 9.64237C43.7542 11.1095 44.2739 12.8986 43.9911 14.6785C43.9002 15.2557 43.4104 15.6743 42.8275 15.6743C42.7654 15.6743 42.7022 15.6697 42.6389 15.6593C41.9973 15.557 41.557 14.951 41.6593 14.3083C41.8329 13.2125 41.4983 12.0937 40.7153 11.1578C39.8932 10.1747 38.687 9.51359 37.3176 9.29513C37.0014 9.24453 36.6817 9.21925 36.3667 9.21925C35.3261 9.21925 34.3385 9.49289 33.5095 10.0115C32.4746 10.6588 31.8089 11.6189 31.6353 12.7135C31.3375 14.5877 32.1757 16.9436 34.3545 17.8198L33.4704 19.9987Z" fill="#0D47A1"/>
<path d="M26.6353 36.8376C25.3579 36.3144 24.2748 35.4188 23.5044 34.2482C22.5064 32.7317 22.0947 30.8494 22.3752 29.0845C22.6581 27.3046 23.7079 25.765 25.3303 24.7509C26.5353 23.9977 27.9564 23.5988 29.4397 23.5988C29.8777 23.5988 30.3227 23.6344 30.7608 23.7034C32.6925 24.0104 34.4114 24.9624 35.5992 26.3836C36.8272 27.8519 37.3469 29.6398 37.064 31.4197C36.9721 31.9969 36.4822 32.4155 35.8993 32.4155C35.8372 32.4155 35.7751 32.4109 35.7118 32.4005C35.4014 32.3511 35.1278 32.1832 34.9426 31.928C34.7575 31.6727 34.6828 31.3611 34.7322 31.0495C34.907 29.9537 34.5713 28.835 33.7882 27.899C32.9661 26.916 31.76 26.2548 30.3905 26.0363C30.0744 25.9857 29.7547 25.9605 29.4397 25.9605C28.3991 25.9605 27.4114 26.2341 26.5824 26.7527C25.5476 27.4 24.8818 28.359 24.7082 29.4547C24.5197 30.6448 24.799 31.9188 25.4774 32.949C25.9833 33.7182 26.6928 34.3057 27.5275 34.6495L26.6353 36.8376Z" fill="#0D47A1"/>
<path d="M19.8266 53.6293C16.8175 52.4105 14.9364 49.0565 15.4492 45.8267C15.9552 42.6487 18.9309 40.3422 22.5251 40.3422C22.9598 40.3422 23.4001 40.3767 23.8336 40.4456C25.7653 40.7526 27.4843 41.7047 28.672 43.1258C29.8989 44.593 30.4197 46.3821 30.1369 48.162C30.0449 48.7392 29.5551 49.1577 28.9721 49.1577C28.91 49.1577 28.8479 49.1531 28.7847 49.1428C28.4742 49.0933 28.2006 48.9255 28.0155 48.6702C27.8303 48.4149 27.7556 48.1034 27.8051 47.7918C27.9787 46.696 27.6441 45.5772 26.8611 44.6413C26.0389 43.6582 24.8317 42.9971 23.4634 42.7786C23.1506 42.7292 22.8333 42.7039 22.5205 42.7039C20.0968 42.7039 18.1041 44.1733 17.7822 46.1981C17.4878 48.0459 18.4158 50.5122 20.7142 51.4412L19.8266 53.6293Z" fill="#0D47A1"/>
<path d="M13.0285 70.3797C10.0356 69.1586 8.16602 65.8012 8.67999 62.568C9.18475 59.3899 12.1604 57.0834 15.7547 57.0834C16.1893 57.0834 16.6309 57.119 17.0644 57.188C18.996 57.495 20.715 58.447 21.9028 59.8682C23.1307 61.3365 23.6504 63.1245 23.3676 64.9044C23.2756 65.4816 22.7858 65.9001 22.2028 65.9001C22.1407 65.9001 22.0787 65.8955 22.0154 65.8851C21.3727 65.7828 20.9334 65.1769 21.0358 64.5341C21.2094 63.4384 20.8748 62.3196 20.0918 61.3837C19.2697 60.4006 18.0635 59.7394 16.6941 59.521C16.3814 59.4715 16.064 59.4462 15.7524 59.4462C13.3275 59.4462 11.3349 60.9157 11.0129 62.9405C10.7186 64.7928 11.6373 67.2626 13.9185 68.194L13.0285 70.3797Z" fill="#0D47A1"/>
<path d="M6.13429 87.3716C4.83386 86.8288 3.70588 85.8837 2.87112 84.6419C1.78111 83.0172 1.31658 81.0752 1.59714 79.3114C1.87999 77.5315 2.92862 75.9919 4.55215 74.9778C5.75714 74.2247 7.17831 73.8257 8.66156 73.8257C9.09963 73.8257 9.54459 73.8613 9.98267 73.9303C11.9304 74.2396 13.6586 75.2066 14.8486 76.6508C16.0548 78.1133 16.5642 79.8875 16.2848 81.6467C16.1928 82.2239 15.703 82.6424 15.12 82.6424C15.0579 82.6424 14.9958 82.6378 14.9326 82.6274C14.291 82.5251 13.8506 81.9192 13.953 81.2764C14.322 78.9515 12.3754 76.7025 9.61128 76.2633C9.29509 76.2127 8.9743 76.1874 8.6604 76.1874C7.62098 76.1874 6.63328 76.4611 5.80427 76.9796C4.76945 77.627 4.1037 78.587 3.93008 79.6816C3.74496 80.8452 4.08301 82.2066 4.83268 83.3242C5.40529 84.1774 6.16646 84.8213 7.03341 85.1869L6.13429 87.3716Z" fill="#0D47A1"/>
<path d="M78.1682 65.1215C85.8506 65.1215 92.0785 58.8936 92.0785 51.2111C92.0785 43.5287 85.8506 37.3008 78.1682 37.3008C70.4857 37.3008 64.2578 43.5287 64.2578 51.2111C64.2578 58.8936 70.4857 65.1215 78.1682 65.1215Z" fill="white"/>
<path d="M89.8422 55.1005C87.6944 61.5486 80.7242 65.0348 74.275 62.8869C67.8269 60.7391 64.3406 53.769 66.4885 47.3209C67.0542 45.6238 67.9534 44.1313 69.0894 42.893C69.3067 42.655 69.5343 42.4273 69.7689 42.2077C70.0161 41.9777 70.2714 41.7593 70.5358 41.5512C70.8152 41.3304 71.105 41.1223 71.4016 40.928C71.7201 40.7175 72.0501 40.5232 72.387 40.345C72.7572 40.1484 73.1367 39.9702 73.5242 39.8127C73.9645 39.6333 74.4152 39.4781 74.874 39.3504C77.1541 38.7157 79.6411 38.7295 82.0546 39.5344C84.4692 40.3381 86.4675 41.8191 87.9117 43.6944C88.2026 44.0727 88.4705 44.4659 88.7154 44.8741C88.9316 45.234 89.1282 45.6031 89.3064 45.9825C89.4685 46.3275 89.6157 46.6804 89.7445 47.0403C89.8652 47.3749 89.9721 47.7141 90.063 48.0579C90.063 48.0579 90.0641 48.0579 90.063 48.0591C90.1492 48.3833 90.2228 48.7122 90.2826 49.0433C90.3389 49.3595 90.3838 49.678 90.4148 49.9988C90.5827 51.6694 90.4079 53.4033 89.8422 55.1005Z" fill="#FFCC00"/>
<path d="M76.6184 47.4742C77.1644 45.8355 77.1689 44.3612 76.6285 44.1811C76.0881 44.0011 75.2074 45.1835 74.6614 46.8222C74.1155 48.4608 74.1109 49.9351 74.6513 50.1152C75.1917 50.2953 76.0724 49.1128 76.6184 47.4742Z" fill="#1565C0"/>
<path d="M83.4084 49.7354C83.9544 48.0968 83.9589 46.6224 83.4185 46.4424C82.8782 46.2623 81.9975 47.4447 81.4515 49.0834C80.9055 50.722 80.901 52.1964 81.4414 52.3764C81.9818 52.5565 82.8624 51.3741 83.4084 49.7354Z" fill="#1565C0"/>
<path d="M86.9455 54.4105C85.3151 59.3041 80.026 61.9498 75.1324 60.3193C70.2388 58.6889 67.5931 53.3998 69.2235 48.5062" stroke="#1565C0" stroke-width="0.393097" stroke-miterlimit="10"/>
</svg>
