<svg width="24" height="24" viewBox="0 0 24 24" fill="none" xmlns="http://www.w3.org/2000/svg">
<path d="M4.00098 3H3.00098C2.4487 3 2.00098 3.44772 2.00098 4V18L3.50098 21L5.00098 18V4C5.00098 3.44772 4.55326 3 4.00098 3Z" stroke="#131313" stroke-width="1.5" stroke-linejoin="round"/>
<path d="M21.001 12.0013V8.00072C21.001 5.64336 21.001 4.46468 20.2688 3.73234C19.5365 3 18.358 3 16.001 3H13.001C10.644 3 9.46545 3 8.73321 3.73234C8.00098 4.46468 8.00098 5.64336 8.00098 8.00072V16.0019C8.00098 18.3592 8.00098 19.5379 8.73321 20.2703C9.35362 20.8908 10.2944 20.9855 12.001 21" stroke="#131313" stroke-width="1.5" stroke-linecap="round" stroke-linejoin="round"/>
<path d="M12 7.00012H17" stroke="#131313" stroke-width="1.5" stroke-linecap="round" stroke-linejoin="round"/>
<path d="M12 10.9999H17" stroke="#131313" stroke-width="1.5" stroke-linecap="round" stroke-linejoin="round"/>
<path d="M14.001 19C14.001 19 15.501 19.5 16.501 21C16.501 21 18.001 17 22.001 15" stroke="#131313" stroke-width="1.5" stroke-linecap="round" stroke-linejoin="round"/>
<path d="M2.00098 7.00012H5.00098" stroke="#131313" stroke-width="1.5" stroke-linecap="round" stroke-linejoin="round"/>
</svg>
