<svg width="71" height="117" viewBox="0 0 71 117" fill="none" xmlns="http://www.w3.org/2000/svg">
<path d="M25.7257 11.5382C25.7222 12.8377 24.9024 13.7966 23.8655 13.8555C22.7427 13.9194 21.7952 13.1124 21.6405 11.9591C21.4914 10.8497 22.544 9.65312 23.7299 9.63324C24.1388 9.62615 24.5589 9.70776 24.9564 9.81351C25.2559 9.89372 25.5001 10.1137 25.5618 10.448C25.637 10.8554 25.686 11.2678 25.7257 11.5382Z" fill="white"/>
<path d="M23.4777 5.93377C23.4479 6.9054 22.604 7.81175 21.7644 7.77484C20.8651 7.73509 20.2846 7.19569 20.3044 6.41924C20.3343 5.26449 21.1072 4.37377 22.0561 4.40074C22.8105 4.42204 23.5011 5.16583 23.4777 5.93377Z" fill="white"/>
<path d="M27.1713 18.2371C26.2947 18.279 25.8221 17.6977 25.4771 17.1115C25.1492 16.5543 25.5467 15.9865 25.9228 15.5692C26.3735 15.0681 26.9896 15.0213 27.6198 15.2527C28.5304 15.5877 28.8967 16.0022 28.8051 16.6005C28.6582 17.5615 27.974 18.2286 27.1713 18.2371Z" fill="white"/>
<path d="M27.7185 5.72889C28.8037 5.73102 29.4311 6.22997 29.4105 7.07598C29.3921 7.83611 28.6362 8.57494 27.8697 8.58062C27.0258 8.58701 26.4012 7.91134 26.4005 6.9901C26.4005 6.10221 26.7923 5.72747 27.7185 5.72889Z" fill="white"/>
<path d="M24.2522 1.47675C24.26 0.651324 24.9102 -0.0207998 25.6802 0.000492323C26.4673 0.0224942 27.1458 0.675459 27.1359 1.40081C27.126 2.13823 26.3786 2.88914 25.654 2.89694C25.0273 2.90333 24.1131 2.23404 24.2522 1.47675Z" fill="white"/>
<path d="M47.6073 63.6742C47.5165 61.9644 47.2553 60.2419 46.8628 58.574C45.8742 54.373 44.3674 50.4411 41.0735 47.3807C38.6504 45.1294 35.8803 43.519 32.8604 42.2805C32.326 42.0612 32.057 41.8007 32.0577 41.2138C32.0619 38.2968 31.1428 27.3249 31.316 24.7308C31.3692 23.9331 31.0158 23.6307 30.2273 23.6442C30.0491 23.647 29.8703 23.6456 29.6921 23.6478C29.8206 23.8181 29.8724 24.08 29.9072 24.3887C30.2457 27.3859 30.2819 40.2784 30.5083 43.7206C30.5736 44.7107 31.0357 44.9924 31.8135 45.1422C34.1131 45.5851 36.2785 46.3892 37.9741 48.033C41.1878 51.1473 43.6711 54.7144 44.0778 59.3426C44.131 59.9523 44.0132 60.5811 43.7655 61.1716C44.1928 65.6238 43.026 69.7148 40.3694 73.3486C40.4901 73.5665 40.3105 73.7844 40.1856 73.9434C37.4325 77.7135 33.3189 80.7399 28.1059 81.7526C27.8539 81.808 27.5984 81.8555 27.3422 81.9003C27.2414 81.9159 27.1477 81.9435 27.0462 81.9577C27.0178 81.9613 26.9909 81.9634 26.9625 81.967C26.2733 82.0713 25.57 82.133 24.8545 82.1536C24.8027 82.1558 24.7509 82.1593 24.6991 82.1614C24.6651 82.1622 24.6317 82.1622 24.5976 82.1622C19.3484 82.3233 14.5861 80.556 10.6108 76.0179C10.2936 75.6602 10.0898 75.382 9.97984 75.1457C9.60439 74.6467 9.23958 74.1329 8.89962 73.58C6.8357 70.2236 5.8733 66.5884 5.98828 62.6578C5.76116 60.7408 6.21255 58.8827 7.09333 57.1978C7.75197 55.5384 8.64057 53.7378 9.3858 52.7854C12.0821 49.3417 15.5293 46.8889 19.5904 45.3026C20.2462 45.0464 20.2838 44.5978 20.2824 44.0364C20.2739 41.1116 20.6834 28.2852 20.523 24.7904C20.4833 23.9175 20.8757 23.6691 21.6998 23.6463C21.7175 23.6456 21.7345 23.6463 21.7523 23.6456C20.9929 23.6456 20.2334 23.6499 19.474 23.6428C18.8998 23.6371 18.5336 23.7436 18.5365 24.4405C18.5542 29.3846 18.4704 34.3307 18.5847 39.2719C18.6443 41.8533 18.4307 42.5531 16.0637 43.6936C11.7982 45.7476 8.5476 48.9194 5.90595 52.7804C3.36579 56.493 2.61914 60.8381 2.62553 65.0844C2.63121 69.1484 3.83777 73.1428 6.87545 76.3302C8.61005 78.15 10.2112 80.1046 12.4398 81.3126C17.4804 84.0458 22.7821 85.3205 28.5615 84.1934C36.243 82.6959 42.4589 79.2416 45.7592 71.7631C46.8891 69.2023 47.7585 66.5209 47.6073 63.6742Z" fill="#1D598B"/>
<path d="M27.0729 23.66C26.3533 23.6579 25.6329 23.6544 24.9132 23.6544C24.9132 23.6529 24.9132 23.6508 24.9132 23.6494C24.4852 23.6494 24.0572 23.6473 23.6293 23.648C24.7769 23.6707 25.9253 23.7083 27.0729 23.66Z" fill="#FFEBCF"/>
<path d="M20.5243 24.7904C20.6847 28.2852 20.2752 41.1109 20.2837 44.0364C20.2851 44.5985 20.2475 45.0471 19.5917 45.3026C15.5306 46.8889 12.0834 49.3417 9.38707 52.7854C8.64113 53.7378 7.75324 55.5392 7.0946 57.1978C9.31538 52.9515 14.3566 49.8392 18.806 49.9074C20.718 49.9365 22.574 50.1636 24.3959 50.7243C26.5954 51.4014 28.7253 51.2871 30.9141 50.488C33.2655 49.6292 35.7021 48.8236 38.1272 50.4092C40.3828 51.884 41.9293 53.8975 42.7668 56.4505C43.2962 58.0651 43.6206 59.6386 43.7682 61.1716C44.0159 60.5811 44.1337 59.9523 44.0805 59.3427C43.6745 54.7137 41.1912 51.1473 37.9768 48.033C36.2805 46.3892 34.1158 45.5851 31.8162 45.1422C31.0384 44.9924 30.5763 44.7114 30.511 43.7206C30.2846 40.2784 30.2484 27.3867 29.9099 24.3887C29.8751 24.08 29.8226 23.8174 29.6948 23.6478C29.5784 23.493 29.3996 23.4135 29.0958 23.4639C28.423 23.5754 27.7487 23.6314 27.0745 23.6598C25.9275 23.7081 24.7792 23.6705 23.6308 23.6478C23.0048 23.6357 22.3788 23.6293 21.7543 23.6456C21.7365 23.6463 21.7195 23.6456 21.7017 23.6463C20.8777 23.6698 20.4845 23.9175 20.5243 24.7904Z" fill="#1C71B9"/>
<path d="M24.7011 82.1621C24.667 82.1635 24.6337 82.1621 24.5996 82.1628C24.633 82.1621 24.667 82.1621 24.7011 82.1621Z" fill="#62C33B"/>
<path d="M26.9627 81.9677C26.2522 82.062 25.5489 82.1245 24.8547 82.1543C25.5702 82.1337 26.2735 82.072 26.9627 81.9677Z" fill="#62C33B"/>
<path d="M28.1052 81.7542C27.8512 81.8038 27.6013 81.862 27.3416 81.9018C27.5978 81.8571 27.8526 81.8095 28.1052 81.7542Z" fill="#62C33B"/>
<path d="M38.1261 50.4099C35.701 48.8243 33.2644 49.6306 30.9131 50.4887C28.7242 51.2878 26.5943 51.4021 24.3948 50.725C22.5729 50.1643 20.717 49.9372 18.8049 49.9081C14.3556 49.84 9.31502 52.9522 7.09354 57.1985C6.21204 58.8834 5.76135 60.7415 5.98847 62.6585C5.8742 66.5884 6.8359 70.2237 8.89982 73.5807C9.23979 74.1336 9.60459 74.6474 9.98005 75.1464C9.71318 74.5736 10.0524 74.2692 11.0993 73.8682C13.171 73.0747 15.1746 73.1648 17.1775 74.1272C21.355 76.1329 25.7448 76.1251 30.2182 75.5084C32.8336 75.1478 40.1702 73.0846 40.3434 73.289C40.3604 73.3096 40.359 73.3295 40.371 73.35C43.0269 69.7162 44.1944 65.6253 43.7672 61.1731C43.6202 59.64 43.2959 58.0665 42.7657 56.4519C41.9282 53.899 40.381 51.8847 38.1261 50.4099Z" fill="white"/>
<path d="M30.2172 75.5076C25.7445 76.1244 21.354 76.1329 17.1765 74.1264C15.1736 73.1647 13.17 73.0739 11.0983 73.8674C10.0514 74.2684 9.71217 74.5729 9.97903 75.1456C10.0898 75.3827 10.2927 75.6609 10.61 76.0179C14.5852 80.556 19.3476 82.3232 24.5968 82.1621C24.6309 82.1614 24.6642 82.1621 24.6983 82.1614C24.7501 82.1593 24.8019 82.1557 24.8537 82.1536C25.5486 82.1238 26.2512 82.062 26.9617 81.9669C26.9901 81.9634 27.017 81.9612 27.0454 81.9577C27.1469 81.9435 27.2406 81.9158 27.3414 81.9002C27.6011 81.8605 27.8503 81.8023 28.1051 81.7526C33.3174 80.7391 37.4317 77.7135 40.1848 73.9433C40.3097 73.7844 40.49 73.5665 40.3686 73.3486C40.3573 73.328 40.3587 73.3081 40.3409 73.2875C40.1692 73.0839 32.8319 75.1471 30.2172 75.5076Z" fill="#3685C7"/>
<path d="M64.0188 11.6426C63.9798 8.98605 65.3361 8.58648 67.3425 8.8796C67.9848 8.97328 68.6257 9.11665 69.2609 9.24724C70.1666 9.43319 70.684 10.1195 70.5115 11.0656C70.3908 11.7264 70.3887 12.3751 70.3887 13.0301C70.3831 30.176 70.2674 93.5486 70.1439 108.089C70.1261 110.145 68.8529 111.318 67.295 112.241C65.5511 113.274 63.6448 113.861 61.6164 114.166C58.8228 114.586 56.1315 115.516 53.3174 115.912C51.0774 116.228 48.8219 116.25 46.5834 116.533C43.567 116.914 40.5165 116.826 37.4845 116.973C34.63 117.111 31.7527 116.686 28.8825 116.602C26.6213 116.535 24.3835 116.264 22.1357 116.076C19.0562 115.817 16.059 115.142 13.0589 114.474C12.308 114.306 11.7473 113.847 11.5769 112.999C11.2065 111.151 10.7437 109.32 10.4116 107.465C9.94028 104.833 11.6337 102.801 13.4819 101.858C16.7935 100.17 20.3472 99.4018 23.9676 98.856C29.0131 98.0952 34.087 97.8304 39.1943 97.8113C44.1192 97.7928 49.0128 97.9773 53.9072 98.5366C56.9619 98.8858 60.0301 99.1214 63.0578 99.675C63.6774 99.7886 63.7874 99.5253 63.7981 99.0412C63.8045 98.7531 63.8045 98.4642 63.8045 98.1761C63.8045 86.4711 63.8052 74.7661 63.8038 63.0603C63.8038 61.4052 63.7981 61.3477 62.1991 61.413C59.6426 61.5181 57.0996 61.2931 54.5608 61.1178C52.5331 60.978 50.8007 61.5387 49.0724 62.4975C43.9432 65.3421 38.5207 67.3933 32.7577 68.5927C27.9499 69.5935 23.1152 70.3749 18.2151 70.0122C12.6813 69.6027 7.32064 68.3685 2.6385 65.1555C0.974868 64.0142 -0.118841 62.4535 0.0103316 60.2973C0.100468 58.7905 2.63068 56.4924 4.07997 56.5279C4.75422 56.5442 4.39651 56.9417 4.37664 57.1979C4.27373 58.4967 3.8997 59.7742 4.34328 61.0993C4.72725 62.2456 5.32698 63.0994 6.42778 63.6977C9.36184 65.2924 12.533 65.8539 15.8013 65.9369C24.0307 66.1456 32.104 65.1342 39.9729 62.6572C42.1418 61.9744 44.1596 60.9964 46.0397 59.7019C46.6153 59.3051 46.6636 58.936 46.4649 58.3761C46.2314 57.7181 45.9645 57.0645 45.8147 56.3867C45.5876 55.3519 46.3023 54.4377 47.2754 54.6251C48.22 54.8075 49.2712 54.9842 49.9781 55.6677C50.5934 56.2624 51.2087 56.3256 51.971 56.3192C55.3501 56.2894 58.7299 56.31 62.1096 56.3008C63.1913 56.2979 63.874 56.1162 63.9486 54.6577C64.0792 52.1034 64.0181 49.5554 64.0387 47.006C64.0806 42.0592 64.1182 18.4824 64.0188 11.6426Z" fill="#3685C7"/>
<path d="M24.2633 41.5908C24.2817 42.3673 23.5734 43.0962 22.792 43.104C22.0162 43.1118 21.3477 42.4382 21.3001 41.6015C21.254 40.7973 21.8793 40.2892 22.9375 40.2721C23.5826 40.2608 24.2477 40.9222 24.2633 41.5908Z" fill="white"/>
<path d="M26.4463 34.5975C26.4527 35.6642 25.4129 36.5975 24.2078 36.6061C22.9303 36.6153 22.0545 35.7764 22.08 34.5684C22.1056 33.3753 23.0985 32.5073 24.4108 32.5307C25.5123 32.5499 26.4392 33.4917 26.4463 34.5975Z" fill="white"/>
<path d="M30.7457 46.2665C30.7322 47.3006 29.9295 48.2275 29.065 48.2076C28.1566 48.1871 27.5071 47.4546 27.5249 46.473C27.5455 45.3637 28.3354 44.3587 29.1942 44.3523C30.0118 44.3452 30.7585 45.2665 30.7457 46.2665Z" fill="white"/>
<path d="M22.8036 27.6265C22.7866 26.9785 23.1678 26.4192 24.1756 26.4533C25.1351 26.4859 25.8435 27.1779 25.776 28.0984C25.7093 29.0112 25.2806 29.6975 24.2565 29.657C23.1826 29.6151 22.8036 28.9011 22.8036 27.6265Z" fill="white"/>
<path d="M29.4928 40.0969C29.4019 40.62 29.0733 41.0409 28.4104 41.0096C27.6836 40.9756 27.2827 40.5256 27.2805 39.8038C27.2784 39.1615 27.6191 38.7484 28.2905 38.7193C28.9292 38.6909 29.507 39.324 29.4928 40.0969Z" fill="white"/>
<path d="M30.5666 109.633C25.6687 109.695 20.817 109.223 15.9943 108.396C14.9978 108.225 14.2618 107.823 14.352 106.648C14.4449 105.433 15.2831 105.174 16.2761 105.274C18.8027 105.528 21.3237 105.837 23.8475 106.12C24.3358 106.174 24.8263 106.244 25.316 106.245C28.4481 106.257 31.5809 106.265 34.7129 106.247C37.7925 106.23 40.8508 105.902 43.9069 105.555C44.5989 105.477 45.3108 105.476 46.0049 105.538C46.8516 105.614 47.342 106.138 47.3761 107C47.4123 107.921 46.9375 108.52 46.0333 108.616C42.936 108.944 39.8415 109.276 36.7236 109.43C34.6711 109.532 32.6213 109.616 30.5666 109.633Z" fill="white"/>
<path d="M25.3654 47.7825C25.3136 48.4759 24.8473 49.0919 24.1425 49.5C21.6414 50.9486 19.8472 53.0154 18.6094 55.6109C17.7896 57.3292 16.8272 57.865 15.7094 57.3284C14.5192 56.7571 14.3957 55.6308 15.1601 53.9104C16.6647 50.5249 19.0594 47.9571 22.2198 46.099C23.7153 45.2196 25.3832 46.0741 25.3654 47.7825Z" fill="#EAF5FF"/>
<path d="M51.2446 108.653C50.4596 108.711 49.5895 108.43 49.5022 107.294C49.4191 106.221 50.18 105.717 51.1601 105.504C51.999 105.322 52.8238 105.065 53.6691 104.928C54.5058 104.791 55.2681 105.024 55.4995 105.94C55.733 106.868 55.4973 107.716 54.4718 108.014C53.4938 108.298 52.5164 108.642 51.2446 108.653Z" fill="white"/>
<path d="M14.8138 59.0317C15.8728 59.053 16.7422 59.9842 16.7046 61.0587C16.6691 62.085 15.711 62.9204 14.6144 62.8806C13.6286 62.8451 12.8472 61.9658 12.8585 60.904C12.8706 59.728 13.6229 59.0076 14.8138 59.0317Z" fill="#EAF5FF"/>
</svg>
