<svg width="60" height="60" viewBox="0 0 60 60" fill="none" xmlns="http://www.w3.org/2000/svg">
<g clip-path="url(#clip0_52_1742)">
<path d="M30 2.5C45.1878 2.5 57.5 14.8122 57.5 30C57.5 45.1878 45.1878 57.5 30 57.5C14.8122 57.5 2.5 45.1878 2.5 30C2.5 14.8122 14.8122 2.5 30 2.5Z" stroke="#FCF6C2" stroke-width="5"/>
<path d="M30 14.7273C38.4212 14.7273 45.2727 21.5787 45.2727 30C45.2727 38.4213 38.4212 45.2727 30 45.2727C21.5787 45.2727 14.7272 38.4213 14.7272 30C14.7272 21.5787 21.5787 14.7273 30 14.7273ZM30 12.5455C20.3601 12.5455 12.5454 20.3602 12.5454 30C12.5454 39.6398 20.3601 47.4546 30 47.4546C39.6398 47.4546 47.4545 39.6398 47.4545 30C47.4545 20.3602 39.6398 12.5455 30 12.5455Z" fill="#FBEC9A"/>
<path d="M29.9998 45.2728C21.5785 45.2728 14.7271 38.4213 14.7271 30C14.7271 21.5787 21.5785 14.7273 29.9998 14.7273C38.4211 14.7273 45.2725 21.5787 45.2725 30C45.2725 38.4213 38.4211 45.2728 29.9998 45.2728Z" fill="#FACB1B"/>
<path d="M29.9998 14.7273C21.5785 14.7273 14.7271 21.5787 14.7271 30C14.7271 34.3342 16.5451 38.2495 19.4545 41.0318L41.0316 19.4547C38.2492 16.5447 34.334 14.7273 29.9998 14.7273Z" fill="#FBE158"/>
<path d="M14.7272 30C14.7272 21.5787 21.5787 14.7273 30 14.7273C34.3227 14.7273 38.2287 16.5355 41.01 19.4318L42.558 17.8838C39.3834 14.5947 34.932 12.5455 30 12.5455C20.3601 12.5455 12.5454 20.3602 12.5454 30C12.5454 34.932 14.5947 39.3835 17.8838 42.5575L19.4318 41.0095C16.5354 38.2287 14.7272 34.3227 14.7272 30Z" fill="#FCF6C2"/>
<path d="M37.842 36.4151C36.4281 38.2478 34.6734 39.4789 31.9767 39.4789C28.1012 39.4789 25.3783 36.9911 24.3834 33.2732H22.9696C22.8214 33.2743 22.6746 33.246 22.5375 33.1898C22.4004 33.1336 22.2759 33.0507 22.1711 32.9459C22.0663 32.8412 21.9835 32.7166 21.9273 32.5795C21.8711 32.4425 21.8427 32.2956 21.8438 32.1474C21.8438 31.5452 22.3412 31.0216 22.9696 31.0216H23.9907C23.9645 30.7074 23.9645 30.3671 23.9645 30.0267C23.9645 29.634 23.9645 29.2151 24.0169 28.8223H22.9696C22.3412 28.8223 21.8438 28.3249 21.8438 27.7222C21.8438 27.0938 22.3412 26.5963 22.9696 26.5963H24.4358C25.4569 23.0618 28.1541 20.5216 31.872 20.5216C34.6472 20.5216 36.3234 21.6212 37.6849 23.1922C37.8943 23.4016 38.1038 23.7943 38.1038 24.2656C38.1038 25.1034 37.3969 25.7842 36.5591 25.7842C36.0092 25.7842 35.6427 25.5223 35.4332 25.2605C34.4383 24.0562 33.4172 23.4016 31.7934 23.4016C29.9083 23.4016 28.4945 24.6322 27.7609 26.5958H32.4218C33.024 26.5958 33.5214 27.0932 33.5214 27.7216C33.5197 28.0128 33.4033 28.2915 33.1975 28.4975C32.9916 28.7034 32.7129 28.8199 32.4218 28.8218H27.2634C27.2111 29.1883 27.2111 29.5811 27.2111 29.9738C27.2111 30.3403 27.2111 30.6807 27.2372 31.0211H32.4218C33.024 31.0211 33.5214 31.5447 33.5214 32.1469C33.5214 32.7752 33.024 33.2727 32.4218 33.2727H27.7091C28.4421 35.3672 29.9345 36.5978 32.0034 36.5978C33.5743 36.5978 34.5954 35.8385 35.5903 34.608C35.8521 34.2938 36.2187 34.0843 36.7161 34.0843C37.5016 34.0843 38.1561 34.7127 38.1561 35.4982C38.1561 35.8914 37.9991 36.2318 37.842 36.4151Z" fill="#8E6134"/>
</g>
<defs>
<clipPath id="clip0_52_1742">
<rect width="60" height="60" fill="white"/>
</clipPath>
</defs>
</svg>
