<svg width="103" height="37" viewBox="0 0 103 37" fill="none" xmlns="http://www.w3.org/2000/svg">
<path fill-rule="evenodd" clip-rule="evenodd" d="M5.3644 1.58687L5.35141 1.61287L5.3544 1.60687L5.34241 1.63588L5.34441 1.62988L5.3324 1.66087L5.3344 1.65688L5.32341 1.68787L5.31241 1.72087L5.3134 1.71787L5.30341 1.75387L5.2924 1.79187L5.2934 1.78988L5.2834 1.83088L5.27341 1.87288L5.2644 1.91587L5.2614 1.93387L5.25841 2.01487L5.2574 2.12087L5.26041 2.23487L5.2674 2.35587L5.2784 2.48487L5.2934 2.61987L5.31241 2.76088L5.3354 2.90788L5.3624 3.06087L5.39441 3.21787L5.4314 3.37988L5.4334 3.38887L5.4254 3.54187L5.4174 3.70787L5.40941 3.87687L5.4024 4.04987L5.39641 4.22487L5.38541 4.58187L5.3774 4.94487L5.3714 5.25687L5.37041 5.31187L5.3614 5.67687L5.35341 6.03988L5.3474 6.39587L5.34241 6.74287L5.3334 7.39687L5.3264 7.97487L5.3224 8.22987L5.31841 8.40287L5.3174 8.45787L5.31041 8.65788L5.3024 8.82487L5.2684 9.41388L5.23241 9.99987L5.19341 10.5859L5.1534 11.1709L5.1104 11.7549L5.10541 11.8219L5.0614 12.3399L5.0114 12.9219L4.9604 13.5049L4.90741 14.0869L4.8744 14.4459L4.85141 14.6689L4.72641 15.8289L4.6004 16.9889L4.4754 18.1469L4.4144 18.7239L4.3544 19.3019L4.2964 19.8789L4.2394 20.4559L4.1834 21.0329L4.1304 21.6099L4.07941 22.1869L4.0304 22.7629L4.0004 23.1309L3.9834 23.3409L3.9604 23.6289L3.9384 23.9169L3.9174 24.2049L3.8974 24.4929L3.8774 24.7809L3.8584 25.0699L3.84041 25.3579L3.82341 25.6459L3.8074 25.9339L3.7914 26.2219L3.7764 26.5109L3.7634 26.7989L3.7504 27.0869L3.7384 27.3749L3.72641 27.7139L3.7164 28.0529L3.7074 28.3909L3.70041 28.7289L3.68541 29.4059L3.67641 29.7459L3.6664 30.0869L3.6544 30.4289L3.6404 30.7719L3.63141 30.9459L3.62241 31.1189L3.6114 31.2919L3.6004 31.4669L3.5874 31.6419L3.57341 31.8169L3.5584 31.9929L3.5424 32.1699L3.52541 32.3469L3.5074 32.5249L3.4874 32.7039L3.46541 32.8839L3.42241 33.2089L3.36641 33.6229L3.3024 34.0869L3.2784 34.2699L3.3614 34.2529L3.4554 34.2359L3.54941 34.2209L3.64441 34.2059L3.7384 34.1929L3.8334 34.1819L3.92841 34.1709L4.02341 34.1609L4.11841 34.1519L4.21341 34.1449L4.3084 34.1379L4.4034 34.1319L4.4994 34.1269L4.6864 34.1189L4.8744 34.1129L5.0594 34.1099L5.24341 34.1079H5.42441L5.60141 34.1089L5.7764 34.1099L6.1114 34.1139L6.42841 34.1179H6.57541H6.7164L6.8494 34.1159L6.9734 34.1119L7.09041 34.1069L7.1404 34.1029L7.1944 34.0989L7.5164 34.0729L7.8414 34.0479L8.1674 34.0239L8.49141 34.0019L8.81641 33.9799L9.1414 33.9589L9.7894 33.9189L10.4374 33.8809L11.0834 33.8429L11.7294 33.8059L12.3734 33.7669L13.0174 33.7269L13.3384 33.7049L13.6594 33.6829L13.9804 33.6599L14.3004 33.6359L14.6204 33.6109L14.9404 33.5839L15.2604 33.5559L15.5794 33.5259L15.8984 33.4949L16.2164 33.4609L16.5344 33.4259L16.8524 33.3889L17.1694 33.3499L17.4974 33.3069L17.5854 33.2969L17.6934 33.2889L17.8154 33.2799L17.9534 33.2729L18.2724 33.2559L18.6464 33.2379L19.0624 33.2179L19.2824 33.2059L19.5084 33.1929L19.7384 33.1789L19.9704 33.1639L20.2034 33.1469L20.2634 33.1419L20.4374 33.1399L20.6694 33.1349L20.8974 33.1279L21.1214 33.1179L21.2284 33.1129L21.3354 33.1059L21.4394 33.0989L21.5414 33.0919L21.6394 33.0839L21.7354 33.0749L21.8274 33.0659L21.9154 33.0559L22.0004 33.0449L22.0794 33.0339L22.1554 33.0219L22.2264 33.0099L22.2654 33.0029L22.2944 33.0099L22.3634 33.0269L22.4264 33.0409L22.4924 33.0489L22.4734 33.0559L22.5334 33.0619L22.5874 33.0649L22.5704 33.0729L22.6014 33.0709L22.5884 33.0769L22.6174 33.0739L22.6044 33.0809L22.6324 33.0769L22.6184 33.0849L22.6444 33.0799L22.6294 33.0899L22.6544 33.0839L22.6394 33.0949L22.6634 33.0879L22.6474 33.1009L22.6694 33.0939L22.6524 33.1079L22.6734 33.0999L22.6564 33.1169L22.6754 33.1079L22.6574 33.1279L22.6754 33.1179L22.6574 33.1399L22.6734 33.1299L22.6554 33.1559L22.6704 33.1439L22.6544 33.1739L22.6684 33.1619L22.6524 33.1949L22.6644 33.1809L22.6524 33.2169L22.6624 33.2029L22.6534 33.2419L22.6614 33.2269L23.0894 32.9249L23.0904 32.9239L23.3844 33.3569V33.3929L23.3744 33.4479L23.3594 33.4999L23.3414 33.5489L23.3194 33.5959L23.2964 33.6389L23.2714 33.6789L23.2444 33.7169L23.2174 33.7529L23.1884 33.7869L23.1594 33.8189L23.1304 33.8509L23.0994 33.8809L23.0684 33.9109L23.0374 33.9399L23.0024 33.9699L22.9394 34.0259L22.8694 34.0829L22.7974 34.1409L22.7214 34.1999L22.6424 34.2599L22.6104 34.2839L22.5564 34.3019L22.4634 34.3299L22.3674 34.3569L22.2694 34.3839L22.1694 34.4089L22.0664 34.4339L21.9604 34.4579L21.8534 34.4819L21.7444 34.5049L21.6334 34.5269L21.5204 34.5489L21.4064 34.5709L21.2894 34.5919L21.0544 34.6319L20.8154 34.6709L20.5724 34.7079L20.3924 34.7349L20.3294 34.7399L20.0854 34.7589L19.8444 34.7759L19.6084 34.7919L19.3764 34.8059L19.1514 34.8189L18.7304 34.8419L18.3574 34.8619L18.0454 34.8789L17.9204 34.8869L17.8164 34.8939L17.7424 34.9009L17.6924 34.9059L17.3754 34.9489L17.0484 34.9919L16.7204 35.0309L16.3934 35.0689L16.0664 35.1049L15.7404 35.1389L15.4134 35.1709L15.0874 35.2009L14.7614 35.2299L14.4364 35.2569L14.1104 35.2839L13.7854 35.3089L13.4604 35.3329L13.1354 35.3559L12.4864 35.3999L11.8384 35.4419L11.1914 35.4819L10.5464 35.5229L9.9014 35.5639L9.25841 35.6069L8.93741 35.6289L8.61641 35.6519L8.29541 35.6759L7.9754 35.7009L7.6554 35.7269L7.3334 35.7549L7.2654 35.7599L7.1904 35.7649L7.0464 35.7729L6.89641 35.7779L6.74341 35.7809L6.5874 35.7819L6.4274 35.7829L6.10341 35.7809L5.7684 35.7779H5.6004H5.4314L5.26241 35.7789L5.09441 35.7809L4.9254 35.7849L4.75841 35.7909L4.5914 35.7989L4.5114 35.8039L4.4314 35.8089L4.35141 35.8149L4.27341 35.8219L4.1954 35.8299L4.1194 35.8379L4.0424 35.8469L3.96741 35.8559L3.89441 35.8669L3.8214 35.8779L3.7514 35.8899L3.6824 35.9029L3.6144 35.9169L3.54941 35.9309L3.4854 35.9459L3.42441 35.9619L3.3644 35.9789L3.3074 35.9969L3.2524 36.0149L3.1994 36.0329L3.1494 36.0529L3.10141 36.0729L3.0554 36.0929L3.0114 36.1139L2.9704 36.1349L2.9344 36.1549L2.89641 36.1779L2.86641 36.1979L2.8334 36.2209L2.7914 36.2529L2.7034 36.3119L2.60741 36.3589L2.6064 36.3599L2.46941 36.4039L2.32741 36.4239L2.1844 36.4189L2.0434 36.3889L1.90941 36.3359H1.9084L1.8024 36.2729L1.7074 36.1949L1.6244 36.1049L1.5554 36.0029L1.5024 35.8929L1.5014 35.8899L1.46341 35.7659L1.4454 35.6389L1.44141 35.5819L1.4444 35.4999L1.44841 35.4349L1.4604 35.3129L1.47641 35.1629L1.4964 34.9879L1.52141 34.7899L1.56041 34.4889L1.5784 34.3479L1.6424 33.8729L1.7054 33.4089L1.76041 32.9989L1.80141 32.6859L1.8214 32.5209L1.8394 32.3559L1.8564 32.1909L1.87241 32.0269L1.88741 31.8619L1.9014 31.6979L1.9144 31.5329L1.9254 31.3689L1.9364 31.2049L1.9454 31.0399L1.95441 30.8749L1.9624 30.7119L1.97641 30.3799L1.9874 30.0489L1.9964 29.7159L2.00441 29.3819L2.0184 28.7069L2.02541 28.3659L2.03441 28.0229L2.0434 27.6759L2.0554 27.3269L2.0674 27.0319L2.0804 26.7369L2.09441 26.4429L2.10941 26.1489L2.1244 25.8549L2.1404 25.5609L2.15741 25.2679L2.1754 24.9739L2.1944 24.6809L2.21341 24.3879L2.23441 24.0949L2.2554 23.8029L2.2774 23.5099L2.3004 23.2169L2.3174 23.0039L2.3494 22.6329L2.4014 22.0489L2.4554 21.4659L2.51241 20.8839L2.5714 20.3019L2.63141 19.7209L2.69341 19.1399L2.75641 18.5589L2.8204 17.9789L2.95041 16.8189L3.08141 15.6599L3.2114 14.5019L3.2354 14.2789L3.2814 13.9229L3.35341 13.3459L3.42441 12.7689L3.49341 12.1919L3.55341 11.6799L3.56241 11.6139L3.6344 11.0369L3.7034 10.4599L3.7704 9.88387L3.8354 9.30687L3.89641 8.73187L3.91141 8.58187L3.92641 8.39687L3.9304 8.34287L3.9444 8.17687L3.96341 7.92788L4.0054 7.35287L4.0524 6.70087L4.07741 6.35188L4.1044 5.99387L4.1324 5.62787L4.1624 5.25887L4.1674 5.20387L4.1974 4.88887L4.2354 4.52087L4.2744 4.15788L4.2934 3.97887L4.3134 3.80288L4.3344 3.62887L4.35541 3.45887L4.3754 3.30087L4.3784 3.29287L4.4474 3.13487L4.51241 2.98087L4.5744 2.83187L4.6324 2.68787L4.6884 2.54987L4.7404 2.41787L4.79041 2.29187L4.8374 2.17188L4.88341 2.05988L4.9274 1.95487L4.9614 1.87487L4.96741 1.85587L4.9814 1.80787L4.9964 1.76188L5.0114 1.71787L5.0264 1.67587L5.0424 1.63588L5.0574 1.59787L5.0724 1.56187L5.08841 1.52687L5.10541 1.49487L5.12241 1.46387L5.1414 1.43488L5.16141 1.40788L5.1834 1.38187L5.2084 1.35787L5.2364 1.33687L5.26941 1.31787L5.3024 1.30587L5.3244 1.30087L5.34441 1.29787L5.3644 1.29688L5.3844 1.29787L5.4044 1.30087L5.42641 1.30687L5.4594 1.31987L5.49141 1.33887L5.51941 1.36087L5.5444 1.38487L5.5674 1.41187L5.5894 1.44188L5.60941 1.47387L5.6284 1.50787L5.6474 1.54588L5.6664 1.58587L5.6844 1.62887L5.70241 1.67587L5.7204 1.72487L5.7384 1.77887L5.75641 1.83487L5.7744 1.89487L5.7074 2.03288L5.5694 1.96587L5.5484 1.90887L5.5274 1.85787L5.5074 1.81087L5.4874 1.76687L5.4684 1.72587L5.46941 1.72987L5.45041 1.69287L5.4314 1.65887L5.4344 1.66287L5.41541 1.63187L5.4184 1.63588L5.3994 1.60787L5.4034 1.61387L5.3844 1.58887L5.3894 1.59488L5.3744 1.57787L5.3654 1.59087L5.3714 1.58387L5.35741 1.60687L5.3644 1.58687Z" fill="#A168BE"/>
<path fill-rule="evenodd" clip-rule="evenodd" d="M1.04947 15.6279L1.10547 15.6309L1.16048 15.6349L1.21547 15.6389L1.26848 15.6439L1.32048 15.6499L1.37148 15.6559L1.42047 15.6619L1.46648 15.6689L1.51147 15.6759L1.55347 15.6839L1.59148 15.6919L1.68648 15.8119L1.56647 15.9069L1.52948 15.9049H1.49048H1.49248L1.45047 15.9059L1.40648 15.9069L1.36047 15.9089L1.31348 15.9119L1.26547 15.9159L1.21648 15.9209L1.16647 15.9269L1.11647 15.9339L1.06548 15.9409L1.01648 15.9499L0.967468 15.9589L0.920471 15.9689L0.874466 15.9799L0.857468 15.9849L0.86348 15.9859L0.897476 15.9899L0.888474 15.9829L0.92247 15.9859L0.957474 15.9869L0.948471 15.9809H0.984467L1.02048 15.9789L1.01047 15.9739L1.04747 15.9709L1.08548 15.9669L1.07547 15.9609L1.08647 15.9599L1.10747 15.9669L1.13847 15.9759L1.12848 15.9709L1.16048 15.9789L1.19347 15.9879L1.18347 15.9829L1.21747 15.9909L1.25148 15.9979L1.23747 15.9929L1.30847 16.0049L1.37347 16.0129L1.41147 16.0159L1.43947 16.0239L1.50847 16.0379L1.57947 16.0519L1.65448 16.0639L1.73148 16.0759L1.81047 16.0849L1.89247 16.0939L1.97748 16.1009L2.06447 16.1069L2.15347 16.1119L2.24448 16.1149L2.33647 16.1169L2.43047 16.1179H2.52647L2.62347 16.1169L2.72147 16.1149L2.82048 16.1119L2.92047 16.1079L3.02147 16.1029L3.12247 16.0969L3.22447 16.0899L3.32547 16.0829L3.52948 16.0659L3.73247 16.0469L3.93448 16.0249L4.09247 16.0079L4.13547 16.0029L4.33247 15.9809L4.52547 15.9589L4.71347 15.9369L5.07147 15.8929L5.24048 15.8729L5.40147 15.8549L5.55447 15.8389L5.69847 15.8259L5.83347 15.8159L5.90247 15.8129L5.96547 15.8109L6.05847 15.8079L6.15848 15.8069L6.35248 15.8059H6.55048L6.74947 15.8079L6.95148 15.8109L7.15547 15.8149L7.36247 15.8199L7.57248 15.8259L7.91147 15.8379L7.99648 15.8419L8.42947 15.8669L9.31447 15.9199L9.76447 15.9469L9.89148 15.9539L10.2195 15.9749L10.4475 15.9899L10.6765 16.0029L10.9065 16.0159L11.1365 16.0279L11.3665 16.0389L11.5965 16.0489L11.8265 16.0579L12.0095 16.0629L12.0555 16.0649L12.2855 16.0729L12.5145 16.0799L12.7425 16.0849L12.9705 16.0879L13.1975 16.0889L13.4235 16.0879L13.6485 16.0849L13.8715 16.0799L14.0935 16.0729L14.3135 16.0629L14.5335 16.0499L14.6405 16.0429L14.7475 16.0349L14.8555 16.0269L14.9625 16.0179L15.0695 16.0079L15.1755 15.9969L15.2815 15.9859L15.3865 15.9729L15.4735 15.9629L15.4905 15.9619L15.5945 15.9529L15.6995 15.9439L15.8025 15.9349L15.9055 15.9239L16.0075 15.9119L16.1095 15.8999L16.2105 15.8869L16.3105 15.8729L16.4095 15.8579L16.5085 15.8419L16.6065 15.8249L16.6375 15.8189L16.7045 15.8079L16.8015 15.7909L16.8975 15.7719L16.9935 15.7529L17.0875 15.7329L17.1815 15.7109L17.2745 15.6889L17.3675 15.6659L17.4585 15.6409L17.5495 15.6159L17.6395 15.5889L17.6915 15.5729L17.7295 15.5649L17.8215 15.5459L17.9135 15.5249L18.0035 15.5029L18.0935 15.4789L18.1835 15.4539L18.2715 15.4279L18.3595 15.3999L18.4465 15.3699L18.5325 15.3389L18.6185 15.3059L18.7025 15.2719L18.7795 15.2399L18.7875 15.2379L18.8845 15.2209L18.9805 15.2009L19.0745 15.1769L19.1685 15.1499L19.2615 15.1209L19.3555 15.0859L19.8225 15.1229L19.7425 15.5839L19.6815 15.6699L19.6155 15.7579L19.5495 15.8459L19.4815 15.9349L19.4125 16.0239L19.3415 16.1129L19.3355 16.1209L19.2585 16.1839L19.1725 16.2519L19.0855 16.3189L18.9975 16.3849L18.9075 16.4499L18.8175 16.5139L18.7255 16.5769L18.6325 16.6379L18.5385 16.6989L18.4425 16.7589L18.3465 16.8169L18.2485 16.8749L18.2075 16.8989L18.1475 16.9259L18.0445 16.9719L17.9405 17.0169L17.8355 17.0599L17.7295 17.1029L17.6225 17.1439L17.5155 17.1839L17.4085 17.2229L17.3005 17.2599L17.1915 17.2969L17.0825 17.3329L17.0065 17.3559L16.9715 17.3669L16.8605 17.3989L16.7495 17.4299L16.6375 17.4599L16.5255 17.4889L16.4115 17.5169L16.2985 17.5439L16.1845 17.5699L16.0695 17.5949L15.9545 17.6189L15.8395 17.6429L15.7235 17.6649L15.7045 17.6689L15.6065 17.6819L15.4885 17.6979L15.3715 17.7119L15.2535 17.7249L15.1345 17.7379L15.0165 17.7499L14.8975 17.7609L14.7785 17.7719L14.6585 17.7809L14.4205 17.7979L14.1805 17.8119L13.9405 17.8239L13.6995 17.8329L13.4585 17.8389L13.2175 17.8429L12.9755 17.8449H12.7345L12.4925 17.8439L12.2515 17.8399L12.0115 17.8349L11.9625 17.8329L11.7715 17.8259L11.5315 17.8159L11.2935 17.8039L11.0555 17.7909L10.8195 17.7779L10.5835 17.7629L10.3495 17.7479L10.1165 17.7319L9.78447 17.7069L9.65648 17.6969L9.20247 17.6569L8.32048 17.5789L7.89548 17.5429L7.81148 17.5359L7.48148 17.5029L7.27948 17.4829L7.08047 17.4649L6.88448 17.4479L6.69247 17.4319L6.50447 17.4179L6.32048 17.4059L6.14047 17.3949L6.04947 17.3909L5.96648 17.3849L5.92548 17.3829L5.88347 17.3809L5.77647 17.3789H5.65448L5.51648 17.3799L5.36447 17.3839L5.19948 17.3889L4.84047 17.3999L4.64748 17.4059L4.44748 17.4119L4.24248 17.4169L4.19647 17.4179L4.02948 17.4189L3.81447 17.4199L3.59547 17.4189L3.37547 17.4149L3.26447 17.4119L3.15347 17.4079L3.04248 17.4039L2.93248 17.3989L2.82147 17.3919L2.71147 17.3849L2.60147 17.3769L2.49147 17.3679L2.38248 17.3569L2.27448 17.3449L2.16647 17.3319L2.05948 17.3179L1.95247 17.3019L1.84647 17.2849L1.74248 17.2659L1.63847 17.2449L1.53647 17.2229L1.43547 17.1989L1.33548 17.1719L1.23747 17.1439L1.14148 17.1129L1.09848 17.0979L1.04747 17.0739L0.958466 17.0289L0.873474 16.9819L0.827469 16.9559L0.785477 16.9309L0.743469 16.9049L0.701477 16.8779L0.661469 16.8509L0.633469 16.8309L0.623474 16.8179L0.593475 16.7749L0.563477 16.7329L0.535477 16.6899L0.508469 16.6469L0.482468 16.6049L0.457474 16.5629L0.434479 16.5209L0.411469 16.4789L0.391479 16.4369L0.371475 16.3949L0.35347 16.3529L0.336472 16.3109L0.321472 16.2699L0.311478 16.2429L0.302475 16.2289L0.286469 16.2009L0.270477 16.1699L0.255478 16.1369L0.243469 16.1009L0.235474 16.0639L0.230469 16.0239V15.9829L0.235474 15.9419L0.246475 15.9029L0.261475 15.8659L0.27948 15.8319L0.299469 15.8029L0.321472 15.7769L0.344467 15.7549L0.367477 15.7359L0.391479 15.7189L0.415466 15.7049L0.439468 15.6929L0.46347 15.6819L0.48848 15.6719L0.535477 15.6569L0.584473 15.6439L0.634476 15.6349L0.685471 15.6269L0.737473 15.6219L0.790466 15.6179L0.844467 15.6159L0.899475 15.6139H0.955475L1.01147 15.6149L1.04947 15.6279ZM0.637466 16.0729L0.648468 16.0679L0.633469 16.0769L0.641479 16.0729L0.627472 16.0819L0.637466 16.0769L0.624466 16.0869L0.635468 16.0799L0.623474 16.0899L0.634476 16.0819L0.624466 16.0919L0.636475 16.0819L0.627472 16.0929L0.640472 16.0799L0.632477 16.0909L0.646469 16.0749L0.639465 16.0859L0.652466 16.0679L0.647476 16.0779L0.657471 16.0619L0.637466 16.0729Z" fill="#A168BE"/>
<path fill-rule="evenodd" clip-rule="evenodd" d="M23.878 0.395L23.461 1.076L23.229 1.156L22.993 1.236L22.757 1.313L22.52 1.388L22.283 1.462L22.045 1.534L21.807 1.604L21.569 1.672L21.33 1.738L21.091 1.803L21.082 1.806L20.851 1.863L20.61 1.922L20.369 1.979L20.128 2.034L19.887 2.088L19.645 2.141L19.404 2.192L19.162 2.243L18.971 2.281L18.92 2.291L18.677 2.334L18.434 2.377L18.192 2.418L17.955 2.457L17.949 2.458L17.705 2.492L17.462 2.524L17.219 2.556L17.071 2.575L16.975 2.583L16.731 2.605L16.245 2.645L15.758 2.683L15.273 2.719L14.788 2.753L14.662 2.762L13.82 2.803L13.338 2.827L12.858 2.851L12.378 2.876L11.908 2.903H11.899L11.421 2.925L11.184 2.937L10.946 2.95L10.708 2.963L10.471 2.978L10.235 2.993L9.998 3.009L9.76201 3.026L9.526 3.044L9.291 3.064L9.056 3.084L8.82201 3.106L8.58801 3.129L8.354 3.153L8.112 3.18L7.99701 3.192L7.869 3.202L7.739 3.21L7.60501 3.215L7.468 3.218L7.32701 3.219H7.183L7.035 3.216L6.88301 3.212L6.841 3.211L6.72801 3.204L6.57001 3.194L6.40901 3.182L6.24501 3.169L6.07901 3.154L5.91 3.139L5.74001 3.122L5.56801 3.104L5.54201 3.101L5.39401 3.083L5.21901 3.06L5.04201 3.037L4.68901 2.989L4.33301 2.937L3.97701 2.884L3.95601 2.881L3.62401 2.825L3.27501 2.766L2.933 2.706L2.60001 2.646L2.278 2.588L1.96901 2.531L1.675 2.476L1.586 2.459L1.40401 2.38L1.153 2.276L0.775009 2.127L0.726013 2.038L0.610001 1.871L0.404007 1.816L0.182007 1.758L0.12001 1.741L0.0950012 1.734L0.076004 1.729L0.0590057 1.721L0.0429993 1.71L0.029007 1.696L0.0169983 1.68L0.00801086 1.662L0.0019989 1.644L0 1.624L0.00100708 1.604L0.00500488 1.585L0.0130005 1.567L0.0230103 1.55L0.0370026 1.536L0.052002 1.523L0.0690002 1.514L0.0870056 1.507L0.105011 1.504L0.125 1.503L0.137009 1.505L0.161011 1.507L0.158005 1.506L0.220001 1.509L0.447006 1.517L0.659012 1.521L0.815002 1.391L0.887009 1.318L1.28601 1.272L1.55101 1.234L1.74501 1.204L1.834 1.21L2.12801 1.227L2.43701 1.245L2.759 1.262L3.091 1.277L3.43201 1.292L3.778 1.304L4.10701 1.314L4.127 1.315L4.47801 1.328L4.828 1.338L5.175 1.346L5.345 1.348L5.513 1.35L5.65601 1.351L5.68001 1.352L5.845 1.354L6.007 1.356H6.166H6.32201L6.474 1.355L6.621 1.352L6.76401 1.349L6.86601 1.345H6.90401L7.03801 1.342L7.166 1.339L7.28801 1.334L7.40401 1.327L7.51201 1.32L7.614 1.311L7.707 1.301L7.791 1.291L7.873 1.278L8.10901 1.241L8.35301 1.204L8.597 1.169L8.841 1.135L9.08501 1.103L9.32901 1.071L9.57301 1.041L9.817 1.012L10.061 0.984001L10.305 0.957001L10.548 0.931L10.792 0.906002L11.035 0.881001L11.279 0.858002L11.764 0.812L11.773 0.811001L12.25 0.775002L12.735 0.740002L13.219 0.706001L13.702 0.673L14.54 0.615002L14.666 0.609001L15.146 0.584999L15.625 0.559002L16.103 0.531002L16.579 0.500999L16.816 0.485001L16.91 0.479L17.054 0.473999L17.291 0.465L17.529 0.456001L17.765 0.445H17.772L18.003 0.438999L18.24 0.431999L18.476 0.424L18.712 0.415001L18.762 0.411999L18.949 0.407001L19.185 0.399002L19.422 0.389999L19.658 0.379002L19.893 0.366001L20.129 0.351002L20.364 0.334999L20.599 0.316002L20.827 0.297001L20.835 0.296001L21.071 0.277L21.306 0.256001L21.541 0.233002L21.776 0.207001L22.011 0.179001L22.246 0.149002L22.48 0.116001L22.714 0.0800018L22.949 0.0419998L23.185 0L23.878 0.395Z" fill="#A168BE"/>
<path fill-rule="evenodd" clip-rule="evenodd" d="M31.3598 17.8966L31.3618 17.8976L31.3548 17.8956L31.3958 17.8986L31.4838 17.9046L31.5228 17.9066L31.6288 17.8036L31.7418 17.6546L31.8138 17.6516L32.0088 17.6406L32.1118 17.6336L32.2258 17.6396L32.4588 17.6516L32.5798 17.6556L32.7038 17.6596L32.8288 17.6626L32.9548 17.6646L33.0808 17.6656H33.2058L33.3298 17.6636L33.4508 17.6606L33.5678 17.6556L33.6808 17.6496L33.7888 17.6416L33.8908 17.6316L33.9868 17.6206L34.0288 17.6146L34.0708 17.6076L34.1098 17.6006L34.1468 17.5936L34.1798 17.5856L34.2168 17.5766L34.2028 17.5796L34.2528 17.5666L34.3088 17.5506L34.4588 17.5076L34.5378 17.4836L34.6448 17.4536L34.8638 17.3886L35.1118 17.3136L35.3838 17.2326L35.9868 17.0476L36.0798 17.0196L36.6488 16.8576L36.9928 16.7606L37.3418 16.6646L37.3568 16.6606L37.6948 16.5836L38.0138 16.5126L38.0458 16.5066L38.3918 16.4426L38.7278 16.3836L38.8078 16.3706L38.8928 16.3586L39.0548 16.3376L39.2128 16.3186L39.3658 16.3006L39.5138 16.2836L39.5898 16.2756H39.6558L39.7948 16.2706L39.9288 16.2676L40.0568 16.2656H40.1788H40.1988L40.2968 16.2846L40.4078 16.3076L40.5098 16.3306L40.5628 16.3416L40.6118 16.3536L40.6608 16.3666L40.7078 16.3796L40.7488 16.3906L40.7578 16.3936L40.8058 16.4116L40.8568 16.4306L40.9098 16.4546L40.9678 16.4826L41.0308 16.5216L41.1008 16.5736L41.1618 16.6386L41.2018 16.6936L41.2308 16.7466L41.2538 16.8036L41.2698 16.8636L41.2788 16.9246L41.2798 16.9836L41.2748 17.0386L41.2618 17.0986L41.2338 17.1726L41.1948 17.2386L41.1538 17.2906L41.1118 17.3316L41.0698 17.3646L41.0268 17.3936L40.9818 17.4196L40.9358 17.4426L40.8888 17.4636L40.8388 17.4846L40.7858 17.5036L40.7318 17.5226L40.7298 17.5236L40.6698 17.5416L40.6058 17.5596L40.5388 17.5776L40.4688 17.5966L40.3948 17.6156L40.3178 17.6366L40.1518 17.6806L39.9718 17.7296L39.8098 17.7016L39.7488 17.7166L39.6148 17.7486L39.4758 17.7846L39.3308 17.8226L39.1818 17.8626L39.1038 17.8836L39.0288 17.9016L38.7068 17.9796L38.3758 18.0616L38.3458 18.0696L38.0348 18.1386L37.7038 18.2136L37.6888 18.2166L37.3378 18.2816L36.9908 18.3466L36.4128 18.4566L36.3168 18.4726L35.6958 18.5816L35.4128 18.6306L35.1538 18.6766L34.9228 18.7166L34.8068 18.7356L34.7198 18.7496L34.5498 18.7746L34.4738 18.7846L34.4048 18.7936L34.3478 18.7996L34.2888 18.8046L34.2298 18.8076L34.1708 18.8106L34.1108 18.8116L34.0478 18.8126L33.9258 18.8116L33.7998 18.8066L33.6708 18.7996L33.5398 18.7906L33.4078 18.7796L33.2738 18.7656L33.1388 18.7516L33.0038 18.7346L32.8698 18.7176L32.7368 18.6996L32.6058 18.6806L32.4768 18.6606L32.3498 18.6406L32.1098 18.6006L31.9938 18.5806L31.8908 18.5486L31.6978 18.4886L31.6268 18.4656L31.5528 18.2926L31.4778 18.1636L31.4398 18.1546L31.3518 18.1336L31.3058 18.1226L31.2998 18.1206L31.2828 18.1156L31.2668 18.1066L31.2518 18.0956L31.2388 18.0826L31.2288 18.0666L31.2208 18.0496L31.2158 18.0316L31.2148 18.0136L31.2158 17.9956L31.2208 17.9776L31.2288 17.9606L31.2388 17.9446L31.2518 17.9316L31.2668 17.9206L31.2828 17.9116L31.2998 17.9056L31.3178 17.9036L31.3288 17.9026L31.3598 17.8966ZM31.3348 18.1136H31.3418L31.3428 18.1076L31.3348 18.1136ZM40.4608 16.8196L40.4668 16.7976L40.4428 16.8416L40.4448 16.8226L40.4208 16.8836V16.8666L40.4068 16.9266L40.4048 16.9186L40.3998 16.9646L40.3978 16.9576V16.9826L40.4208 16.9536L40.4148 16.9576L40.4418 16.9206L40.4658 16.8856L40.4568 16.8916L40.4758 16.8606L40.4918 16.8326L40.4808 16.8426L40.4968 16.8116L40.4828 16.8246L40.4978 16.7966L40.4818 16.8136L40.4938 16.7876L40.4748 16.8106L40.4828 16.7876L40.4608 16.8196Z" fill="#A168BE"/>
<path fill-rule="evenodd" clip-rule="evenodd" d="M38.3272 21.2839H38.5032L38.6782 21.2809L38.8522 21.2769L38.9182 21.2739L39.0252 21.2719L39.1992 21.2669L39.2842 21.2629L39.3692 21.2579L39.4552 21.2519L39.5402 21.2459L39.6242 21.2389L39.7092 21.2309L39.7932 21.2209L39.8802 21.2109L40.6092 21.6299L40.1752 22.3519L40.0882 22.3859L39.9972 22.4209L39.9062 22.4549L39.8152 22.4879L39.7232 22.5199L39.6312 22.5519L39.5392 22.5829L39.4452 22.6129L39.2622 22.6709L39.1472 22.7059L39.0762 22.7259L38.8892 22.7759L38.7012 22.8229L38.5142 22.8689L38.3262 22.9139L38.2422 22.9329L38.1382 22.9509L37.9502 22.9839L37.7622 23.0149L37.5742 23.0459L37.4392 23.0669L37.2012 23.0849L36.8292 23.1119L36.4592 23.1379L36.3522 23.1469L36.2772 23.1499L36.0952 23.1589L35.9142 23.1699L35.7342 23.1809L35.5552 23.1929L35.3782 23.2069L35.2012 23.2219L35.1072 23.2319L35.0262 23.2379L34.8522 23.2539L34.6792 23.2729L34.5062 23.2939L34.4222 23.3049L34.3252 23.3189L34.2472 23.3299L34.1562 23.3389L34.0602 23.3459L33.9572 23.3519L33.8482 23.3559L33.7312 23.3609L33.4812 23.3669L33.2142 23.3729L32.9372 23.3779L32.8872 23.3789L32.6592 23.3639L32.3902 23.3489L32.3432 23.3469L32.1392 23.3249L32.0252 23.3139L31.9182 23.3049L31.8692 23.3009L31.8102 23.1769L31.7032 22.9879L31.6412 22.9079L31.5712 22.9609L31.5282 22.9579L31.4902 22.9549L31.4562 22.9509L31.4262 22.9459L31.3992 22.9399L31.3702 22.9299L31.3522 22.9199L31.3402 22.9109L31.3282 22.9019L31.3252 22.8989L31.3142 22.8869L31.3052 22.8729L31.3032 22.8709L31.2962 22.8569L31.2902 22.8419L31.2872 22.8269L31.2862 22.8249L31.2852 22.8079L31.2862 22.7899L31.2892 22.7729L31.2902 22.7709L31.2972 22.7509L31.3082 22.7319L31.3102 22.7299L31.3192 22.7179L31.3292 22.7079L31.3422 22.6959L31.3702 22.6789L31.3962 22.6669L31.4212 22.6579L31.4482 22.6489L31.5062 22.6329L31.5762 22.6169L31.5952 22.6129L31.6452 22.5059L31.7192 22.2969L31.7572 22.1639L31.8112 22.1499L31.9232 22.1209L32.0422 22.0909L32.2472 22.0389L32.2942 22.0299L32.5632 21.9769L32.7892 21.9329L32.8382 21.9269L33.1112 21.8949L33.3712 21.8639L33.6072 21.8329L33.7122 21.8189L33.8072 21.8049L33.8882 21.7909L33.9552 21.7789L34.0022 21.7689L34.0442 21.7589L34.0282 21.7619L34.1212 21.7389L34.2192 21.7149L34.4102 21.6719L34.6022 21.6309L34.7952 21.5919L34.8842 21.5749L34.9872 21.5579L35.1792 21.5269L35.3712 21.4979L35.5622 21.4709L35.7532 21.4449L35.9432 21.4209L36.1322 21.3979L36.2082 21.3879L36.3192 21.3779L36.6932 21.3459L37.0622 21.3139L37.2952 21.2929L37.4292 21.2919L37.6102 21.2899L37.7902 21.2869L37.9692 21.2819L38.0672 21.2789L38.1472 21.2809L38.3272 21.2839ZM31.4852 22.7069L31.4742 22.7029L31.4882 22.7089L31.4852 22.7069Z" fill="#A168BE"/>
<path fill-rule="evenodd" clip-rule="evenodd" d="M49.3448 13.5104L49.3238 13.5154L49.3338 13.5134L49.3138 13.5204L49.3238 13.5174L49.3038 13.5254L49.3138 13.5214L49.2948 13.5314L49.3038 13.5274L49.2858 13.5384L49.2948 13.5334L49.2768 13.5474L49.2848 13.5414L49.2688 13.5574L49.2758 13.5514L49.2598 13.5684L49.2658 13.5624L49.2498 13.5804L49.2548 13.5754L49.2398 13.5954L49.2448 13.5894L49.2298 13.6114L49.2338 13.6054L49.2198 13.6294L49.2228 13.6244L49.2098 13.6494L49.2128 13.6444L49.2008 13.6704L49.2028 13.6654L49.1938 13.6884V13.6944L49.1958 13.6904V13.7244L49.1978 13.7194L49.2008 13.7554L49.2028 13.7514L49.2078 13.7854L49.2158 13.8224L49.2178 13.8174L49.2278 13.8544L49.2398 13.8934L49.2408 13.8884L49.2428 13.8944L49.2378 13.9244L49.2338 13.9614L49.2348 13.9564L49.2298 13.9954L49.2268 14.0344L49.2278 14.0284L49.2218 14.1114L49.2188 14.1944V14.2834L49.2198 14.3774L49.2238 14.4754L49.2298 14.5774L49.2378 14.6834L49.2478 14.7934L49.2598 14.9064L49.2738 15.0224L49.2898 15.1424L49.3068 15.2644L49.3248 15.3884L49.3448 15.5154L49.3668 15.6444L49.3898 15.7754L49.4148 15.9074L49.4408 16.0404L49.4968 16.3124L49.5178 16.4114L49.5408 16.5874L49.5788 16.8654L49.6188 17.1434L49.6608 17.4204L49.7038 17.6944L49.7468 17.9624L49.7888 18.2244L49.8698 18.7244L49.9438 19.1774L49.9758 19.3844L50.0048 19.5764L50.0288 19.7514L50.0478 19.9094L50.0538 19.9694L50.0598 20.0324L50.0688 20.1544L50.0748 20.2814L50.0788 20.4134L50.0808 20.5484V20.6884L50.0788 20.8314L50.0748 20.9784L50.0698 21.1294L50.0628 21.2844L50.0548 21.4424L50.0448 21.6044L50.0438 21.6174L50.0568 21.5654L50.1088 21.3554L50.1628 21.1434L50.2178 20.9294L50.2758 20.7134L50.3348 20.4964L50.3958 20.2774L50.4588 20.0574L50.5238 19.8364L50.5908 19.6144L50.6608 19.3924L50.7128 19.2294L50.7308 19.1694L50.8048 18.9474L50.8818 18.7254L50.9588 18.5034L51.0398 18.2824L51.1218 18.0624L51.2068 17.8434L51.2948 17.6264L51.3408 17.5174L51.3868 17.4104L51.4328 17.3034L51.4798 17.1964L51.5268 17.0904L51.5748 16.9854L51.6238 16.8804L51.6728 16.7754L51.7228 16.6714L51.7738 16.5684L51.8258 16.4654L51.8778 16.3634L51.9308 16.2624L51.9858 16.1624L52.0398 16.0624L52.0958 15.9634L52.1528 15.8654L52.2098 15.7684L52.2688 15.6714L52.3278 15.5764L52.3878 15.4814L52.4488 15.3884L52.5108 15.2954L52.5738 15.2034L52.6378 15.1134L52.7028 15.0234L52.7688 14.9354L52.8358 14.8474L52.9038 14.7614L52.9728 14.6764L53.0438 14.5934L53.1148 14.5104L53.1868 14.4284L53.2608 14.3474L53.3358 14.2684L53.4078 14.1914L53.4848 14.1144L53.5628 14.0394L53.6408 13.9664L53.7208 13.8944L53.8028 13.8244L53.8848 13.7554L53.9688 13.6884L54.0538 13.6234L54.1408 13.5604L54.2288 13.4994L54.2608 13.4784L54.3178 13.4394L54.4088 13.3824L54.5008 13.3274L54.5938 13.2734L54.6888 13.2224L54.7848 13.1734L54.8828 13.1274L54.9808 13.0834L55.0818 13.0414L55.1828 13.0024L55.2858 12.9654L55.3898 12.9314L55.4958 12.9004L55.6018 12.8724L55.7088 12.8464L55.8178 12.8234L55.8698 12.8144L55.9228 12.8064L55.9768 12.8004L56.0308 12.7964L56.0858 12.7944H56.1398L56.1948 12.7964L56.2498 12.8014L56.3038 12.8074L56.3588 12.8164L56.4118 12.8264L56.4648 12.8394L56.5168 12.8544L56.5688 12.8704L56.6188 12.8894L56.6688 12.9094L56.7168 12.9314L56.7638 12.9544L56.8098 12.9794L56.8548 13.0054L56.8988 13.0334L56.9418 13.0614L56.9828 13.0914L57.0228 13.1214L57.0618 13.1534L57.1028 13.1884L57.1698 13.2514L57.2358 13.3204L57.2978 13.3924L57.3548 13.4654L57.4088 13.5404L57.4598 13.6164L57.5078 13.6944L57.5538 13.7744L57.5978 13.8554L57.6398 13.9374L57.6788 14.0204L57.7168 14.1054L57.7528 14.1914L57.7868 14.2784L57.8198 14.3674L57.8508 14.4574L57.8808 14.5484L57.9098 14.6424L57.9368 14.7364L57.9638 14.8324L57.9888 14.9304L58.0138 15.0294L58.0368 15.1294L58.0588 15.2304L58.0808 15.3334L58.1018 15.4384L58.1218 15.5434L58.1408 15.6504L58.1588 15.7584L58.1758 15.8674L58.1928 15.9784L58.1978 16.0064L58.2118 16.0894L58.2288 16.2014L58.2458 16.3154L58.2618 16.4304L58.2928 16.6614L58.3218 16.8974L58.3478 17.1364L58.3728 17.3784L58.3948 17.6214L58.4148 17.8664L58.4328 18.1124L58.4498 18.3594L58.4658 18.6074L58.4798 18.8554L58.4918 19.1024L58.5028 19.3494L58.5118 19.5944L58.5208 19.8384L58.5248 19.9904L58.5958 19.7604L58.6718 19.5184L58.7508 19.2754L58.8318 19.0324L58.9148 18.7894L59.0008 18.5474L59.0898 18.3054L59.1808 18.0644L59.2738 17.8264L59.3208 17.7064L59.3688 17.5884L59.4178 17.4704L59.4668 17.3524L59.5168 17.2354L59.5678 17.1194L59.6198 17.0034L59.6718 16.8874L59.7248 16.7724L59.7788 16.6584L59.8328 16.5444L59.8888 16.4314L59.9448 16.3184L60.0018 16.2064L60.0588 16.0954L60.1178 15.9854L60.1768 15.8764L60.2368 15.7674L60.2978 15.6594L60.3598 15.5524L60.4228 15.4464L60.4868 15.3414L60.5508 15.2374L60.6168 15.1334L60.6828 15.0314L60.7498 14.9304L60.8188 14.8304L60.8878 14.7314L60.9578 14.6334L61.0288 14.5364L61.1018 14.4414L61.1748 14.3474L61.2488 14.2544L61.3248 14.1624L61.4008 14.0714L61.4778 13.9824L61.5558 13.8954L61.6348 13.8084L61.7148 13.7244L61.7958 13.6404L61.8778 13.5594L61.9618 13.4774L62.0468 13.3984L62.1328 13.3204L62.2198 13.2444L62.3088 13.1694L62.3978 13.0974L62.4888 13.0264L62.5818 12.9574L62.6758 12.8904L62.7708 12.8254L62.8668 12.7624L62.9128 12.7334L62.9618 12.6994L63.0578 12.6354L63.1558 12.5744L63.2548 12.5154L63.3558 12.4584L63.4588 12.4034L63.5628 12.3504L63.6678 12.3004L63.7748 12.2524L63.8868 12.2064L63.9548 12.1814L64.0288 12.1594L64.1048 12.1404L64.1818 12.1254L64.2618 12.1154L64.3428 12.1094H64.4248L64.5088 12.1144L64.5918 12.1254L64.6738 12.1424L64.7548 12.1644L64.8338 12.1924L64.9108 12.2254L64.9838 12.2624L65.0548 12.3034L65.1208 12.3474L65.1818 12.3954L65.2398 12.4444L65.2938 12.4954L65.3438 12.5484L65.3898 12.6024L65.4338 12.6574L65.4748 12.7124L65.5128 12.7684L65.5478 12.8244L65.5808 12.8804L65.6108 12.9374L65.6398 12.9944L65.6668 13.0524L65.6918 13.1094L65.7158 13.1674L65.7378 13.2264L65.7588 13.2844L65.7788 13.3434L65.7978 13.4034L65.8158 13.4624L65.8328 13.5224L65.8498 13.5864L65.8788 13.7044L65.9068 13.8274L65.9318 13.9524L65.9538 14.0794L65.9738 14.2074L65.9918 14.3374L66.0078 14.4684L66.0228 14.6004L66.0368 14.7344L66.0488 14.8684L66.0588 15.0044L66.0678 15.1404L66.0758 15.2764L66.0828 15.4124L66.0878 15.5494L66.0918 15.6854L66.0948 15.8214L66.0968 15.9564L66.0988 16.0904V16.2234V16.3554V16.3934L66.0888 16.6124L66.0758 16.8604L66.0608 17.0984L66.0458 17.3244L66.0308 17.5344L66.0158 17.7274L65.9888 18.0504L65.9708 18.2754L65.9678 18.3234L65.9688 18.5674L65.9718 18.8114L65.9758 19.0554L65.9808 19.3004L65.9878 19.5464L65.9968 19.7934L66.0068 20.0404L66.0178 20.2884L66.0298 20.5374L66.0428 20.7864L66.0568 21.0364L66.0718 21.2874L66.0878 21.5384L66.1038 21.7904L66.1398 22.2974L66.1778 22.8064L66.2178 23.3174L66.2598 23.8294L66.3038 24.3434L66.3898 25.3744L66.4338 25.8924L66.4758 26.4104L66.5158 26.9294L66.5548 27.4474L66.5728 27.7074L66.5898 27.9674L66.6058 28.2264L66.6208 28.4864L66.6358 28.7454L66.6478 28.9664L66.6468 29.0064L66.6418 29.2664L66.6358 29.5264L66.6288 29.7854L66.6198 30.0444L66.6098 30.3034L66.5988 30.5624L66.5858 30.8204L66.5718 31.0784L66.5558 31.3364L66.5398 31.5934L66.5218 31.8494L66.5018 32.1054L66.4798 32.3614L66.4568 32.6164L66.4408 32.7674L66.4128 32.8694L66.3448 33.1204L66.2748 33.3704L66.2048 33.6184L66.1338 33.8654L66.0618 34.1104L65.9898 34.3544L65.9158 34.5944L65.1708 35.2184L64.5958 34.4354L64.5808 34.1924L64.5618 33.9514L64.5398 33.7114L64.5138 33.4704L64.4828 33.2284L64.4498 32.9874L64.4118 32.7454L64.3958 32.6474L64.3968 32.5054L64.3958 32.2644L64.3938 32.0234L64.3888 31.7814L64.3828 31.5384L64.3748 31.2954L64.3648 31.0514L64.3538 30.8064L64.3408 30.5614L64.3258 30.3154L64.3098 30.0694L64.2928 29.8224L64.2758 29.5744L64.2558 29.3254L64.2358 29.0764L64.2328 29.0384L64.2288 28.8254L64.2238 28.5744L64.2178 28.3224L64.2108 28.0704L64.2038 27.8174L64.1948 27.5644L64.1768 27.0544L64.1568 26.5424L64.1348 26.0294L64.1108 25.5144L64.0628 24.4804L64.0388 23.9624L64.0158 23.4444L63.9948 22.9254L63.9748 22.4064L63.9578 21.8884L63.9498 21.6284L63.9428 21.3694L63.9368 21.1114L63.9308 20.8524L63.9268 20.5944L63.9238 20.3364L63.9218 20.0784L63.9208 19.8204L63.9218 19.5634L63.9238 19.3064L63.9268 19.0494L63.9318 18.7924L63.9388 18.5364L63.9468 18.2624L63.9658 18.1914L63.9768 18.0934L64.0038 17.8564L64.0418 17.5394L64.0618 17.3564L64.0828 17.1574L64.1038 16.9464L64.1248 16.7244L64.1448 16.4934L64.1608 16.2894L64.1648 16.2544L64.1778 16.1354L64.1898 16.0144L64.2018 15.8934L64.2128 15.7714L64.2228 15.6504L64.2318 15.5284L64.2398 15.4084L64.2468 15.2884L64.2518 15.1694L64.2568 15.0524L64.2598 14.9374L64.2618 14.8234V14.7134L64.2608 14.6054L64.2578 14.5004L64.2528 14.3994L64.2478 14.3024L64.2398 14.2104L64.2308 14.1224L64.2208 14.0404L64.2088 13.9594L64.2038 13.9264L64.1968 13.8914L64.1908 13.8594L64.1838 13.8284L64.1768 13.7994L64.1718 13.7784L64.1188 13.7994L64.0438 13.8304L63.9698 13.8634L63.8968 13.8984L63.8238 13.9354L63.7498 13.9744L63.7118 13.9954L63.6788 14.0174L63.6098 14.0644L63.5408 14.1134L63.4728 14.1644L63.4058 14.2174L63.3378 14.2714L63.2718 14.3274L63.2048 14.3854L63.1398 14.4454L63.0738 14.5074L63.0098 14.5704L62.9448 14.6354L62.8818 14.7024L62.8178 14.7704L62.7558 14.8404L62.6938 14.9114L62.6318 14.9854L62.5708 15.0594L62.5098 15.1364L62.4498 15.2134L62.3908 15.2934L62.3318 15.3734L62.2728 15.4554L62.2148 15.5374L62.1578 15.6214L62.1008 15.7074L62.0448 15.7944L61.9898 15.8824L61.9348 15.9714L61.8798 16.0624L61.8258 16.1544L61.7728 16.2474L61.7198 16.3414L61.6678 16.4364L61.6168 16.5334L61.5658 16.6304L61.5158 16.7294L61.4658 16.8284L61.4168 16.9294L61.3678 17.0304L61.3198 17.1334L61.2728 17.2364L61.2258 17.3404L61.1798 17.4454L61.1338 17.5514L61.0878 17.6584L61.0428 17.7654L60.9978 17.8734L60.9528 17.9824L60.9098 18.0914L60.8658 18.2014L60.8238 18.3114L60.7818 18.4214L60.6998 18.6474L60.6208 18.8734L60.5438 19.1014L60.4678 19.3304L60.3938 19.5604L60.3218 19.7914L60.2518 20.0234L60.1838 20.2554L60.1178 20.4874L60.0618 20.6924L60.0538 20.7194L59.9918 20.9514L59.9318 21.1824L59.8728 21.4124L59.8168 21.6414L59.7618 21.8684L59.7078 22.0944L59.6558 22.3194L59.6058 22.5414L59.5568 22.7614L59.5098 22.9784L59.4638 23.1924L59.3748 23.6124L59.2918 24.0194L59.2128 24.4104L59.1368 24.7844L59.0658 25.1404L58.9998 25.4644L58.9958 25.4884L58.9928 25.5144L58.9948 25.4974L58.9918 25.5274L58.9848 25.5964L58.9798 25.6774L58.9738 25.7734L58.9698 25.8814L58.9648 26.0004L58.9618 26.1284L58.9538 26.4084L58.9468 26.7104L58.9378 27.0274L58.9318 27.1904L58.9258 27.3544L58.9178 27.5194L58.9088 27.6834L58.8978 27.8474L58.8858 28.0094L58.8708 28.1694L58.8548 28.3254L58.8448 28.4054L58.8338 28.4834L58.8228 28.5604L58.8108 28.6374L58.7968 28.7124L58.7828 28.7874L58.7678 28.8624L58.7518 28.9364L58.7338 29.0104L58.7138 29.0844L58.6918 29.1594L58.6658 29.2344L58.6368 29.3104L58.6038 29.3884L58.5648 29.4684L58.5188 29.5504L58.4638 29.6344L58.4038 29.7144L58.3588 29.7664L58.3158 29.8114L58.2688 29.8564L58.2008 29.9134L58.0848 29.9934L58.0108 30.0274L57.9108 30.0724L57.8038 30.0954L57.6938 30.1134L57.5818 30.1174H57.5718L57.4578 30.1074L57.3468 30.0834L57.2368 30.0534L57.0578 29.9584L56.9268 29.8534L56.8348 29.7534L56.7698 29.6644L56.7228 29.5854L56.6878 29.5154L56.6618 29.4534L56.6408 29.3964L56.6218 29.3384L56.5988 29.2514L56.5788 29.1624L56.5628 29.0784L56.5498 28.9954L56.5388 28.9134L56.5288 28.8304L56.5208 28.7484L56.5148 28.6664L56.5088 28.5814L56.4998 28.4194L56.4928 28.2594L56.4888 28.1074L56.4868 27.9664L56.4858 27.8434V27.7404V27.6164V27.5014L56.4878 27.3834L56.4918 27.2654L56.4958 27.1484L56.5018 27.0314L56.5078 26.9154L56.5158 26.8004L56.5238 26.6854L56.5418 26.4584L56.5628 26.2334L56.5838 26.0114L56.6068 25.7914L56.6528 25.3594L56.6748 25.1474L56.6948 24.9374L56.7128 24.7274L56.7218 24.6264L56.7288 24.5244L56.7358 24.4234L56.7428 24.3224L56.7478 24.2224L56.7518 24.1164L56.7568 24.0134L56.7648 23.8614L56.7858 23.4234L56.7998 23.1444L56.8138 22.8284L56.8198 22.6834L56.8278 22.4794L56.8408 22.1014L56.8528 21.6974L56.8578 21.4884L56.8628 21.2734L56.8658 21.0534L56.8688 20.8294L56.8718 20.6024L56.8728 20.3724V20.1394L56.8718 19.9044L56.8698 19.6674L56.8668 19.4304L56.8618 19.1914L56.8558 18.9524L56.8478 18.7134L56.8388 18.4764L56.8278 18.2394L56.8158 18.0044L56.8008 17.7714L56.7858 17.5414L56.7688 17.3154L56.7488 17.0924L56.7278 16.8734L56.7048 16.6584L56.6918 16.5544L56.6778 16.4514L56.6638 16.3504L56.6528 16.2754L56.6488 16.2494L56.6328 16.1514L56.6158 16.0554L56.5988 15.9604L56.5808 15.8674L56.5628 15.7774L56.5438 15.6884L56.5248 15.6024L56.5048 15.5174L56.4848 15.4354L56.4638 15.3554L56.4428 15.2774L56.4218 15.2014L56.3998 15.1284L56.3778 15.0594L56.3548 14.9914L56.3318 14.9274L56.3098 14.8674L56.2868 14.8094L56.2638 14.7554L56.2408 14.7044L56.2178 14.6574L56.1958 14.6134L56.1738 14.5744L56.1568 14.5444L56.1338 14.5064L56.1188 14.4854L56.0978 14.4564L56.0858 14.4424L56.0768 14.4324L56.0688 14.4344L56.0038 14.4514L55.9398 14.4694L55.8768 14.4894L55.8138 14.5104L55.7518 14.5334L55.6898 14.5584L55.6288 14.5854L55.5678 14.6134L55.5068 14.6434L55.4468 14.6754L55.3878 14.7084L55.3278 14.7434L55.2688 14.7804L55.2098 14.8184L55.1728 14.8444L55.1518 14.8594L55.0938 14.9014L55.0358 14.9454L54.9788 14.9914L54.9218 15.0384L54.8648 15.0874L54.8088 15.1384L54.7528 15.1904L54.6968 15.2444L54.6418 15.3004L54.5868 15.3574L54.5318 15.4164L54.4778 15.4774L54.4238 15.5394L54.3708 15.6034L54.3168 15.6684L54.2648 15.7354L54.2128 15.8044L54.1608 15.8744L54.1088 15.9454L54.0578 16.0184L54.0078 16.0924L53.9578 16.1674L53.9078 16.2444L53.8588 16.3224L53.8098 16.4024L53.7618 16.4834L53.7148 16.5654L53.6668 16.6474L53.6208 16.7304L53.5748 16.8154L53.5288 16.9004L53.4828 16.9874L53.4368 17.0754L53.3918 17.1634L53.3478 17.2534L53.3028 17.3444L53.2598 17.4354L53.2168 17.5284L53.1738 17.6214L53.1318 17.7154L53.0908 17.8104L53.0498 17.9064L53.0088 18.0024L52.9698 18.0994L52.9298 18.1974L52.8918 18.2944L52.8158 18.4954L52.7418 18.6964L52.6698 18.9004L52.5988 19.1054L52.5308 19.3124L52.4648 19.5194L52.3998 19.7284L52.3838 19.7844L52.3378 19.9374L52.2768 20.1464L52.2178 20.3564L52.1598 20.5664L52.1048 20.7754L52.0508 20.9844L51.9988 21.1914L51.9478 21.3984L51.8988 21.6044L51.8518 21.8084L51.8058 22.0104L51.7608 22.2104L51.7168 22.4084L51.6738 22.6034L51.5938 22.9864L51.5178 23.3564L51.4458 23.7124L51.3788 24.0524L51.2558 24.6774L51.2078 24.9124L51.1588 25.1474L51.1078 25.3804L51.0548 25.6124L51.0018 25.8424L50.9848 25.9164L50.9468 26.0724L50.8338 26.5254L50.7198 26.9754L50.6068 27.4224L50.5508 27.6454L50.4968 27.8664L50.4428 28.0884L50.3918 28.3024L50.3908 28.3084L50.3888 28.3174L50.3878 28.3254L50.3858 28.3404L50.3808 28.3864L50.3768 28.4404L50.3738 28.5034L50.3708 28.5744L50.3698 28.6514V28.7334L50.3708 28.8194L50.3718 28.9084L50.3768 29.0974L50.3818 29.2884L50.3858 29.4774L50.3868 29.5724V29.6664L50.3858 29.7594L50.3828 29.8524L50.3768 29.9474L50.3678 30.0404L50.3598 30.0974L50.3508 30.1534L50.3378 30.2134L50.3218 30.2804L50.2998 30.3544L50.2678 30.4394L50.2198 30.5384L50.1468 30.6544L50.0358 30.7844L49.9578 30.8484L49.8688 30.9124L49.7728 30.9654L49.7628 30.9704L49.6488 31.0154L49.5308 31.0464L49.5198 31.0484L49.4008 31.0634L49.2808 31.0624L49.1648 31.0544L48.9708 30.9964L48.8258 30.9224L48.7178 30.8474L48.6468 30.7874L48.6348 30.7774L48.5708 30.7114L48.5198 30.6504L48.4748 30.5934L48.4268 30.5234L48.3818 30.4534L48.3398 30.3824L48.3008 30.3114L48.2638 30.2394L48.2298 30.1664L48.1988 30.0934L48.1688 30.0194L48.1418 29.9454L48.1168 29.8704L48.0938 29.7954L48.0718 29.7204L48.0518 29.6434L48.0338 29.5674L48.0168 29.4904L48.0008 29.4124L47.9858 29.3344L47.9718 29.2554L47.9588 29.1764L47.9478 29.0964L47.9368 29.0164L47.9278 28.9364L47.9198 28.8554L47.9118 28.7734L47.9058 28.6914L47.8998 28.6094L47.8948 28.5264L47.8908 28.4404L47.8858 28.2724L47.8828 28.1004L47.8838 27.9254L47.8868 27.7494L47.8918 27.5704L47.8998 27.3894L47.9098 27.2064L47.9208 27.0434L47.9228 27.0214L47.9378 26.8354L47.9548 26.6474L47.9728 26.4584L47.9928 26.2684L48.0148 26.0774L48.0378 25.8854L48.0618 25.6924L48.0868 25.4994L48.1128 25.3054L48.1398 25.1104L48.1958 24.7244L48.2548 24.3384L48.3138 23.9554L48.3728 23.5774L48.4888 22.8414L48.5108 22.6974L48.5448 22.4874L48.5978 22.1434L48.6458 21.8124L48.6688 21.6534L48.6898 21.4974L48.7088 21.3454L48.7268 21.1974L48.7428 21.0554L48.7578 20.9174L48.7708 20.7854L48.7818 20.6584L48.7908 20.5374L48.7978 20.4224L48.8028 20.3144L48.8048 20.2134V20.1174L48.8038 20.0754L48.8028 20.0344L48.7948 19.8954L48.7838 19.7344L48.7688 19.5504L48.7518 19.3484L48.7088 18.8964L48.6618 18.3924L48.6368 18.1254L48.6118 17.8514L48.5868 17.5714L48.5628 17.2874L48.5408 17.0014L48.5198 16.7134L48.5068 16.5314L48.5098 16.4264L48.5168 16.1414L48.5208 15.9994L48.5258 15.8594L48.5318 15.7214L48.5378 15.5844L48.5448 15.4504L48.5518 15.3174L48.5608 15.1874L48.5698 15.0604L48.5798 14.9354L48.5908 14.8144L48.6038 14.6954L48.6168 14.5804L48.6318 14.4694L48.6468 14.3614L48.6628 14.2574L48.6808 14.1564L48.7008 14.0604L48.7228 13.9694L48.7348 13.9234L48.7468 13.8794L48.7598 13.8364L48.7718 13.8014L48.7768 13.7954L48.8078 13.7604L48.8388 13.7254L48.8678 13.6934L48.8958 13.6614L48.9238 13.6324L48.9508 13.6044L48.9558 13.5994L48.9698 13.5734L48.9868 13.5434L49.0058 13.5154L49.0248 13.4874L49.0448 13.4614L49.0658 13.4374L49.0888 13.4144L49.1128 13.3934L49.1388 13.3744L49.1658 13.3574L49.1938 13.3424L49.2238 13.3304L49.2538 13.3204L49.2858 13.3134L49.3178 13.3104L49.3498 13.3084L49.3818 13.3104L49.4108 13.3144L49.5088 13.4324L49.3908 13.5304L49.3668 13.5294H49.3758L49.3528 13.5304H49.3618L49.3398 13.5334L49.3448 13.5104ZM49.9888 29.4464L49.9658 29.4144L49.9838 29.4364L49.9618 29.4104L49.9888 29.4464ZM49.9608 29.4114L49.9788 29.4374L49.9598 29.4094L49.9558 29.4044L49.9608 29.4114ZM49.9588 29.4124L49.9508 29.3994L49.9498 29.3984L49.9588 29.4124ZM65.9808 18.3364L65.9798 18.3704L65.9808 18.3314V18.3364ZM64.4138 13.6924L64.3768 13.7044L64.4168 13.7014L64.3828 13.7034L64.4288 13.6974L64.3938 13.7014L64.4358 13.6924L64.3998 13.6994L64.4398 13.6894L64.4028 13.6974L64.4398 13.6864L64.4138 13.6924Z" fill="#A168BE"/>
<path fill-rule="evenodd" clip-rule="evenodd" d="M76.9682 15.2266L77.0442 15.2306L77.1202 15.2366L77.1952 15.2446L77.2692 15.2536L77.3432 15.2656L77.4162 15.2796L77.4882 15.2946L77.5592 15.3126L77.6302 15.3316L77.7002 15.3516L77.7702 15.3746L77.8382 15.3986L77.9062 15.4246L77.9732 15.4516L78.0392 15.4806L78.0852 15.5026L78.1032 15.5116L78.1672 15.5436L78.2302 15.5776L78.2932 15.6126L78.3542 15.6486L78.4152 15.6866L78.4742 15.7256L78.5332 15.7656L78.5912 15.8076L78.6482 15.8496L78.7042 15.8936L78.7592 15.9386L78.8132 15.9846L78.8672 16.0316L78.9192 16.0796L78.9712 16.1286L79.0222 16.1786L79.0722 16.2296L79.1212 16.2806L79.1692 16.3336L79.2162 16.3876L79.2632 16.4416L79.3092 16.4966L79.3552 16.5526L79.4002 16.6096L79.4452 16.6676L79.4882 16.7256L79.5312 16.7846L79.5722 16.8446L79.6132 16.9046L79.6542 16.9656L79.6932 17.0276L79.7322 17.0896L79.7692 17.1526L79.8062 17.2156L79.8432 17.2796L79.8782 17.3446L79.9132 17.4096L79.9462 17.4756L79.9802 17.5416L80.0122 17.6076L80.0432 17.6746L80.0742 17.7416L80.1042 17.8096L80.1332 17.8786L80.1612 17.9466L80.1862 18.0086L80.1892 18.0156L80.2152 18.0856L80.2412 18.1546L80.2662 18.2246L80.2902 18.2956L80.3132 18.3656L80.3362 18.4366L80.3582 18.5076L80.3782 18.5786L80.3992 18.6506L80.4182 18.7226L80.4362 18.7936L80.4542 18.8656L80.4712 18.9386L80.4872 19.0106L80.5032 19.0826L80.5182 19.1556L80.5322 19.2276L80.5462 19.3006L80.5592 19.3726L80.5712 19.4456L80.5822 19.5176L80.5932 19.5906L80.6022 19.6626L80.6112 19.7356L80.6192 19.8076L80.6262 19.8796L80.6322 19.9516L80.6382 20.0236L80.6422 20.0956L80.6462 20.1676L80.6482 20.2396L80.6502 20.3106L80.6512 20.3816V20.4526L80.6502 20.5236L80.6482 20.5936L80.6432 20.7116L80.6362 20.8296L80.6282 20.9476L80.6182 21.0656L80.6062 21.1836L80.5932 21.3006L80.5792 21.4186L80.5642 21.5356L80.5482 21.6536L80.5312 21.7706L80.5142 21.8876L80.4952 22.0046L80.4552 22.2386L80.4132 22.4716L80.3892 22.6006L80.3642 22.7026L80.3082 22.9316L80.1962 23.3846L80.1432 23.6086L80.0922 23.8326L80.0442 24.0546L80.0422 24.0656L79.9662 24.1566L79.8952 24.2596L79.7742 24.3536L79.6802 24.2316L79.6382 24.1126L79.5912 24.0016L79.5922 23.9906L79.6092 23.7596L79.6272 23.5276L79.6472 23.2946L79.6872 22.8286L79.7052 22.5956L79.7132 22.4926L79.7292 22.3656L79.7572 22.1356L79.7832 21.9076L79.7952 21.7946L79.8062 21.6826L79.8162 21.5706L79.8252 21.4586L79.8332 21.3476L79.8392 21.2376L79.8452 21.1276L79.8492 21.0186L79.8512 20.9106L79.8522 20.8026V20.6966L79.8502 20.5906L79.8482 20.5306L79.8452 20.4696L79.8412 20.4096L79.8362 20.3486L79.8312 20.2876L79.8252 20.2256L79.8182 20.1646L79.8102 20.1026L79.8022 20.0406L79.7922 19.9786L79.7822 19.9166L79.7722 19.8546L79.7602 19.7916L79.7482 19.7296L79.7352 19.6676L79.7212 19.6046L79.7062 19.5426L79.6912 19.4806L79.6762 19.4186L79.6602 19.3556L79.6442 19.2936L79.6262 19.2326L79.6092 19.1706L79.5902 19.1086L79.5712 19.0476L79.5512 18.9866L79.5302 18.9256L79.5092 18.8646L79.4872 18.8046L79.4642 18.7446L79.4412 18.6846L79.4172 18.6256L79.3922 18.5666L79.3672 18.5076L79.3412 18.4496L79.3152 18.3916L79.3122 18.3866L79.2882 18.3346L79.2602 18.2776L79.2322 18.2216L79.2042 18.1656L79.1752 18.1096L79.1452 18.0556L79.1152 18.0006L79.0842 17.9476L79.0532 17.8946L79.0212 17.8416L78.9892 17.7906L78.9562 17.7396L78.9222 17.6896L78.8892 17.6396L78.8542 17.5906L78.8202 17.5426L78.7842 17.4956L78.7492 17.4486L78.7132 17.4036L78.6762 17.3586L78.6392 17.3146L78.6022 17.2716L78.5652 17.2296L78.5272 17.1886L78.4882 17.1476L78.4502 17.1086L78.4112 17.0706L78.3712 17.0326L78.3322 16.9966L78.2922 16.9606L78.2522 16.9266L78.2122 16.8936L78.1712 16.8616L78.1302 16.8296L78.0892 16.7996L78.0482 16.7706L78.0072 16.7426L77.9652 16.7156L77.9242 16.6906L77.8822 16.6656L77.8402 16.6426L77.7982 16.6196L77.7562 16.5986L77.7142 16.5786L77.6722 16.5596L77.6292 16.5416L77.6172 16.5366L77.5872 16.5246L77.5442 16.5086L77.5022 16.4936L77.4592 16.4806L77.4172 16.4676L77.3742 16.4556L77.3312 16.4456L77.2882 16.4366L77.2442 16.4286L77.2012 16.4216L77.1572 16.4156L77.1132 16.4106L77.0692 16.4076L77.0252 16.4046L76.9802 16.4036H76.9352L76.8902 16.4046L76.8452 16.4076L76.7992 16.4106L76.7532 16.4156L76.7072 16.4226L76.6602 16.4296L76.6142 16.4386L76.5662 16.4486L76.5192 16.4606L76.4712 16.4736L76.4222 16.4876L76.3722 16.5036L76.3232 16.5216L76.2722 16.5406L76.2212 16.5616L76.1692 16.5846L76.1172 16.6086L76.0642 16.6346L76.0112 16.6616L75.9572 16.6916L75.9022 16.7226L75.8862 16.7326L75.8462 16.7556L75.7902 16.7896L75.7332 16.8256L75.6752 16.8646L75.6172 16.9046L75.5582 16.9466L75.4992 16.9916L75.4392 17.0376L75.3792 17.0866L75.2902 17.1606L75.2012 17.2386L75.1122 17.3196L75.0232 17.4026L74.9332 17.4896L74.8442 17.5806L74.7542 17.6736L74.6642 17.7706L74.5742 17.8706L74.4852 17.9736L74.3952 18.0806L74.3062 18.1896L74.2172 18.3016L74.1282 18.4166L74.0402 18.5346L73.9522 18.6546L73.8642 18.7776L73.7772 18.9036L73.6912 19.0316L73.6052 19.1626L73.5202 19.2956L73.4352 19.4306L73.3522 19.5686L73.2692 19.7086L73.1862 19.8506L73.1052 19.9946L73.0252 20.1406L72.9452 20.2886L72.8672 20.4386L72.7892 20.5906L72.7122 20.7446L72.6362 20.8996L72.5612 21.0566L72.4872 21.2146L72.4142 21.3746L72.3422 21.5356L72.2722 21.6986L72.2032 21.8626L72.1352 22.0276L72.0682 22.1946L72.0032 22.3616L71.9402 22.5306L71.8782 22.6996L71.8172 22.8696L71.7582 23.0416L71.7012 23.2136L71.6452 23.3866L71.5912 23.5596L71.5382 23.7336L71.4882 23.9076L71.4392 24.0826L71.3922 24.2586L71.3462 24.4336L71.3022 24.6096L71.2592 24.7856L71.2182 24.9626L71.1802 25.1386L71.1432 25.3146L71.1082 25.4906L71.0752 25.6676L71.0662 25.7166L71.0442 25.8426L71.0152 26.0186L70.9872 26.1936L70.9622 26.3676L70.9392 26.5426L70.9182 26.7156L70.9002 26.8886L70.8832 27.0616L70.8682 27.2336L70.8562 27.4046L70.8452 27.5746L70.8372 27.7436L70.8322 27.9116L70.8292 28.0786L70.8282 28.2446L70.8302 28.4086L70.8342 28.5726L70.8412 28.7336L70.8502 28.8946L70.8622 29.0536L70.8762 29.2116L70.8922 29.3686L70.9022 29.4446L70.9122 29.5226L70.9232 29.5996L70.9342 29.6756L70.9462 29.7516L70.9592 29.8276L70.9722 29.9026L70.9862 29.9776L71.0012 30.0516L71.0162 30.1246L71.0312 30.1986L71.0472 30.2706L71.0632 30.3426L71.0802 30.4146L71.0982 30.4856L71.1162 30.5566L71.1352 30.6256L71.1552 30.6956L71.1752 30.7646L71.1962 30.8326L71.2172 30.9006L71.2402 30.9676L71.2632 31.0346L71.2862 31.1006L71.3112 31.1656L71.3362 31.2306L71.3612 31.2946L71.3722 31.3196L71.3882 31.3586L71.4152 31.4216L71.4422 31.4836L71.4702 31.5456L71.4982 31.6076L71.5282 31.6676L71.5582 31.7286L71.5882 31.7876L71.6192 31.8466L71.6512 31.9046L71.6842 31.9626L71.7172 32.0196L71.7512 32.0756L71.7862 32.1316L71.8222 32.1866L71.8582 32.2406L71.8952 32.2946L71.9322 32.3476L71.9702 32.3996L72.0092 32.4516L72.0492 32.5026L72.0892 32.5536L72.1302 32.6036L72.1722 32.6526L72.2152 32.7016L72.2582 32.7496L72.3022 32.7966L72.3472 32.8436L72.3932 32.8896L72.4392 32.9346L72.4862 32.9796L72.5332 33.0236L72.5802 33.0676L72.6292 33.1106L72.6782 33.1526L72.7292 33.1936L72.7802 33.2346L72.8322 33.2756L72.8852 33.3146L72.9392 33.3536L72.9932 33.3916L73.0492 33.4296L73.1052 33.4666L73.1632 33.5026L73.2212 33.5386L73.2802 33.5736L73.3402 33.6076L73.4022 33.6416L73.4642 33.6746L73.5272 33.7066L73.5912 33.7376L73.6572 33.7686L73.7232 33.7986L73.7902 33.8286L73.8592 33.8566L73.9282 33.8846L73.9992 33.9116L74.0712 33.9376L74.1442 33.9636L74.2172 33.9886L74.2932 34.0126L74.3692 34.0356L74.4452 34.0576L74.4842 34.0686L74.5232 34.0806L74.6012 34.1026L74.7322 34.1386L74.8642 34.1716L74.9982 34.2036L75.1342 34.2336L75.2722 34.2616L75.4102 34.2876L75.5502 34.3126L75.6912 34.3346L75.8342 34.3556L75.9782 34.3746L76.1222 34.3926L76.2682 34.4076L76.4142 34.4216L76.5612 34.4336L76.7082 34.4436L76.8562 34.4516L77.0032 34.4576L77.1512 34.4626L77.1952 34.4636L77.3002 34.4666L77.4482 34.4696L77.5962 34.4706L77.7432 34.4696L77.8892 34.4676L78.0352 34.4626L78.1812 34.4566L78.3252 34.4486L78.4682 34.4396L78.6112 34.4286L78.7522 34.4156L78.8912 34.4006L79.0292 34.3836L79.1672 34.3656L79.2482 34.3536L79.3282 34.3416L79.4092 34.3276L79.4902 34.3126L79.5712 34.2966L79.6522 34.2796L79.7332 34.2616L79.8142 34.2426L79.8952 34.2226L79.9762 34.2016L80.0572 34.1806L80.1382 34.1576L80.2192 34.1336L80.3012 34.1096L80.3822 34.0846L80.4632 34.0586L80.5162 34.0406L80.5452 34.0316L80.6262 34.0046L80.7082 33.9766L80.7882 33.9476L80.9542 33.8876L81.1182 33.8256L81.2832 33.7606L81.4482 33.6926L81.6132 33.6226L81.7782 33.5506L81.9432 33.4776L82.1082 33.4016L82.2732 33.3246L82.4382 33.2466L82.6032 33.1666L82.7682 33.0866L83.0982 32.9246L83.4282 32.7606L83.7592 32.5976L84.0892 32.4356L84.2552 32.3546L84.4202 32.2756L85.1672 32.5136L84.9232 33.2586L84.7662 33.3436L84.6102 33.4296L84.2942 33.6076L83.9762 33.7886L83.6552 33.9726L83.3312 34.1566L83.1662 34.2486L83.0012 34.3396L82.8342 34.4296L82.6662 34.5196L82.4982 34.6086L82.3292 34.6966L82.1592 34.7836L81.9872 34.8686L81.8142 34.9516L81.6392 35.0326L81.4632 35.1136L81.2862 35.1906L81.1952 35.2286L81.1052 35.2666L81.0152 35.3026L80.9832 35.3156L80.9242 35.3386L80.8322 35.3736L80.7402 35.4076L80.6482 35.4406L80.5552 35.4726L80.4622 35.5046L80.3682 35.5346L80.2742 35.5646L80.1802 35.5926L80.0842 35.6206L79.9892 35.6476L79.8932 35.6726L79.7962 35.6976L79.6992 35.7206L79.6012 35.7426L79.5032 35.7646L79.4042 35.7836L79.2492 35.8136L79.0932 35.8406L78.9352 35.8666L78.7762 35.8896L78.6152 35.9116L78.4532 35.9316L78.2912 35.9496L78.1272 35.9656L77.9632 35.9796L77.7982 35.9926L77.6322 36.0026L77.4652 36.0106L77.2982 36.0166L77.1802 36.0196L77.1322 36.0206L76.9652 36.0216L76.7972 36.0196L76.6292 36.0166L76.4622 36.0106L76.2942 36.0026L76.1272 35.9926L75.9602 35.9816L75.7932 35.9666L75.6272 35.9506L75.4622 35.9326L75.2972 35.9116L75.1332 35.8896L74.9702 35.8646L74.8082 35.8366L74.6472 35.8076L74.4872 35.7756L74.3282 35.7416L74.1712 35.7046L74.0702 35.6796L74.0192 35.6656L73.9712 35.6516L73.8722 35.6226L73.7742 35.5916L73.6782 35.5606L73.5822 35.5276L73.4882 35.4936L73.3942 35.4586L73.3022 35.4216L73.2102 35.3846L73.1202 35.3456L73.0312 35.3066L72.9432 35.2656L72.8562 35.2236L72.7702 35.1806L72.6852 35.1366L72.6012 35.0916L72.5182 35.0456L72.4372 34.9976L72.3562 34.9496L72.2772 34.8996L72.1982 34.8496L72.1212 34.7986L72.0452 34.7456L71.9692 34.6926L71.8942 34.6376L71.8202 34.5826L71.7472 34.5256L71.6762 34.4686L71.6052 34.4106L71.5362 34.3506L71.4682 34.2906L71.4012 34.2296L71.3352 34.1676L71.2702 34.1046L71.2072 34.0416L71.1442 33.9766L71.0832 33.9116L71.0222 33.8456L70.9632 33.7786L70.9052 33.7106L70.8492 33.6416L70.7932 33.5726L70.7382 33.5026L70.6852 33.4316L70.6332 33.3606L70.5812 33.2886L70.5312 33.2156L70.4822 33.1426L70.4342 33.0676L70.3882 32.9936L70.3422 32.9176L70.2962 32.8416L70.2522 32.7656L70.2082 32.6876L70.1662 32.6106L70.1252 32.5316L70.0842 32.4526L70.0452 32.3736L70.0072 32.2936L69.9702 32.2136L69.9342 32.1326L69.8992 32.0506L69.8652 31.9696L69.8452 31.9196L69.8322 31.8876L69.8002 31.8056L69.7692 31.7226L69.7402 31.6396L69.7112 31.5566L69.6832 31.4726L69.6572 31.3886L69.6312 31.3046L69.6062 31.2196L69.5822 31.1336L69.5592 31.0486L69.5372 30.9626L69.5162 30.8756L69.4952 30.7896L69.4762 30.7026L69.4582 30.6146L69.4402 30.5266L69.4232 30.4386L69.4072 30.3506L69.3922 30.2626L69.3772 30.1736L69.3632 30.0836L69.3492 29.9946L69.3372 29.9046L69.3252 29.8146L69.3142 29.7246L69.3032 29.6346L69.2942 29.5416L69.2792 29.3606L69.2652 29.1766L69.2552 28.9916L69.2482 28.8056L69.2432 28.6196L69.2422 28.4316L69.2432 28.2446L69.2472 28.0556L69.2542 27.8666L69.2642 27.6776L69.2772 27.4876L69.2922 27.2976L69.3082 27.1066L69.3272 26.9156L69.3492 26.7246L69.3732 26.5336L69.4002 26.3416L69.4292 26.1506L69.4602 25.9586L69.4942 25.7666L69.5292 25.5756L69.5572 25.4376L69.5682 25.3836L69.6092 25.1926L69.6522 25.0016L69.6982 24.8116L69.7442 24.6206L69.7932 24.4306L69.8432 24.2416L69.8962 24.0526L69.9502 23.8636L70.0072 23.6756L70.0652 23.4886L70.1252 23.3016L70.1872 23.1156L70.2502 22.9306L70.3152 22.7466L70.3822 22.5636L70.4512 22.3806L70.5212 22.1996L70.5932 22.0196L70.6662 21.8406L70.7412 21.6626L70.8172 21.4856L70.8942 21.3096L70.9722 21.1356L71.0522 20.9626L71.1322 20.7916L71.2152 20.6216L71.2982 20.4526L71.3832 20.2856L71.4692 20.1206L71.5562 19.9576L71.6442 19.7956L71.7342 19.6356L71.8242 19.4776L71.9162 19.3216L72.0092 19.1676L72.1022 19.0146L72.1972 18.8646L72.2932 18.7166L72.3892 18.5716L72.4872 18.4276L72.5852 18.2866L72.6852 18.1476L72.7852 18.0106L72.8862 17.8766L72.9872 17.7446L73.0902 17.6156L73.1932 17.4896L73.2972 17.3656L73.4022 17.2446L73.5072 17.1266L73.6132 17.0106L73.7202 16.8976L73.8272 16.7886L73.9342 16.6816L74.0422 16.5776L74.1512 16.4766L74.2602 16.3796L74.3692 16.2856L74.4802 16.1946L74.5902 16.1076L74.6702 16.0456L74.7492 15.9876L74.8282 15.9316L74.9062 15.8776L74.9852 15.8256L75.0642 15.7756L75.1432 15.7276L75.2232 15.6826L75.2782 15.6516L75.3022 15.6396L75.3812 15.5986L75.4612 15.5606L75.5402 15.5246L75.6202 15.4906L75.6992 15.4586L75.7782 15.4296L75.8572 15.4016L75.9362 15.3766L76.0152 15.3526L76.0942 15.3316L76.1732 15.3126L76.2512 15.2966L76.3292 15.2816L76.4072 15.2686L76.4852 15.2586L76.5632 15.2496L76.6402 15.2436L76.7172 15.2396L76.7942 15.2376H76.8702L76.9682 15.2266Z" fill="#A168BE"/>
<path fill-rule="evenodd" clip-rule="evenodd" d="M92.243 12.1308L92.245 12.0978V12.1328L92.246 12.0868L92.248 12.1248L92.247 12.0798L92.251 12.1208L92.248 12.0778L92.253 12.1138L92.247 12.0688L92.253 12.0978L92.248 12.0668L92.243 12.0358L92.25 12.0618L92.243 12.0298L92.235 11.9988L92.243 12.0228L92.234 11.9908L92.223 11.9578L92.233 11.9808L92.22 11.9468L92.207 11.9138L92.217 11.9338L92.202 11.8998L92.186 11.8658L92.197 11.8848L92.18 11.8498L92.162 11.8158L92.173 11.8318L92.154 11.7968L92.133 11.7618L92.144 11.7768L92.122 11.7418L92.104 11.7128L92.085 11.6838L92.065 11.6548L92.043 11.6248L92.02 11.5938L91.995 11.5638L91.969 11.5328L91.942 11.5018L91.914 11.4708L91.884 11.4388L91.853 11.4078L91.821 11.3758L91.788 11.3438L91.754 11.3128L91.718 11.2808L91.682 11.2488L91.644 11.2178L91.605 11.1868L91.565 11.1548L91.525 11.1238L91.483 11.0928L91.441 11.0628L91.397 11.0318L91.353 11.0018L91.308 10.9718L91.262 10.9428L91.216 10.9128L91.169 10.8838L91.122 10.8558L91.074 10.8278L91.026 10.7998L90.978 10.7728L90.875 10.7188L90.772 10.6668L90.667 10.6178L90.56 10.5698L90.453 10.5248L90.344 10.4818L90.235 10.4408L90.123 10.4018L90.069 10.3848L90.014 10.3668L89.958 10.3507L89.903 10.3338L89.847 10.3188L89.792 10.3038L89.737 10.2898L89.681 10.2768L89.626 10.2638L89.571 10.2528L89.516 10.2418L89.461 10.2308L89.407 10.2218L89.353 10.2128L89.299 10.2048L89.246 10.1978L89.193 10.1908L89.161 10.1878L89.14 10.1848L89.088 10.1778L89.036 10.1708L88.985 10.1658L88.934 10.1608L88.883 10.1568L88.833 10.1538L88.784 10.1518L88.735 10.1508H88.687H88.64L88.593 10.1518L88.547 10.1538L88.501 10.1568L88.455 10.1608L88.411 10.1658L88.366 10.1708L88.323 10.1768L88.281 10.1838L88.239 10.1918L88.198 10.2008L88.159 10.2098L88.113 10.2228L88.126 10.2178L88.082 10.2308L88.038 10.2458L88.051 10.2397L88.009 10.2558L87.967 10.2718L87.98 10.2658L87.939 10.2828L87.899 10.3008L87.912 10.2938L87.873 10.3128L87.835 10.3328L87.848 10.3248L87.811 10.3458L87.775 10.3678L87.788 10.3588L87.753 10.3818L87.719 10.4068L87.731 10.3958L87.698 10.4218L87.666 10.4478L87.677 10.4368L87.646 10.4638L87.616 10.4928L87.627 10.4808L87.597 10.5108L87.572 10.5378L87.568 10.5408L87.578 10.5278L87.546 10.5568L87.514 10.5868L87.523 10.5738L87.492 10.6058L87.463 10.6398L87.47 10.6268L87.441 10.6618L87.413 10.6988L87.421 10.6838L87.405 10.7078L87.412 10.6908L87.397 10.7158L87.403 10.6998L87.388 10.7268L87.393 10.7108L87.379 10.7388L87.383 10.7248L87.371 10.7528L87.374 10.7397L87.362 10.7688L87.365 10.7558L87.354 10.7868L87.356 10.7748L87.346 10.8068L87.347 10.7948L87.338 10.8268L87.339 10.8168L87.331 10.8448L87.325 10.8738V10.8638L87.319 10.8938L87.313 10.9248V10.9158L87.309 10.9478L87.305 10.9808L87.304 10.9728L87.301 11.0058L87.299 11.0398L87.298 11.0328L87.297 11.0678V11.1028L87.296 11.0958V11.1318L87.297 11.1678L87.296 11.1618L87.298 11.1978L87.301 11.2348L87.299 11.2288L87.303 11.2648L87.313 11.3398L87.31 11.3308L87.323 11.4048L87.337 11.4748L87.355 11.5478L87.352 11.5418L87.363 11.5778L87.374 11.6138L87.372 11.6108L87.384 11.6458L87.397 11.6818L87.395 11.6778L87.408 11.7128L87.422 11.7467L87.42 11.7438L87.435 11.7778L87.45 11.8108L87.448 11.8068L87.463 11.8398L87.479 11.8717L87.476 11.8688L87.493 11.8998L87.509 11.9298L87.507 11.9268L87.524 11.9558L87.542 11.9848L87.539 11.9818L87.557 12.0098L87.576 12.0368L87.573 12.0328L87.592 12.0588L87.612 12.0838L87.609 12.0808L87.631 12.1058L87.627 12.1028L87.65 12.1268L87.646 12.1238L87.669 12.1468L87.665 12.1438L87.689 12.1658L87.684 12.1628L87.708 12.1828L87.704 12.1798L87.729 12.1998L87.724 12.1968L87.749 12.2148L87.744 12.2118L87.769 12.2288L87.764 12.2257L87.79 12.2408L87.784 12.2388L87.811 12.2528L87.805 12.2498L87.832 12.2628L87.826 12.2608L87.853 12.2708L87.847 12.2698L87.874 12.2788L87.868 12.2768L87.896 12.2848L87.986 12.4088L87.861 12.4978L87.829 12.4958L87.794 12.4908L87.759 12.4838L87.724 12.4748L87.69 12.4638L87.656 12.4518L87.622 12.4378L87.589 12.4218L87.556 12.4048L87.523 12.3868L87.491 12.3668L87.46 12.3458L87.429 12.3238L87.398 12.2998L87.368 12.2758L87.338 12.2498L87.309 12.2228L87.28 12.1948L87.252 12.1668L87.224 12.1368L87.196 12.1058L87.169 12.0748L87.143 12.0428L87.117 12.0098L87.091 11.9757L87.066 11.9408L87.042 11.9058L87.018 11.8698L86.994 11.8338L86.972 11.7968L86.949 11.7588L86.927 11.7198L86.885 11.6438L86.845 11.5648L86.808 11.4838L86.774 11.4028L86.758 11.3598L86.743 11.3178L86.728 11.2758L86.714 11.2338L86.701 11.1908L86.688 11.1488L86.677 11.1058L86.667 11.0628L86.657 11.0188L86.649 10.9757L86.642 10.9318L86.636 10.8888L86.631 10.8448L86.628 10.7998L86.625 10.7558V10.7118L86.626 10.6668L86.628 10.6217L86.632 10.5768L86.639 10.5308L86.647 10.4858L86.657 10.4398L86.67 10.3938L86.685 10.3488L86.706 10.2838L86.729 10.2218L86.755 10.1598L86.782 10.0988L86.812 10.0388L86.844 9.97975L86.848 9.97275L86.882 9.92575L86.922 9.87275L86.964 9.82175L87.008 9.77275L87.054 9.72475L87.1 9.67875L87.147 9.63475L87.196 9.59175L87.246 9.55075L87.297 9.51075L87.35 9.47275L87.404 9.43675L87.458 9.40175L87.514 9.36775L87.571 9.33675L87.629 9.30675L87.687 9.27775L87.747 9.25075L87.807 9.22475L87.868 9.19975L87.929 9.17675L87.992 9.15575L88.055 9.13475L88.118 9.11575L88.182 9.09775L88.247 9.08175L88.312 9.06575L88.378 9.05175L88.444 9.03875L88.511 9.02775L88.578 9.01675L88.646 9.00675L88.714 8.99875L88.782 8.99175L88.851 8.98475L88.92 8.97975L88.99 8.97575L89.06 8.97275L89.13 8.96975L89.2 8.96875H89.229L89.271 8.96975L89.341 8.97275L89.412 8.97675L89.483 8.98175L89.554 8.98775L89.625 8.99475L89.696 9.00175L89.768 9.01075L89.839 9.01975L89.911 9.03075L89.982 9.04175L90.053 9.05375L90.125 9.06675L90.196 9.07975L90.268 9.09475L90.339 9.10975L90.41 9.12575L90.483 9.14375L90.622 9.17975L90.761 9.21875L90.901 9.26175L91.039 9.30675L91.177 9.35575L91.313 9.40675L91.448 9.46175L91.58 9.51775L91.648 9.54775L91.714 9.57875L91.779 9.60975L91.844 9.64175L91.908 9.67375L91.971 9.70675L92.035 9.74075L92.097 9.77575L92.159 9.81075L92.22 9.84675L92.281 9.88375L92.341 9.92075L92.4 9.95875L92.459 9.99775L92.517 10.0378L92.574 10.0778L92.63 10.1188L92.686 10.1608L92.741 10.2038L92.795 10.2467L92.848 10.2908L92.9 10.3358L92.952 10.3818L93.002 10.4288L93.052 10.4757L93.1 10.5248L93.148 10.5738L93.194 10.6248L93.24 10.6758L93.285 10.7278L93.329 10.7808L93.372 10.8358L93.414 10.8908L93.454 10.9478L93.493 11.0048L93.531 11.0638L93.567 11.1238L93.601 11.1848L93.634 11.2467L93.665 11.3108L93.694 11.3758L93.721 11.4418L93.747 11.5088L93.77 11.5778L93.791 11.6468L93.809 11.7178L93.825 11.7898L93.84 11.8668L93.852 11.9478L93.86 12.0318L93.864 12.1138V12.1948L93.861 12.2758L93.856 12.3548L93.847 12.4338L93.837 12.5128L93.824 12.5908L93.81 12.6688L93.794 12.7467L93.777 12.8248L93.758 12.9028L93.737 12.9818L93.715 13.0608L93.692 13.1398L93.667 13.2198L93.641 13.2998L93.613 13.3808L93.584 13.4628L93.554 13.5438L93.523 13.6258L93.49 13.7078L93.456 13.7928L93.386 13.9598L93.311 14.1318L93.233 14.3058L93.152 14.4827L93.067 14.6628L93.045 14.7078L92.978 14.8438L92.886 15.0268L92.792 15.2118L92.695 15.3978L92.597 15.5858L92.496 15.7748L92.394 15.9658L92.188 16.3468L91.98 16.7298L91.565 17.4897L91.364 17.8628L91.168 18.2287L91.074 18.4067L90.982 18.5838L90.955 18.6378L90.892 18.7557L90.805 18.9237L90.722 19.0877L90.642 19.2478L90.566 19.4028L90.494 19.5528L90.428 19.6968L90.367 19.8348L90.31 19.9688L90.305 19.9828L90.36 19.9678L90.431 19.9468L90.506 19.9227L90.583 19.8968L90.662 19.8677L90.744 19.8377L90.827 19.8058L91.005 19.7358L91.19 19.6618L91.381 19.5868L91.393 19.5828L91.484 19.5498L91.588 19.5138L91.695 19.4787L91.801 19.4458L92.117 19.3537L92.429 19.2658L92.742 19.1798L93.056 19.0978L93.369 19.0168L93.683 18.9377L93.998 18.8618L94.14 18.8278L94.312 18.7898L94.627 18.7218L94.943 18.6567L95.259 18.5938L95.575 18.5327L95.891 18.4738L96.207 18.4168L96.524 18.3618L96.695 18.3328L96.839 18.3107L97.157 18.2638L97.474 18.2178L97.791 18.1748L98.108 18.1317L98.425 18.0918L98.593 18.0708L98.744 18.0658L99.065 18.0568L99.386 18.0477L99.707 18.0398L100.027 18.0327L100.347 18.0258L100.475 18.0228H100.656H100.976L101.295 18.0218H101.614H101.932L102.658 18.5568L102.081 19.2508L101.775 19.3268L101.471 19.4048L101.167 19.4858L100.865 19.5668L100.683 19.6177L100.562 19.6488L100.26 19.7298L99.959 19.8117L99.656 19.8968L99.356 19.9828L99.057 20.0708L98.918 20.1138L98.757 20.1468L98.455 20.2108L98.154 20.2768L97.853 20.3438L97.553 20.4128L97.253 20.4838L97.117 20.5168L96.953 20.5548L96.654 20.6248L96.356 20.6968L96.059 20.7707L95.762 20.8468L95.466 20.9248L95.171 21.0047L94.877 21.0858L94.717 21.1317L94.582 21.1688L94.288 21.2498L93.996 21.3338L93.703 21.4198L93.412 21.5078L93.121 21.5978L92.83 21.6908L92.544 21.7847L92.476 21.8088L92.407 21.8348L92.333 21.8628L92.265 21.8898L92.256 21.8937L92.084 21.9598L91.899 22.0327L91.702 22.1078L91.595 22.1478L91.488 22.1877L91.376 22.2267L91.261 22.2648L91.142 22.3018L91.019 22.3377L90.893 22.3718L90.767 22.4018L90.696 22.4168L90.628 22.4298L90.559 22.4428L90.489 22.4548L90.417 22.4647L90.345 22.4738L90.272 22.4818L90.198 22.4888L90.122 22.4938L90.046 22.4978L89.969 22.4988L89.891 22.4998L89.813 22.4978L89.734 22.4938L89.654 22.4878L89.573 22.4798L89.492 22.4698L89.41 22.4568L89.328 22.4418L89.277 22.4308L89.245 22.4237L89.163 22.4018L89.08 22.3768L88.998 22.3498L88.915 22.3208L88.833 22.2878L88.752 22.2528L88.671 22.2147L88.588 22.1727L88.529 22.1408L88.468 22.1037L88.407 22.0648L88.348 22.0218L88.29 21.9748L88.235 21.9268L88.182 21.8748L88.131 21.8208L88.084 21.7638L88.038 21.7058L87.996 21.6468L87.957 21.5858L87.922 21.5248L87.884 21.4518L87.835 21.3418L87.792 21.2208L87.761 21.1027L87.739 20.9888L87.724 20.8787L87.717 20.7728L87.715 20.6717L87.718 20.5747L87.725 20.4808L87.736 20.3898L87.75 20.3018L87.766 20.2158L87.784 20.1307L87.804 20.0487L87.826 19.9668L87.85 19.8868L87.876 19.8058L87.903 19.7248L87.932 19.6457L87.962 19.5658L87.994 19.4858L88.027 19.4058L88.061 19.3268L88.097 19.2468L88.134 19.1668L88.172 19.0858L88.213 19.0037L88.293 18.8438L88.378 18.6808L88.468 18.5148L88.562 18.3478L88.659 18.1778L88.759 18.0067L88.863 17.8338L88.969 17.6587L89.044 17.5388L89.079 17.4828L89.191 17.3068L89.306 17.1287L89.539 16.7708L89.777 16.4108L90.256 15.6878L90.493 15.3288L90.725 14.9738L90.838 14.7998L90.948 14.6268L91.056 14.4558L91.162 14.2868L91.265 14.1217L91.365 13.9588L91.436 13.8398L91.46 13.7998L91.552 13.6448L91.64 13.4938L91.723 13.3468L91.8 13.2048L91.874 13.0658L91.907 12.9998L91.94 12.9348L91.971 12.8708L92 12.8088L92.028 12.7478L92.055 12.6898L92.079 12.6328L92.102 12.5778L92.123 12.5248L92.142 12.4738L92.159 12.4258L92.175 12.3798L92.189 12.3368L92.202 12.2968L92.216 12.2488L92.211 12.2688L92.223 12.2248L92.232 12.1818L92.229 12.2058L92.236 12.1668L92.243 12.1287L92.24 12.1578L92.243 12.1308ZM90.094 20.6798L90.099 20.6378L90.098 20.6628V20.6857L90.1 20.6348L90.101 20.6798V20.6228L90.104 20.6658L90.1 20.6088V20.6118L90.094 20.6498L90.1 20.6157L90.097 20.6488L90.094 20.6798Z" fill="#A168BE"/>
</svg>
