<svg width="81" height="87" viewBox="0 0 81 87" fill="none" xmlns="http://www.w3.org/2000/svg">
<path fill-rule="evenodd" clip-rule="evenodd" d="M0.36968 71.7644L0.423858 71.7504L0.419077 71.7464L0.548677 71.6984L0.597012 71.6764L0.646409 71.6984L0.728738 71.7334L0.819564 71.7704L0.91039 71.8064L0.917296 71.8104L1.01397 71.8624L1.11542 71.9164L1.22111 71.9704L1.32841 72.0264L1.5499 72.1374L1.77085 72.2464L1.98384 72.3504L2.18249 72.4474L2.3599 72.5344L2.50915 72.6094L2.57395 72.6434L2.62707 72.6724L2.71736 72.7214L2.80341 72.7674L2.92451 72.8294L2.97763 72.8584L3.15184 72.9484L3.32712 73.0354L3.50346 73.1214L3.68087 73.2054L3.85987 73.2874L4.03993 73.3674L4.22105 73.4464L4.40111 73.5294L4.58117 73.6114L4.76335 73.6924L4.9466 73.7734L5.12985 73.8534L5.49953 74.0144L5.5298 74.0274L5.86655 74.1874L6.2357 74.3624L6.42054 74.4514L6.60644 74.5414L6.79128 74.6324L6.9501 74.7104L6.97718 74.7244L7.16096 74.8224L7.3458 74.9214L7.52958 75.0224L7.71336 75.1254L7.89661 75.2304L8.07985 75.3374L8.2631 75.4474L8.44635 75.5604L8.4899 75.5874L8.53717 75.6194L8.62641 75.6814L8.71352 75.7444L8.79956 75.8084L8.88401 75.8734L8.96741 75.9394L9.04761 76.0064L9.12728 76.0744L9.20589 76.1424L9.28131 76.2114L9.35567 76.2804L9.4295 76.3494L9.50121 76.4194L9.57079 76.4894L9.63878 76.5604L9.7057 76.6304L9.77157 76.7004L9.80928 76.7424L9.83424 76.7714L9.89426 76.8434L9.95216 76.9154L10.0085 76.9864L10.0637 77.0574L10.1179 77.1274L10.171 77.1974L10.2698 77.3324L10.3649 77.4654L10.453 77.5934L10.5354 77.7164L10.5598 77.7534L10.5869 77.8524L10.6235 77.9874L10.6363 78.0314L10.6469 78.1204L10.6634 78.2454L10.6878 78.4154L10.6915 78.4554L10.7117 78.6164L10.7282 78.7224L10.7234 78.7144L10.7314 78.7474L10.7229 78.7364L10.7255 78.7464L10.709 78.7324L10.7138 78.7374L10.6666 78.7034L10.6028 78.6954L10.7101 78.7494L10.743 78.7884L10.7675 78.8264L10.7802 78.8654L10.7823 78.8914L10.7797 78.9294L10.7717 78.9654L10.7574 79.0004V79.0014L10.7383 79.0314L10.7149 79.0574L10.6867 79.0794L10.657 79.0974L10.623 79.1104H10.6219L10.5879 79.1184L10.5529 79.1194L10.5178 79.1154L10.4838 79.1064L10.452 79.0914L10.4482 79.0904L10.4222 79.0744L10.3978 79.0544L10.384 79.0434L10.3627 79.0254L10.3277 78.9994L10.2326 78.9384L10.0924 78.8594L10.0573 78.8424L9.91232 78.7624L9.80662 78.7114L9.73014 78.6774L9.69508 78.6554L9.58673 78.5884L9.50652 78.5424L9.48156 78.5124L9.39551 78.4144L9.30468 78.3134L9.20908 78.2094L9.10657 78.1034L9.05505 78.0514L9.00193 77.9994L8.94669 77.9464L8.89145 77.8934L8.83409 77.8404L8.77619 77.7884L8.75282 77.7674L8.71883 77.7344L8.66146 77.6794L8.6025 77.6254L8.54355 77.5714L8.48247 77.5184L8.42138 77.4654L8.35924 77.4134L8.29656 77.3624L8.23282 77.3124L8.16802 77.2624L8.10322 77.2134L8.03736 77.1664L7.97044 77.1194L7.90245 77.0734L7.83446 77.0284L7.76594 76.9854L7.69743 76.9424L7.65971 76.9214L7.62678 76.9014L7.46106 76.8024L7.29269 76.7054L7.12325 76.6094L6.95169 76.5154L6.77854 76.4234L6.60538 76.3324L6.4301 76.2424L6.25376 76.1534L6.22773 76.1404L6.07742 76.0624L5.90001 75.9714L5.72261 75.8814L5.54361 75.7914L5.18349 75.6114L4.84834 75.4444L4.82019 75.4294L4.46166 75.2354L4.28054 75.1364L4.10048 75.0374L3.91936 74.9374L3.7393 74.8364L3.55817 74.7334L3.38077 74.6254L3.20283 74.5154L3.02543 74.4034L2.84909 74.2894L2.67275 74.1744L2.49747 74.0554L2.32325 73.9354L2.2712 73.8974L2.15222 73.8114L2.06617 73.7464L1.98491 73.6854L1.94826 73.6574L1.90364 73.6234L1.77776 73.5344L1.62107 73.4274L1.43889 73.3034L1.24023 73.1674L1.03309 73.0264L0.822751 72.8814L0.719177 72.8074L0.616665 72.7354L0.516809 72.6634L0.421202 72.5934L0.414296 72.5884L0.336748 72.5134L0.256545 72.4364L0.182185 72.3624L0.134912 72.3154L0.137567 72.2594L0.139692 72.1144L0.137036 72.0534L0.134912 72.0234L0.124289 72.0104L0.100918 71.9824L0.080735 71.9554L0.061613 71.9294L0.0440855 71.9024L0.0276198 71.8744L0.0132785 71.8424L0.00371803 71.8084L0 71.7824V71.7574L0.00371803 71.7294L0.0132785 71.7014L0.0286815 71.6764L0.0472717 71.6554L0.0685182 71.6394L0.0887019 71.6274L0.107823 71.6194L0.129069 71.6134L0.160938 71.6094L0.194931 71.6104L0.228926 71.6144L0.261857 71.6204L0.362775 71.7354L0.326126 71.7684L0.335687 71.7744L0.331969 71.7714L0.344716 71.7784L0.36968 71.7644ZM10.3654 78.7894L10.3404 78.8964L10.3426 78.8914L10.3473 78.9344L10.3484 78.9254L10.3542 78.9454L10.3564 78.9164L10.3601 78.9254V78.8794L10.4105 78.7524L10.3654 78.7894ZM0.200243 71.8384L0.183777 71.8444L0.198119 71.8404L0.191213 71.8444L0.203961 71.8394L0.198119 71.8434L0.211929 71.8354L0.207148 71.8394L0.216709 71.8324L0.197588 71.8354H0.208211L0.186964 71.8404L0.200243 71.8384Z" fill="#A168BE"/>
<path fill-rule="evenodd" clip-rule="evenodd" d="M7.60527 68.6216L7.61218 68.6206L7.59093 68.6386L7.59943 68.6376L7.57924 68.6576L7.58774 68.6566L7.56915 68.6776L7.57871 68.6766L7.56012 68.6996L7.57075 68.6966L7.55534 68.7216L7.56597 68.7176L7.55163 68.7446L7.56331 68.7396L7.55056 68.7676L7.56225 68.7626L7.55747 68.7756L7.54685 68.7826L7.55853 68.7776L7.541 68.7916L7.55269 68.7856L7.5341 68.8006L7.54578 68.7946L7.52825 68.8106L7.53888 68.8036L7.52241 68.8196L7.53197 68.8126L7.51657 68.8296L7.52507 68.8226L7.50966 68.8406L7.51922 68.8326L7.50382 68.8516L7.51232 68.8446L7.49798 68.8646L7.50594 68.8566L7.49161 68.8776L7.49957 68.8696L7.48576 68.8906L7.49267 68.8836L7.47886 68.9056L7.48842 68.8946L7.46398 68.9416L7.47461 68.9266L7.45708 68.9706L7.44061 69.0166L7.44911 69.0026L7.43477 69.0516L7.42043 69.1036L7.42734 69.0906L7.41459 69.1446L7.40397 69.2016L7.40875 69.1896L7.39919 69.2496L7.3944 69.2956L7.39228 69.3046L7.37794 69.3596L7.36413 69.4166L7.35032 69.4756L7.33757 69.5366L7.32589 69.5996L7.31526 69.6646L7.30464 69.7306L7.29614 69.7986L7.28658 69.8666L7.27861 69.9356L7.26427 70.0766L7.25152 70.2186L7.24196 70.3616L7.23347 70.5036L7.22762 70.6446L7.22178 70.7826L7.21913 70.8856L7.21116 71.0496L7.19947 71.2906L7.19257 71.4026L7.1846 71.5096L7.17398 71.6076L7.16707 71.6596L7.16017 71.7046L7.14476 71.8246L7.13042 71.9386L7.11767 72.0546L7.10121 72.1696L7.07306 72.3996L7.04703 72.6306L7.0226 72.8606L7.01091 72.9936L6.99817 73.0926L6.97002 73.3236L6.94293 73.5546L6.91796 73.7876L6.89353 74.0206L6.87016 74.2546L6.84891 74.4886L6.80536 74.9626L6.76287 75.4376L6.72037 75.9156L6.697 76.1576L6.67363 76.3986L6.6492 76.6416L6.64708 76.6596L6.61893 76.8846L6.58812 77.1286L6.55412 77.3726L6.51907 77.6186L6.48136 77.8646L6.44152 78.1116L6.39903 78.3596L6.35335 78.6066L6.33795 78.6876L6.32839 78.7326L6.3013 78.8566L6.27208 78.9816L6.24287 79.1056L6.2126 79.2306L6.18073 79.3566L6.10796 79.6376L6.06228 79.8146L6.01395 80.0096L5.96773 80.2026L5.96083 80.2196L5.91993 80.3226L5.87903 80.4296L5.83813 80.5366L5.7983 80.6436L5.78661 80.6736L5.75368 80.7496L5.70907 80.8546L5.66551 80.9596L5.62461 81.0616L5.5869 81.1606L5.55131 81.2566L5.53485 81.3036L5.51732 81.3476L5.48651 81.4326L5.45836 81.5136L5.44668 81.5476L5.43499 81.5816L5.42437 81.6136L5.41587 81.6426L5.40737 81.6796V81.6596L5.39941 81.6926L5.3925 81.7246L5.39144 81.7006L5.38666 81.7286L5.38188 81.7546L5.37816 81.7246L5.3771 81.7636L5.37232 81.7296L5.37125 81.7666L5.36435 81.7296L5.36541 81.7636L5.35585 81.7226L5.35851 81.7556L5.3447 81.7096L5.34841 81.7406L5.32982 81.6886L5.33567 81.7176L5.3107 81.6606L5.31867 81.6876L5.28468 81.6256L5.29424 81.6506L5.24856 81.5836L5.26024 81.6056L5.09931 82.7586H5.10037L3.94777 82.5906L3.90528 82.5416L3.84792 82.4576L3.80171 82.3746L3.76399 82.2956L3.73319 82.2186L3.70716 82.1446L3.68592 82.0726L3.66733 82.0036L3.65192 81.9356L3.63811 81.8686L3.62643 81.8026L3.61687 81.7376L3.60837 81.6726L3.6004 81.6076L3.59349 81.5426L3.58765 81.4776L3.58287 81.4126L3.57915 81.3436L3.57225 81.2156L3.56747 81.0826L3.56641 81.0186V80.9476L3.56906 80.8126L3.57172 80.6766L3.57756 80.5396L3.5834 80.4026L3.59137 80.2666L3.59721 80.1696L3.60199 80.1316L3.61846 79.9996L3.63599 79.8696L3.65351 79.7416L3.67104 79.6166L3.6737 79.5966L3.73372 79.3906L3.7948 79.1826L3.85004 79.0006L3.93237 78.7316L3.96318 78.6246L3.99504 78.5176L4.02532 78.4096L4.0556 78.3006L4.08481 78.1926L4.09437 78.1536L4.11455 78.0846L4.17563 77.8636L4.23353 77.6436L4.2909 77.4216L4.34507 77.1986L4.39712 76.9736L4.44865 76.7476L4.49804 76.5206L4.54372 76.3096L4.54744 76.2936L4.59896 76.0646L4.64942 75.8346L4.69882 75.6046L4.79761 75.1396L4.89428 74.6716L4.99201 74.2016L5.04247 73.9656L5.09293 73.7286L5.14498 73.4916L5.1981 73.2536L5.25228 73.0156L5.30752 72.7776L5.33248 72.6736L5.37019 72.5386L5.43818 72.3016L5.50776 72.0636L5.58053 71.8266L5.61824 71.7086L5.65807 71.5916L5.69897 71.4726L5.73987 71.3606L5.74943 71.3316L5.74678 71.3466L5.75634 71.3186L5.77758 71.2526L5.80095 71.1716L5.82698 71.0756L5.88488 70.8456L5.92631 70.6836L5.95233 70.5836L5.99111 70.4416L6.032 70.2956L6.0745 70.1456L6.12018 69.9936L6.16745 69.8396L6.21684 69.6876L6.24393 69.6096L6.27102 69.5326L6.29811 69.4566L6.32626 69.3806L6.35654 69.3056L6.38628 69.2306L6.41709 69.1576L6.44896 69.0846L6.48295 69.0136L6.51694 68.9426L6.52279 68.9316L6.5605 68.8776L6.60511 68.8136L6.65186 68.7526L6.69913 68.6926L6.74746 68.6356L6.79686 68.5806L6.84732 68.5276L6.90043 68.4776L6.95249 68.4316L6.98276 68.4076L7.01091 68.3856L7.04013 68.3646L7.0704 68.3446L7.10121 68.3256L7.13202 68.3076L7.16282 68.2906L7.19575 68.2746L7.22869 68.2596L7.26162 68.2456L7.29561 68.2336L7.31579 68.2266L7.33332 68.2296L7.37422 68.2366L7.41406 68.2446L7.45177 68.2546L7.48735 68.2666L7.52241 68.2786L7.5564 68.2916L7.58827 68.3066L7.60262 68.3136L7.61908 68.3146L7.64882 68.3176L7.6791 68.3226L7.70991 68.3286L7.74018 68.3356L7.76993 68.3446L7.8002 68.3546L7.83048 68.3666L7.86075 68.3796L7.89103 68.3946L7.92131 68.4096L7.95158 68.4266L7.98186 68.4446L8.01107 68.4636L8.04028 68.4836L8.078 68.6316L7.92874 68.6696L7.89847 68.6546L7.90112 68.6566L7.87191 68.6426L7.87456 68.6446L7.84641 68.6326L7.84907 68.6346L7.82092 68.6236L7.82464 68.6256L7.79648 68.6156L7.8002 68.6176L7.77311 68.6096L7.77789 68.6106L7.75081 68.6046L7.75559 68.6056L7.72956 68.6006L7.73434 68.6016L7.70831 68.5976L7.71416 68.5986L7.68919 68.5956L7.69504 68.5966L7.67007 68.5946L7.67591 68.5956H7.65148H7.65839L7.63395 68.5966H7.64086L7.61642 68.5986H7.62439L7.61164 68.6006L7.60527 68.6216Z" fill="#A168BE"/>
<path fill-rule="evenodd" clip-rule="evenodd" d="M10.5363 18.0274L10.6282 18.0294L10.72 18.0324L10.8119 18.0364L10.9038 18.0424L10.9947 18.0484L11.0111 18.0504L11.0855 18.0784L11.1763 18.1144L11.2655 18.1494L11.3548 18.1854L11.4419 18.2214L11.529 18.2584L11.615 18.2944L11.7 18.3314L11.785 18.3684L11.8663 18.4054L12.1616 18.7654L11.7802 19.0324L11.6968 19.0474L11.6166 19.0634L11.537 19.0824L11.4573 19.1034L11.3787 19.1264L11.3001 19.1524L11.2225 19.1804L11.145 19.2094L11.0685 19.2414L11.0063 19.2694L10.9925 19.2704L10.916 19.2784L10.8406 19.2864L10.7641 19.2964L10.6887 19.3074L10.6122 19.3184L10.5347 19.3314L10.4582 19.3444L10.3817 19.3594L10.3042 19.3744L10.2266 19.3904L10.2123 19.3934L10.1491 19.4044L10.0705 19.4194L9.99184 19.4354L9.91323 19.4504L9.83462 19.4664L9.75707 19.4834L9.59614 19.5204L9.43732 19.5614L9.34809 19.5844L9.27532 19.5984L9.11067 19.6324L8.94495 19.6674L8.77817 19.7054L8.61085 19.7464L8.44248 19.7884L8.27304 19.8334L8.10254 19.8794L7.93098 19.9264L7.75836 19.9754L7.58573 20.0244L7.41152 20.0754L7.23836 20.1274L6.88674 20.2344L6.53406 20.3424L6.17872 20.4514L5.82232 20.5594L5.7283 20.5874L5.64332 20.6124L5.46326 20.6634L5.2832 20.7144L5.10208 20.7634L4.92095 20.8124L4.73983 20.8584L4.55871 20.9044L4.37653 20.9494L4.19434 20.9914L4.01216 21.0324L3.82997 21.0714L3.64779 21.1074L3.46454 21.1404L3.28129 21.1714L3.10017 21.1984L3.00722 21.2114L2.91639 21.2234L2.82451 21.2354L2.73368 21.2454L2.64179 21.2554L2.55096 21.2644L2.45907 21.2724L2.36825 21.2784L2.27636 21.2844L2.18553 21.2894L2.09364 21.2934L2.00282 21.2954L1.97254 21.2964L1.9104 21.2904L1.81851 21.2804L1.72768 21.2694L1.63685 21.2574L1.54603 21.2444L1.45573 21.2304L1.36544 21.2154L1.31869 21.2074L1.27727 21.1714L1.19228 21.0994L1.10783 21.0324L1.0255 20.9694L0.944234 20.9114L0.86403 20.8584L0.784357 20.8104L0.691406 20.6874L0.813571 20.5944L0.900679 20.5684L0.986726 20.5354L1.07171 20.4954L1.15669 20.4484L1.24115 20.3944L1.32348 20.3334L1.36225 20.3014L1.40315 20.2974L1.48176 20.2884L1.56037 20.2784L1.63898 20.2664L1.71759 20.2534L1.79514 20.2404L1.87375 20.2254L1.92686 20.2144L1.95182 20.2124L2.03044 20.2054L2.11011 20.1974L2.18872 20.1894L2.26839 20.1794L2.34859 20.1694L2.42774 20.1574L2.50794 20.1454L2.58761 20.1324L2.66888 20.1184L2.74908 20.1034L2.82928 20.0884L2.90949 20.0724L3.07308 20.0384L3.23668 20.0014L3.40133 19.9614L3.56599 19.9184L3.73171 19.8734L3.89849 19.8274L4.0658 19.7784L4.23311 19.7274L4.40149 19.6744L4.56986 19.6194L4.7393 19.5634L4.9098 19.5054L5.0803 19.4464L5.25186 19.3864L5.33313 19.3574L5.42342 19.3264L5.77026 19.2044L6.11817 19.0804L6.46766 18.9554L6.81928 18.8314L6.99563 18.7694L7.17303 18.7094L7.35043 18.6494L7.52784 18.5904L7.70577 18.5324L7.88371 18.4754L8.06271 18.4204L8.2417 18.3674L8.42176 18.3164L8.60182 18.2664L8.78295 18.2194L8.96407 18.1734L9.04427 18.1554L9.14678 18.1384L9.33056 18.1114L9.51381 18.0864L9.60782 18.0744L9.70077 18.0634L9.79266 18.0534L9.88455 18.0444L9.9775 18.0364L10.0513 18.0304L10.0699 18.0294L10.1629 18.0264L10.2548 18.0244L10.3477 18.0234H10.4396L10.5363 18.0274Z" fill="#A168BE"/>
<path fill-rule="evenodd" clip-rule="evenodd" d="M1.33288 0L1.33554 0.000991821L1.34828 0.0039978L1.35997 0.00900269L1.37431 0.0169983L1.38706 0.0269928L1.39874 0.0390015L1.41043 0.0529938L1.42477 0.0749969L1.43645 0.0950012L1.44708 0.116989L1.46832 0.164001L1.49276 0.223999L1.51985 0.294998L1.54906 0.375L1.58199 0.466003L1.61704 0.565002L1.69459 0.787003L1.77958 1.03299L1.87147 1.297L1.96814 1.571L2.02922 1.745L2.05524 1.84999L2.12483 2.12799L2.18856 2.394L2.24593 2.642L2.27089 2.75699L2.29426 2.86499L2.31551 2.966L2.33303 3.058L2.34738 3.142L2.358 3.215L2.40527 3.547L2.4297 3.71399L2.44829 3.87599L2.52372 4.53099L2.6002 5.185L2.63685 5.51199L2.6735 5.84L2.70909 6.16899L2.74308 6.49899L2.77389 6.83L2.80417 7.16299L2.81851 7.332L2.83125 7.5L2.844 7.66899L2.85569 7.838L2.86737 8.00699L2.87693 8.17799L2.88649 8.349L2.89446 8.519L2.95183 9.70399L3.01185 10.89V10.892L3.03044 11.487L3.04903 12.083L3.06815 12.679L3.08939 13.276L3.1117 13.873L3.13507 14.47L3.15951 15.068L3.18447 15.665L3.21156 16.263L3.24077 16.86L3.27158 17.457L3.28432 17.693L3.30185 18.055L3.33266 18.653L3.36559 19.25L3.40065 19.848L3.4373 20.445L3.47607 21.041L3.51697 21.637L3.55946 22.232L3.60514 22.826L3.65347 23.419L3.70393 24.012L3.75599 24.603L3.80326 25.106L3.81123 25.193L3.86275 25.784L3.88984 26.077L3.91692 26.371L3.94508 26.664L3.97429 26.957L4.00456 27.249L4.03484 27.542L4.17613 28.875L4.31954 30.209L4.46401 31.543L4.61008 32.879L4.7572 34.214L4.90539 35.551L5.2039 38.226L5.80357 43.58L6.10261 46.258L6.22158 47.333L6.24974 47.596L6.39421 48.935L6.53762 50.273L6.6789 51.612L6.81913 52.949L6.95776 54.287L7.09533 55.624L7.22971 56.96L7.36143 58.296L7.49209 59.631L7.61904 60.966L7.74386 62.299L7.80494 62.966L7.86496 63.632L7.92498 64.298L7.98394 64.964L8.0413 65.629L8.09867 66.294L8.15497 66.959L8.21021 67.624L8.26439 68.288L8.3175 68.952L8.36106 69.497L8.36902 69.616L8.41258 70.278L8.42798 70.497L8.44445 70.714L8.46304 70.933L8.48322 71.153L8.50553 71.374L8.52996 71.597L8.55493 71.82L8.58095 72.044L8.6091 72.27L8.63938 72.496L8.66966 72.723L8.70152 72.952L8.73445 73.181L8.76739 73.41L8.83803 73.872L8.9108 74.336L8.98516 74.802L9.13813 75.742L9.21461 76.215L9.22418 76.276L9.28791 76.689L9.36068 77.165L9.43026 77.641L9.46425 77.881L9.49719 78.12L9.53012 78.359L9.56092 78.599L9.59067 78.838L9.61988 79.078L9.64803 79.318L9.67406 79.558L9.69902 79.798L9.72239 80.038L9.74364 80.278L9.76382 80.518L9.78241 80.758L9.79888 80.998L9.81269 81.237L9.82544 81.477L9.835 81.717L9.84297 81.956L9.84881 82.195L9.85146 82.434V82.597L9.84297 82.673L9.81481 82.911L9.78401 83.149L9.75108 83.383L9.73461 83.502L9.71602 83.62L9.69743 83.737L9.67831 83.854L9.65813 83.971L9.63794 84.087L9.61669 84.203L9.59545 84.319L9.57208 84.434L9.54871 84.549L9.52427 84.664L9.49984 84.779L9.47382 84.893L9.44779 85.007L9.4207 85.12L9.39361 85.231L8.73605 85.737L8.24314 85.069L8.2458 84.96L8.24845 84.853L8.24952 84.746V84.639V84.531L8.24739 84.424L8.24473 84.317L8.24208 84.209L8.2373 84.102L8.23252 83.994L8.22561 83.886L8.21871 83.778L8.21074 83.67L8.20224 83.562L8.19268 83.454L8.18206 83.347L8.15869 83.128L8.1316 82.91L8.10133 82.692L8.09176 82.622L8.08698 82.472L8.07848 82.252L8.0668 82.031L8.05299 81.81L8.03652 81.587L8.019 81.363L7.99881 81.139L7.9765 80.914L7.95313 80.688L7.92711 80.462L7.90002 80.235L7.8708 80.007L7.84 79.779L7.80813 79.55L7.77414 79.32L7.73908 79.09L7.70349 78.86L7.66684 78.63L7.62807 78.399L7.5893 78.168L7.5484 77.937L7.46607 77.472L7.38108 77.006L7.3046 76.599L7.29398 76.538L7.20899 76.069L7.03637 75.131L6.95139 74.66L6.86799 74.189L6.78779 73.719L6.74795 73.483L6.70918 73.248L6.67147 73.013L6.63588 72.779L6.6003 72.544L6.5663 72.309L6.53337 72.075L6.50256 71.84L6.47229 71.606L6.44414 71.372L6.41705 71.138L6.39261 70.904L6.36924 70.671L6.34906 70.44L6.2917 69.778L6.28107 69.659L6.23964 69.117L6.18918 68.456L6.13713 67.794L6.08402 67.132L6.02984 66.47L5.9746 65.807L5.91936 65.144L5.86199 64.481L5.80463 63.817L5.74674 63.153L5.68778 62.489L5.56668 61.159L5.44345 59.827L5.31757 58.494L5.18956 57.162L5.0589 55.828L4.92611 54.494L4.79173 53.159L4.65522 51.823L4.51766 50.486L4.37796 49.149L4.23827 47.812L4.21012 47.549L4.09858 46.474L3.82079 43.795L3.26095 38.437L2.9821 35.758L2.84347 34.419L2.7059 33.081L2.57046 31.743L2.43502 30.405L2.30117 29.068L2.16944 27.731L2.14023 27.434L2.11208 27.136L2.08499 26.838L2.05896 26.54L2.03294 26.241L2.00797 25.942L1.9607 25.344L1.95379 25.255L1.92086 24.745L1.88528 24.145L1.85128 23.544L1.82048 22.943L1.79232 22.341L1.7663 21.739L1.74187 21.137L1.71956 20.535L1.70044 19.932L1.68185 19.329L1.66538 18.726L1.65157 18.124L1.6436 17.759L1.63988 17.521L1.63139 16.919L1.62448 16.316L1.61864 15.715L1.61492 15.113L1.61227 14.512L1.61014 13.912L1.60908 13.312V12.713L1.61014 12.115L1.61227 11.518L1.61492 10.92V10.918L1.64785 9.72899L1.68185 8.54399L1.68556 8.377L1.68822 8.21199L1.69087 8.047L1.69194 7.88199L1.693 7.718V7.554L1.69087 7.39L1.68981 7.22699L1.68397 6.89999L1.67547 6.575L1.66485 6.25L1.6521 5.924L1.63829 5.599L1.62289 5.27299L1.58996 4.616L1.55703 3.957L1.54906 3.793L1.5464 3.62399L1.54268 3.293L1.54162 3.23399L1.53897 3.164L1.53419 3.082L1.52622 2.98799L1.51772 2.884L1.5071 2.772L1.48107 2.52699L1.45026 2.261L1.41468 1.981L1.40034 1.87599L1.39237 1.694L1.3759 1.407L1.35466 1.133L1.33022 0.875992L1.3042 0.647003L1.29039 0.544998L1.27658 0.453003L1.26383 0.371994L1.25108 0.300995L1.25214 0.302994L1.24046 0.246002L1.22984 0.201996L1.23196 0.207993L1.22612 0.190002L1.22877 0.195999L1.22399 0.181992L1.22877 0.190994L1.22399 0.179993L1.2309 0.190994L1.25427 0.209991L1.26117 0.212997L1.19531 0.112991L1.19744 0.10199L1.20009 0.0889893L1.20487 0.0769958L1.207 0.0699921L1.21496 0.0569916L1.22293 0.0449982L1.23355 0.0339966L1.23568 0.0319977L1.24843 0.0220032L1.26277 0.0130005L1.27817 0.00698853L1.2803 0.0059967L1.29889 0.00299072L1.31748 0.0019989L1.33288 0ZM1.30792 0.216003L1.33978 0.214996L1.38121 0.190994L1.40459 0.159988L1.40671 0.151001L1.30792 0.216003Z" fill="#A168BE"/>
<path fill-rule="evenodd" clip-rule="evenodd" d="M15.4562 84.3324L15.3492 84.4415L15.2512 84.4444L15.1602 84.4494L15.0742 84.4565L14.9952 84.4644L14.9212 84.4744L14.8522 84.4854L14.7872 84.4984L14.7922 84.4975L14.7323 84.5114L14.6782 84.5275L14.6842 84.5255L14.6332 84.5434L14.6382 84.5414L14.6143 84.5504L14.6172 84.5494L14.5952 84.5584L14.5992 84.5574L14.5772 84.5674L14.5812 84.5654L14.5612 84.5754L14.5653 84.5734L14.5462 84.5844L14.5513 84.5824L14.5332 84.5924L14.5382 84.5904L14.5212 84.6014L14.5262 84.5984L14.5103 84.6095L14.5162 84.6054L14.5052 84.6134L14.4972 84.6214L14.4893 84.6284L14.4832 84.6344L14.4772 84.6414L14.4732 84.6474L14.4692 84.6525L14.4662 84.6584L14.4642 84.6624L14.4622 84.6674L14.4613 84.6724L14.4602 84.6764L14.4592 84.6814V84.6864V84.6915V84.6974L14.4602 84.7034L14.4622 84.7104L14.4642 84.7184L14.4672 84.7274L14.4722 84.7424L14.4702 84.7354L14.4772 84.7514L14.4742 84.7454L14.4823 84.7614L14.4802 84.7564L14.4852 84.7654L14.5002 84.7894L14.5173 84.8144L14.5382 84.8404L14.5682 84.8725L14.5632 84.8674L14.5962 84.9005L14.5922 84.8954L14.6262 84.9264L14.6632 84.9574L14.6592 84.9544L14.7002 84.9854L14.7432 85.0174L14.7402 85.0145L14.7862 85.0464L14.8332 85.0764L14.8832 85.1064L14.9362 85.1375L14.9912 85.1674L15.0492 85.1964L15.1092 85.2264L15.1542 85.2464L15.1742 85.2504L15.2472 85.2614L15.3223 85.2694L15.3993 85.2755L15.4772 85.2784H15.5572L15.6392 85.2755L15.7232 85.2694L15.8072 85.2604L15.8932 85.2484L15.9792 85.2324L16.0662 85.2134L16.1542 85.1904L16.2422 85.1635L16.2732 85.1534L16.3252 85.1574L16.4052 85.1635L16.4862 85.1674L16.5672 85.1694L16.6482 85.1704L16.7292 85.1694L16.8112 85.1664L16.8942 85.1624L17.1242 85.1505L17.3422 85.1364L17.3562 85.1375L17.5863 85.1434L17.8162 85.1474L18.0462 85.1494H18.2762L18.5062 85.1474L18.7362 85.1434L18.9672 85.1375L19.1973 85.1294L19.4282 85.1204L19.6582 85.1095L19.8892 85.0965L20.1202 85.0824L20.3512 85.0665L20.5822 85.0484L20.8132 85.0304L21.0452 85.0094L21.2762 84.9884L21.5082 84.9654L21.7402 84.9415L21.9722 84.9164L22.2043 84.8904L22.4372 84.8634L22.6693 84.8354L22.9022 84.8064L23.1353 84.7764L23.3672 84.7454L23.6012 84.7134L23.8352 84.6834L24.3042 84.6194L24.7743 84.5535L25.2442 84.4865L26.1882 84.3504L27.1342 84.2144L27.6092 84.1464L27.9372 84.1004L28.0852 84.0815L28.5622 84.0214L29.0392 83.9644L29.2792 83.9364L29.5192 83.9094L29.7592 83.8834L29.9992 83.8584L30.2402 83.8344L30.4812 83.8104L30.7222 83.7885L30.9632 83.7674L31.2052 83.7484L31.4473 83.7294L31.5532 83.7224L31.6912 83.7144L31.9333 83.7024L32.3092 83.6854L32.6852 83.6694L33.0602 83.6544L33.4362 83.6395L33.8132 83.6254L34.1903 83.6124L34.9412 83.5884L35.6942 83.5674L36.4482 83.5474L37.2022 83.5314L37.9572 83.5164L38.0802 83.5145L38.7122 83.5064L39.4682 83.4984L40.2243 83.4914L40.9812 83.4865L41.7373 83.4814L42.4942 83.4774L44.0092 83.4704L45.5242 83.4644L45.8802 83.4624L47.0382 83.4614L47.7943 83.4604L48.5502 83.4585L49.3063 83.4544L50.0612 83.4494L50.8162 83.4424L51.5713 83.4334L52.3252 83.4224L53.0782 83.4094L53.7962 83.3944L53.8322 83.3934L54.2083 83.3875L54.5853 83.3814L54.9613 83.3734L55.3372 83.3654L55.7132 83.3564L56.0882 83.3465L56.4642 83.3354L56.8392 83.3244L57.2142 83.3114L57.5892 83.2984L57.9642 83.2844L58.3382 83.2684L58.7122 83.2524L59.0863 83.2354L59.4593 83.2164L59.8333 83.1974L60.2062 83.1764L60.5782 83.1544L60.6882 83.1474L60.9502 83.1354L61.3232 83.1164L61.6953 83.0954L62.0672 83.0744L62.4392 83.0514L62.8102 83.0264L63.1813 83.0014L63.3942 82.9854L63.5522 82.9754L63.9232 82.9504L64.2943 82.9244L64.6642 82.8964L65.0342 82.8674L65.4043 82.8364L65.7742 82.8035L66.1432 82.7694L66.4412 82.7404L66.5122 82.7345L66.8812 82.7004L67.2493 82.6635L67.6182 82.6254L67.9863 82.5864L68.3532 82.5444L68.7212 82.5014L69.0882 82.4565L69.4552 82.4094L69.8213 82.3604L70.1872 82.3094L70.5532 82.2564L70.9183 82.2024L71.2832 82.1454L71.6482 82.0864L72.0122 82.0264L72.3763 81.9634L72.6632 81.9124L72.7402 81.8984L73.1042 81.8335L73.4672 81.7664L73.8302 81.6974L74.1932 81.6254L74.5553 81.5524L74.9173 81.4764L75.2793 81.3974L75.6403 81.3165L76.0013 81.2334L76.3613 81.1494L76.7212 81.0624L77.0812 80.9724L77.4402 80.8804L77.7982 80.7864L78.1572 80.6884L78.5153 80.5894L78.8722 80.4874L79.2292 80.3824L79.5882 80.2734L80.5232 80.7264L80.0542 81.6534L79.6982 81.7864L79.3392 81.9184L78.9802 82.0474L78.6192 82.1744L78.2582 82.2984L77.8972 82.4204L77.5352 82.5405L77.1722 82.6574L76.8092 82.7724L76.4453 82.8854L76.0802 82.9954L75.7152 83.1034L75.3503 83.2094L74.9842 83.3134L74.6172 83.4155L74.2503 83.5154L73.8822 83.6134L73.5143 83.7085L73.1452 83.8024L73.0672 83.8224L72.7762 83.8934L72.4053 83.9804L72.0352 84.0665L71.6642 84.1494L71.2923 84.2324L70.9202 84.3124L70.5482 84.3904L70.1752 84.4674L69.8022 84.5434L69.4282 84.6164L69.0542 84.6884L68.6803 84.7584L68.3053 84.8264L67.9303 84.8924L67.5553 84.9574L67.1792 85.0214L66.8032 85.0824L66.7312 85.0945L66.4262 85.1404L66.0492 85.1964L65.6722 85.2504L65.2943 85.3035L64.9163 85.3544L64.5382 85.4044L64.1592 85.4534L63.7812 85.5004L63.6192 85.5194L63.4023 85.5434L63.0222 85.5844L62.6423 85.6234L62.2633 85.6614L61.8832 85.6984L61.5023 85.7345L61.1222 85.7684L60.8552 85.7914L60.7432 85.8004L60.3623 85.8264L59.9812 85.8524L59.5993 85.8774L59.2182 85.9005L58.8372 85.9234L58.4552 85.9444L58.0742 85.9644L57.6922 85.9834L57.3112 86.0024L56.9292 86.0194L56.5472 86.0354L56.1663 86.0514L55.7842 86.0665L55.4023 86.0794L55.0202 86.0924L54.6393 86.1054L54.2572 86.1164L53.8743 86.1274L53.8382 86.1284L53.1123 86.1414L52.3503 86.1525L51.5882 86.1604L50.8262 86.1674L50.0642 86.1714L49.3032 86.1744L48.5423 86.1764H47.7822L47.0212 86.1754L45.8613 86.1724L45.5042 86.1694L43.9883 86.1554L42.4743 86.1424L41.7202 86.1364L40.9662 86.1314L40.2132 86.1274L39.4622 86.1234L38.7113 86.1214H38.0833L37.9622 86.1204L37.2122 86.1184H36.4642L35.7172 86.1204L34.9722 86.1245L34.2272 86.1314L33.8562 86.1364L33.4852 86.1414L33.1143 86.1474L32.7442 86.1544L32.3742 86.1624L32.0062 86.1714L31.7762 86.1774L31.6462 86.1814L31.5462 86.1834L31.3162 86.1884L31.0863 86.1954L30.8562 86.2034L30.6262 86.2114L30.3952 86.2224L30.1642 86.2334L29.9333 86.2454L29.7012 86.2584L29.4683 86.2724L29.2362 86.2874L28.7673 86.3185L28.2982 86.3534L28.1522 86.3644L27.8282 86.3864L27.3552 86.4204L26.4062 86.4914L25.4532 86.5634L24.9753 86.5984L24.4963 86.6334L24.0162 86.6655L23.7762 86.6814L23.5362 86.6954L23.2943 86.7085L23.0532 86.7204L22.8122 86.7324L22.5702 86.7434L22.3293 86.7534L22.0872 86.7625L21.8452 86.7704L21.6032 86.7775L21.3612 86.7834L21.1192 86.7885L20.8762 86.7914L20.6342 86.7934L20.3912 86.7944L20.1482 86.7934L19.9062 86.7914L19.6632 86.7874L19.4202 86.7814L19.1772 86.7744L18.9342 86.7654L18.6912 86.7544L18.4473 86.7424L18.2043 86.7274L17.9613 86.7104L17.7183 86.6924L17.4742 86.6714L17.2312 86.6484L17.2162 86.6464L16.9893 86.6014L16.7463 86.5504L16.6423 86.5284L16.5382 86.5044L16.4352 86.4794L16.3332 86.4524L16.2332 86.4244L16.1342 86.3944L16.0372 86.3634L15.9742 86.3424L15.9442 86.3185L15.8592 86.2504L15.7762 86.1834L15.6962 86.1184L15.6172 86.0544L15.5412 85.9914L15.4662 85.9294L15.3932 85.8694L15.3212 85.8104L15.2522 85.7524L15.1852 85.6964L15.1202 85.6414L15.0572 85.5874L14.9963 85.5354L14.9802 85.5204L14.9333 85.4954L14.8682 85.4604L14.8062 85.4234L14.7463 85.3875L14.6892 85.3504L14.6342 85.3134L14.5822 85.2755L14.5332 85.2384L14.4862 85.1994L14.4412 85.1614L14.3993 85.1225L14.3602 85.0844L14.3232 85.0444L14.2902 85.0044L14.2603 84.9644L14.2342 84.9234L14.2113 84.8824L14.2002 84.8604L14.1903 84.8384L14.1822 84.8165L14.1742 84.7944L14.1682 84.7714L14.1632 84.7484L14.1592 84.7254L14.1572 84.7024L14.1562 84.6785L14.1572 84.6544L14.1592 84.6304L14.1642 84.6064L14.1702 84.5835L14.1782 84.5604L14.1872 84.5385L14.1982 84.5164L14.2113 84.4954L14.2253 84.4754L14.2402 84.4565L14.2562 84.4384L14.2732 84.4204L14.2912 84.4044L14.3102 84.3884L14.3302 84.3745L14.3512 84.3604L14.3732 84.3474L14.3952 84.3344L14.4193 84.3234L14.4442 84.3124L14.4702 84.3014L14.4972 84.2914L14.5252 84.2824L14.5832 84.2654L14.6462 84.2504L14.7142 84.2374L14.7862 84.2264L14.8622 84.2174L14.9432 84.2104L15.0292 84.2054L15.1202 84.2024L15.2162 84.2014L15.3172 84.2024L15.4562 84.3324Z" fill="#A168BE"/>
<path fill-rule="evenodd" clip-rule="evenodd" d="M27.7557 18.5304L28.2307 18.5394L28.3967 18.5434L28.6867 18.5824L28.9287 18.6154L29.1167 18.6504L29.5157 18.7224L29.6287 18.7424L29.7047 18.7574L29.8837 18.7924L30.0537 18.8244L30.2137 18.8554L30.3647 18.8834L30.5027 18.9104L30.9907 19.3664L30.5077 19.8264L30.3737 19.8544L30.2317 19.8874L30.0787 19.9224L29.9177 19.9634L29.7467 20.0094L29.6757 20.0294L29.5687 20.0584L29.1857 20.1634L29.0067 20.2164L28.7747 20.2724L28.4967 20.3434L28.3357 20.3644L27.8727 20.4294L27.7427 20.4484L27.3897 20.4864L26.8897 20.5414L26.8157 20.5494L26.3767 20.5864L25.8557 20.6324L25.8437 20.6334L25.3277 20.6644L24.9577 20.6874L24.7967 20.6924L24.2667 20.7084L23.8357 20.7224L23.7417 20.7234L23.2257 20.7314L22.7207 20.7404L22.5967 20.7434L22.2307 20.7424L21.7597 20.7434L21.4127 20.7464L21.3107 20.7434L20.8887 20.7334L20.4957 20.7264H20.4577L20.1317 20.6794L20.0287 20.6664L19.8037 20.6244L19.5157 20.5774L19.4727 20.5704L19.2737 20.5394L19.0807 20.5134L19.0037 20.5054L18.9427 20.4994L18.8927 20.4964L18.9017 20.4944H18.8717L18.8487 20.4984L18.7987 20.5044H18.7707L18.7337 20.4994L18.7107 20.4924L18.6767 20.4774L18.6457 20.4574L18.6437 20.4564L18.6147 20.4294L18.5917 20.3974L18.5737 20.3624L18.5727 20.3614L18.5627 20.3294L18.5567 20.2964L18.5547 20.2634L18.5587 20.2304L18.5677 20.1974L18.5827 20.1634L18.6007 20.1334L18.6237 20.1064L18.6257 20.1044L18.6507 20.0824L18.6787 20.0644L18.6997 20.0524L18.7317 20.0384L18.7587 20.0284L18.8047 20.0094L18.8597 19.9884L18.9257 19.9624L19.0027 19.9324L19.1917 19.8574L19.3837 19.7794L19.4257 19.7634L19.7017 19.6554L19.9157 19.5674L20.0157 19.5334L20.3297 19.4244L20.3677 19.4154L20.7557 19.3344L21.1727 19.2454L21.2737 19.2244L21.6177 19.1624L22.0847 19.0794L22.4477 19.0154L22.5707 18.9964L23.0737 18.9194L23.5877 18.8404L23.6817 18.8264L24.1127 18.7704L24.6427 18.7024L24.8037 18.6824L25.1757 18.6484L25.6947 18.6014L25.7077 18.6004L26.2357 18.5704L26.6797 18.5464L26.7557 18.5444L27.2637 18.5314L27.6237 18.5234L27.7557 18.5304ZM18.9337 20.0964L18.9307 20.0924L18.9287 20.0914L18.9337 20.0964ZM18.8457 20.0554L18.8297 20.0534L18.8437 20.0574L18.8307 20.0564L18.8697 20.0664H18.8617L18.8987 20.0754L18.8697 20.0594L18.8367 20.0514L18.8457 20.0554Z" fill="#A168BE"/>
<path fill-rule="evenodd" clip-rule="evenodd" d="M44.878 17.9714L44.818 17.9964L44.751 18.0224L44.681 18.0474L44.61 18.0734L44.536 18.0984L44.46 18.1234L44.384 18.1484L44.303 18.1734L44.138 18.2244L43.965 18.2754L43.784 18.3264L43.595 18.3794L43.399 18.4314L43.393 18.4334L43.196 18.4814L42.988 18.5314L42.774 18.5814L42.554 18.6324L42.329 18.6834L42.131 18.7294L42.1 18.7344L41.867 18.7764L41.631 18.8184L41.391 18.8604L41.149 18.9024L41.035 18.9224L40.905 18.9314L40.659 18.9464L40.412 18.9614L40.249 18.9704L40.164 18.9694L39.916 18.9674L39.669 18.9644L39.421 18.9604L39.362 18.9594L38.934 18.9344L38.455 18.9034L37.987 18.8704L37.791 18.8554L37.536 18.8224L37.105 18.7654L36.727 18.7144L36.697 18.7084L36.316 18.6404L36.148 18.6104L35.966 18.5624L35.808 18.5204L35.673 18.1354L35.594 17.9634L35.409 17.9154L35.176 17.8544L35.075 17.8284L34.986 17.8044L34.922 17.7874L34.907 17.7844L34.841 17.7674L34.785 17.7524L34.74 17.7384L34.716 17.7304L34.689 17.7194L34.672 17.7094L34.652 17.6964L34.635 17.6814L34.62 17.6644L34.618 17.6604L34.603 17.6384L34.592 17.6144L34.585 17.5894L34.582 17.5624L34.583 17.5364V17.5344L34.588 17.5134L34.595 17.4924L34.606 17.4724L34.619 17.4534L34.62 17.4524L34.635 17.4354L34.652 17.4214L34.671 17.4094L34.691 17.3984L34.725 17.3894L34.751 17.3864L34.799 17.3854L34.859 17.3874L34.934 17.3924L35.025 17.4004L35.037 17.4014L35.116 17.3964L35.216 17.3884L35.451 17.3664L35.638 17.3434L35.738 17.1844L35.916 16.8204L36.072 16.7984L36.252 16.7704L36.417 16.7584L36.792 16.7294L36.821 16.7264L37.192 16.7094L37.616 16.6864L37.866 16.6714L38.058 16.6704L38.515 16.6664L38.983 16.6584L39.4 16.6484L39.459 16.6504L39.697 16.6534L39.937 16.6554L40.176 16.6574H40.259L40.416 16.6674L40.654 16.6824L40.891 16.6964L41.016 16.7034L41.126 16.7214L41.359 16.7574L41.589 16.7924L41.818 16.8244L42.042 16.8534L42.072 16.8574L42.263 16.8894L42.479 16.9244L42.69 16.9554L42.896 16.9824L43.096 17.0074L43.283 17.0284H43.29L43.477 17.0504L43.656 17.0684L43.827 17.0824L43.99 17.0934L44.146 17.1004L44.218 17.1024L44.289 17.1044H44.357H44.423L44.485 17.1024L44.545 17.1014L44.601 17.0984L44.659 17.0934L45.215 17.4214L44.878 17.9714ZM34.797 17.7084L34.809 17.7064L34.796 17.7104L34.811 17.7064L34.802 17.7104L34.826 17.7004L34.797 17.7084ZM34.827 17.6994H34.831L34.832 17.6984L34.827 17.6994Z" fill="#A168BE"/>
<path fill-rule="evenodd" clip-rule="evenodd" d="M53.7159 16.5112L53.7769 16.4192L53.8389 16.3282L53.9009 16.2392L53.9629 16.1482L54.0249 16.0612L54.0879 15.9752L54.1509 15.8902L54.2139 15.8072L54.2779 15.7242L54.3419 15.6432L54.4069 15.5622L54.4719 15.4812L54.5379 15.4022L54.6039 15.3252L54.6149 15.3122L54.6799 15.2612L54.7569 15.2022L54.8349 15.1452L54.9129 15.0892L54.9909 15.0342L55.0689 14.9812L55.1469 14.9302L55.2249 14.8802L55.3039 14.8312L55.3829 14.7852L55.4619 14.7392L55.5409 14.6962L55.6209 14.6532L55.6999 14.6132L55.7799 14.5732L55.8599 14.5362L55.9399 14.4992L55.9729 14.4852L56.0199 14.4662L56.1009 14.4342L56.1819 14.4032L56.2619 14.3742L56.3429 14.3472L56.4239 14.3212L56.5049 14.2972L56.5859 14.2742L56.6669 14.2532L56.7479 14.2342L56.8299 14.2162L56.9109 14.1992L56.9909 14.1842L57.0719 14.1702L57.1529 14.1582L57.2339 14.1482L57.3139 14.1392L57.3949 14.1322L57.4749 14.1262L57.5549 14.1212L57.6349 14.1182L57.7149 14.1172H57.7319L57.7949 14.1222L57.8729 14.1302L57.9519 14.1402L58.0289 14.1512L58.1069 14.1632L58.1829 14.1772L58.2589 14.1922L58.3359 14.2082L58.4119 14.2262L58.4869 14.2452L58.5619 14.2652L58.6359 14.2862L58.7089 14.3092L58.7819 14.3332L58.8539 14.3582L58.9249 14.3842L58.9959 14.4112L59.0659 14.4392L59.1359 14.4692L59.2039 14.4992L59.2719 14.5312L59.3399 14.5642L59.4059 14.5982L59.4719 14.6322L59.5369 14.6682L59.6009 14.7052L59.6649 14.7422L59.7279 14.7812L59.7899 14.8202L59.8519 14.8602L59.9129 14.9022L59.9729 14.9442L60.0319 14.9862L60.0909 15.0302L60.1479 15.0752L60.2059 15.1202L60.2619 15.1662L60.3179 15.2132L60.3729 15.2602L60.4269 15.3082L60.4799 15.3572L60.5329 15.4072L60.5849 15.4572L60.6369 15.5082L60.6869 15.5602L60.7379 15.6132L60.7859 15.6652L60.8349 15.7182L60.8819 15.7722L60.9299 15.8272L60.9759 15.8822L61.0219 15.9382L61.0679 15.9942L61.1139 16.0512L61.1579 16.1082L61.2019 16.1662L61.2449 16.2252L61.2889 16.2852L61.3689 16.4022L61.4479 16.5222L61.5249 16.6432L61.5999 16.7662L61.6709 16.8912L61.7399 17.0172L61.8059 17.1452L61.8699 17.2742L61.8809 17.2982L61.9319 17.4032L61.9919 17.5342L62.0489 17.6652L62.1029 17.7982L62.1539 17.9322L62.2029 18.0662L62.2489 18.2022L62.2929 18.3382L62.3339 18.4752L62.3719 18.6122L62.3969 18.7082L62.4089 18.7502L62.4449 18.8872L62.4789 19.0252L62.5099 19.1642L62.5369 19.3032L62.5619 19.4422L62.5839 19.5822L62.6019 19.7212L62.6169 19.8612L62.6299 20.0012L62.6399 20.1412L62.6469 20.2792L62.6489 20.3522L62.6499 20.4222V20.4922V20.5622L62.6489 20.6322L62.6459 20.7032L62.6429 20.7722L62.6389 20.8422L62.6349 20.9122L62.6289 20.9822L62.6219 21.0512L62.6149 21.1202L62.6059 21.1892L62.5969 21.2582L62.5869 21.3272L62.5759 21.3962L62.5629 21.4642L62.5499 21.5322L62.5359 21.6002L62.5209 21.6682L62.5059 21.7352L62.4899 21.8032L62.4729 21.8702L62.4549 21.9362L62.4449 21.9692L62.4349 22.0032L62.4159 22.0692L62.3959 22.1352L62.3739 22.2002L62.3519 22.2652L62.3279 22.3302L62.3039 22.3952L62.2779 22.4592L62.2519 22.5232L62.2239 22.5862L62.1949 22.6492L62.1659 22.7112L62.1349 22.7732L62.1029 22.8352L62.0699 22.8962L62.0349 22.9562L61.9999 23.0172L61.9779 23.0572L61.9399 23.1162L61.9019 23.1742L61.8619 23.2322L61.8209 23.2892L61.7789 23.3462L61.7359 23.4012L61.6909 23.4572L61.6459 23.5112L61.5999 23.5652L61.5539 23.6182L61.5059 23.6702L61.4569 23.7222L61.4069 23.7732L61.3549 23.8232L61.3029 23.8722L61.2489 23.9202L61.1949 23.9682L61.1389 24.0142L61.0819 24.0602L61.0239 24.1052L60.9649 24.1492L60.9049 24.1922L60.8429 24.2342L60.7809 24.2752L60.7169 24.3152L60.6529 24.3542L60.5869 24.3922L60.5199 24.4292L60.4519 24.4652L60.3839 24.5002L60.3139 24.5342L60.2429 24.5672L60.1709 24.5992L60.0969 24.6292L60.0229 24.6592L59.9479 24.6882L59.8719 24.7152L59.7959 24.7412L59.7189 24.7672L59.6399 24.7912L59.5749 24.8092L59.5599 24.8142L59.4809 24.8352L59.3889 24.8592L59.2979 24.8812L59.2079 24.9022L59.1179 24.9222L59.0289 24.9402L58.9399 24.9572L58.8519 24.9742L58.7649 24.9892L58.6779 25.0032L58.5909 25.0152L58.5059 25.0272L58.4199 25.0372L58.3349 25.0462L58.2509 25.0542L58.1669 25.0612L58.0839 25.0672L58.0019 25.0722L57.9189 25.0762L57.8379 25.0782L57.7569 25.0792L57.6759 25.0802L57.5969 25.0792L57.5169 25.0772L57.4389 25.0742L57.3599 25.0702L57.2829 25.0652L57.2059 25.0592L57.1289 25.0512L57.0529 25.0432L56.9769 25.0332L56.9019 25.0232L56.8259 25.0122L56.7519 24.9992L56.6779 24.9852L56.6049 24.9712L56.5319 24.9552L56.4599 24.9392L56.3889 24.9212L56.3179 24.9032L56.2479 24.8832L56.1789 24.8632L56.1099 24.8412L56.0419 24.8192L55.9749 24.7952L55.9079 24.7712L55.8419 24.7462L55.7759 24.7192L55.7119 24.6922L55.6479 24.6642L55.5839 24.6352L55.5789 24.6332L55.5219 24.6052L55.4599 24.5742L55.3989 24.5422L55.3389 24.5102L55.2789 24.4762L55.2199 24.4422L55.1619 24.4062L55.1049 24.3702L55.0489 24.3342L54.9929 24.2962L54.9379 24.2582L54.8839 24.2192L54.8299 24.1792L54.7769 24.1382L54.7249 24.0972L54.6739 24.0552L54.6239 24.0122L54.5739 23.9692L54.5259 23.9252L54.4779 23.8802L54.4299 23.8352L54.3839 23.7892L54.3379 23.7422L54.2919 23.6952L54.2469 23.6472L54.2029 23.5992L54.1599 23.5502L54.1169 23.5002L54.0749 23.4502L54.0339 23.4002L53.9939 23.3492L53.9539 23.2972L53.9159 23.2452L53.8779 23.1922L53.8409 23.1392L53.8049 23.0852L53.7689 23.0312L53.7349 22.9772L53.7009 22.9222L53.6679 22.8662L53.6349 22.8112L53.6039 22.7542L53.5729 22.6982L53.5439 22.6412L53.5139 22.5832L53.4859 22.5262L53.4589 22.4682L53.4319 22.4092L53.4059 22.3502L53.3799 22.2892L53.3329 22.1732L53.3019 22.0902L53.2879 22.0542L53.2479 21.9322L53.2109 21.8102L53.1769 21.6872L53.1459 21.5632L53.1189 21.4392L53.0939 21.3142L53.0729 21.1882L53.0539 21.0622L53.0379 20.9352L53.0249 20.8082L53.0149 20.6802L53.0079 20.5522L53.0039 20.4252V20.4112L53.0049 20.2962L53.0079 20.1682L53.0149 20.0402L53.0239 19.9122L53.0369 19.7852L53.0519 19.6572L53.0689 19.5302L53.0899 19.4032L53.1139 19.2772L53.1409 19.1512L53.1709 19.0262L53.2039 18.9012L53.2399 18.7772L53.2789 18.6542L53.3219 18.5322L53.3669 18.4112L53.4139 18.2902L53.4219 18.2712L53.4669 18.1712L53.5209 18.0552L53.5499 17.9952L53.5789 17.9362L53.6089 17.8782L53.6389 17.8202L53.6709 17.7632L53.7029 17.7052L53.7359 17.6492L53.7699 17.5922L53.8039 17.5362L53.8399 17.4802L53.8759 17.4252L53.9119 17.3702L53.9499 17.3162L53.9879 17.2622L53.9969 17.2502L53.6489 17.2612L53.6599 16.6002L53.7159 16.5112ZM57.4519 15.9992L57.4049 16.0012L57.3569 16.0032L57.3089 16.0052L57.2599 16.0092L57.2109 16.0142L57.1609 16.0202L57.1109 16.0272L57.0599 16.0352L57.0089 16.0432L56.9569 16.0532L56.9049 16.0642L56.8519 16.0762L56.7989 16.0892L56.7449 16.1042L56.6909 16.1192L56.6359 16.1362L56.6029 16.1462L56.5799 16.1532L56.5239 16.1712L56.4669 16.1902L56.4089 16.2102L56.3939 16.2152L56.3439 16.2482L56.2909 16.2822L56.2399 16.3162L56.1899 16.3512L56.1399 16.3872L56.0909 16.4232L56.0639 16.4442L56.0429 16.4582L55.9929 16.4912L55.9439 16.5252L55.8959 16.5592L55.8489 16.5932L55.8019 16.6292L55.7559 16.6642L55.7099 16.7002L55.6649 16.7372L55.6199 16.7742L55.5759 16.8112L55.5329 16.8492L55.4899 16.8882L55.4489 16.9262L55.4069 16.9662L55.3669 17.0052L55.3269 17.0462L55.2879 17.0862L55.2499 17.1272L55.2119 17.1692L55.1759 17.2102L55.1389 17.2522L55.1039 17.2952L55.0689 17.3382L55.0349 17.3812L55.0009 17.4252L54.9689 17.4692L54.9369 17.5132L54.9049 17.5582L54.8739 17.6032L54.8439 17.6482L54.8149 17.6942L54.7859 17.7402L54.7579 17.7862L54.7309 17.8322L54.7039 17.8792L54.6779 17.9262L54.6529 17.9742L54.6279 18.0212L54.6039 18.0692L54.5809 18.1172L54.5579 18.1662L54.5359 18.2142L54.5149 18.2632L54.4939 18.3122L54.4739 18.3612L54.4539 18.4112L54.4359 18.4592L54.3989 18.5592L54.3709 18.6432L54.3649 18.6592L54.3319 18.7582L54.3019 18.8592L54.2749 18.9602L54.2499 19.0612L54.2279 19.1632L54.2079 19.2652L54.1909 19.3672L54.1759 19.4702L54.1629 19.5722L54.1519 19.6752L54.1439 19.7782L54.1389 19.8812L54.1349 19.9832V20.0862L54.1369 20.1882L54.1409 20.2902L54.1469 20.3812V20.3912L54.1549 20.4922L54.1659 20.5922L54.1789 20.6922L54.1939 20.7922L54.2099 20.8902L54.2289 20.9882L54.2509 21.0852L54.2739 21.1812L54.2999 21.2762L54.3289 21.3702L54.3589 21.4632L54.3919 21.5552L54.4269 21.6462L54.4389 21.6732L54.4629 21.7372L54.5009 21.8272L54.5189 21.8702L54.5389 21.9142L54.5589 21.9582L54.5799 22.0022L54.6009 22.0452L54.6229 22.0872L54.6449 22.1302L54.6679 22.1722L54.6909 22.2132L54.7149 22.2552L54.7399 22.2962L54.7649 22.3362L54.7899 22.3762L54.8169 22.4162L54.8429 22.4552L54.8709 22.4942L54.8979 22.5322L54.9269 22.5702L54.9549 22.6082L54.9849 22.6452L55.0149 22.6812L55.0449 22.7182L55.0759 22.7532L55.1069 22.7892L55.1389 22.8232L55.1719 22.8582L55.2049 22.8922L55.2389 22.9252L55.2729 22.9582L55.3069 22.9902L55.3429 23.0222L55.3779 23.0532L55.4149 23.0842L55.4509 23.1152L55.4889 23.1442L55.5269 23.1742L55.5649 23.2032L55.6039 23.2312L55.6439 23.2592L55.6839 23.2862L55.7239 23.3122L55.7649 23.3382L55.8069 23.3642L55.8489 23.3892L55.8919 23.4132L55.9359 23.4372L55.9799 23.4602L56.0239 23.4832L56.0689 23.5052L56.1149 23.5272L56.1609 23.5482L56.2069 23.5692L56.2529 23.5892L56.2999 23.6082L56.3479 23.6272L56.3959 23.6452L56.4449 23.6632L56.4949 23.6802L56.5449 23.6962L56.5949 23.7112L56.6469 23.7262L56.6989 23.7412L56.7519 23.7542L56.8049 23.7672L56.8589 23.7792L56.9139 23.7902L56.9689 23.8012L57.0249 23.8112L57.0819 23.8202L57.1389 23.8292L57.1979 23.8362L57.2559 23.8432L57.3159 23.8492L57.3759 23.8552L57.4369 23.8592L57.4989 23.8632L57.5609 23.8662L57.6239 23.8682L57.6879 23.8692H57.7519L57.8179 23.8682L57.8839 23.8672L57.9499 23.8642L58.0179 23.8612L58.0859 23.8572L58.1549 23.8522L58.2239 23.8462L58.2939 23.8392L58.3649 23.8302L58.4369 23.8212L58.5099 23.8112L58.5829 23.8002L58.6569 23.7882L58.7319 23.7752L58.8069 23.7612L58.8829 23.7462L58.9589 23.7302L59.0359 23.7122L59.1129 23.6942L59.1899 23.6752L59.2529 23.6582L59.2649 23.6552L59.3139 23.6412L59.3729 23.6232L59.4319 23.6052L59.4889 23.5852L59.5459 23.5652L59.6009 23.5452L59.6549 23.5232L59.7079 23.5012L59.7609 23.4782L59.8119 23.4552L59.8619 23.4302L59.9109 23.4062L59.9589 23.3802L60.0059 23.3542L60.0529 23.3272L60.0989 23.3002L60.1439 23.2722L60.1889 23.2442L60.2319 23.2142L60.2749 23.1852L60.3159 23.1542L60.3569 23.1242L60.3969 23.0922L60.4369 23.0602L60.4749 23.0282L60.5119 22.9942L60.5489 22.9612L60.5849 22.9272L60.6199 22.8922L60.6549 22.8572L60.6879 22.8212L60.7209 22.7842L60.7529 22.7472L60.7849 22.7102L60.8149 22.6722L60.8449 22.6342L60.8739 22.5952L60.9029 22.5552L60.9299 22.5152L60.9569 22.4742L60.9839 22.4332L61.0089 22.3922L61.0339 22.3492L61.0579 22.3072L61.0819 22.2642L61.1039 22.2202L61.1259 22.1762L61.1479 22.1312L61.1679 22.0862L61.1879 22.0412L61.2079 21.9952L61.2259 21.9482L61.2439 21.9012L61.2609 21.8542L61.2779 21.8062L61.2939 21.7572L61.3089 21.7092L61.3239 21.6602L61.3309 21.6352L61.3379 21.6102L61.3519 21.5602L61.3649 21.5092L61.3769 21.4582L61.3879 21.4072L61.3989 21.3552L61.4089 21.3042L61.4189 21.2512L61.4269 21.1992L61.4349 21.1462L61.4429 21.0922L61.4489 21.0392L61.4549 20.9852L61.4609 20.9312L61.4649 20.8762L61.4689 20.8222L61.4719 20.7672L61.4749 20.7122L61.4769 20.6562L61.4779 20.6012V20.5452V20.4892L61.4769 20.4332L61.4759 20.3762L61.4729 20.3212L61.4669 20.2072L61.4579 20.0942L61.4459 19.9812L61.4309 19.8672L61.4149 19.7532L61.3959 19.6392L61.3749 19.5252L61.3509 19.4112L61.3249 19.2982L61.2959 19.1842L61.2639 19.0712L61.2539 19.0362L61.2279 18.9582L61.1869 18.8472L61.1439 18.7372L61.0989 18.6282L61.0529 18.5202L61.0039 18.4132L60.9539 18.3082L60.9009 18.2032L60.8459 18.1002L60.7889 17.9982L60.7409 17.9162L60.7289 17.8982L60.6659 17.8012L60.6019 17.7052L60.5349 17.6122L60.4669 17.5202L60.3969 17.4302L60.3259 17.3432L60.2529 17.2582L60.1769 17.1732L60.1409 17.1342L60.1019 17.0932L60.0639 17.0532L60.0249 17.0142L59.9859 16.9762L59.9469 16.9382L59.9069 16.9002L59.8669 16.8642L59.8269 16.8282L59.7859 16.7932L59.7449 16.7582L59.7049 16.7252L59.7039 16.7242L59.6629 16.6912L59.6209 16.6592L59.5799 16.6272L59.5379 16.5962L59.4959 16.5662L59.4529 16.5362L59.4109 16.5072L59.3679 16.4792L59.3249 16.4522L59.2819 16.4252L59.2389 16.4002L59.1949 16.3752L59.1519 16.3512L59.1079 16.3272L59.0639 16.3042L59.0209 16.2832L58.9769 16.2622L58.9319 16.2412L58.8879 16.2222L58.8439 16.2032L58.7999 16.1852L58.7549 16.1682L58.7109 16.1522L58.6659 16.1372L58.6209 16.1222L58.5769 16.1082L58.5319 16.0952L58.4869 16.0832L58.4419 16.0722L58.3969 16.0612L58.3519 16.0522L58.3069 16.0432L58.2619 16.0352L58.2169 16.0272L58.1719 16.0212L58.1269 16.0152L58.0809 16.0102L58.0359 16.0062L57.9909 16.0032L57.9449 16.0012L57.8989 15.9992H57.8679H57.8219L57.7759 16.0002L57.7299 16.0022L57.6939 16.0042L57.6839 16.0032L57.6379 16.0002L57.5919 15.9972L57.5459 15.9962L57.4989 15.9952H57.4519V15.9992Z" fill="#A168BE"/>
<path fill-rule="evenodd" clip-rule="evenodd" d="M60.5979 29.1484L60.6259 29.1584L60.6289 29.1594L60.6519 29.1714L60.6729 29.1874L60.6909 29.2064L60.6969 29.2114L60.7109 29.2294L60.7329 29.2674L60.7469 29.2964L60.7579 29.3224L60.7709 29.3514L60.7949 29.4124L60.7989 29.4234L60.8839 29.4754L61.0179 29.5464L61.1949 29.6234L61.2829 29.6574L61.2999 29.7224L61.3289 29.8374L61.3599 29.9604L61.4249 30.2194L61.4749 30.4294L61.4879 30.4924L61.5399 30.7694L61.5879 31.0384L61.6329 31.2894L61.6699 31.5145L61.6809 31.5814L61.6849 31.6174L61.6969 31.7104L61.7059 31.7944L61.7109 31.8694L61.7279 32.1134L61.7439 32.3544L61.7589 32.5965L61.7729 32.8384L61.7769 32.9174L61.7829 33.0814L61.7909 33.3244L61.8039 33.8074L61.8109 34.0874L61.8129 34.2914L61.8159 34.7734L61.8209 35.2544L61.8239 35.4934L61.8289 35.7324L61.8339 35.9704L61.8359 36.0484L61.8379 36.2074L61.8429 36.4424L61.8499 36.6774L61.8579 36.9104L61.8679 37.1414L61.8789 37.3714L61.8929 37.6004L61.9089 37.8274L61.9259 38.0514L61.9449 38.2744L61.9539 38.3544L61.9659 38.4964L61.9759 38.6034L61.9869 38.7124L61.9989 38.8204L62.0109 38.9284L62.0239 39.0354L62.0379 39.1414L62.0529 39.2474L62.0679 39.3474L62.0759 39.3954L62.0889 39.4674L62.1059 39.5624L62.1269 39.6744L62.1819 39.9494L62.2479 40.2694L62.2899 40.4644L62.3199 40.6224L62.3549 40.8055L62.3909 40.9914L62.4279 41.1774L62.4659 41.3615L62.4689 41.3754L62.4969 41.5434L62.5269 41.7204L62.5569 41.8895L62.5869 42.0494L62.5899 42.0644L62.5559 42.2114L62.5239 42.3604L62.5139 42.4084L62.4709 42.4995L62.4169 42.6234L62.3929 42.6724L62.3719 42.7164L62.3559 42.7634L62.3489 42.7434L62.3339 42.7794L62.3319 42.7854L62.3189 42.8104L62.3039 42.7784L62.2959 42.8174L62.2729 42.7734L62.2689 42.8064L62.2279 42.7424V42.7684L62.1739 42.7004L62.1749 42.7114L62.1159 42.6525L62.1179 42.6614L62.0259 42.5934L62.0289 42.6004L61.8919 42.5405L62.1829 42.8624L62.2229 42.9374L62.2589 43.0114L62.2889 43.0824L62.3119 43.1534L62.3269 43.2294L62.3319 43.3084L62.3239 43.3674L62.3089 43.4305L62.2799 43.5064L62.2269 43.6004L62.1859 43.6514L62.1289 43.7085L62.0659 43.7584L62.0629 43.7645L61.9729 43.8164L61.8759 43.8544L61.8769 43.8554L61.8719 43.8594L61.7619 43.8834L61.6489 43.8895L61.6429 43.8924L61.5419 43.8814L61.4429 43.8564L61.3619 43.8324L61.2389 43.7604L61.1549 43.6944L61.0869 43.6294L61.0159 43.5544L60.9549 43.4865L60.9019 43.4294L60.8799 43.3794L60.8609 43.3874L60.8509 43.3764L60.8029 43.3244L60.7519 43.2724L60.6989 43.2194L60.6419 43.1624L60.5179 43.0514L60.4299 42.9724L60.3939 42.9224L60.2869 42.7794L60.1839 42.6424L60.1789 42.6254L60.1299 42.4494L60.0809 42.2664L60.0319 42.0784L59.9859 41.9014L59.9829 41.8864L59.9409 41.6914L59.8989 41.4954L59.8589 41.3004L59.8189 41.1064L59.7869 40.9424L59.7519 40.7365L59.6969 40.3954L59.6509 40.0974L59.6319 39.9664L59.6159 39.8504L59.6019 39.7474L59.5909 39.6594L59.5779 39.5294L59.5659 39.4044L59.5549 39.2794L59.5459 39.1544L59.5369 39.0294L59.5289 38.9044L59.5219 38.7794L59.5149 38.6525L59.5089 38.4934L59.5069 38.4034L59.5039 38.1534V37.9044L59.5069 37.6544L59.5119 37.4054L59.5189 37.1564L59.5279 36.9084L59.5389 36.6614L59.5519 36.4134L59.5659 36.1674L59.5759 36.0024L59.5819 35.9214L59.5989 35.6754L59.6179 35.4305L59.6369 35.1864L59.6769 34.7024L59.7179 34.2204L59.7349 34.0194L59.7629 33.7434L59.8089 33.2694L59.8299 33.0354L59.8449 32.8774L59.8529 32.8024L59.8769 32.5704L59.8999 32.3394L59.9209 32.1104L59.9389 31.8884L59.9429 31.8484L59.9469 31.7914L59.9499 31.7174L59.9509 31.6864L59.9539 31.6304L59.9619 31.4184L59.9689 31.1764L59.9729 30.9155L59.9749 30.6454L59.9739 30.5835L59.9839 30.3764L59.9939 30.1214L59.9969 30.0044L59.9989 29.8944L59.9999 29.8344L60.0769 29.7834L60.2269 29.6714L60.3349 29.5764L60.3909 29.5164L60.3899 29.5074L60.3809 29.4244L60.3779 29.3874L60.3769 29.3554L60.3789 29.3244L60.3849 29.2884L60.3929 29.2664L60.4029 29.2454L60.4159 29.2264L60.4179 29.2244L60.4369 29.2024L60.4589 29.1844L60.4609 29.1824L60.4869 29.1684L60.5149 29.1584L60.5439 29.1525H60.5469H60.5769L60.5979 29.1484ZM61.1129 42.8144L61.0729 42.8874L61.0829 42.8824L61.0599 42.9384L61.0709 42.9305L61.0559 42.9734L61.0679 42.9644L61.0559 43.0124L61.0819 42.9874L61.0749 43.0294L61.1039 42.9964L61.1009 43.0244L61.1329 42.9924L61.1699 42.9524L61.1689 42.9664L61.2079 42.9124L61.2509 42.8484L61.5589 42.5184L61.4679 42.5314L61.2879 42.6214L61.1679 42.7274L61.1759 42.7244L61.1049 42.8164L61.1129 42.8144ZM60.7029 29.3964L60.7039 29.3884L60.6959 29.4134L60.6969 29.4074L60.6909 29.4264L60.7059 29.4004L60.7119 29.3774L60.7059 29.3914L60.7089 29.3774L60.7029 29.3964Z" fill="#A168BE"/>
<path fill-rule="evenodd" clip-rule="evenodd" d="M61.9821 49.6411L61.9741 49.6451L61.9851 49.6401L61.9781 49.6441L61.9871 49.6391L61.9801 49.6461L61.9891 49.6381L61.9741 49.6541L61.9831 49.6441L61.9691 49.6641L61.9751 49.6561L61.9611 49.6801L61.9651 49.6731L61.9521 49.7001L61.9551 49.6941L61.9411 49.7251L61.9441 49.7201L61.9311 49.7531L61.9321 49.7491L61.9201 49.7851L61.9081 49.8231L61.9091 49.8201L61.9011 49.8511L61.9121 49.8671L61.9611 49.9311L62.0291 50.0011L62.1171 50.0781L62.2271 50.1601L62.3621 50.2491L62.3651 50.2511L62.3641 50.3041L62.3621 50.4261L62.3631 50.5591L62.3671 50.7031L62.3731 50.8531V50.8571L62.3661 51.0191L62.3601 51.1901L62.3561 51.3691L62.3541 51.5571V51.7101L62.3521 51.7521L62.3441 51.9521L62.3371 52.1591L62.3321 52.3711L62.3281 52.5881L62.3261 52.6911L62.3211 52.8091L62.3131 53.0341L62.3061 53.2631L62.3001 53.4941L62.2971 53.6651L62.2941 53.7281L62.2841 53.9631L62.2761 54.2001L62.2691 54.4371L62.2641 54.6751L62.2611 54.8981L62.2601 54.9121L62.2531 55.1481L62.2471 55.3831L62.2421 55.6161L62.2391 55.8461L62.2381 56.0741L62.2391 56.2971V56.3031L62.2351 56.5171L62.2321 56.7311L62.2311 56.9411L62.2331 57.1441L62.2361 57.3411L62.2421 57.5301L62.2451 57.6041V57.7121L62.2471 57.8881L62.2491 57.9691L62.2521 58.0501L62.2551 58.1281L62.2541 58.2061V58.2791V58.3501L62.2561 58.4181L62.2581 58.4831L62.2591 58.5221L62.2491 58.5471L62.2231 58.6101L62.2001 58.6711L62.1791 58.7291L62.1591 58.7831L62.1251 58.8381L62.0941 58.8901L62.0661 58.9381L62.0451 58.9941L62.0371 58.9721L62.0181 59.0241L62.0021 59.0731L61.9911 59.0491L61.9861 59.0821L61.9811 59.1071L61.9681 59.0821L61.9591 59.1381L61.9441 59.1121L61.9471 59.1471L61.9301 59.1201L61.9291 59.1701L61.9091 59.1411L61.9111 59.1881L61.8871 59.1581L61.8941 59.2021L61.8731 59.1801L61.8781 59.2001L61.8621 59.1851L61.8681 59.2051L61.8511 59.1901L61.8581 59.2091L61.8401 59.1941L61.8471 59.2131L61.8281 59.1991L61.8361 59.2161L61.8151 59.2021L61.8241 59.2191L61.8021 59.2061L61.8121 59.2221L61.7891 59.2101L61.7991 59.2251L61.7751 59.2151L61.7871 59.2291L61.7621 59.2201L61.7741 59.2331L61.7491 59.2261L61.7621 59.2381L61.7371 59.2331L61.7501 59.2441L61.7251 59.2401L61.7401 59.2501L61.7161 59.2491L61.7311 59.2581L62.0941 59.6371L61.7071 59.9931L61.6801 60.0001L61.6391 60.0051L61.5971 60.0071L61.5551 60.0061L61.5131 60.0021L61.4711 59.9961L61.4291 59.9871L61.3891 59.9771L61.3481 59.9641L61.3091 59.9491L61.2711 59.9331L61.2341 59.9161L61.1971 59.8971L61.1581 59.8741L61.0931 59.8371L61.0261 59.7921L60.9611 59.7451L60.8961 59.6951L60.8321 59.6441L60.8051 59.6221L60.7701 59.5891L60.7101 59.5311L60.6491 59.4711L60.5871 59.4091L60.5241 59.3451L60.4591 59.2791L60.3921 59.2101L60.3421 59.1351L60.2911 59.0581L60.2401 58.9781L60.1871 58.8971L60.1681 58.8671L60.1531 58.8111L60.1311 58.7221L60.1101 58.6311L60.0891 58.5391L60.0691 58.4451L60.0501 58.3501L60.0491 58.3481L60.0341 58.2521L60.0201 58.1531L60.0051 58.0511L59.9801 57.8471L59.9661 57.7211L59.9601 57.6361L59.9471 57.4181L59.9361 57.1961L59.9271 56.9691L59.9211 56.7371L59.9171 56.5021L59.9141 56.2691V56.2631L59.9211 56.0211L59.9301 55.7771L59.9411 55.5311L59.9541 55.2841L59.9691 55.0361L59.9781 54.7901L59.9791 54.7751L59.9991 54.5401L60.0231 54.2911L60.0481 54.0431L60.0741 53.7961L60.1021 53.5501L60.1101 53.4831L60.1351 53.3061L60.1711 53.0641L60.2081 52.8261L60.2461 52.5921L60.2661 52.4691L60.2871 52.3621L60.3331 52.1371L60.3791 51.9161L60.4251 51.7011L60.4711 51.4911L60.4811 51.4481L60.5251 51.2891L60.5791 51.0941L60.6331 50.9061L60.6861 50.7251L60.7381 50.5531L60.7391 50.5481L60.8031 50.3911L60.8671 50.2371L60.9291 50.0931L60.9891 49.9591L61.0181 49.8931H61.0211L61.1871 49.8671L61.3281 49.8411L61.4461 49.8151L61.5451 49.7881L61.6251 49.7601L61.6441 49.7531L61.6591 49.7211L61.6781 49.6791L61.6971 49.6411L61.7161 49.6051L61.7361 49.5711L61.7561 49.5401L61.7771 49.5121L61.8001 49.4861L61.8241 49.4631L61.8401 49.4511L61.8551 49.4411L61.8721 49.4321L61.8901 49.4241L61.9101 49.4181L61.9311 49.4141H61.9531L61.9751 49.4161L61.9961 49.4221L62.0161 49.4291L62.0341 49.4391L62.0501 49.4511L62.0641 49.4631L62.0751 49.4731L62.0791 49.6271L61.9251 49.6311L61.9171 49.6261L61.9261 49.6321L61.9181 49.6281L61.9291 49.6341L61.9221 49.6311L61.9341 49.6361L61.9271 49.6341L61.9411 49.6381L61.9331 49.6371L61.9481 49.6391H61.9401H61.9551H61.9481L61.9631 49.6381L61.9551 49.6391L61.9691 49.6371L61.9621 49.6401L61.9821 49.6411Z" fill="#A168BE"/>
<path fill-rule="evenodd" clip-rule="evenodd" d="M61.5557 68.0135L61.5697 68.1095L61.5728 68.1295L61.6868 68.2285L62.0537 68.4705L62.0578 68.5075L62.0868 68.7705L62.1158 69.0125L62.1188 69.0535L62.1398 69.3405L62.1637 69.6205L62.1628 69.6255L62.1527 69.8935L62.1458 70.1385L62.1418 70.3525L62.1408 70.4385V70.5125L62.1428 70.5695L62.1448 70.6075L62.1488 70.6805L62.1548 70.7625L62.1618 70.8485L62.1698 70.9385L62.1868 71.1365L62.2077 71.3475L62.2308 71.5725L62.2568 71.8095L62.3108 72.2935L62.3128 72.3145L62.3388 72.5805L62.3648 72.8545L62.3898 73.1345L62.4137 73.4195L62.4358 73.7095L62.4557 74.0015L62.4658 74.1515L62.4738 74.2995L62.4818 74.4485L62.4888 74.5975L62.4948 74.7465L62.4997 74.8965L62.5028 75.0465L62.5048 75.1955L62.5058 75.3455V75.3475L62.4997 75.4945L62.4918 75.6425L62.4818 75.7905L62.4707 75.9385L62.4577 76.0855L62.4427 76.2315L62.4268 76.3765L62.4088 76.5215L62.4048 76.5495L62.3857 76.6645L62.3597 76.8075L62.3307 76.9485L62.2988 77.0885L62.2648 77.2275L62.2278 77.3655L62.1878 77.4975L62.1657 77.5695L62.1438 77.6375L62.1208 77.7055L62.1068 77.7415L62.0908 77.7705L62.0547 77.8345L62.0178 77.8965L61.9808 77.9585L61.9417 78.0195L61.9027 78.0805L61.8618 78.1395L61.8208 78.1985L61.7788 78.2575L61.7347 78.3145L61.6908 78.3715L61.6458 78.4275L61.5998 78.4825L61.5527 78.5365L61.5048 78.5895L61.4557 78.6425L61.4048 78.6925L61.3528 78.7425L61.2988 78.7915L61.2448 78.8385L61.1978 78.8735L59.8737 78.9175L59.8438 77.5935L59.8658 77.5545L59.8477 77.5745L59.8607 77.5455L59.8727 77.5155L59.8568 77.5365L59.8688 77.5045L59.8798 77.4725L59.8648 77.4935L59.8747 77.4605L59.8857 77.4265L59.8717 77.4465L59.8818 77.4115L59.8908 77.3755L59.8778 77.3955L59.8867 77.3585L59.8887 77.3305L59.8908 77.3005L59.8928 77.2705L59.8948 77.2385L59.8958 77.2055L59.8968 77.1725V77.1375V77.1015V77.0635L59.8958 77.0255L59.8948 77.0075L59.9007 76.9885L59.9098 76.9515L59.9198 76.9135L59.9287 76.8775L59.9468 76.7925L59.9628 76.7065L59.9778 76.6165L59.9918 76.5225L60.0058 76.4245L60.0168 76.3225L60.0257 76.2385L60.0288 76.2175L60.0407 76.1095L60.0527 75.9985L60.0628 75.8845L60.0718 75.7675L60.0788 75.6485L60.0858 75.5265L60.0908 75.4035L60.0938 75.2795V75.2775L60.1028 75.1505L60.1097 75.0215L60.1158 74.8915L60.1208 74.7595L60.1258 74.6265L60.1288 74.4925L60.1308 74.3575L60.1328 74.2225L60.1338 74.0875L60.1328 73.8135L60.1298 73.5395L60.1247 73.2675L60.1188 72.9975L60.1107 72.7305L60.1028 72.4675L60.1018 72.4455L60.0918 71.9565L60.0878 71.7115L60.0848 71.4735L60.0827 71.2445L60.0837 71.0255L60.0848 70.9175L60.0868 70.8135L60.0888 70.7125L60.0928 70.6085L60.0967 70.5285L60.1028 70.4405L60.1118 70.3445L60.1217 70.2395L60.1468 70.0085L60.1777 69.7485L60.2138 69.4705V69.4655L60.2878 69.1835L60.3638 68.8955L60.3747 68.8535L60.4508 68.6145L60.5348 68.3515L60.5468 68.3145L60.9598 68.1545L61.0957 68.0805L61.1038 68.0615L61.1428 67.9685L61.1758 67.8855L61.2038 67.8125L61.2278 67.7525L61.2477 67.7055L61.2578 67.6815L61.2698 67.6565L61.2798 67.6405L61.2917 67.6225L61.3057 67.6065L61.3078 67.6045L61.3238 67.5905L61.3428 67.5785L61.3628 67.5695H61.3648L61.3848 67.5645L61.4048 67.5625L61.4248 67.5635L61.4447 67.5675L61.4638 67.5745L61.4857 67.5865L61.5038 67.6015L61.5198 67.6195L61.5208 67.6215L61.5328 67.6405L61.5417 67.6615L61.5478 67.6795L61.5498 67.7075L61.5488 67.7345L61.5407 67.7915L61.5397 67.8015V67.8135L61.5438 67.8705V67.8675L61.5508 67.9405L61.5557 68.0135ZM61.2728 67.7475L61.2868 67.7735L61.2777 67.7415L61.2788 67.7485L61.2728 67.7315L61.2747 67.7415L61.2698 67.7295L61.2728 67.7475Z" fill="#A168BE"/>
<path fill-rule="evenodd" clip-rule="evenodd" d="M76.6968 4.60156L76.7398 4.60455L76.7828 4.60956L76.8258 4.61555L76.8608 4.62256L77.2818 5.02255L76.8748 5.43556L76.8468 5.44356H76.8618L76.8348 5.45256L76.8488 5.45155L76.8218 5.46255L76.8358 5.46156L76.8088 5.47356L76.8218 5.47156L76.7948 5.48456L76.8078 5.48256L76.7808 5.49655L76.7938 5.49455L76.7728 5.50856L76.7518 5.52356L76.7638 5.52055L76.7428 5.53656L76.7208 5.55356L76.7328 5.54956L76.7108 5.56757L76.6888 5.58656L76.7038 5.58055L76.6588 5.62256L76.6128 5.66756L76.6308 5.65855L76.5848 5.70856L76.5468 5.75755L76.5088 5.81155L76.4698 5.86856L76.4298 5.93056L76.3908 5.99655L76.3508 6.06656L76.3118 6.14056L76.2968 6.16956L76.2578 6.19955L76.1938 6.25156L76.1278 6.30756L76.0608 6.36555L75.9918 6.42755L75.9218 6.49156L75.8498 6.55956L75.7768 6.63055L75.7018 6.70456L75.6278 6.77956L75.6258 6.78056L75.5488 6.85855L75.4698 6.93956L75.3898 7.02255L75.3098 7.10756L75.2278 7.19456L75.1448 7.28456L75.0618 7.37656L74.9768 7.47156L74.8918 7.56757L74.8058 7.66656L74.7188 7.76756L74.6308 7.87056L74.5428 7.97556L74.4548 8.08257L74.2748 8.30356L74.0928 8.53056L73.9098 8.76357L73.7238 9.00356L73.5378 9.24756L73.3498 9.49655L73.1618 9.75056L72.9728 10.0086L72.7828 10.2696L72.5928 10.5346L72.4028 10.8016L72.2128 11.0716L72.0238 11.3426L71.8348 11.6156L71.6478 11.8896L71.4608 12.1636L71.2748 12.4386L71.0908 12.7126L70.9088 12.9856L70.7288 13.2576L70.5498 13.5276L70.3748 13.7956L70.0288 14.3246L69.6948 14.8406L69.3738 15.3386L68.7768 16.2706L68.5038 16.6966L68.2488 17.0926L68.0148 17.4556L67.8028 17.7806L67.7038 17.9296L67.6118 18.0676L67.5248 18.1956L67.4458 18.3116L67.2248 18.6276L67.0038 18.9426L66.7818 19.2566L66.5598 19.5696L66.3368 19.8826L66.1138 20.1946L65.8898 20.5066L65.6648 20.8176L65.4398 21.1286L65.2138 21.4386L64.7618 22.0576L64.3078 22.6746L63.8508 23.2896L63.3928 23.9026L63.0968 24.2976L62.9328 24.5156L62.4708 25.1256L62.0068 25.7336L61.5408 26.3406L61.0748 26.9466L60.6058 27.5506L60.1368 28.1536L59.6658 28.7556L59.1948 29.3566L58.7218 29.9566L58.2478 30.5566L57.7738 31.1546L57.2988 31.7526L56.8238 32.3496L56.3478 32.9466L55.3958 34.1396L54.5228 35.2306L54.4428 35.3306L53.4878 36.5196L52.5328 37.7096L51.5798 38.8996L51.1048 39.4956L50.6298 40.0906L50.1548 40.6866L49.6808 41.2836L49.2078 41.8806L48.7358 42.4796L48.2648 43.0786L47.7948 43.6776L47.3258 44.2786L46.9128 44.8136L46.8598 44.8816L46.3918 45.4836L45.9258 46.0856L45.4618 46.6906L44.9988 47.2956L44.5378 47.9026L44.0788 48.5116L43.6228 49.1216L43.1678 49.7336L42.7148 50.3476L42.4898 50.6546L42.2638 50.9626L42.0398 51.2716L41.8158 51.5806L41.5918 51.8906L41.3688 52.2006L41.1468 52.5106L40.9668 52.7636L40.9258 52.8226L40.7038 53.1336L40.4828 53.4456L40.2628 53.7576L40.0438 54.0706L39.8248 54.3846L39.6068 54.6986L39.3898 55.0136L39.1728 55.3286L38.9578 55.6446L38.7428 55.9616L38.5288 56.2786L38.3148 56.5966L38.1028 56.9156L37.8898 57.2366L37.6788 57.5526L37.4658 57.8686L37.2498 58.1836L37.0318 58.4966L36.8128 58.8076L36.5918 59.1166L36.3688 59.4246L36.1438 59.7306L35.9178 60.0356L35.6898 60.3396L35.4608 60.6416L35.2308 60.9426L35.1258 61.0786L34.9988 61.2426L34.7658 61.5406L34.5318 61.8366L34.2958 62.1326L34.0598 62.4276L33.8228 62.7216L33.5838 63.0146L33.3448 63.3066L33.1048 63.5976L32.8638 63.8876L32.6218 64.1776L32.3798 64.4666L32.1368 64.7546L31.8928 65.0426L31.4048 65.6156L30.9148 66.1876L30.4248 66.7586L29.4428 67.8986L28.9528 68.4686L28.4628 69.0386L27.9748 69.6086L27.4898 70.1796L27.2478 70.4656L27.0058 70.7516L26.7658 71.0386L26.5258 71.3266L26.2868 71.6146L26.0488 71.9026L25.8118 72.1926L25.5758 72.4816L25.3418 72.7726L25.1078 73.0646L24.8758 73.3566L24.6538 73.6366L24.6428 73.6496L24.4088 73.9406L24.1768 74.2326L23.9458 74.5256L23.7158 74.8206L23.4868 75.1156L23.2598 75.4126L23.0348 75.7116L22.8098 76.0126L22.7578 76.0816L22.6978 76.1606L22.6318 76.2446L22.5578 76.3366L22.3938 76.5406L22.2048 76.7706L21.9958 77.0236L21.7658 77.2976L21.5188 77.5916L21.2578 77.9036L20.6968 78.5686L20.1018 79.2736L19.4898 80.0016L19.1828 80.3686L18.8778 80.7336L18.5998 81.0686L18.5778 81.0936L18.2718 81.4386L17.9768 81.7756L17.6938 82.1026L17.4248 82.4176L17.1718 82.7166L16.9388 82.9986L16.8298 83.1326L16.7258 83.2606L16.6278 83.3836L16.5368 83.5006L16.4508 83.6116L16.3728 83.7156L16.2998 83.8126L16.2358 83.9026L16.1778 83.9856L16.1288 84.0606L16.0958 84.1506L16.0778 84.1806L16.0798 84.1786L16.0638 84.2066L16.0498 84.2326L16.0518 84.2296L16.0388 84.2556L16.0408 84.2506L16.0308 84.2746L16.0328 84.2686L16.0248 84.2896L16.0218 84.2996L16.0208 84.3036V84.3066L16.0198 84.3056V84.2946L16.0158 84.2806L16.0108 84.2696L16.0018 84.2566L15.9908 84.2446L15.9788 84.2356L15.9658 84.2306L15.9558 84.2276L16.0498 84.3466L15.9298 84.4416L15.9068 84.4396L15.8818 84.4306L15.8608 84.4186L15.8418 84.4026L15.8268 84.3836L15.8148 84.3626L15.8058 84.3396L15.8008 84.3076V84.2756L15.8058 84.2466L15.8128 84.2196L15.8208 84.1916L15.8318 84.1626L15.8448 84.1326L15.8588 84.1016L15.8738 84.0686L15.8908 84.0326L15.9318 83.9576L15.9778 83.8746L16.0318 83.7846L16.0918 83.6866L16.1588 83.5816L16.2318 83.4696L16.3098 83.3516L16.3928 83.2256L16.4828 83.0946L16.5768 82.9566L16.6758 82.8136L16.8878 82.5106L17.1148 82.1886L17.3558 81.8496L17.6088 81.4966L17.8708 81.1306L18.1398 80.7546L18.1588 80.7266L18.4258 80.3816L18.7178 80.0056L19.0118 79.6276L19.5968 78.8776L20.1648 78.1496L20.6988 77.4636L20.9468 77.1436L21.1808 76.8406L21.3968 76.5596L21.5948 76.3006L21.7698 76.0676L21.9218 75.8616L21.9878 75.7716L22.0468 75.6896L22.0988 75.6156L22.1438 75.5496L22.3558 75.2386L22.5708 74.9276L22.7878 74.6176L23.0058 74.3086L23.2258 74.0006L23.4468 73.6936L23.6698 73.3876L23.8938 73.0836L23.9038 73.0696L24.1228 72.7826L24.3528 72.4836L24.5838 72.1846L24.8158 71.8876L25.0478 71.5906L25.2818 71.2946L25.5158 70.9996L25.7518 70.7046L25.9878 70.4116L26.2248 70.1186L26.4618 69.8256L26.6998 69.5336L27.1768 68.9516L27.6558 68.3706L28.1348 67.7906L28.6148 67.2126L29.5748 66.0546L30.0528 65.4756L30.5298 64.8966L31.0048 64.3166L31.2408 64.0266L31.4768 63.7356L31.7118 63.4436L31.9448 63.1526L32.1778 62.8596L32.4098 62.5666L32.6408 62.2736L32.8708 61.9796L33.1008 61.6846L33.3288 61.3886L33.5558 61.0926L33.7818 60.7946L34.0058 60.4966L34.1278 60.3336L34.2298 60.1976L34.4518 59.8986L34.6718 59.5976L34.8908 59.2956L35.1078 58.9936L35.3228 58.6896L35.5368 58.3846L35.7478 58.0776L35.9578 57.7696L36.1648 57.4606L36.3708 57.1506L36.5738 56.8386L36.7758 56.5236L36.9838 56.1996L37.1928 55.8746L37.4028 55.5496L37.6138 55.2256L37.8258 54.9026L38.0378 54.5806L38.2508 54.2586L38.4648 53.9376L38.6798 53.6166L38.8948 53.2966L39.1108 52.9776L39.3278 52.6596L39.5448 52.3406L39.7628 52.0236L39.8038 51.9646L39.9828 51.7066L40.2028 51.3916L40.4228 51.0756L40.6448 50.7616L40.8668 50.4466L41.0888 50.1336L41.3118 49.8206L41.5358 49.5076L41.9838 48.8836L42.4338 48.2616L42.8858 47.6416L43.3398 47.0236L43.7958 46.4076L44.2538 45.7926L44.7128 45.1796L45.1738 44.5676L45.6368 43.9566L45.6888 43.8876L46.1018 43.3486L46.5688 42.7416L47.0368 42.1366L47.5058 41.5326L47.9768 40.9296L48.4478 40.3276L48.9188 39.7266L49.3918 39.1256L49.8648 38.5256L50.3388 37.9266L51.2858 36.7296L52.2338 35.5326L53.1818 34.3376L53.2608 34.2376L54.1308 33.1446L55.0788 31.9506L55.5528 31.3546L56.0258 30.7576L56.4978 30.1596L56.9698 29.5616L57.4398 28.9636L57.9098 28.3646L58.3778 27.7646L58.8448 27.1636L59.3108 26.5626L59.7748 25.9596L60.2378 25.3566L60.6988 24.7516L61.1588 24.1456L61.6168 23.5386L61.7788 23.3226L62.0728 22.9296L62.5268 22.3196L62.9798 21.7086L63.4298 21.0966L63.8778 20.4816L64.1008 20.1736L64.3238 19.8656L64.5458 19.5576L64.7678 19.2476L64.9888 18.9386L65.2098 18.6286L65.4298 18.3176L65.6488 18.0066L65.8668 17.6946L66.0838 17.3836L66.1578 17.2776L66.2368 17.1596L66.3238 17.0296L66.4178 16.8876L66.6248 16.5696L66.8548 16.2116L67.1068 15.8176L67.3798 15.3926L67.9768 14.4586L68.2988 13.9566L68.6348 13.4366L68.9828 12.9026L69.1608 12.6306L69.3408 12.3576L69.5238 12.0816L69.7078 11.8046L69.8948 11.5266L70.0828 11.2476L70.2718 10.9686L70.4628 10.6896L70.6558 10.4116L70.8488 10.1346L71.0418 9.85855L71.2368 9.58456L71.4308 9.31355L71.6258 9.04456L71.8208 8.77856L72.0148 8.51656L72.2098 8.25856L72.4028 8.00456L72.5968 7.75555L72.7888 7.51155L72.9798 7.27255L73.1688 7.04056L73.2638 6.92555L73.3588 6.81355L73.4518 6.70256L73.5458 6.59456L73.6388 6.48756L73.7318 6.38255L73.8238 6.27856L73.9158 6.17755L74.0068 6.07855L74.0988 5.98056L74.1888 5.88556L74.2788 5.79256L74.3688 5.70056L74.4588 5.61156L74.4608 5.60956L74.5488 5.52657L74.6388 5.44257L74.7278 5.36156L74.8168 5.28156L74.9058 5.20456L74.9938 5.12956L75.0818 5.05656L75.1698 4.98656L75.2578 4.91856L75.3128 4.87756L75.3538 4.86456L75.4618 4.83156L75.5678 4.80055L75.6718 4.77055L75.7738 4.74356L75.8738 4.71855L75.9728 4.69656L76.0688 4.67656L76.1638 4.65956L76.2578 4.64555L76.3468 4.63556L76.3938 4.63055L76.4398 4.62656L76.4848 4.62456L76.5298 4.62256L76.5748 4.62155L76.5768 4.63055L76.6188 4.62256L76.6628 4.62357L76.6968 4.60156Z" fill="#A168BE"/>
<path fill-rule="evenodd" clip-rule="evenodd" d="M69.9099 4.30344L70.0299 4.30844L70.1389 4.41644L70.0309 4.52544L69.9129 4.53143L69.8039 4.53944L69.7029 4.54744L69.6109 4.55743L69.5279 4.56744L69.4519 4.57944L69.4249 4.58344L69.4669 4.59143L69.4739 4.59244L69.5279 4.59444L69.5919 4.59544L69.6609 4.59444L69.7339 4.59244L69.8099 4.58743L69.8879 4.58144L69.9699 4.57243L70.0539 4.56143L70.1409 4.54843L70.2299 4.53244L70.3219 4.51443L70.4149 4.49344L70.5099 4.46944L70.6069 4.44344L70.7039 4.41344L70.8029 4.38144L70.8859 4.35243L70.9019 4.35043L71.0029 4.33844L71.1059 4.32443L71.2089 4.30943L71.3139 4.29144L71.4189 4.27144L71.5239 4.24944L71.6289 4.22644L71.7349 4.20044L71.8399 4.17143L71.9449 4.14143L72.0489 4.10944L72.1149 4.08743L72.1529 4.07643L72.2579 4.04544L72.3629 4.01244L72.4119 3.99544L72.4629 3.97743L72.5139 3.95844L72.5639 3.93944L72.6139 3.91943L72.6629 3.89944L72.7119 3.87843L72.7599 3.85744L72.8219 3.82843L72.8879 3.79643L72.9569 3.76044L73.0289 3.72244L73.1039 3.68044L73.1819 3.63644L73.2619 3.58943L73.3439 3.53944L73.4289 3.48744L73.5139 3.43443L73.6939 3.32043L73.8789 3.20143L74.0679 3.07744L74.4579 2.81844L74.6569 2.68643L74.8559 2.55444L75.0249 2.44444L75.0559 2.42444L75.2549 2.29643L75.4529 2.17244L75.5519 2.11143L75.6499 2.05144L75.7479 1.99344L75.8449 1.93744L75.9409 1.88243L76.0369 1.83044L76.1319 1.77943L76.2259 1.73143L76.3199 1.68544L76.4129 1.64143L76.5059 1.60043L76.5979 1.56244L76.6909 1.52744L76.7839 1.49544L76.8739 1.46844L76.9239 1.45444L76.9709 1.44244L77.0189 1.43243L77.0669 1.42343L77.1159 1.41444L77.1659 1.40843L77.2159 1.40344L77.2679 1.39944L77.3199 1.39844L77.3739 1.39944L77.4289 1.40244L77.4839 1.40744L77.5409 1.41644L77.5989 1.42844L77.6579 1.44344L77.7169 1.46344L77.7769 1.48643L77.8349 1.51443L77.8929 1.54744L77.9489 1.58444L78.0029 1.62643L78.0539 1.67143L78.1009 1.71944L78.1459 1.77144L78.1859 1.82544L78.2219 1.88144L78.2539 1.93843L78.2819 1.99644L78.3059 2.05444L78.3269 2.11343L78.3439 2.17244L78.3589 2.23143L78.3709 2.28944L78.3809 2.34843L78.3879 2.40744L78.3929 2.46544L78.3969 2.52444L78.3979 2.58444L78.3969 2.66943L78.3939 2.75444L78.3889 2.83943L78.3809 2.92444L78.3699 3.01044L78.3579 3.09644L78.3439 3.18344L78.3289 3.27043L78.3109 3.35744L78.2929 3.44543L78.2719 3.53343L78.2499 3.62144L78.2259 3.71043L78.1999 3.80043L78.1729 3.89044L78.1449 3.98143L78.1149 4.07243L78.1089 4.08943L78.0849 4.16544L78.0539 4.25844L78.0219 4.35243L77.9879 4.44644L77.9539 4.54044L77.9179 4.63644L77.8799 4.73244L77.8039 4.92644L77.7249 5.12244L77.6419 5.32144L77.5559 5.52243L77.4669 5.72543L77.3749 5.93044L77.2819 6.13644L77.1859 6.34544L77.1559 6.41144L76.9939 6.76544L76.7979 7.19044L76.6019 7.61844L76.4069 8.04843L76.3109 8.26344L76.2159 8.47844L76.1239 8.69244L76.0679 8.82344L76.0329 8.90643L75.9439 9.11943L75.8569 9.33144L75.7739 9.54144L75.6939 9.74944L75.6179 9.95744L75.5809 10.0584L75.5449 10.1604L75.5099 10.2604L75.4759 10.3614L75.4429 10.4604L75.4109 10.5594L75.3809 10.6574L75.3519 10.7544L75.3239 10.8504L75.2969 10.9464L75.2729 11.0364L75.2719 11.0404L75.2459 11.1334L75.2219 11.2254L75.1989 11.3164L75.1779 11.4064L75.1579 11.4954L75.1399 11.5834L75.1229 11.6694L75.1079 11.7554L75.0929 11.8394L75.0799 11.9224L75.0689 12.0034L75.0589 12.0844L75.0509 12.1634L75.0449 12.2414L75.0399 12.3174L75.0369 12.3914L75.0349 12.4644L75.0359 12.5354L75.0369 12.6044L75.0249 12.6724L75.0149 12.7394L75.0059 12.8054L74.9999 12.8694L74.9949 12.9334L74.9919 12.9954L74.9909 13.0574V13.1184L74.9939 13.1774L74.9979 13.2364L75.0039 13.2944L75.0119 13.3514L75.0219 13.4074L75.0239 13.4194L75.0319 13.4644L75.0449 13.5244L75.0529 13.5554L75.0459 13.5434L75.0569 13.5774L75.0649 13.6054L75.0729 13.6334L75.0819 13.6614L75.0909 13.6894L75.1009 13.7174L75.1119 13.7454L75.1239 13.7734L75.1359 13.8014L75.1489 13.8294L75.1619 13.8574L75.1759 13.8854L75.1909 13.9134L75.2059 13.9414L75.2219 13.9694L75.2379 13.9974L75.2589 14.0294L75.2439 14.9524L74.3209 14.9274L74.2819 14.8954L74.2389 14.8594L74.1969 14.8224L74.1559 14.7844L74.1159 14.7454L74.0759 14.7064L74.0369 14.6664L73.9979 14.6264L73.9609 14.5844L73.9239 14.5434L73.8879 14.5004L73.8529 14.4574L73.8189 14.4144L73.7859 14.3694L73.7529 14.3244L73.7209 14.2794L73.6899 14.2334L73.6579 14.1844L73.6019 14.0934L73.5579 14.0174L73.5459 13.9964L73.4969 13.8984L73.4509 13.7984L73.4069 13.6974L73.3669 13.5954L73.3299 13.4914L73.2959 13.3864L73.2649 13.2804L73.2369 13.1734L73.2119 13.0654L73.1899 12.9564L73.1699 12.8474L73.1529 12.7364L73.1379 12.6264L73.1409 12.5144L73.1459 12.4034L73.1529 12.2924L73.1629 12.1814L73.1749 12.0704L73.1899 11.9594L73.2059 11.8484L73.2229 11.7374L73.2429 11.6264L73.2639 11.5164L73.2879 11.4054L73.3129 11.2954L73.3399 11.1844L73.3679 11.0734L73.3979 10.9634L73.4299 10.8524L73.4629 10.7424L73.4969 10.6324L73.5329 10.5214L73.5349 10.5164L73.5719 10.4114L73.6119 10.3014L73.6539 10.1924L73.6959 10.0824L73.7399 9.97244L73.7849 9.86343L73.8309 9.75343L73.8769 9.64343L73.9239 9.53444L73.9719 9.42543L74.0209 9.31444L74.1209 9.09644L74.2249 8.87744L74.3309 8.65944L74.4379 8.44144L74.5469 8.22444L74.5909 8.14044L74.6599 8.00844L74.7719 7.79344L74.8859 7.57944L74.9999 7.36543L75.2299 6.94543L75.4579 6.52943L75.6819 6.12044L75.8659 5.78343L75.8999 5.71944L76.0039 5.52344L76.1059 5.32843L76.2039 5.13744L76.2999 4.94844L76.3919 4.76344L76.4789 4.58244L76.5629 4.40443L76.6419 4.22943L76.6799 4.14644L76.7159 4.06244L76.7519 3.98044L76.7859 3.89944L76.8179 3.81844L76.8499 3.73843L76.8739 3.67444L76.8789 3.65944L76.9059 3.58244L76.9309 3.50644L76.9549 3.43243L76.9779 3.35944L76.9979 3.28745L77.0169 3.21844L77.0339 3.15044L77.0499 3.08444L77.0649 3.02043L77.0779 2.95744L77.0889 2.89743L77.0989 2.83943L77.1069 2.78343L77.1129 2.72943L77.1149 2.71443L77.1089 2.71643L77.0519 2.73744L76.9899 2.76244L76.9229 2.79044L76.8529 2.82243L76.7789 2.85844L76.7019 2.89644L76.6239 2.93744L76.5419 2.98143L76.4589 3.02844L76.3729 3.07744L76.2849 3.12843L76.1959 3.18243L76.1049 3.23643L75.9179 3.35243L75.7269 3.47244L75.6969 3.49043L75.5319 3.59644L75.3349 3.72343L75.1369 3.85243L74.7409 4.11044L74.5439 4.23643L74.3489 4.36044L74.1569 4.47844L74.0619 4.53644L73.9679 4.59244L73.8749 4.64743L73.7819 4.70044L73.6909 4.75143L73.6009 4.80043L73.5119 4.84744L73.4229 4.89143L73.3359 4.93344L73.2509 4.97244L73.1849 5.00044L73.1199 5.02744L73.0559 5.05344L72.9909 5.07744L72.9259 5.10144L72.8609 5.12444L72.7959 5.14743L72.7289 5.16943L72.6009 5.20844L72.4699 5.24644L72.4239 5.25844L72.3399 5.27644L72.2089 5.30043L72.0779 5.32243L71.9489 5.34143L71.8199 5.35844L71.6919 5.37244L71.5649 5.38443L71.4399 5.39343L71.3159 5.40044L71.1939 5.40544L71.0739 5.40843L70.9549 5.40944H70.9359L70.8379 5.38744L70.7229 5.36143L70.6109 5.33543L70.5029 5.30844L70.3959 5.28044L70.2919 5.25343L70.1919 5.22644L70.0949 5.19844L70.0009 5.17143L69.9109 5.14343L69.8239 5.11644L69.7409 5.08943L69.6619 5.06244L69.5859 5.03543L69.5129 5.00844L69.4449 4.98244L69.3879 4.95944L69.3799 4.95744L69.3179 4.93744L69.2599 4.91743L69.2049 4.89743L69.1549 4.87643L69.1089 4.85443L69.0649 4.83144L69.0259 4.80844L69.0059 4.79443L68.9869 4.78044L68.9699 4.76443L68.9519 4.74744L68.9349 4.72844L68.9189 4.70644L68.9039 4.68044L68.8909 4.64944L68.8819 4.61444L68.8789 4.57744L68.8839 4.53844L68.8959 4.50343L68.9109 4.47244L68.9299 4.44644L68.9499 4.42444L68.9709 4.40744L68.9929 4.39343L69.0139 4.38043L69.0359 4.37044L69.0579 4.36143L69.0819 4.35243L69.1069 4.34544L69.1569 4.33244L69.2139 4.32243L69.2769 4.31343L69.3459 4.30644L69.4219 4.30144L69.5049 4.29744L69.5939 4.29544H69.6919L69.7969 4.29643L69.9099 4.30344ZM69.1609 4.66144L69.1699 4.65643L69.1579 4.66444L69.1689 4.65744L69.1589 4.66544L69.1699 4.65643L69.1619 4.66444L69.1719 4.65544L69.1609 4.66144Z" fill="#A168BE"/>
</svg>
