<svg width="59" height="61" viewBox="0 0 59 61" fill="none" xmlns="http://www.w3.org/2000/svg">
<path fill-rule="evenodd" clip-rule="evenodd" d="M33.3152 13.826L33.5292 13.829L33.7452 13.834L33.9622 13.841L34.1812 13.851L34.4022 13.862L34.5292 13.87L34.6242 13.878L34.8472 13.898L35.0722 13.921L35.2982 13.945L35.5252 13.972L35.7532 14L35.9822 14.03L36.2122 14.062L36.4432 14.096L36.6742 14.132L36.9062 14.169L37.1382 14.209L37.3722 14.25L37.6062 14.292L37.8402 14.336L38.0752 14.382L38.3102 14.429L38.5462 14.478L38.7822 14.528L39.0182 14.58L39.2552 14.633L39.4912 14.688L39.7272 14.743L39.9642 14.801L40.2002 14.859L40.4362 14.919L40.6712 14.979L40.9072 15.041L41.1412 15.104L41.3762 15.169L41.6092 15.234L41.8422 15.3L42.0752 15.368L42.3062 15.436L42.5372 15.505L42.7672 15.576L42.9972 15.647L43.2262 15.718L43.4532 15.791L43.6792 15.865L43.9052 15.939L44.1282 16.014L44.3512 16.089L44.5712 16.165L44.7912 16.242L45.0082 16.32L45.2242 16.398L45.4382 16.476L45.6512 16.555L45.8612 16.635L46.0692 16.714L46.2762 16.794L46.4802 16.874L46.6822 16.955L46.8812 17.035L47.0802 17.117L47.2762 17.197L47.4692 17.278L47.6602 17.36L47.8482 17.442L48.0342 17.523L48.2172 17.605L48.3972 17.687L48.5742 17.769L48.7482 17.851L48.9202 17.933L49.0892 18.015L49.2552 18.097L49.4182 18.178L49.5772 18.26L49.7332 18.341L49.8862 18.422L50.0362 18.503L50.1822 18.585L50.3242 18.665L50.4632 18.746L50.5992 18.826L50.7322 18.907L50.8612 18.987L50.9862 19.067L51.1072 19.147L51.2242 19.227L51.3382 19.307L51.4472 19.387L51.5542 19.466L51.6572 19.546L51.7562 19.626L51.8492 19.704L52.0032 19.837L52.1532 19.969L52.3022 20.102L52.4482 20.235L52.5922 20.369L52.7352 20.503L52.8762 20.638L53.0142 20.774L53.1522 20.91L53.2882 21.046L53.4222 21.183L53.5542 21.321L53.6852 21.459L53.8132 21.598L53.9392 21.737L54.0642 21.877L54.1872 22.017L54.3082 22.158L54.4272 22.299L54.5442 22.441L54.6592 22.584L54.7732 22.726L54.8852 22.87L54.9952 23.013L55.1032 23.158L55.2102 23.302L55.3152 23.447L55.4192 23.593L55.5212 23.739L55.6202 23.886L55.7192 24.033L55.8152 24.18L55.9102 24.328L56.0022 24.476L56.0942 24.624L56.1832 24.773L56.2702 24.923L56.3562 25.073L56.4402 25.223L56.5222 25.373L56.6032 25.524L56.6822 25.676L56.7592 25.827L56.8352 25.979L56.9092 26.132L56.9822 26.284L57.0532 26.437L57.1232 26.591L57.1912 26.745L57.2572 26.899L57.3212 27.053L57.3842 27.208L57.4452 27.362L57.5042 27.518L57.5612 27.673L57.6172 27.829L57.6722 27.985L57.7242 28.141L57.7752 28.298L57.8252 28.455L57.8732 28.612L57.9192 28.769L57.9642 28.926L58.0082 29.084L58.0512 29.242L58.0912 29.4L58.1302 29.559L58.1682 29.717L58.2042 29.876L58.2382 30.035L58.2712 30.194L58.3022 30.353L58.3322 30.513L58.3602 30.672L58.3872 30.832L58.4122 30.992L58.4362 31.152L58.4582 31.312L58.4782 31.472L58.4972 31.633L58.5152 31.793L58.5312 31.954L58.5462 32.115L58.5612 32.275L58.5732 32.436L58.5842 32.597L58.5942 32.758L58.6022 32.92L58.6092 33.081L58.6152 33.242L58.6192 33.404L58.6212 33.565L58.6232 33.726L58.6222 33.888L58.6212 34.049L58.6182 34.211L58.6132 34.372L58.6082 34.534L58.6012 34.696L58.5922 34.857L58.5822 35.019L58.5712 35.181L58.5592 35.342L58.5452 35.504L58.5302 35.665L58.5142 35.827L58.4972 35.988L58.4792 36.15L58.4602 36.311L58.4392 36.473L58.4182 36.634L58.3942 36.795L58.3702 36.957L58.3442 37.118L58.3172 37.279L58.2892 37.44L58.2602 37.601L58.2292 37.762L58.1972 37.922L58.1642 38.083L58.1302 38.244L58.0942 38.404L58.0582 38.565L58.0202 38.725L57.9812 38.885L57.9412 39.045L57.8992 39.205L57.8572 39.365L57.8132 39.524L57.7692 39.684L57.7232 39.843L57.6772 40.002L57.6292 40.161L57.5812 40.32L57.5322 40.479L57.4812 40.638L57.4302 40.796L57.3772 40.954L57.3232 41.112L57.2692 41.27L57.2132 41.428L57.1562 41.585L57.0982 41.742L57.0392 41.899L56.9792 42.056L56.9182 42.213L56.8562 42.369L56.7922 42.525L56.7282 42.681L56.6632 42.837L56.5972 42.993L56.5302 43.148L56.4622 43.303L56.3932 43.458L56.3232 43.612L56.2522 43.766L56.1802 43.92L56.1072 44.074L56.0332 44.228L55.9582 44.381L55.8832 44.534L55.8072 44.686L55.7302 44.839L55.6532 44.991L55.5752 45.142L55.4952 45.294L55.4642 45.353L55.4152 45.445L55.3342 45.596L55.2522 45.746L55.1692 45.896L55.0852 46.046L55.0012 46.196L54.9152 46.345L54.8292 46.494L54.7422 46.642L54.6542 46.79L54.5652 46.938L54.4752 47.085L54.3852 47.232L54.2942 47.379L54.2022 47.525L54.1092 47.671L54.0152 47.817L53.9212 47.962L53.8262 48.107L53.7302 48.251L53.6332 48.395L53.5362 48.539L53.4382 48.682L53.3392 48.824L53.2392 48.967L53.1392 49.109L53.0382 49.25L52.9362 49.391L52.8342 49.532L52.7302 49.672L52.6262 49.812L52.5222 49.951L52.4172 50.09L52.3112 50.228L52.2042 50.366L52.0972 50.504L51.9902 50.641L51.8822 50.777L51.7742 50.913L51.6652 51.049L51.5562 51.184L51.4452 51.319L51.3352 51.453L51.2232 51.586L51.1112 51.719L50.9992 51.852L50.8862 51.984L50.7722 52.116L50.6582 52.247L50.5432 52.377L50.4272 52.507L50.3112 52.636L50.1952 52.765L50.0772 52.894L49.9602 53.021L49.8422 53.148L49.7232 53.275L49.6032 53.401L49.4842 53.527L49.3632 53.652L49.2432 53.776L49.1212 53.9L48.9992 54.023L48.8772 54.145L48.7542 54.267L48.6312 54.389L48.5072 54.51L48.3832 54.63L48.2582 54.749L48.1332 54.868L48.0082 54.986L47.8822 55.104L47.7552 55.221L47.6292 55.337L47.5012 55.453L47.3742 55.568L47.2462 55.683L47.1172 55.796L46.9882 55.91L46.8592 56.022L46.7292 56.134L46.5992 56.245L46.4692 56.355L46.3382 56.465L46.2072 56.574L46.0752 56.682L45.9442 56.79L45.8122 56.897L45.6792 57.003L45.5452 57.109L45.4752 57.164L45.4032 57.22L45.3302 57.275L45.2562 57.329L45.1822 57.383L45.1062 57.437L45.0302 57.489L44.9532 57.541L44.8762 57.593L44.7992 57.644L44.7202 57.695L44.6412 57.745L44.5612 57.794L44.4812 57.843L44.3992 57.891L44.3172 57.939L44.2352 57.987L44.1512 58.033L44.0672 58.08L43.9812 58.126L43.8102 58.215L43.6352 58.302L43.4572 58.387L43.2772 58.47L43.0952 58.552L42.9092 58.632L42.7212 58.711L42.5312 58.787L42.3382 58.862L42.1432 58.934L41.9462 59.005L41.7472 59.074L41.5462 59.142L41.4132 59.184L41.4102 59.494L40.4782 59.458L40.2962 59.507L40.0812 59.562L39.8642 59.616L39.6462 59.667L39.4262 59.718L39.2042 59.766L38.9802 59.813L38.7562 59.858L38.5292 59.902L38.3012 59.944L38.0722 59.984L37.8422 60.023L37.6112 60.06L37.3792 60.096L37.1462 60.13L36.9112 60.163L36.6762 60.194L36.4392 60.223L36.2012 60.251L35.9632 60.277L35.7232 60.302L35.4832 60.326L35.2422 60.348L35.0002 60.368L34.7572 60.387L34.5142 60.404L34.2702 60.42L34.0262 60.435L33.7812 60.448L33.6092 60.456L33.5362 60.46L33.2912 60.47L33.0452 60.478L32.7982 60.485L32.5522 60.491L32.3062 60.496L32.0592 60.499L31.8122 60.5H31.5662L31.3192 60.499L31.0722 60.497L30.8262 60.493L30.5802 60.487L30.3342 60.481L30.0882 60.473L29.8432 60.463L29.5982 60.453L29.3542 60.441L29.1102 60.427L28.8672 60.413L28.6242 60.397L28.3822 60.379L28.1412 60.361L27.9012 60.341L27.6612 60.32L27.4222 60.298L27.1852 60.274L26.9482 60.249L26.7122 60.223L26.4782 60.195L26.2442 60.167L26.0122 60.137L25.7812 60.105L25.5512 60.073L25.3222 60.039L25.0942 60.005L24.8682 59.968L24.6432 59.931L24.4192 59.893L24.1982 59.853L23.9782 59.812L23.7592 59.77L23.5432 59.727L23.3282 59.682L23.1152 59.637L22.9042 59.59L22.6952 59.542L22.4882 59.493L22.2832 59.442L22.0802 59.391L21.8802 59.338L21.6812 59.284L21.4842 59.229L21.2902 59.173L21.0972 59.116L20.9072 59.058L20.7202 58.998L20.5352 58.937L20.3522 58.875L20.1722 58.812L19.9952 58.748L19.8212 58.683L19.6492 58.616L19.4802 58.549L19.3132 58.48L19.1482 58.41L18.9872 58.338L18.8292 58.266L18.6732 58.192L18.5212 58.117L18.3732 58.042L18.2692 57.987L18.1662 57.933L18.0642 57.878L17.9632 57.822L17.8632 57.766L17.7632 57.709L17.6632 57.652L17.5652 57.594L17.4672 57.536L17.3702 57.477L17.2732 57.417L17.1782 57.357L17.0822 57.296L16.9882 57.235L16.8942 57.174L16.8012 57.111L16.7092 57.049L16.6172 56.985L16.5262 56.921L16.4352 56.857L16.3452 56.792L16.2562 56.727L16.1682 56.661L16.0802 56.594L15.9932 56.527L15.9062 56.46L15.8212 56.392L15.7352 56.324L15.6512 56.255L15.5672 56.185L15.4842 56.115L15.4022 56.045L15.3202 55.974L15.2392 55.902L15.1582 55.83L15.0782 55.758L14.9992 55.685L14.9202 55.612L14.8432 55.538L14.7652 55.464L14.6892 55.389L14.6122 55.314L14.5362 55.238L14.4602 55.162L14.3852 55.085L14.3112 55.008L14.2372 54.931L14.1632 54.852L14.0212 54.697L13.8812 54.539L13.7432 54.38L13.6062 54.218L13.4732 54.055L13.3452 53.895L13.3422 53.891L13.2142 53.724L13.0882 53.556L12.9652 53.386L12.8452 53.215L12.7272 53.042L12.6122 52.868L12.4992 52.692L12.3892 52.515L12.2812 52.336L12.1752 52.157L12.0712 51.975L11.9702 51.793L11.8712 51.609L11.7752 51.423L11.6812 51.237L11.5892 51.049L11.5002 50.86L11.4142 50.67L11.3292 50.479L11.2482 50.286L11.1682 50.093L11.0912 49.898L11.0152 49.702L10.9422 49.505L10.8712 49.308L10.8022 49.109L10.7362 48.909L10.6722 48.708L10.6102 48.506L10.5502 48.303L10.4932 48.1L10.4382 47.895L10.3862 47.69L10.3352 47.483L10.2872 47.276L10.2412 47.068L10.1962 46.859L10.1542 46.65L10.1132 46.44L10.0752 46.229L10.0392 46.017L10.0052 45.805L9.97318 45.592L9.94418 45.378L9.91618 45.164L9.89118 44.949L9.86819 44.733L9.84718 44.517L9.82819 44.301L9.81119 44.084L9.79619 43.866L9.78219 43.648L9.77019 43.429L9.76118 43.21L9.75319 42.991L9.74718 42.771L9.74419 42.551L9.74219 42.33V42.109L9.74519 41.888L9.74918 41.666L9.75519 41.445L9.76318 41.222L9.77419 41L9.78619 40.777L9.80019 40.555L9.81519 40.332L9.83118 40.108L9.85019 39.885L9.87119 39.661L9.89319 39.438L9.91818 39.214L9.94418 38.99L9.97218 38.766L10.0022 38.543L10.0342 38.319L10.0672 38.095L10.1032 37.871L10.1402 37.647L10.1792 37.423L10.2202 37.2L10.2622 36.976L10.3062 36.753L10.3522 36.529L10.3982 36.306L10.4472 36.083L10.4972 35.86L10.5492 35.638L10.6032 35.415L10.6592 35.193L10.7162 34.971L10.7752 34.75L10.8162 34.6L10.8352 34.529L10.8982 34.308L10.9632 34.088L11.0292 33.868L11.0962 33.648L11.1662 33.429L11.2372 33.21L11.3092 32.992L11.3832 32.774L11.4592 32.557L11.5362 32.34L11.6142 32.124L11.6942 31.908L11.7752 31.693L11.8582 31.478L11.9422 31.264L12.0282 31.051L12.1152 30.838L12.2042 30.626L12.2942 30.415L12.3862 30.205L12.4802 29.995L12.5742 29.786L12.6712 29.577L12.7692 29.37L12.8682 29.163L12.9692 28.957L13.0712 28.752L13.1752 28.548L13.2802 28.345L13.3862 28.142L13.4932 27.941L13.6012 27.74L13.7112 27.541L13.8222 27.342L13.9352 27.145L14.0492 26.948L14.1642 26.753L14.2812 26.559L14.3992 26.365L14.5182 26.173L14.6392 25.982L14.7612 25.792L14.8842 25.603L15.0092 25.416L15.1352 25.23L15.2622 25.044L15.3912 24.861L15.5202 24.678L15.6522 24.497L15.7842 24.317L15.9182 24.138L16.0522 23.961L16.1892 23.785L16.3262 23.61L16.4642 23.437L16.6022 23.265L16.7422 23.095L16.8842 22.926L17.0262 22.759L17.1702 22.593L17.3142 22.429L17.4602 22.266L17.6082 22.105L17.7562 21.945L17.9052 21.787L18.0562 21.631L18.2082 21.476L18.3602 21.323L18.5142 21.172L18.6692 21.022L18.8262 20.874L18.9832 20.728L19.1412 20.584L19.3012 20.441L19.4612 20.3L19.6232 20.161L19.7852 20.024L19.8092 20.004L19.9502 19.892L20.1172 19.761L20.2852 19.633L20.4532 19.507L20.6232 19.383L20.7922 19.26L20.9632 19.14L21.1352 19.022L21.3082 18.905L21.4812 18.791L21.6552 18.679L21.8312 18.569L22.0072 18.461L22.1842 18.356L22.3612 18.252L22.5402 18.151L22.7192 18.052L22.9002 17.955L23.0812 17.86L23.2632 17.768L23.4452 17.678L23.6292 17.59L23.8132 17.505L23.9982 17.422L24.1832 17.341L24.3702 17.262L24.5572 17.185L24.7452 17.111L24.9332 17.039L25.1222 16.97L25.3122 16.903L25.5032 16.838L25.6942 16.776L25.8862 16.717L26.0792 16.66L26.2722 16.606L26.4662 16.554L26.6612 16.505L26.8562 16.459L26.9822 16.431L26.9852 16.414L26.9862 16.405L26.9942 16.348L27.0052 16.291L27.0172 16.234L27.0312 16.177L27.0462 16.12L27.0632 16.063L27.0822 16.007L27.1032 15.95L27.1262 15.894L27.1522 15.839L27.1802 15.784L27.2112 15.73L27.2452 15.676L27.2812 15.624L27.3202 15.573L27.3612 15.523L27.4022 15.478L27.4602 15.418L27.5162 15.362L27.5732 15.307L27.6312 15.254L27.6912 15.201L27.7512 15.15L27.8132 15.1L27.8762 15.05L27.9402 15.002L28.0052 14.956L28.0712 14.91L28.1392 14.865L28.2072 14.821L28.2762 14.779L28.3462 14.737L28.4172 14.697L28.4892 14.657L28.5622 14.619L28.6362 14.581L28.7112 14.545L28.7862 14.51L28.8622 14.475L28.9392 14.441L29.0162 14.409L29.0942 14.377L29.1732 14.346L29.2522 14.317L29.3332 14.288L29.4142 14.259L29.4962 14.232L29.5782 14.206L29.6622 14.18L29.7462 14.156L29.8312 14.132L29.9172 14.109L30.0032 14.086L30.0902 14.065L30.1782 14.044L30.2672 14.024L30.3562 14.005L30.4462 13.987L30.5362 13.969L30.6272 13.952L30.7192 13.936L30.8122 13.921L30.9052 13.906L30.9992 13.892L31.0952 13.878L31.2842 13.854L31.4782 13.832L31.6742 13.813L31.8722 13.796L32.0712 13.782L32.2732 13.771L32.4772 13.762L32.6822 13.756L32.8902 13.751L33.1002 13.75H33.3152V13.826ZM26.7692 16.966L26.5822 17.021L26.3962 17.078L26.2112 17.138L26.0262 17.2L25.8432 17.265L25.6602 17.333L25.4782 17.403L25.2972 17.475L25.1172 17.55L24.9382 17.627L24.7592 17.707L24.5812 17.788L24.4052 17.872L24.2292 17.957L24.0542 18.045L23.8802 18.136L23.7072 18.228L23.5342 18.323L23.3632 18.42L23.1932 18.52L23.0232 18.621L22.8542 18.725L22.6852 18.831L22.5172 18.938L22.3512 19.049L22.1852 19.161L22.0212 19.275L21.8572 19.391L21.6942 19.509L21.5332 19.63L21.3722 19.752L21.2122 19.876L21.0542 20.002L20.8962 20.13L20.7402 20.26L20.5852 20.392L20.4302 20.526L20.3002 20.641L20.2772 20.661L20.1222 20.795L19.9682 20.932L19.8152 21.07L19.6632 21.209L19.5122 21.351L19.3632 21.494L19.2142 21.639L19.0662 21.786L18.9202 21.934L18.7742 22.084L18.6302 22.236L18.4862 22.389L18.3442 22.544L18.2032 22.7L18.0632 22.858L17.9242 23.018L17.7862 23.179L17.6482 23.341L17.5122 23.505L17.3772 23.671L17.2422 23.838L17.1092 24.006L16.9782 24.176L16.8472 24.347L16.7182 24.52L16.5892 24.693L16.4622 24.868L16.3372 25.045L16.2122 25.223L16.0892 25.402L15.9672 25.582L15.8462 25.763L15.7272 25.946L15.6092 26.13L15.4922 26.314L15.3762 26.501L15.2622 26.688L15.1492 26.876L15.0372 27.065L14.9272 27.256L14.8182 27.447L14.7102 27.64L14.6032 27.833L14.4972 28.027L14.3922 28.223L14.2892 28.419L14.1872 28.616L14.0872 28.814L13.9882 29.013L13.8902 29.213L13.7942 29.413L13.6992 29.615L13.6062 29.817L13.5142 30.02L13.4242 30.223L13.3352 30.428L13.2482 30.633L13.1622 30.839L13.0772 31.045L12.9942 31.252L12.9132 31.46L12.8332 31.668L12.7552 31.877L12.6782 32.086L12.6012 32.296L12.5262 32.506L12.4532 32.717L12.3822 32.929L12.3112 33.141L12.2432 33.353L12.1762 33.565L12.1112 33.779L12.0472 33.992L11.9852 34.206L11.9242 34.42L11.8652 34.634L11.8082 34.849L11.7902 34.918L11.7522 35.064L11.6982 35.279L11.6452 35.494L11.5942 35.709L11.5442 35.925L11.4962 36.141L11.4502 36.357L11.4052 36.573L11.3612 36.789L11.3192 37.005L11.2792 37.222L11.2402 37.438L11.2042 37.654L11.1692 37.871L11.1352 38.087L11.1042 38.303L11.0742 38.519L11.0462 38.735L11.0202 38.951L10.9952 39.167L10.9722 39.383L10.9522 39.598L10.9332 39.814L10.9152 40.029L10.8992 40.244L10.8842 40.458L10.8722 40.673L10.8612 40.887L10.8522 41.1L10.8442 41.314L10.8392 41.527L10.8362 41.739L10.8342 41.952V42.163L10.8372 42.375L10.8412 42.586L10.8472 42.796L10.8552 43.006L10.8652 43.215L10.8762 43.424L10.8902 43.632L10.9052 43.84L10.9212 44.047L10.9402 44.253L10.9602 44.459L10.9832 44.664L11.0072 44.868L11.0342 45.072L11.0622 45.275L11.0932 45.477L11.1252 45.678L11.1602 45.879L11.1962 46.079L11.2352 46.278L11.2752 46.476L11.3182 46.673L11.3622 46.869L11.4082 47.064L11.4562 47.259L11.5052 47.452L11.5572 47.645L11.6112 47.836L11.6672 48.027L11.7252 48.216L11.7852 48.404L11.8472 48.592L11.9122 48.778L11.9782 48.963L12.0472 49.147L12.1172 49.329L12.1902 49.511L12.2652 49.691L12.3422 49.871L12.4202 50.049L12.5002 50.225L12.5832 50.401L12.6672 50.575L12.7542 50.748L12.8432 50.919L12.9342 51.09L13.0272 51.259L13.1232 51.426L13.2212 51.592L13.3202 51.757L13.4232 51.92L13.5272 52.082L13.6332 52.243L13.7412 52.402L13.8512 52.559L13.9642 52.715L14.0782 52.869L14.1952 53.022L14.3142 53.174L14.3172 53.177L14.4352 53.324L14.5582 53.473L14.6832 53.62L14.8112 53.765L14.9412 53.909L15.0742 54.052L15.1412 54.122L15.2082 54.193L15.2762 54.263L15.3452 54.333L15.4152 54.402L15.4852 54.471L15.5552 54.54L15.6272 54.608L15.6982 54.676L15.7712 54.743L15.8442 54.81L15.9182 54.876L15.9922 54.942L16.0672 55.007L16.1422 55.072L16.2182 55.137L16.2952 55.201L16.3712 55.265L16.4482 55.328L16.5262 55.391L16.6042 55.453L16.6832 55.515L16.7622 55.577L16.8422 55.638L16.9222 55.698L17.0042 55.758L17.0862 55.818L17.1682 55.877L17.2512 55.936L17.3352 55.994L17.4192 56.052L17.5042 56.109L17.5902 56.166L17.6762 56.222L17.7632 56.278L17.8512 56.333L17.9392 56.388L18.0282 56.442L18.1172 56.496L18.2082 56.549L18.2982 56.602L18.3902 56.654L18.4822 56.706L18.5752 56.757L18.6682 56.808L18.7622 56.859L18.8572 56.908L18.9512 56.957L19.0852 57.025L19.2222 57.091L19.3622 57.156L19.5042 57.221L19.6512 57.285L19.8012 57.348L19.9542 57.41L20.1102 57.472L20.2692 57.532L20.4322 57.592L20.5972 57.651L20.7662 57.709L20.9362 57.765L21.1102 57.821L21.2862 57.876L21.4652 57.931L21.6462 57.984L21.8302 58.036L22.0172 58.087L22.2062 58.137L22.3982 58.186L22.5922 58.234L22.7882 58.281L22.9872 58.327L23.1862 58.372L23.3882 58.415L23.5922 58.458L23.7982 58.499L24.0062 58.54L24.2162 58.579L24.4272 58.617L24.6412 58.655L24.8562 58.69L25.0732 58.725L25.2912 58.759L25.5112 58.791L25.7322 58.823L25.9552 58.853L26.1792 58.882L26.4052 58.91L26.6322 58.936L26.8602 58.961L27.0892 58.986L27.3192 59.008L27.5492 59.03L27.7802 59.051L28.0122 59.07L28.2452 59.088L28.4792 59.105L28.7142 59.12L28.9492 59.134L29.1852 59.147L29.4212 59.159L29.6582 59.169L29.8952 59.178L30.1332 59.186L30.3712 59.193L30.6102 59.198L30.8482 59.202L31.0872 59.204L31.3262 59.205H31.5652L31.8042 59.204L32.0432 59.201L32.2812 59.197L32.5202 59.191L32.7582 59.184L32.9972 59.176L33.2342 59.167L33.4722 59.156L33.5422 59.152L33.7102 59.143L33.9462 59.13L34.1822 59.115L34.4172 59.098L34.6522 59.08L34.8852 59.061L35.1182 59.041L35.3512 59.019L35.5822 58.995L35.8122 58.97L36.0422 58.944L36.2712 58.916L36.4992 58.887L36.7262 58.856L36.9522 58.824L37.1762 58.79L37.3992 58.755L37.6202 58.719L37.8402 58.681L38.0592 58.641L38.2752 58.601L38.4902 58.558L38.7042 58.514L38.9152 58.469L39.1252 58.422L39.3132 58.378L39.2202 58.27L39.1202 58.152L39.0652 58.084L39.0302 58.026L38.9522 57.893L38.8752 57.758L38.7992 57.622L38.7252 57.484L38.6522 57.344L38.5812 57.203L38.5112 57.06L38.4422 56.915L38.3752 56.77L38.3082 56.622L38.2442 56.474L38.1802 56.323L38.1172 56.172L38.0562 56.019L37.9962 55.865L37.9372 55.71L37.8792 55.553L37.8222 55.395L37.7662 55.236L37.7122 55.076L37.6582 54.915L37.6052 54.753L37.5532 54.59L37.5022 54.426L37.4522 54.26L37.4032 54.094L37.3552 53.927L37.3142 53.787L37.3072 53.759L37.2632 53.59L37.2202 53.419L37.1782 53.248L37.1372 53.076L37.0962 52.903L37.0562 52.73L37.0172 52.556L36.9792 52.382L36.9412 52.207L36.9042 52.031L36.8322 51.679L36.7622 51.325L36.6952 50.97L36.6292 50.613L36.5662 50.256L36.5042 49.898L36.4442 49.54L36.3862 49.181L36.3292 48.823L36.2732 48.465L36.2192 48.108L36.1652 47.752L36.0592 47.045L35.9552 46.346L35.8522 45.656L35.7492 44.978L35.6982 44.645L35.6462 44.315L35.5942 43.99L35.5412 43.67L35.4882 43.354L35.4332 43.044L35.3782 42.739L35.3652 42.672L35.3212 42.439L35.2632 42.146L35.2042 41.859L35.1752 41.72L35.1442 41.581L35.1142 41.444L35.0832 41.309L35.0512 41.176L35.0192 41.044L34.9872 40.915L34.9542 40.788L34.9212 40.663L34.8882 40.54L34.8542 40.419L34.8192 40.3L34.7842 40.184L34.7492 40.07L34.7132 39.958L34.6762 39.847L34.3032 38.741L33.9262 37.633L33.5472 36.525L33.1652 35.418L32.7822 34.311L32.3982 33.205L32.0122 32.098L31.8622 31.668L31.6352 30.989L30.8922 28.765L30.1452 26.541L29.3992 24.319L29.0252 23.207L28.6552 22.1L28.6422 22.065L28.6482 22.08L28.6352 22.044L28.6002 21.958L28.5542 21.851L28.5002 21.725L28.3632 21.422L28.2022 21.066L28.1152 20.87L28.0252 20.665L27.9332 20.452L27.8392 20.231L27.7452 20.004L27.6522 19.773L27.6062 19.655L27.5602 19.537L27.5152 19.419L27.4702 19.299L27.4272 19.179L27.3842 19.059L27.3432 18.938L27.3032 18.817L27.2642 18.696L27.2262 18.575L27.1912 18.455L27.1572 18.334L27.1252 18.214L27.0952 18.094L27.0672 17.974L27.0422 17.855L27.0192 17.736L26.9992 17.619L26.9822 17.501L26.9662 17.384L26.9542 17.268L26.9452 17.155L26.9422 17.095L26.9402 17.037L26.9392 16.979V16.973L26.7692 16.966ZM30.2532 16.158L30.3982 16.302L30.2542 16.448L30.1532 16.45L30.0542 16.452L29.9542 16.456L29.8542 16.46L29.7552 16.465L29.6562 16.471L29.5572 16.477L29.4582 16.484L29.3592 16.492L29.2612 16.501L29.0642 16.52L28.8682 16.542L28.6732 16.567L28.4792 16.595L28.2852 16.626L28.2632 16.63L28.2572 16.656L28.2562 16.661L28.2532 16.689L28.2552 16.673L28.2522 16.708L28.2492 16.743L28.2512 16.728L28.2492 16.764L28.2482 16.801V16.788V16.826L28.2492 16.859L28.2502 16.893L28.2522 16.929L28.2552 16.965L28.2582 17L28.2672 17.08L28.2782 17.161L28.2922 17.245L28.3082 17.332L28.3272 17.422L28.3482 17.514L28.3712 17.609L28.3972 17.706L28.4262 17.805L28.4562 17.906L28.4892 18.008L28.5232 18.112L28.5592 18.217L28.5972 18.323L28.6372 18.429L28.6782 18.536L28.7202 18.644L28.7642 18.752L28.8082 18.86L28.8542 18.968L28.9002 19.075L28.9462 19.182L29.0422 19.397L29.1382 19.608L29.2342 19.815L29.3302 20.016L29.4242 20.211L29.5152 20.398L29.6872 20.746L29.8372 21.052L29.9032 21.189L29.9612 21.315L30.0112 21.429L30.0352 21.488L30.0552 21.539L30.4682 22.641L30.8812 23.737L31.7092 25.931L32.5392 28.125L33.3692 30.32L33.6232 30.991L33.7772 31.42L34.1742 32.525L34.5692 33.63L34.9632 34.736L35.3552 35.843L35.7452 36.95L36.1322 38.059L36.5182 39.17L36.5612 39.296L36.6042 39.425L36.6462 39.556L36.6882 39.688L36.7282 39.823L36.7682 39.958L36.8072 40.095L36.8452 40.234L36.8822 40.374L36.9192 40.515L36.9552 40.658L36.9912 40.803L37.0262 40.949L37.0602 41.096L37.0942 41.244L37.1282 41.395L37.1932 41.697L37.2572 42.005L37.3042 42.249L37.3182 42.319L37.3782 42.636L37.4372 42.957L37.4952 43.283L37.5512 43.611L37.6072 43.944L37.6622 44.279L37.7162 44.618L37.8232 45.301L37.9302 45.993L38.0382 46.692L38.1472 47.394L38.2022 47.746L38.2592 48.098L38.3162 48.45L38.3742 48.801L38.4342 49.151L38.4942 49.501L38.5572 49.849L38.6202 50.195L38.6862 50.539L38.7532 50.882L38.8222 51.221L38.8942 51.559L38.9302 51.725L38.9672 51.891L39.0052 52.057L39.0432 52.221L39.0822 52.385L39.1212 52.548L39.1612 52.709L39.2022 52.87L39.2432 53.029L39.2852 53.187L39.2922 53.213L39.3242 53.345L39.3642 53.502L39.4042 53.658L39.4452 53.812L39.4872 53.965L39.5292 54.117L39.5732 54.267L39.6172 54.416L39.6622 54.564L39.7072 54.71L39.7532 54.854L39.7992 54.997L39.8462 55.138L39.8942 55.278L39.9432 55.415L39.9932 55.551L40.0442 55.686L40.0952 55.818L40.1482 55.949L40.2012 56.078L40.2552 56.205L40.3112 56.329L40.3672 56.452L40.4232 56.573L40.4812 56.692L40.5402 56.809L40.6002 56.923L40.6602 57.035L40.6872 57.084L40.7112 57.153L40.7562 57.272L40.8022 57.389L40.8502 57.504L40.8992 57.617L40.9492 57.728L41.0022 57.837L41.0092 57.851L41.1172 57.816L41.3032 57.753L41.4872 57.688L41.6692 57.622L41.8472 57.554L42.0232 57.485L42.1962 57.414L42.3662 57.342L42.5352 57.269L42.7002 57.194L42.8622 57.117L43.0212 57.04L43.1782 56.96L43.3322 56.88L43.4062 56.84L43.4812 56.799L43.5552 56.757L43.6282 56.715L43.7002 56.673L43.7722 56.631L43.8432 56.588L43.9122 56.544L43.9812 56.501L44.0492 56.457L44.1162 56.413L44.1832 56.368L44.2482 56.323L44.3132 56.278L44.3762 56.233L44.4392 56.187L44.5002 56.141L44.5612 56.094L44.6212 56.047L44.6812 56L44.8072 55.898L44.9352 55.795L45.0612 55.692L45.1882 55.588L45.3142 55.483L45.4402 55.377L45.5652 55.271L45.6902 55.164L45.8152 55.057L45.9392 54.949L46.0632 54.84L46.1872 54.73L46.3102 54.62L46.4332 54.509L46.5562 54.398L46.6782 54.286L46.7992 54.173L46.9212 54.06L47.0422 53.946L47.1622 53.831L47.2822 53.716L47.4022 53.6L47.5212 53.484L47.6402 53.367L47.7582 53.25L47.8762 53.132L47.9932 53.013L48.1102 52.894L48.2262 52.774L48.3422 52.653L48.4582 52.532L48.5722 52.411L48.6872 52.289L48.8012 52.166L48.9142 52.043L49.0272 51.92L49.1392 51.796L49.2512 51.671L49.3622 51.546L49.4732 51.42L49.5832 51.294L49.6922 51.167L49.8012 51.04L49.9102 50.912L50.0172 50.784L50.1252 50.656L50.2322 50.526L50.3392 50.397L50.4462 50.267L50.5512 50.136L50.6562 50.005L50.7612 49.874L50.8652 49.742L50.9682 49.61L51.0712 49.477L51.1732 49.344L51.2742 49.21L51.3752 49.076L51.4742 48.942L51.5742 48.807L51.6722 48.672L51.7702 48.536L51.8672 48.401L51.9642 48.264L52.0602 48.127L52.1552 47.99L52.2492 47.853L52.3422 47.715L52.4352 47.577L52.5272 47.438L52.6192 47.299L52.7092 47.16L52.7992 47.02L52.8882 46.88L52.9762 46.74L53.0642 46.6L53.1512 46.459L53.2372 46.317L53.3222 46.176L53.4062 46.034L53.4892 45.892L53.5722 45.75L53.6542 45.607L53.7352 45.464L53.8152 45.321L53.8952 45.177L53.9732 45.033L54.0512 44.889L54.1272 44.745L54.1742 44.656L54.2032 44.6L54.2802 44.456L54.3552 44.311L54.4292 44.165L54.5032 44.02L54.5752 43.874L54.6472 43.728L54.7182 43.582L54.7872 43.436L54.8562 43.289L54.9242 43.143L54.9912 42.996L55.0572 42.849L55.1232 42.701L55.1872 42.554L55.2502 42.406L55.3122 42.258L55.3742 42.111L55.4342 41.962L55.4932 41.814L55.5522 41.666L55.6092 41.517L55.6652 41.368L55.7212 41.22L55.7752 41.071L55.8292 40.922L55.8812 40.772L55.9322 40.623L55.9822 40.474L56.0322 40.324L56.0802 40.175L56.1272 40.025L56.1732 39.875L56.2192 39.725L56.2642 39.576L56.3072 39.426L56.3502 39.276L56.3922 39.125L56.4322 38.975L56.4722 38.825L56.5102 38.675L56.5472 38.525L56.5842 38.374L56.6192 38.224L56.6522 38.074L56.6852 37.923L56.7172 37.773L56.7472 37.622L56.7762 37.472L56.8052 37.322L56.8322 37.171L56.8572 37.021L56.8822 36.871L56.9062 36.72L56.9282 36.57L56.9492 36.42L56.9692 36.269L56.9882 36.119L57.0052 35.969L57.0212 35.819L57.0362 35.669L57.0512 35.519L57.0652 35.369L57.0772 35.219L57.0882 35.07L57.0982 34.92L57.1072 34.77L57.1142 34.621L57.1212 34.471L57.1252 34.322L57.1292 34.173L57.1312 34.024L57.1322 33.875V33.726L57.1312 33.577L57.1282 33.428L57.1242 33.28L57.1182 33.131L57.1122 32.983L57.1042 32.835L57.0942 32.687L57.0832 32.539L57.0712 32.391L57.0582 32.244L57.0432 32.097L57.0282 31.949L57.0122 31.802L56.9942 31.655L56.9752 31.509L56.9542 31.362L56.9322 31.216L56.9092 31.07L56.8842 30.924L56.8582 30.778L56.8312 30.632L56.8022 30.487L56.7722 30.342L56.7402 30.197L56.7072 30.052L56.6722 29.907L56.6362 29.763L56.5992 29.619L56.5602 29.475L56.5192 29.331L56.4772 29.188L56.4342 29.045L56.3892 28.902L56.3432 28.759L56.2962 28.616L56.2482 28.474L56.1982 28.332L56.1472 28.19L56.0942 28.049L56.0402 27.907L55.9842 27.766L55.9272 27.626L55.8682 27.485L55.8072 27.345L55.7452 27.205L55.6822 27.065L55.6172 26.926L55.5502 26.787L55.4822 26.648L55.4122 26.509L55.3402 26.371L55.2672 26.233L55.1922 26.095L55.1162 25.958L55.0392 25.821L54.9602 25.684L54.8802 25.548L54.7982 25.412L54.7152 25.276L54.6302 25.14L54.5432 25.005L54.4542 24.87L54.3642 24.736L54.2722 24.601L54.1782 24.468L54.0832 24.334L53.9862 24.201L53.8872 24.068L53.7862 23.936L53.6842 23.804L53.5802 23.672L53.4742 23.54L53.3672 23.409L53.2582 23.279L53.1482 23.149L53.0362 23.019L52.9232 22.889L52.8072 22.76L52.6902 22.631L52.5712 22.503L52.4502 22.375L52.3272 22.248L52.2022 22.121L52.0762 21.994L51.9472 21.868L51.8172 21.742L51.6852 21.617L51.5512 21.492L51.4152 21.367L51.2772 21.243L51.1382 21.12L50.9982 20.997L50.8572 20.876L50.7852 20.816L50.7102 20.755L50.6302 20.694L50.5452 20.63L50.4542 20.565L50.3592 20.498L50.2592 20.431L50.1532 20.362L50.0442 20.292L49.9312 20.222L49.8132 20.15L49.6912 20.078L49.5642 20.004L49.4332 19.931L49.2992 19.856L49.1612 19.781L49.0192 19.706L48.8742 19.63L48.7242 19.553L48.5722 19.476L48.4152 19.399L48.2562 19.322L48.0932 19.244L47.9262 19.166L47.7572 19.088L47.5852 19.01L47.4102 18.932L47.2332 18.854L47.0532 18.775L46.8692 18.697L46.6842 18.619L46.4952 18.541L46.3042 18.463L46.1112 18.385L45.9152 18.308L45.7172 18.231L45.5182 18.154L45.3162 18.077L45.1132 18.001L44.9082 17.925L44.7002 17.85L44.4912 17.775L44.2812 17.7L44.0682 17.627L43.8542 17.553L43.6392 17.481L43.4222 17.409L43.2032 17.337L42.9842 17.267L42.7632 17.197L42.5412 17.128L42.3182 17.059L42.0952 16.992L41.8702 16.925L41.6442 16.86L41.4182 16.795L41.1912 16.732L40.9642 16.669L40.7362 16.607L40.5082 16.547L40.2792 16.487L40.0502 16.429L39.8212 16.372L39.5922 16.316L39.3632 16.262L39.1342 16.209L38.9052 16.157L38.6762 16.106L38.4472 16.057L38.2192 16.009L37.9922 15.963L37.7642 15.918L37.5382 15.875L37.3122 15.833L37.0872 15.793L36.8632 15.754L36.6402 15.718L36.4182 15.682L36.1972 15.649L35.9772 15.617L35.7582 15.587L35.5412 15.559L35.3252 15.533L35.1112 15.509L34.8982 15.486L34.6872 15.466L34.4782 15.447L34.3892 15.44L34.2702 15.428L34.0652 15.408L33.8622 15.391L33.6612 15.376L33.4622 15.363L33.2642 15.352L33.0682 15.343L32.8752 15.337L32.6842 15.333L32.4962 15.331L32.3102 15.332L32.1272 15.335L31.9472 15.34L31.7692 15.347L31.5952 15.357L31.4242 15.37L31.2542 15.385L31.1732 15.393L31.0912 15.402L31.0102 15.411L30.9302 15.421L30.8502 15.432L30.7722 15.444L30.6942 15.456L30.6172 15.468L30.5412 15.481L30.4652 15.495L30.3902 15.51L30.3162 15.525L30.2432 15.54L30.1712 15.557L30.1002 15.573L30.0302 15.591L29.9602 15.609L29.8922 15.628L29.8252 15.647L29.7592 15.667L29.6942 15.687L29.6302 15.708L29.5672 15.73L29.5052 15.752L29.4442 15.775L29.3842 15.798L29.3252 15.822L29.2682 15.847L29.2112 15.872L29.1562 15.897L29.1012 15.924L29.0482 15.95L28.9962 15.978L28.9452 16.006L28.8952 16.034L28.8462 16.063L28.7992 16.092L28.7522 16.122L28.7062 16.153L28.6602 16.184L28.6162 16.215L28.6072 16.222L28.6292 16.219L28.8292 16.2L29.0292 16.185L29.2302 16.172L29.3312 16.166L29.4332 16.162L29.5342 16.158L29.6362 16.154L29.7372 16.152L29.8392 16.15L29.9412 16.149H30.0432L30.1452 16.15L30.2532 16.158Z" fill="#A168BE"/>
<path fill-rule="evenodd" clip-rule="evenodd" d="M55.2014 17.9337L55.2814 17.9357L55.3604 17.9407L55.4384 17.9467L55.5094 17.9547L56.0044 18.4267L55.5224 18.9127L55.4644 18.9227L55.4114 18.9337L55.3584 18.9467L55.3044 18.9607L55.2484 18.9767L55.1924 18.9947L55.1344 19.0137L55.0764 19.0347L55.0174 19.0567L54.9574 19.0807L54.8964 19.1067L54.8344 19.1337L54.7724 19.1627L54.7094 19.1937L54.6454 19.2257L54.5804 19.2587L54.5154 19.2947L54.4844 19.3117L54.4474 19.3257L54.3764 19.3527L54.3044 19.3807L54.2314 19.4107L54.1584 19.4427L54.0834 19.4747L54.0084 19.5087L53.9324 19.5437L53.8564 19.5797L53.7794 19.6167L53.7024 19.6557L53.6244 19.6957L53.5464 19.7357L53.3844 19.8197L53.2214 19.9087L53.0554 20.0007L52.8884 20.0967L52.7194 20.1967L52.5494 20.2997L52.3764 20.4057L52.2034 20.5157L52.0284 20.6277L51.8524 20.7437L51.6744 20.8607L51.4964 20.9807L51.3894 21.0537L51.3154 21.1027L51.1324 21.2227L50.9484 21.3437L50.7654 21.4677L50.5804 21.5917L50.3964 21.7177L50.2124 21.8437L49.8424 22.1007L49.4744 22.3577L49.1084 22.6157L48.3864 23.1277L48.0324 23.3777L47.6824 23.6217L47.3404 23.8597L47.1714 23.9757L47.0044 24.0887L46.8384 24.1997L46.6754 24.3087L46.5144 24.4137L46.3554 24.5167L46.1994 24.6157L46.0444 24.7127L45.8934 24.8047L45.7434 24.8947L45.5964 24.9797L45.4524 25.0617L45.3094 25.1407L45.1724 25.2127L44.5424 25.5387L43.9154 25.8647L43.2894 26.1927L42.6634 26.5217L42.0374 26.8527L41.4124 27.1847L40.7874 27.5167L40.1614 27.8507L38.9114 28.5187L37.6604 29.1887L36.4084 29.8577L35.7804 30.1917L35.1524 30.5257L34.5244 30.8587L33.8954 31.1907L33.2654 31.5207L33.2484 31.5297L32.6334 31.8497L32.0014 32.1767L31.3674 32.5017L30.7324 32.8257L30.0954 33.1477L29.4574 33.4667L28.8174 33.7837L28.4964 33.9417L28.1754 34.0987L27.8534 34.2547L27.5314 34.4107L27.2094 34.5657L26.8874 34.7197L26.5644 34.8727L26.2414 35.0257L25.9174 35.1777L25.5934 35.3287L25.2684 35.4787L24.9394 35.6297L24.7714 35.7047L24.4984 35.8237L23.6654 36.1857L23.1224 36.4237L22.5044 36.6937L21.8224 36.9947L21.0844 37.3227L20.6984 37.4957L20.3014 37.6747L19.8934 37.8587L19.4784 38.0477L19.0564 38.2417L18.6274 38.4387L18.1924 38.6397L17.7544 38.8437L17.3134 39.0507L16.8704 39.2597L16.4264 39.4707L15.9834 39.6837L15.5414 39.8967L15.1034 40.1117L14.6684 40.3267L14.2384 40.5407L14.0554 40.6337L13.8134 40.7497L13.3934 40.9547L12.9814 41.1597L12.7794 41.2607L12.5804 41.3607L12.3824 41.4617L12.1884 41.5607L11.9964 41.6597L11.8084 41.7577L11.6234 41.8557L11.4424 41.9527L11.2644 42.0487L11.0904 42.1437L11.0874 42.1447L10.9184 42.2357L10.7514 42.3267L10.5874 42.4177L10.4294 42.5067L10.2744 42.5947L10.1254 42.6817L9.98038 42.7677L9.84138 42.8517L9.70638 42.9347L9.57738 43.0157L9.45338 43.0967L9.33637 43.1747L9.22437 43.2517L9.11838 43.3267L9.01838 43.3997L8.92638 43.4697L8.84038 43.5377L8.76138 43.6027L8.69038 43.6637L8.68738 43.6647L8.64438 43.6817L8.60238 43.6997L8.56238 43.7167L8.52438 43.7347L8.48837 43.7517L8.45138 43.7727L8.45937 43.7637L8.42338 43.7837L8.39037 43.8047L8.39938 43.7947L8.36838 43.8147L8.33938 43.8347L8.34837 43.8227L8.32137 43.8417L8.29638 43.8607L8.30537 43.8467L8.27837 43.8717L8.28738 43.8567L8.26237 43.8827L8.27238 43.8657L8.24937 43.8907L8.25838 43.8727L8.23737 43.8987L8.24638 43.8777L8.22738 43.9037L8.23637 43.8817L8.21938 43.9067L8.22738 43.8827L8.21238 43.9087L8.21938 43.8827L8.20638 43.9077L8.21137 43.8797L8.20038 43.9057L8.20338 43.8747L8.19437 43.9007L8.19537 43.8687L8.18938 43.8937L8.18738 43.8607L8.18337 43.8857L8.17838 43.8527L8.17738 43.8777L8.16937 43.8437V43.8687L8.15938 43.8357L8.16138 43.8607L8.14838 43.8297L8.15337 43.8547L8.13737 43.8247L8.14538 43.8497L8.12837 43.8227L8.13837 43.8477L8.12138 43.8237L8.13338 43.8487L8.11538 43.8277L8.13038 43.8517L8.11237 43.8337L8.12837 43.8577L8.11137 43.8427L8.12938 43.8667L8.11337 43.8547L8.13338 43.8777L8.11838 43.8677L8.14137 43.8907L8.12637 43.8817L8.15237 43.9047L8.13837 43.8977L8.16637 43.9207L8.15337 43.9147L8.18438 43.9377L8.17338 43.9327L8.20638 43.9547L8.19537 43.9517L8.22638 43.9717L8.26038 43.9917L8.25137 43.9887L8.28938 44.0097L8.32838 44.0287L8.32137 44.0277L8.36437 44.0467L8.40738 44.0657L8.45338 44.0837L8.50137 44.1017L8.55338 44.1197L8.60738 44.1367L8.66537 44.1537L8.72638 44.1697L8.79037 44.1847L8.85738 44.1997L8.92738 44.2127L9.00037 44.2257L9.07638 44.2387L9.15437 44.2497L9.26237 44.3587L9.15337 44.4657L9.07338 44.4767L8.99538 44.4857L8.91937 44.4947L8.84538 44.5027L8.77238 44.5107L8.70238 44.5167L8.63438 44.5227L8.56738 44.5267L8.50337 44.5307L8.44038 44.5327L8.38038 44.5347H8.32137L8.26337 44.5337L8.20837 44.5317L8.15337 44.5277L8.10037 44.5227L8.04838 44.5157L7.99837 44.5077L7.94838 44.4967L7.90038 44.4847L7.85238 44.4697L7.80637 44.4527L7.76038 44.4327L7.71438 44.4087L7.66937 44.3827L7.62637 44.3517L7.58437 44.3177L7.54437 44.2797L7.50738 44.2367L7.47337 44.1907L7.44337 44.1407L7.41837 44.0877L7.39738 44.0317L7.38238 43.9747L7.37038 43.9177L7.36237 43.8597L7.35938 43.8017L7.36037 43.7457L7.36437 43.6897L7.37138 43.6347L7.38138 43.5807L7.39338 43.5277L7.40738 43.4747L7.42338 43.4227L7.43938 43.3717L7.45837 43.3207L7.47838 43.2687L7.49937 43.2177L7.52138 43.1667L7.54538 43.1157L7.57137 43.0637L7.59737 43.0117L7.62537 42.9587L7.65437 42.9057L7.68438 42.8517L7.71538 42.7967L7.74837 42.7417L7.78338 42.6837L7.78538 42.6807L7.87437 42.5967L7.97237 42.5077L8.07538 42.4187L8.18337 42.3277L8.29538 42.2367L8.41238 42.1447L8.53538 42.0517L8.66238 41.9577L8.79437 41.8617L8.93137 41.7657L9.07237 41.6677L9.21738 41.5687L9.36638 41.4697L9.52038 41.3687L9.67838 41.2667L9.83938 41.1627L10.0054 41.0587L10.1744 40.9537L10.3444 40.8497L10.3474 40.8477L10.5244 40.7427L10.7044 40.6367L10.8884 40.5307L11.0754 40.4237L11.2664 40.3157L11.4594 40.2067L11.6554 40.0977L11.8534 39.9877L12.0544 39.8777L12.2574 39.7667L12.6694 39.5437L13.0894 39.3187L13.3304 39.1917L13.5174 39.0977L13.9544 38.8807L14.3954 38.6627L14.8394 38.4457L15.2854 38.2307L15.7324 38.0157L16.1804 37.8027L16.6274 37.5917L17.0714 37.3837L17.5144 37.1787L17.9524 36.9767L18.3844 36.7777L18.8104 36.5837L19.2284 36.3937L19.6394 36.2087L20.0394 36.0287L20.4294 35.8547L21.1714 35.5257L21.8574 35.2237L22.4774 34.9527L23.0244 34.7147L23.8574 34.3527L24.1244 34.2367L24.2794 34.1677L24.5984 34.0217L24.9204 33.8737L25.2414 33.7257L25.5624 33.5757L25.8834 33.4247L26.2034 33.2737L26.5234 33.1217L26.8424 32.9687L27.1614 32.8147L27.4804 32.6607L27.7984 32.5057L28.1164 32.3497L28.7504 32.0357L29.3834 31.7197L30.0154 31.4007L30.6464 31.0807L31.2764 30.7577L31.9054 30.4327L32.5174 30.1157L32.5334 30.1067L33.1624 29.7807L33.7904 29.4517L34.4184 29.1227L35.0464 28.7927L35.6734 28.4617L36.9274 27.7977L38.1804 27.1337L39.4344 26.4687L40.0624 26.1377L40.6904 25.8067L41.3184 25.4757L41.9464 25.1467L42.5754 24.8177L43.2054 24.4907L43.8354 24.1657L44.4634 23.8437L44.5844 23.7797L44.7064 23.7137L44.8324 23.6417L44.9644 23.5657L45.1004 23.4847L45.2384 23.4007L45.3814 23.3117L45.5284 23.2197L45.6784 23.1227L45.8314 23.0237L45.9874 22.9207L46.1474 22.8137L46.3094 22.7047L46.4734 22.5937L46.8104 22.3607L47.1564 22.1207L47.5094 21.8737L48.2334 21.3647L48.6034 21.1067L48.9774 20.8467L49.3534 20.5887L49.5434 20.4587L49.7324 20.3307L49.9224 20.2037L50.1124 20.0777L50.3034 19.9527L50.4934 19.8287L50.5704 19.7787L50.6834 19.7087L50.8764 19.5917L51.0684 19.4777L51.2594 19.3657L51.4504 19.2567L51.6414 19.1487L51.8304 19.0447L52.0184 18.9427L52.2064 18.8437L52.3924 18.7487L52.5774 18.6567L52.7614 18.5677L52.9434 18.4837L53.0354 18.4417L53.1254 18.4007L53.2154 18.3617L53.3054 18.3227L53.3944 18.2857L53.4834 18.2497L53.5724 18.2147L53.6604 18.1807L53.7484 18.1477L53.8364 18.1157L53.9234 18.0857L54.0104 18.0567L54.0564 18.0417L54.0984 18.0337L54.1874 18.0177L54.2764 18.0037L54.3644 17.9897L54.4524 17.9777L54.5384 17.9667L54.6244 17.9577L54.7094 17.9487L54.7934 17.9427L54.8764 17.9367L54.9594 17.9327L55.0414 17.9307L55.1224 17.9297L55.2014 17.9337Z" fill="#A168BE"/>
<path fill-rule="evenodd" clip-rule="evenodd" d="M11.49 20.9161L11.445 20.9681L11.399 21.0191L11.353 21.0691L11.306 21.1191L11.258 21.1681L11.209 21.2171L11.159 21.2651L11.108 21.3121L11.056 21.3581L11.003 21.4041L10.95 21.4491L10.895 21.4931L10.839 21.5361L10.783 21.5781L10.725 21.6201L10.667 21.6611L10.608 21.7001L10.547 21.7391L10.487 21.7771L10.425 21.8141L10.362 21.8491L10.299 21.8841L10.234 21.9181L10.169 21.9501L10.103 21.9811L10.036 22.0111L9.969 22.0401L9.9 22.0681L9.831 22.0941L9.761 22.1201L9.691 22.1431L9.619 22.1661L9.547 22.1871L9.474 22.2061L9.4 22.2241L9.326 22.2401L9.251 22.2551L9.175 22.2681L9.099 22.2801L9.023 22.2891L8.946 22.2971L8.869 22.3031L8.791 22.3071L8.71201 22.3091L8.633 22.3101L8.554 22.3081L8.474 22.3041L8.394 22.2981L8.313 22.2891L8.232 22.2791L8.151 22.2661L8.069 22.2511L7.987 22.2341L7.952 22.2251L7.90601 22.2091L7.827 22.1791L7.749 22.1471L7.67101 22.1121L7.594 22.0751L7.51801 22.0351L7.441 21.9931L7.36501 21.9491L7.29 21.9021L7.217 21.8541L7.172 21.8231L7.127 21.7901L7.049 21.7291L6.971 21.6621L6.894 21.5931L6.821 21.5221L6.75 21.4491L6.681 21.3741L6.61401 21.2971L6.55 21.2201L6.487 21.1401L6.425 21.0591L6.366 20.9771L6.30801 20.8941L6.251 20.8101L6.196 20.7251L6.141 20.6391L6.089 20.5521L6.037 20.4641L5.987 20.3761L5.937 20.2871L5.924 20.2621L5.873 20.4211L5.807 20.6201L5.738 20.8231L5.666 21.0301L5.591 21.2401L5.514 21.4521L5.43401 21.6661L5.35201 21.8831L5.26701 22.1011L5.18 22.3191L5.09 22.5391L4.998 22.7581L4.905 22.9771L4.831 23.1431L4.80901 23.1951L4.71201 23.4121L4.61401 23.6281L4.514 23.8411L4.412 24.0521L4.30901 24.2601L4.205 24.4651L4.099 24.6651L4.04601 24.7641L3.993 24.8611L3.94 24.9581L3.886 25.0521L3.832 25.1461L3.778 25.2381L3.724 25.3291L3.66901 25.4191L3.61401 25.5071L3.55901 25.5931L3.50401 25.6781L3.44801 25.7621L3.39301 25.8451L3.33701 25.9251L3.28 26.0041L3.224 26.0811L3.167 26.1571L3.111 26.2311L3.053 26.3031L2.996 26.3731L2.938 26.4401L2.88 26.5061L2.82201 26.5701L2.763 26.6311L2.704 26.6911L2.644 26.7481L2.584 26.8021L2.523 26.8551L2.46101 26.9051L2.399 26.9521L2.335 26.9971L2.271 27.0391L2.205 27.0781L2.139 27.1141L2.071 27.1471L2.001 27.1771L1.93301 27.2021L1.894 27.2141L1.858 27.2251L1.821 27.2341L1.784 27.2421L1.746 27.2501L1.708 27.2551L1.67001 27.2601L1.632 27.2631L1.593 27.2661H1.554L1.515 27.2651L1.47601 27.2631L1.437 27.2601L1.398 27.2551L1.359 27.2481L1.321 27.2401L1.28201 27.2301L1.244 27.2191L1.206 27.2071L1.16901 27.1931L1.132 27.1781L1.096 27.1611L1.06001 27.1431L1.025 27.1241L0.991005 27.1031L0.957001 27.0811L0.924004 27.0591L0.892006 27.0351L0.860001 27.0091L0.829002 26.9831L0.798004 26.9561L0.769005 26.9281L0.739006 26.8981L0.711006 26.8681L0.683006 26.8371L0.656006 26.8051L0.629005 26.7721L0.603004 26.7381L0.598999 26.7331L0.577003 26.7031L0.552002 26.6671L0.527 26.6301L0.503006 26.5921L0.472 26.5421L0.442001 26.4911L0.413002 26.4401L0.385002 26.3881L0.358002 26.3361L0.332001 26.2831L0.308006 26.2291L0.284004 26.1751L0.262001 26.1211L0.240005 26.0661L0.220001 26.0111L0.201004 25.9551L0.181999 25.8991L0.165001 25.8421L0.149002 25.7851L0.133003 25.7281L0.118004 25.6701L0.104004 25.6121L0.0910034 25.5531L0.0780029 25.4951L0.0670013 25.4351L0.0559998 25.3761L0.0470047 25.3161L0.038002 25.2561L0.0299988 25.1961L0.0230026 25.1351L0.0170059 25.0741L0.012001 25.0131L0.00800323 24.9511L0.00500488 24.8891L0.0019989 24.8271L0 24.7651V24.7031V24.6391L0.0019989 24.5151L0.00800323 24.3881L0.0159988 24.2621L0.0279999 24.1341L0.0429993 24.0051L0.0600052 23.8761L0.0800018 23.7471L0.102005 23.6161L0.128006 23.4851L0.156006 23.3541L0.186005 23.2221L0.220001 23.0891L0.256004 22.9571L0.295006 22.8241L0.336006 22.6901L0.379005 22.5571L0.425003 22.4231L0.473 22.2891L0.523003 22.1551L0.575005 22.0211L0.629005 21.8871L0.686005 21.7531L0.744003 21.6191L0.805 21.4851L0.868004 21.3511L0.933006 21.2181L1 21.0851L1.069 20.9531L1.14 20.8201L1.148 20.8061L1.21301 20.6891L1.288 20.5581L1.36501 20.4271L1.443 20.2971L1.522 20.1681L1.603 20.0401L1.686 19.9121L1.771 19.7851L1.857 19.6601L1.944 19.5351L2.033 19.4111L2.124 19.2881L2.216 19.1661L2.30901 19.0451L2.404 18.9261L2.5 18.8081L2.597 18.6911L2.696 18.5761L2.79501 18.4621L2.896 18.3491L2.998 18.2391L3.10201 18.1291L3.206 18.0221L3.311 17.9161L3.418 17.8121L3.525 17.7091L3.632 17.6091L3.74001 17.5101L3.849 17.4141L3.959 17.3191L4.016 17.2711L4.07 17.2271L4.18301 17.1391L4.297 17.0531L4.411 16.9691L4.525 16.8871L4.64 16.8071L4.756 16.7301L4.872 16.6551L4.98901 16.5831L5.106 16.5131L5.223 16.4461L5.22701 16.4441L5.341 16.3821L5.46 16.3221L5.579 16.2641L5.69701 16.2101L5.816 16.1581L5.936 16.1091L6.054 16.0641L6.11401 16.0421L6.174 16.0221L6.233 16.0021L6.293 15.9831L6.353 15.9651L6.412 15.9471L6.472 15.9311L6.53101 15.9151L6.591 15.9001L6.65 15.8861L6.71 15.8731L6.769 15.8611L6.828 15.8501L6.888 15.8391L6.94701 15.8301L7.006 15.8221L7.065 15.8141L7.118 15.8081L7.124 15.8071L7.18301 15.8021L7.242 15.7971L7.301 15.7941L7.359 15.7911L7.418 15.7901L7.47601 15.7891H7.534L7.593 15.7911L7.651 15.7931L7.708 15.7971L7.766 15.8011L7.82301 15.8071L7.881 15.8131L7.938 15.8211L7.995 15.8301L8.052 15.8401L8.108 15.8501L8.165 15.8621L8.221 15.8751L8.276 15.8901L8.332 15.9051L8.388 15.9211L8.443 15.9391L8.498 15.9571L8.552 15.9771L8.606 15.9981L8.661 16.0201L8.714 16.0431L8.76801 16.0671L8.821 16.0931L8.874 16.1191L8.926 16.1471L8.979 16.1761L9.03 16.2061L9.082 16.2371L9.133 16.2701L9.18401 16.3031L9.234 16.3381L9.285 16.3741L9.334 16.4111L9.384 16.4501L9.43301 16.4891L9.481 16.5301L9.53 16.5721L9.578 16.6151L9.625 16.6601L9.672 16.7061L9.719 16.7531L9.765 16.8011L9.811 16.8501V17.0031L9.65701 17.0021L9.611 16.9571L9.565 16.9141L9.564 16.9131L9.51801 16.8721L9.472 16.8321L9.425 16.7921L9.37801 16.7541L9.332 16.7181L9.285 16.6821L9.237 16.6481L9.19 16.6151L9.14201 16.5831L9.094 16.5521L9.04601 16.5231L8.998 16.4941L8.95 16.4671L8.902 16.4411L8.853 16.4171L8.804 16.3931L8.755 16.3701L8.706 16.3491L8.65701 16.3291L8.608 16.3101L8.55801 16.2911L8.509 16.2741L8.459 16.2591L8.409 16.2441L8.359 16.2301L8.30901 16.2171L8.259 16.2051L8.209 16.1951L8.158 16.1851L8.108 16.1771L8.057 16.1691L8.006 16.1621L7.955 16.1571L7.904 16.1521L7.853 16.1481L7.802 16.1451L7.751 16.1441L7.69901 16.1431H7.648L7.596 16.1441L7.54501 16.1461L7.493 16.1491L7.441 16.1531L7.389 16.1581L7.33701 16.1631L7.285 16.1701L7.233 16.1771L7.18 16.1861L7.175 16.1871L7.12801 16.1951L7.076 16.2051L7.023 16.2161L6.971 16.2271L6.918 16.2401L6.86501 16.2531L6.812 16.2681L6.76 16.2831L6.707 16.2991L6.654 16.3151L6.60101 16.3331L6.548 16.3511L6.495 16.3701L6.442 16.3901L6.389 16.4111L6.33601 16.4331L6.283 16.4551L6.231 16.4781L6.124 16.5271L6.01701 16.5791L5.911 16.6331L5.85001 16.6661L5.941 16.7171L6.024 16.7851L6.095 16.8671L6.151 16.9581L6.165 16.9901L6.19701 17.0711L6.22 17.1301L6.244 17.1961L6.27 17.2701L6.291 17.3331L6.293 17.3371L6.329 17.4281L6.363 17.5141L6.37 17.5301L6.417 17.6421L6.468 17.7631L6.525 17.8921L6.58601 18.0271L6.651 18.1681L6.72 18.3131L6.79401 18.4611L6.871 18.6121L6.951 18.7651L7.034 18.9181L7.077 18.9931L7.12 19.0691L7.165 19.1451L7.21 19.2191L7.22501 19.2441L7.249 19.2951L7.288 19.3721L7.327 19.4471L7.367 19.5221L7.40701 19.5951L7.44801 19.6671L7.48901 19.7371L7.53 19.8051L7.571 19.8721L7.612 19.9361L7.654 19.9981L7.695 20.0581L7.737 20.1161L7.778 20.1701L7.818 20.2221L7.858 20.2711L7.898 20.3161L7.936 20.3591L7.974 20.3981L8.01 20.4331L8.04501 20.4651L8.08 20.4951L8.112 20.5201L8.126 20.5311L8.137 20.5381L8.175 20.5631L8.21101 20.5861L8.248 20.6081L8.285 20.6281L8.32201 20.6481L8.359 20.6651L8.396 20.6821L8.43301 20.6981L8.471 20.7121L8.492 20.7201L8.507 20.7291L8.543 20.7491L8.579 20.7681L8.616 20.7861L8.654 20.8031L8.693 20.8191L8.732 20.8341L8.772 20.8481L8.813 20.8611L8.854 20.8731L8.896 20.8841L8.939 20.8941L8.982 20.9021L9.026 20.9101L9.071 20.9161L9.116 20.9221L9.162 20.9261L9.208 20.9291L9.25401 20.9311L9.301 20.9321H9.348L9.395 20.9301L9.442 20.9281L9.49001 20.9241L9.538 20.9201L9.58701 20.9141L9.635 20.9071L9.68401 20.8991L9.733 20.8891L9.78201 20.8791L9.832 20.8681L9.881 20.8551L9.93 20.8421L9.979 20.8271L10.028 20.8111L10.077 20.7941L10.126 20.7771L10.175 20.7581L10.223 20.7381L10.272 20.7171L10.32 20.6961L10.367 20.6731L10.414 20.6491L10.461 20.6251L10.508 20.6001L10.554 20.5731L10.6 20.5461L10.646 20.5181L10.691 20.4891L10.736 20.4601L10.78 20.4301L10.824 20.3981L10.867 20.3671L10.909 20.3341L10.953 20.2981L11.548 20.2921L11.547 20.8861L11.49 20.9161ZM4.952 17.2311L4.848 17.3121L4.744 17.3941L4.641 17.4781L4.539 17.5651L4.437 17.6541L4.388 17.6981L4.33601 17.7451L4.234 17.8361L4.132 17.9291L4.03101 18.0251L3.931 18.1221L3.832 18.2211L3.734 18.3221L3.637 18.4241L3.541 18.5291L3.445 18.6351L3.35101 18.7421L3.258 18.8511L3.166 18.9621L3.075 19.0731L2.985 19.1861L2.896 19.3011L2.80901 19.4161L2.723 19.5331L2.639 19.6511L2.556 19.7701L2.474 19.8901L2.394 20.0101L2.315 20.1321L2.238 20.2541L2.162 20.3771L2.08701 20.5011L2.014 20.6251L1.943 20.7501L1.873 20.8751L1.805 21.0001L1.746 21.1121L1.73901 21.1261L1.674 21.2521L1.612 21.3781L1.551 21.5051L1.492 21.6311L1.436 21.7571L1.381 21.8841L1.329 22.0101L1.278 22.1361L1.23 22.2621L1.18401 22.3871L1.139 22.5121L1.097 22.6371L1.057 22.7611L1.019 22.8851L0.983002 23.0081L0.951004 23.1301L0.920006 23.2521L0.892006 23.3721L0.866005 23.4921L0.843002 23.6111L0.823006 23.7281L0.805 23.8451L0.790001 23.9601L0.776001 24.0741L0.765999 24.1861L0.757004 24.2981L0.751999 24.4071L0.749001 24.5151V24.6231L0.75 24.6751L0.751999 24.7281L0.754005 24.7801L0.757004 24.8321L0.761002 24.8831L0.764999 24.9341L0.771004 24.9841L0.776001 25.0341L0.783005 25.0841L0.790001 25.1331L0.798004 25.1811L0.806999 25.2291L0.816002 25.2761L0.826004 25.3231L0.837006 25.3701L0.848 25.4151L0.860001 25.4611L0.873001 25.5051L0.887001 25.5501L0.901001 25.5931L0.916 25.6361L0.931 25.6791L0.945999 25.7211L0.962006 25.7621L0.979004 25.8031L0.996002 25.8441L1.014 25.8831L1.033 25.9221L1.052 25.9611L1.07201 25.9991L1.093 26.0371L1.11501 26.0741L1.137 26.1101L1.16 26.1461L1.178 26.1741L1.174 26.1671L1.192 26.1941L1.206 26.2121L1.224 26.2361L1.238 26.2531L1.256 26.2741L1.26801 26.2881L1.286 26.3071L1.298 26.3191L1.313 26.3331L1.327 26.3461L1.341 26.3581L1.354 26.3681L1.367 26.3781L1.38 26.3871L1.39201 26.3951L1.404 26.4021L1.415 26.4081L1.426 26.4141L1.437 26.4191L1.44701 26.4231L1.457 26.4271L1.467 26.4301L1.47601 26.4331L1.485 26.4361L1.494 26.4381L1.50301 26.4391L1.513 26.4411L1.522 26.4421H1.53101L1.54 26.4431H1.55H1.56001L1.571 26.4421L1.582 26.4411L1.593 26.4391L1.605 26.4371L1.617 26.4351L1.63 26.4321L1.64301 26.4281L1.65701 26.4241L1.66901 26.4201L1.7 26.4081L1.736 26.3921L1.765 26.3771L1.804 26.3551L1.83701 26.3351L1.87901 26.3061L1.915 26.2801L1.96 26.2451L2.002 26.2101L2.04501 26.1721L2.089 26.1301L2.134 26.0861L2.18 26.0391L2.22601 25.9901L2.272 25.9371L2.318 25.8821L2.36501 25.8251L2.412 25.7641L2.46 25.7021L2.508 25.6371L2.556 25.5701L2.604 25.5001L2.652 25.4281L2.701 25.3551L2.75 25.2791L2.799 25.2011L2.847 25.1221L2.896 25.0411L2.945 24.9581L2.994 24.8741L3.043 24.7891L3.092 24.7021L3.14 24.6131L3.189 24.5231L3.237 24.4311L3.285 24.3381L3.333 24.2451L3.43 24.0511L3.525 23.8541L3.62 23.6531L3.71301 23.4491L3.805 23.2411L3.896 23.0321L3.985 22.8201L4.005 22.7691L4.071 22.6071L4.15601 22.3931L4.238 22.1781L4.319 21.9641L4.397 21.7491L4.474 21.5361L4.549 21.3241L4.621 21.1141L4.69 20.9071L4.757 20.7021L4.821 20.5011L4.881 20.3031L4.939 20.1101L4.993 19.9221L5.04401 19.7391L5.092 19.5611L5.137 19.3901L5.178 19.2261L5.215 19.0701L5.249 18.9211L5.278 18.7811L5.279 18.7761L5.297 18.6491L5.306 18.5811L5.275 18.4751L5.232 18.3201L5.192 18.1731L5.15601 18.0351L5.124 17.9081L5.119 17.8891L5.095 17.7921L5.069 17.6871L5.029 17.5191L5.00401 17.4111L4.995 17.3721L4.97501 17.2661L4.974 17.2041L4.952 17.2311Z" fill="#A168BE"/>
<path fill-rule="evenodd" clip-rule="evenodd" d="M36.3142 3.388L36.4442 3.39499L36.5742 3.405L36.7032 3.418L36.8322 3.435L36.9582 3.45399L37.0252 3.46599L37.0892 3.478L37.1522 3.491L37.2162 3.50499L37.2792 3.51999L37.3422 3.53499L37.4052 3.55199L37.4682 3.56999L37.5302 3.58899L37.5922 3.60899L37.6542 3.62999L37.7162 3.65199L37.7772 3.67599L37.8382 3.7L37.8992 3.726L37.9592 3.75299L38.0182 3.78099L38.0782 3.81L38.1372 3.84099L38.1952 3.873L38.2532 3.90599L38.3102 3.94099L38.3672 3.97699L38.4232 4.01399L38.4782 4.05299L38.5332 4.09399L38.5862 4.13599L38.6392 4.179L38.6912 4.224L38.7422 4.271L38.7922 4.319L38.8412 4.368L38.8892 4.41899L38.9352 4.472L38.9812 4.526L39.0262 4.582L39.0702 4.63899L39.1122 4.698L39.1522 4.758L39.1912 4.81999L39.2282 4.883L39.2632 4.94699L39.2962 5.01199L39.3282 5.07899L39.3582 5.14699L39.3862 5.21599L39.4122 5.286L39.4352 5.355L39.4542 5.41399L39.4702 5.47099L39.4862 5.528L39.5022 5.58499L39.5162 5.642L39.5282 5.7L39.5402 5.75699L39.5512 5.814L39.5602 5.87199L39.5682 5.929L39.5752 5.98599L39.5802 6.04399L39.5852 6.101L39.5882 6.15799L39.5902 6.215V6.27199L39.5892 6.32899L39.5872 6.38599L39.5842 6.44299L39.5792 6.49899L39.5732 6.55499L39.5662 6.61099L39.5572 6.66699L39.5472 6.722L39.5362 6.77699L39.5242 6.83099L39.5102 6.88499L39.4962 6.939L39.4802 6.99199L39.4632 7.045L39.4462 7.097L39.4282 7.14799L39.4082 7.19899L39.3872 7.24899L39.3662 7.299L39.3412 7.35199L39.2952 7.44299L39.2432 7.53499L39.1882 7.625L39.1292 7.71199L39.0672 7.79599L39.0032 7.87799L38.9362 7.95799L38.8672 8.03499L38.7962 8.10899L38.7222 8.181L38.6472 8.25099L38.5702 8.319L38.4922 8.38399L38.4122 8.448L38.3312 8.50899L38.2732 8.55099L38.2482 8.569L38.1642 8.62599L38.0782 8.68199L37.9912 8.73599L37.9032 8.78899L37.8132 8.84L37.7222 8.89L37.6302 8.939L37.5372 8.98599L37.4432 9.032L37.3482 9.077L37.2522 9.12099L37.1552 9.16399L37.0572 9.20499L36.9582 9.24599L36.8582 9.286L36.7572 9.325L36.6562 9.36299L36.5542 9.401L36.4512 9.437L36.3472 9.47299L36.2432 9.508L36.1382 9.54199L36.0332 9.57599L35.9262 9.60899L35.7152 9.67299L35.5012 9.735L35.2862 9.795L35.0712 9.853L34.8542 9.909L34.6382 9.963L34.4222 10.016L34.2062 10.067L33.9912 10.118L33.8872 10.141L33.5632 10.196L32.9052 10.304L32.7312 10.329L32.4422 10.371L32.3592 10.482L32.2542 10.58L32.1352 10.659L32.0042 10.717L31.8662 10.751L31.7242 10.761L31.5822 10.745L31.4442 10.706L31.3152 10.643L31.2202 10.574L31.1132 10.596L30.9642 10.629L30.8952 10.645L30.8272 10.661L30.7612 10.678L30.6972 10.695L30.6362 10.712L30.5772 10.729L30.5212 10.747L30.4682 10.764L30.4172 10.782L30.3702 10.799L30.3252 10.816L30.2832 10.833L30.2442 10.85L30.2012 10.871L30.2162 10.862L30.1772 10.882L30.1392 10.903L30.1562 10.891L30.1222 10.911L30.0912 10.931L30.1102 10.915L30.0722 10.944L30.0922 10.925L30.0572 10.954L29.2432 10.947L29.2552 10.132L29.2952 10.088L29.3472 10.037L29.4012 9.987L29.4572 9.93999L29.5142 9.89499L29.5722 9.85199L29.6322 9.81L29.6942 9.76999L29.7572 9.73L29.8222 9.692L29.8882 9.65399L29.9562 9.61699L30.0252 9.58099L30.0952 9.54599L30.1682 9.51099L30.2412 9.476L30.3162 9.442L30.3922 9.40799L30.4692 9.375L30.5492 9.34099L30.7092 9.276L30.8762 9.211L30.9182 9.196L30.9252 8.405V8.325V8.23399L30.9232 8.131L30.9202 8.01799L30.9112 7.75899L30.8982 7.46599V7.45799L30.8882 7.14099L30.8762 6.78899L30.8602 6.41399L30.8442 6.021L30.8432 6.00899L30.8292 5.61299L30.8132 5.196L30.7952 4.77199L30.7762 4.345L30.7622 4.08499L30.7552 3.91899L30.7362 3.498L30.7162 3.086L30.6942 2.68599L30.6712 2.30299V2.30199L30.6532 1.94099L30.6342 1.603L30.6142 1.29399L30.6132 1.271L30.7482 1.133L30.7652 1.11L30.7392 1.084L30.7322 0.910995L30.7262 0.755997L30.7232 0.619995L30.7212 0.501999L30.7222 0.399994L30.7242 0.313995L30.7272 0.276001L30.7302 0.240997L30.7332 0.209L30.7382 0.179001L30.7442 0.151001L30.7532 0.121994L30.7682 0.0879974L30.7822 0.0679932L30.7952 0.0529938L30.8092 0.0399933L30.8122 0.0379944L30.8272 0.0269928L30.8432 0.0179901L30.8462 0.0159912L30.8672 0.00799561L30.8882 0.00299072L30.8912 0.0019989L30.9142 0L30.9382 0.000991821L30.9412 0.0019989L30.9612 0.0059967L30.9802 0.0130005L30.9982 0.0209961L31.0282 0.0429993L31.0562 0.071991L31.0742 0.100998L31.0882 0.126999L31.0992 0.153L31.1102 0.179993L31.1292 0.237L31.1492 0.304993L31.1702 0.382996L31.1922 0.470001L31.2152 0.567001L31.2392 0.674988L31.2642 0.791992L31.2842 0.888L31.3142 0.914993L31.4722 1.032L31.6402 1.13399L31.6452 1.157L31.7042 1.46899L31.7662 1.80899L31.8312 2.172L31.8912 2.558L31.9532 2.959L32.0152 3.37099L32.0772 3.793L32.1012 3.959L32.1362 4.21899L32.1932 4.64799L32.2182 4.83699L32.2262 4.82799L32.2642 4.78499L32.3032 4.74399L32.3452 4.702L32.3872 4.661L32.4302 4.62099L32.4742 4.582L32.5182 4.54399L32.5632 4.50699L32.6092 4.47099L32.6552 4.435L32.7012 4.39999L32.7512 4.364L32.8452 4.30099L32.9442 4.237L33.0452 4.17699L33.1482 4.11899L33.2542 4.064L33.3612 4.00999L33.4692 3.959L33.5802 3.911L33.6922 3.864L33.8062 3.81999L33.9222 3.778L34.0402 3.73799L34.1582 3.7L34.2792 3.66399L34.4002 3.631L34.5232 3.599L34.6472 3.56999L34.7722 3.543L34.8972 3.519L35.0242 3.49699L35.1522 3.47699L35.2802 3.459L35.4082 3.444L35.5372 3.431L35.6672 3.42099L35.7392 3.41699L35.7972 3.41399L35.9272 3.40999L36.0572 3.40799L36.1872 3.409L36.3142 3.388ZM35.9622 5.174L35.8692 5.17599L35.8262 5.17799L35.7752 5.17999L35.6812 5.18599L35.5862 5.194L35.4922 5.20399L35.3972 5.215L35.3032 5.22899L35.2092 5.24399L35.1162 5.26099L35.0232 5.27899L34.9312 5.299L34.8412 5.321L34.7522 5.34399L34.6642 5.36899L34.5792 5.39499L34.4952 5.422L34.4132 5.45099L34.3342 5.48L34.2572 5.51099L34.1812 5.543L34.1092 5.575L34.0402 5.60799L33.9742 5.64099L33.9112 5.67499L33.8522 5.709L33.7972 5.743L33.7372 5.78299L33.7222 5.79399L33.6992 5.81099L33.6782 5.827L33.6572 5.84299L33.6312 5.864L33.6182 5.875L33.5952 5.89499L33.5842 5.905L33.5632 5.92499L33.5552 5.933L33.5382 5.95099L33.5312 5.95799L33.5142 5.978L33.5062 5.987L33.4882 6.00999L33.4992 5.99699L33.4832 6.01799L33.4522 6.05899L33.4242 6.101L33.3952 6.14699L33.3652 6.19699L33.3352 6.25L33.3052 6.30699L33.2752 6.368L33.2462 6.43199L33.2172 6.498L33.1882 6.56799L33.1602 6.64L33.1322 6.715L33.1052 6.791L33.0792 6.87L33.0532 6.95L33.0282 7.03099L33.0042 7.114L32.9812 7.198L32.9582 7.28299L32.9372 7.37L32.9162 7.457L32.8952 7.54399L32.8762 7.633L32.8572 7.72099L32.8402 7.81L32.8232 7.89899L32.8072 7.98599L32.7872 8.047L32.7672 8.15999L32.7382 8.33499L32.7122 8.50699L32.7022 8.57599L33.1712 8.43999L33.4812 8.349L33.5842 8.325L33.7902 8.276L33.9962 8.22499L34.2022 8.174L34.4052 8.12099L34.6072 8.067L34.8062 8.013L35.0042 7.957L35.1982 7.89899L35.3902 7.84L35.4822 7.81L35.5752 7.78L35.6662 7.74899L35.7562 7.71799L35.8442 7.687L35.9322 7.655L36.0182 7.623L36.1022 7.59099L36.1852 7.558L36.2662 7.52499L36.3452 7.491L36.4232 7.457L36.4992 7.42299L36.5742 7.38899L36.6472 7.35399L36.7182 7.319L36.7862 7.28299L36.8532 7.248L36.9172 7.21199L36.9792 7.17599L37.0382 7.14L37.0952 7.10399L37.1502 7.06799L37.2022 7.032L37.2182 7.02199L37.2532 6.99699L37.3002 6.96199L37.3452 6.92599L37.3882 6.892L37.4282 6.85699L37.4662 6.823L37.5002 6.78899L37.5322 6.756L37.5622 6.724L37.5922 6.689L37.6132 6.661L37.6382 6.627L37.6552 6.601L37.6752 6.569L37.6902 6.54399L37.7082 6.508L37.7102 6.50299L37.7192 6.485L37.7232 6.476L37.7302 6.45799L37.7332 6.44899L37.7402 6.43199L37.7432 6.42299L37.7482 6.405L37.7512 6.396L37.7552 6.37799L37.7582 6.36899L37.7622 6.34999L37.7632 6.34099L37.7662 6.32199L37.7682 6.312L37.7702 6.293L37.7712 6.282L37.7722 6.26199L37.7732 6.25V6.22899V6.217V6.19499L37.7722 6.181L37.7702 6.159L37.7692 6.144L37.7662 6.12L37.7642 6.10399L37.7602 6.07899L37.7572 6.06099L37.7522 6.03499L37.7482 6.01599L37.7422 5.99199L37.7362 5.967L37.7292 5.942L37.7212 5.916L37.7122 5.888L37.7052 5.868L37.6962 5.84299L37.6892 5.82599L37.6792 5.80299L37.6712 5.78699L37.6602 5.765L37.6522 5.75099L37.6392 5.72899L37.6302 5.71599L37.6172 5.69499L37.6072 5.68199L37.5922 5.66299L37.5822 5.64999L37.5662 5.631L37.5552 5.618L37.5382 5.599L37.5252 5.58699L37.5072 5.569L37.4932 5.556L37.4732 5.53899L37.4582 5.526L37.4362 5.50899L37.4202 5.49599L37.3962 5.47899L37.3782 5.467L37.3532 5.45099L37.3332 5.43799L37.3102 5.424L37.2852 5.40999L37.2592 5.39699L37.2332 5.383L37.2052 5.37L37.1772 5.35699L37.1482 5.34399L37.1182 5.332L37.0872 5.31999L37.0552 5.308L37.0222 5.297L36.9892 5.286L36.9552 5.27499L36.9202 5.265L36.8842 5.25499L36.8472 5.24599L36.8102 5.237L36.7722 5.228L36.7342 5.22L36.6942 5.21199L36.6582 5.20599L36.5742 5.192L36.4912 5.181L36.4062 5.172L36.3202 5.16399L36.2312 5.159L36.1422 5.15599L36.0512 5.15399L35.9622 5.174ZM31.0352 0.205994L31.0362 0.204987L31.0392 0.194992L31.0352 0.205994Z" fill="#A168BE"/>
</svg>
