<svg width="167" height="117" viewBox="0 0 167 117" fill="none" xmlns="http://www.w3.org/2000/svg">
<path d="M71.7902 48.5877V9.98682H22.4952L71.3881 48.5877H71.7902Z" fill="#006DB7"/>
<path d="M18.5492 6.87197H71.7898V0H20.6H9.8429L18.5492 6.87197Z" fill="#006DB7"/>
<path d="M8.09444 23.8704L0 17.4785V48.5874H8.09444V23.8704Z" fill="#006DB7"/>
<path d="M11.2086 26.3284V48.5875H39.4032L11.2086 26.3284Z" fill="#006DB7"/>
<path d="M8.09444 68.4075H0V99.419L8.09444 93.0265V68.4075Z" fill="#006DB7"/>
<path d="M11.2086 68.4075V90.5686L39.279 68.4075H11.2086Z" fill="#006DB7"/>
<path d="M137.369 6.87197L146.076 0H91.6101V6.87197H137.369Z" fill="#006DB7"/>
<path d="M91.6101 43.0006L133.426 9.98682H91.6101V43.0006Z" fill="#006DB7"/>
<path d="M155.435 68.4075V94.1828L166.551 102.96V71.6146V68.4075H155.435Z" fill="#006DB7"/>
<path d="M152.319 91.7223V68.4075H122.792L152.319 91.7223Z" fill="#006DB7"/>
<path d="M155.435 48.5875H166.551V9.07886L155.435 17.8563V48.5875Z" fill="#006DB7"/>
<path d="M116.512 48.5876H152.319V20.3169L116.512 48.5876Z" fill="#006DB7"/>
<path d="M91.6101 106.303H138.805L91.6101 69.041V106.303Z" fill="#006DB7"/>
<path d="M91.6101 109.417V117H152.353L142.751 109.417H91.6101Z" fill="#006DB7"/>
<path d="M71.261 68.4075L23.2635 106.303H71.7898V68.4075H71.261Z" fill="#006DB7"/>
<path d="M19.3225 109.417L9.71851 117H71.7903V109.417H19.3225Z" fill="#006DB7"/>
<path d="M155.435 14.1716V17.8563L166.551 9.07895V6.75457C166.551 4.31845 165.234 2.19137 163.286 1.00391L153.216 8.95159C154.579 10.2789 155.43 12.125 155.435 14.1716Z" fill="white"/>
<path d="M166.551 48.5876H155.435V52.9873H166.551V48.5876Z" fill="white"/>
<path d="M91.6102 0H86.974V6.8726H91.6102V0Z" fill="white"/>
<path d="M142.842 6.87197L151.548 0H146.076L137.369 6.87197H142.842Z" fill="white"/>
<path d="M86.9747 52.9873H152.319V48.5877H116.513L152.319 20.3175V14.1717C152.317 12.855 151.651 11.7206 150.688 10.9526L102.819 48.7437H89.8085L138.896 9.98682H133.426L91.6103 43.0006V9.98682H86.974V52.9873H86.9747Z" fill="white"/>
<path d="M11.2086 64.0078V68.4074H39.279L11.2086 90.5685V101.535L53.5973 68.0659H66.6076L18.1811 106.303H23.2638L71.2613 68.4074H71.7901V106.303H76.4239V64.0078H11.2086Z" fill="white"/>
<path d="M8.09444 93.0266L0 99.4191V110.386L8.09444 103.994V93.0266Z" fill="white"/>
<path d="M14.2352 109.417L4.63367 117H9.71821L19.3222 109.417H14.2352Z" fill="white"/>
<path d="M8.09444 64.0078H0V68.4074H8.09444V64.0078Z" fill="white"/>
<path d="M76.424 109.417H71.7902V116.999H76.424V109.417Z" fill="white"/>
<path d="M76.424 0H71.7902V6.8726H76.424V0Z" fill="white"/>
<path d="M8.09444 6.87197H18.5494L9.84312 0H0V1.47778L8.09444 7.86964V6.87197Z" fill="white"/>
<path d="M8.09444 48.5876H0V52.9873H8.09444V48.5876Z" fill="white"/>
<path d="M8.09444 18.1391L0 11.7498V17.4786L8.09444 23.8704V18.1391Z" fill="white"/>
<path d="M59.6694 48.5877H46.6585L11.2086 20.6004V26.3286L39.4032 48.5877H11.2086V52.9873H76.4239V9.98682H71.7901V48.5877H71.388L22.4952 9.98682H11.2086V10.3277L59.6694 48.5877Z" fill="white"/>
<path d="M166.551 64.0078H155.435V68.4074H166.551V64.0078Z" fill="white"/>
<path d="M86.974 106.303H91.6102V69.041L138.805 106.303H148.134C149.199 106.301 150.153 105.862 150.897 105.196L104.233 68.3536H117.244L152.319 96.0481V91.7216L122.793 68.4067H152.319V64.0071H86.9746L86.974 106.303Z" fill="white"/>
<path d="M155.435 98.5067L166.551 107.286V102.96L155.435 94.1826V98.5067Z" fill="white"/>
<path d="M91.6102 109.417H86.974V116.999H91.6102V109.417Z" fill="white"/>
<path d="M148.134 109.417H142.751L152.353 116.999H159.798C161.376 116.999 162.813 116.429 163.964 115.514L153.385 107.161C152.057 108.545 150.199 109.415 148.134 109.417Z" fill="white"/>
<path d="M8.09444 7.86964L0 1.47778V11.7498L8.09444 18.1392V7.86964Z" fill="#E81E26"/>
<path d="M59.6694 48.5876L11.2086 10.3276V20.6003L46.6585 48.5876H59.6694Z" fill="#E81E26"/>
<path d="M148.134 6.87197C150.112 6.87447 151.905 7.67173 153.217 8.95223L163.287 1.00455C162.265 0.377723 161.077 0 159.799 0H151.549L142.843 6.8726H148.134V6.87197Z" fill="#E81E26"/>
<path d="M89.8079 48.7437H102.819L150.687 10.9526C149.972 10.382 149.107 9.98931 148.134 9.98682H138.896L89.8079 48.7437Z" fill="#E81E26"/>
<path d="M166.551 52.9871H155.435V64.0077H166.551V52.9871Z" fill="#E81E26"/>
<path d="M86.9744 0H76.4239V6.8726H86.9744V0Z" fill="#E81E26"/>
<path d="M8.09444 52.9871H0V64.0077H8.09444V52.9871Z" fill="#E81E26"/>
<path d="M86.9744 109.417H76.4239V116.999H86.9744V109.417Z" fill="#E81E26"/>
<path d="M76.4239 52.9873H11.2086V64.0079H76.4239V106.303H86.9744V64.0079H152.319V52.9873H86.9744V9.98682H76.4239V52.9873Z" fill="#E81E26"/>
<path d="M155.435 102.119C155.43 104.077 154.647 105.85 153.384 107.162L163.963 115.515C165.529 114.274 166.551 112.383 166.551 110.242V107.287L155.435 98.5068V102.119Z" fill="#E81E26"/>
<path d="M104.233 68.3538L150.897 105.197C151.75 104.426 152.316 103.345 152.318 102.119V96.0483L117.244 68.3538H104.233Z" fill="#E81E26"/>
<path d="M53.5973 68.0659L11.2086 101.535V106.303H18.1811L66.6076 68.0659H53.5973Z" fill="#E81E26"/>
<path d="M8.09444 109.418V103.994L0 110.386V117H4.63375L14.2353 109.418H8.09444Z" fill="#E81E26"/>
<path d="M8.09437 7.86972V18.1393V23.8706V48.5876V52.9873V64.0079V68.4075V93.0272V103.994V109.418H14.2352H19.3222H71.79H76.4237H86.9735H91.6098H142.751H148.133C150.199 109.416 152.057 108.545 153.384 107.163C154.647 105.851 155.43 104.078 155.435 102.119V98.5075V94.1834V68.4081V64.0085V52.9879V48.5883V17.8571V14.1723C155.43 12.1264 154.579 10.2802 153.215 8.95355C151.903 7.67305 150.11 6.87579 148.133 6.87329H142.84H137.367H91.6086H86.9723H76.4225H71.7888H18.548H8.09308V7.86972H8.09437ZM22.495 9.98681H71.79H76.4237H86.9735H91.6098H133.425H138.896H148.134C149.107 9.9893 149.972 10.382 150.687 10.9526C151.651 11.7206 152.316 12.855 152.319 14.1717V20.3175V48.5876V52.9873V64.0079V68.4075V91.7223V96.0489V102.119C152.316 103.346 151.751 104.426 150.897 105.197C150.154 105.863 149.2 106.302 148.134 106.304H138.806H91.6104H86.9742H76.4243H71.7906H23.2636H18.1809H11.2085V101.536V90.5692V68.4081V64.0085V52.9879V48.5883V26.3298V20.601V10.3289V9.98743H22.495V9.98681Z" fill="#51266B"/>
</svg>
