<svg width="75" height="117" viewBox="0 0 75 117" fill="none" xmlns="http://www.w3.org/2000/svg">
<path d="M66.5497 88.8314C70.2268 93.5957 73.6611 98.5292 70.983 104.68C69.0104 109.234 65.6014 110.609 60.976 111.722C53.3391 113.554 45.3567 114.313 37.5289 114.601C30.5334 114.85 23.5114 114.588 16.5678 113.751C14.3379 113.489 11.6477 113.581 9.57237 112.625C7.12497 111.486 2.76895 107.691 2.10214 104.89C1.20581 101.043 4.94697 95.0091 6.54756 91.7112C7.61059 89.5127 8.73884 87.3661 9.92992 85.2594L10.6982 85.7039C7.6746 91.1749 5.65001 97.1037 6.35427 102.286C7.77608 112.796 25.0866 111.526 32.4409 111.487C39.2575 111.447 46.0863 110.702 52.7617 109.275C56.9002 108.398 62.3459 107.418 64.908 103.517C68.9185 97.4311 63.3835 88.1259 58.6035 81.517L60.2174 80.3126C62.271 83.178 64.385 86.0047 66.5497 88.8314Z" fill="#9BEBFE"/>
<path d="M60.2245 80.3115L58.6106 81.5158C57.1888 79.5528 55.8431 77.8387 54.8308 76.5027C54.5106 76.0835 54.0999 76.0581 53.7545 76.2285C53.5624 76.1234 53.3317 76.0582 53.0756 76.1101C44.0555 77.5367 37.4188 71.3204 29.0136 69.7234C25.7339 69.0953 22.9664 69.4746 21.1206 71.87C21.0058 71.8833 20.9031 71.922 20.8125 72.0138C17.5836 75.3901 13.6624 80.3248 10.7029 85.7039L9.93457 85.2594C15.687 74.9601 22.6197 65.5099 28.6669 55.3676C28.7176 55.3157 28.7696 55.2492 28.7949 55.1586C28.8203 55.1188 28.8457 55.0801 28.8723 55.0403C29.039 54.7649 28.9882 54.4641 28.8336 54.2418C28.4241 42.9736 28.5256 31.4434 27.2572 20.2405C33.523 21.5753 40.0571 21.1694 46.2323 19.3767C44.5544 30.6449 44.2597 42.3068 44.0664 53.6801C44.0531 53.9809 44.169 54.1911 44.3357 54.3348C44.3225 54.5317 44.349 54.7407 44.4505 54.9497C49.0904 63.913 54.4068 72.2361 60.2245 80.3115ZM39.801 66.0064C42.171 65.0123 43.4781 62.0152 42.5298 59.5678C41.7615 57.5783 39.685 56.3739 37.687 56.5841C37.6362 56.4404 37.4949 56.3087 37.3028 56.3485C34.5486 57.0033 32.4467 59.9737 33.3696 62.879C34.1886 65.4834 37.3016 67.0538 39.801 66.0064ZM39.8903 31.6644C41.6069 30.9843 42.4911 28.7072 41.7229 27.0052C40.928 25.2125 38.4432 24.4527 36.88 25.6704C36.8027 25.7223 36.7641 25.7888 36.7387 25.8673C35.7264 26.6138 35.1502 28.0924 35.4316 29.2835C35.8665 31.2066 38.0965 32.3711 39.8903 31.6644ZM34.1753 44.9089C35.5464 44.4377 36.3787 42.7888 35.8279 41.4009C35.3024 40.066 33.5858 39.3859 32.3295 40.0793C32.2015 40.1445 32.1242 40.2496 32.0855 40.3668C31.2786 40.8246 30.7531 41.872 30.9319 42.8408C31.2037 44.3338 32.7281 45.3933 34.1753 44.9089Z" fill="#9BEBFE"/>
<path d="M53.4589 78.1909C58.7886 85.2323 70.244 101.5 57.2254 105.845C49.0123 108.594 39.8388 109.34 31.2536 109.314C26.9363 109.3 22.643 109.013 18.3764 108.411C16.2238 108.11 13.0975 107.967 11.2142 106.657C7.13968 103.817 8.0493 99.315 9.04831 95.6113C11.329 87.1965 16.7492 79.7878 21.5788 72.773C26.7937 67.9435 35.8524 74.579 40.9127 76.5685C45.131 78.2162 49.0256 78.9495 53.4589 78.1909Z" fill="#FF9F01"/>
<path d="M44.1948 2.81855C50.3326 4.78154 49.6791 10.9858 48.8202 15.9712C48.7949 16.0895 48.807 16.1801 48.8202 16.2852C40.4537 19.4526 32.3553 19.6483 23.6433 17.6853C23.4645 17.0306 23.2845 16.3891 23.1818 15.709C23.0538 14.8055 23.0792 13.8898 22.9644 12.9741C22.9004 10.8541 23.1311 8.75946 24.2207 6.84963C26.5268 2.81856 30.9093 2.374 35.176 2.24233C37.9423 2.16381 41.5675 1.96812 44.1948 2.81855ZM46.3729 7.15039C46.7063 6.82302 46.3729 6.22147 45.9247 6.35193C42.7598 7.29416 39.9028 8.59032 36.5458 8.73407C33.2782 8.87782 30.0372 8.30283 26.9496 7.21564C26.7321 7.13712 26.6294 7.4645 26.7961 7.58167C32.2659 11.5741 41.3247 12.3858 46.3729 7.15039Z" fill="#9BEBFE"/>
<path d="M41.121 59.9201C41.9279 61.6475 40.9289 63.9379 39.2377 64.6445C37.3544 65.4297 34.9965 64.0816 34.5869 62.0534C34.2668 60.4564 35.0871 59.0044 36.2274 57.9438C36.2914 57.9704 36.3554 57.9704 36.4327 57.9571C38.1614 57.5911 40.2887 58.154 41.121 59.9201Z" fill="#E58BB7"/>
<path d="M40.3906 27.2004C41.0695 28.2079 40.6854 29.7782 39.6344 30.3677C38.5581 30.9826 36.9816 30.2892 36.6494 29.0849C36.252 27.7102 37.2897 26.8465 38.2899 26.2316C39.0956 26.1929 39.9038 26.4551 40.3906 27.2004Z" fill="#E58BB7"/>
<path d="M34.5231 41.7542C34.8951 42.4222 34.5231 43.2992 33.8575 43.6121C33.1653 43.9395 32.4091 43.4031 32.1795 42.7218C31.9102 41.9366 32.3716 41.4136 32.9358 41.033C33.5615 40.969 34.1896 41.1659 34.5231 41.7542Z" fill="#E58BB7"/>
<path opacity="0.6" d="M63.9621 81.8816C57.2735 73.0741 51.4703 63.6638 46.3702 53.809C46.2288 53.5469 46.0367 53.4032 45.8314 53.3247C46.1901 42.0299 47.1131 30.6966 47.2532 19.4018L46.2276 19.3752C44.5497 30.6434 44.2549 42.3053 44.0617 53.6774C44.0484 53.9782 44.1643 54.1884 44.331 54.3321C44.3178 54.529 44.3443 54.738 44.4458 54.947C49.0845 63.9127 54.4009 72.2358 60.2186 80.3112C62.2685 83.1778 64.3825 86.0044 66.5484 88.8311C70.2255 93.5943 73.6599 98.5289 70.9818 104.68C69.0091 109.234 65.6002 110.609 60.9748 111.721C53.3378 113.554 45.3554 114.313 37.5276 114.6C30.5322 114.849 23.5101 114.587 16.5666 113.75C14.3366 113.488 11.6464 113.579 9.57109 112.624C7.1237 111.486 2.76769 107.689 2.10088 104.889C2.06948 104.751 2.05497 104.606 2.03443 104.464C1.34709 104.208 0.673023 103.947 0.0134596 103.68C-0.212435 108.787 2.41374 112.4 7.23846 114.221C15.9517 117.492 27.2005 117.074 36.2846 116.852C45.3687 116.629 55.3624 116.001 64.101 113.227C69.2 111.604 73.6719 108.489 74.3895 102.717C75.4296 94.394 68.4848 87.8624 63.9621 81.8816Z" fill="#C4007B"/>
<path opacity="0.6" d="M66.5523 88.8311C64.3876 86.0044 62.2724 83.1765 60.2225 80.3112L58.6086 81.5155C63.3874 88.1244 68.9224 97.4296 64.9131 103.515C62.3509 107.416 56.9053 108.397 52.7668 109.274C46.0914 110.701 39.2626 111.446 32.4459 111.486C26.261 111.518 13.0383 112.42 8.14233 106.456C6.02472 105.858 3.982 105.186 2.03955 104.464C2.06009 104.606 2.07338 104.752 2.106 104.889C2.77281 107.689 7.12882 111.485 9.57621 112.624C11.6515 113.579 14.3429 113.487 16.5717 113.75C23.5164 114.587 30.5373 114.849 37.5327 114.6C45.3617 114.312 53.3441 113.553 60.9799 111.721C65.6053 110.609 69.013 109.234 70.9869 104.68C73.6638 98.5289 70.2307 93.5954 66.5523 88.8311Z" fill="#9BEBFE"/>
<path opacity="0.6" d="M58.6081 81.5154C57.1863 79.5524 55.8406 77.8383 54.8283 76.5022C54.5082 76.0831 54.0986 76.0577 53.7519 76.228C53.5599 76.1229 53.3292 76.0577 53.0731 76.1097C52.7687 76.158 52.4739 76.1761 52.1755 76.2075C52.5053 76.8791 52.8218 77.5544 53.1202 78.2357C53.2337 78.2188 53.3437 78.2103 53.4584 78.191C58.7881 85.2324 70.2434 101.5 57.2249 105.846C49.0118 108.594 39.8383 109.34 31.2531 109.314C30.1659 109.31 29.0799 109.29 27.9952 109.251C21.3754 109.367 14.4512 108.24 8.14062 106.457C13.0366 112.421 26.2593 111.52 32.4442 111.487C39.2609 111.447 46.0897 110.702 52.765 109.275C56.9036 108.398 62.3492 107.417 64.9114 103.517C68.9231 97.4295 63.3881 88.1243 58.6081 81.5154Z" fill="#C4007B"/>
<path opacity="0.6" d="M44.4488 54.947C44.3461 54.738 44.3207 54.529 44.334 54.3321C44.1673 54.1884 44.0525 53.9794 44.0646 53.6774C44.2567 42.3041 44.5514 30.6434 46.2305 19.3752C45.6036 19.5564 44.9706 19.7147 44.3376 19.8681C44.5985 20.4358 44.7677 21.0567 44.7906 21.7296C45.1023 30.8342 42.1234 39.3953 41.5689 48.3996C41.1304 55.5171 43.4425 60.7961 46.8985 66.7756C48.6103 69.7364 50.5539 72.9123 52.1738 76.2089C52.4722 76.1775 52.7682 76.1593 53.0714 76.111C53.3275 76.059 53.5582 76.1243 53.7503 76.2294C54.0958 76.0591 54.5065 76.0856 54.8266 76.5036C55.8389 77.8384 57.1846 79.5538 58.6064 81.5168L60.2203 80.3124C54.4038 72.2357 49.0874 63.9127 44.4488 54.947Z" fill="#9BEBFE"/>
<path opacity="0.6" d="M53.4564 78.1909C53.3417 78.2102 53.2317 78.2175 53.1182 78.2356C55.8808 84.5317 57.0912 91.1889 53.0119 97.5877C47.6967 105.926 38.2128 109.072 27.9932 109.25C29.0779 109.288 30.1639 109.31 31.2511 109.312C39.8363 109.339 49.0098 108.592 57.2229 105.844C70.2415 101.5 58.7873 85.2323 53.4564 78.1909Z" fill="#E58BB7"/>
<path opacity="0.6" d="M49.4871 2.89678C47.8467 1.09083 45.0888 0.381743 42.2524 0.129272C43.696 1.00869 44.9535 2.15024 45.8958 3.5805C50.1769 6.08104 49.5886 11.5098 48.8203 15.9721C48.7949 16.0905 48.807 16.1823 48.8203 16.2862C46.8464 17.0339 44.8871 17.6029 42.9313 18.0293C43.5233 18.5258 44.0101 19.1491 44.3387 19.8666C44.9729 19.7132 45.6046 19.5562 46.2316 19.3738L47.2572 19.4004C47.2704 19.2953 47.2705 19.1914 47.2705 19.0863C48.1934 18.7855 49.115 18.4581 50.038 18.0921C50.6407 17.8433 50.8195 17.2284 50.6915 16.7053C50.7169 16.6534 50.7555 16.6014 50.7688 16.5229C51.6277 12.4508 52.576 6.31298 49.4871 2.89678Z" fill="#C4007B"/>
<path opacity="0.6" d="M45.8954 3.58057C46.1044 3.89827 46.3013 4.22563 46.4777 4.57233C49.1099 9.72441 46.4184 14.6736 42.2412 17.551C42.4792 17.6972 42.7148 17.8494 42.931 18.0306C44.8867 17.6029 46.8461 17.0352 48.82 16.2875C48.8067 16.1824 48.7946 16.0917 48.82 15.9734C49.5882 11.5086 50.1765 6.0799 45.8954 3.58057Z" fill="#9BEBFE"/>
<path d="M30.8615 65.7257C26.8944 69.2869 25.0172 76.0371 22.356 80.7254C19.2333 86.2266 15.921 91.6202 12.535 96.9559C11.9769 97.8342 13.2453 98.8235 13.9496 98.0709C18.3696 93.3428 22.3137 88.2777 25.719 82.7342C28.5783 78.0799 33.0177 72.3117 33.0902 66.6704C33.1071 65.4515 31.6817 64.9901 30.8615 65.7257Z" fill="white"/>
<path d="M63.9642 81.8819C68.4869 87.8627 75.4317 94.3943 74.394 102.717C73.6765 108.489 69.2045 111.603 64.1056 113.227C55.3669 116.002 45.3732 116.63 36.2891 116.852C27.205 117.074 15.955 117.494 7.24298 114.221C2.04137 112.258 -0.611369 108.214 0.119466 102.455C1.23444 93.8048 7.56311 84.577 11.9203 77.3532C16.5711 69.6317 21.5299 61.8051 27.1809 54.7903C26.7714 43.3385 25.7591 31.6645 26.2072 20.1994L27.2582 20.2393C28.5266 31.4422 28.4239 42.9725 28.8346 54.2407C28.988 54.4629 29.04 54.7637 28.8733 55.0391C28.8479 55.079 28.8225 55.1177 28.796 55.1575C28.7706 55.2493 28.7187 55.3145 28.6679 55.3665C22.6207 65.5088 15.6881 74.9589 9.93559 85.2583C8.74451 87.365 7.61625 89.5116 6.55321 91.7101C4.95142 95.008 1.21028 101.042 2.10781 104.889C2.77463 107.691 7.13063 111.486 9.57802 112.624C11.6534 113.58 14.3448 113.488 16.5735 113.75C23.5182 114.587 30.5391 114.849 37.5346 114.6C45.3636 114.313 53.346 113.553 60.9817 111.721C65.6071 110.608 69.0148 109.235 70.9887 104.679C73.6668 98.5281 70.2325 93.5934 66.5553 88.8303C64.3906 86.0036 62.2754 83.1769 60.2255 80.3103C54.409 72.2349 49.0914 63.9118 44.4527 54.9461C44.3501 54.7371 44.3247 54.5269 44.338 54.3312C44.1713 54.1875 44.0565 53.9773 44.0686 53.6765C44.2607 42.3033 44.5554 30.6425 46.2345 19.3732L47.2601 19.3997C47.1188 30.6945 46.1971 42.0291 45.8383 53.3226C46.0437 53.4011 46.2357 53.5449 46.3759 53.807C51.4712 63.6642 57.2756 73.0732 63.9642 81.8819Z" fill="#55205A"/>
<path d="M58.6107 81.5154C63.3896 88.1244 68.9246 97.4295 64.9152 103.515C62.3531 107.416 56.9075 108.397 52.7689 109.274C46.0935 110.701 39.2635 111.447 32.448 111.486C25.0938 111.526 7.78328 112.794 6.36147 102.284C5.65721 97.1022 7.6818 91.1733 10.7054 85.7023C13.665 80.3232 17.5861 75.3897 20.8151 72.0122C20.9045 71.9204 21.0072 71.8817 21.1231 71.8684C22.9677 69.473 25.7352 69.0937 29.0161 69.7218C37.4214 71.3188 44.058 77.5351 53.0781 76.1085C53.3342 76.0565 53.565 76.1218 53.757 76.2269C54.1025 76.0565 54.5132 76.0831 54.8333 76.5011C55.8432 77.8371 57.1889 79.5524 58.6107 81.5154ZM57.2276 105.844C70.2449 101.499 58.7907 85.2312 53.4611 78.1898C49.0277 78.9485 45.1332 78.2164 40.9173 76.5675C35.8558 74.578 26.7971 67.9425 21.5834 72.772C16.7526 79.7868 11.3336 87.1942 9.05287 95.6103C8.05387 99.314 7.14425 103.816 11.2188 106.656C13.1021 107.964 16.2283 108.109 18.381 108.41C22.6476 109.012 26.9396 109.3 31.2582 109.313C39.8398 109.339 49.0144 108.594 57.2276 105.844Z" fill="#55205A"/>
<path d="M49.4867 2.89704C52.5743 6.31324 51.626 12.4511 50.7684 16.522C50.7551 16.6005 50.7176 16.6524 50.6911 16.7056C50.8191 17.2286 50.6403 17.8447 50.0375 18.0924C49.1146 18.4584 48.1929 18.7858 47.27 19.0865C47.27 19.1916 47.27 19.2955 47.2567 19.4006L46.2311 19.3741C40.0559 21.1667 33.5207 21.5726 27.256 20.2378L26.2051 20.1979C26.2183 20.1327 26.2183 20.0542 26.2183 19.9889C25.2568 19.7667 24.3218 19.4912 23.3868 19.1772C23.1561 19.2424 22.8867 19.1904 22.7587 18.915C22.7454 18.9017 22.7454 18.8751 22.7333 18.8631C22.6439 18.758 22.592 18.6408 22.5799 18.497C22.0798 17.3579 21.7476 15.9844 21.721 14.6749C20.9261 10.9314 21.2088 6.7312 23.7069 3.87792C26.5131 0.683993 31.2279 0.212881 35.1744 0.0957053C39.2369 -0.0214699 46.3737 -0.531242 49.4867 2.89704ZM48.8211 15.9723C49.68 10.9857 50.3335 4.7827 44.1957 2.81972C41.5695 1.96929 37.9431 2.165 35.1756 2.24352C30.909 2.37398 26.5264 2.81972 24.2203 6.85079C23.1307 8.76184 22.9 10.8553 22.964 12.9753C23.08 13.891 23.0534 14.8079 23.1815 15.7102C23.2841 16.3903 23.4629 17.0318 23.6429 17.6865C32.3561 19.6495 40.4533 19.4538 48.8199 16.2864C48.8078 16.1813 48.7957 16.0895 48.8211 15.9723Z" fill="#55205A"/>
<path d="M45.9258 6.35172C46.374 6.22126 46.7074 6.82281 46.374 7.15018C41.3258 12.3856 32.2671 11.5738 26.7961 7.58264C26.6294 7.46426 26.7321 7.13813 26.9495 7.21665C30.0371 8.30263 33.2794 8.87883 36.5458 8.73508C39.904 8.59012 42.7609 7.29396 45.9258 6.35172Z" fill="#55205A"/>
<path d="M42.5279 59.5678C43.4762 62.0152 42.1691 65.0122 39.799 66.0064C37.3009 67.0538 34.1867 65.4834 33.3665 62.8789C32.4436 59.9737 34.5455 57.0021 37.2997 56.3485C37.4918 56.3087 37.6331 56.4403 37.6838 56.5841C39.6831 56.3739 41.7584 57.5783 42.5279 59.5678ZM39.2349 64.645C40.9261 63.9383 41.9251 61.648 41.1182 59.9206C40.2859 58.1533 38.1586 57.5916 36.4287 57.9576C36.3514 57.9709 36.2874 57.9708 36.2234 57.9443C35.0831 59.0049 34.2628 60.4569 34.5829 62.0539C34.9937 64.0821 37.3516 65.4302 39.2349 64.645Z" fill="#FF9F01"/>
<path d="M41.7194 27.0047C42.4877 28.7068 41.6047 30.9839 39.8869 31.664C38.093 32.3706 35.8631 31.2061 35.4282 29.2818C35.1467 28.0907 35.7229 26.6121 36.7352 25.8656C36.7606 25.7871 36.7993 25.7218 36.8766 25.6687C38.4385 24.4522 40.9246 25.2121 41.7194 27.0047ZM39.6308 30.3678C40.6818 29.7795 41.0659 28.2079 40.387 27.2004C39.9002 26.4551 39.0932 26.193 38.2851 26.2316C37.2861 26.8465 36.2484 27.7102 36.6447 29.0849C36.9781 30.2893 38.5545 30.9838 39.6308 30.3678Z" fill="#FF9F01"/>
<path d="M35.8253 41.4015C36.3761 42.7883 35.5438 44.4384 34.1728 44.9095C32.7244 45.3939 31.1999 44.3333 30.9305 42.8415C30.7517 41.8726 31.276 40.8265 32.0841 40.3675C32.1228 40.2491 32.1989 40.1452 32.3281 40.08C33.582 39.3854 35.2998 40.0655 35.8253 41.4015ZM33.8514 43.6134C34.517 43.2993 34.8891 42.4223 34.517 41.7554C34.1836 41.1672 33.5567 40.9703 32.9285 41.0355C32.3644 41.4148 31.9041 41.9379 32.1723 42.7243C32.4043 43.4032 33.1593 43.9395 33.8514 43.6134Z" fill="#FF9F01"/>
</svg>
