<svg width="35" height="35" viewBox="0 0 35 35" fill="none" xmlns="http://www.w3.org/2000/svg">
<path d="M30.8595 14.479C32.3643 13.9148 32.5 11.2188 31.1622 8.4575C29.8245 5.69616 27.5202 3.91507 26.0152 4.47933M30.8595 14.479C29.3545 15.0433 27.0502 13.2622 25.7124 10.5008C24.3747 7.73949 24.5103 5.04357 26.0152 4.47933M30.8595 14.479L8.98447 27.6041C7.47956 28.1683 5.17514 26.3872 3.83744 23.6259C2.49973 20.8645 2.63528 18.1685 4.14021 17.6043L26.0152 4.47933" stroke="#FF9F01" stroke-width="2.1875"/>
<path d="M21.875 19.8438C19.8892 19.0082 15.9298 15.9701 15.9795 10.5017M16.7708 22.8976C15.0694 22.0856 11.5208 19.0731 10.9375 13.5183" stroke="#FF9F01" stroke-width="2.1875"/>
<path d="M22.5019 20.4167C23.3734 22.0649 24.265 26.4139 21.2183 30.625L19.7795 28.56L16.0415 30.3484C16.0415 30.3484 18.7028 27.5433 17.431 23.3334" stroke="#FF9F01" stroke-width="2.1875" stroke-linecap="round" stroke-linejoin="round"/>
</svg>
