<svg width="90" height="117" viewBox="0 0 90 117" fill="none" xmlns="http://www.w3.org/2000/svg">
<path d="M50.5989 95.5645C47.3405 95.5645 44.057 95.2484 40.7874 94.608C27.5498 92.0169 16.1221 84.4314 8.60151 73.2474C1.08096 62.0644 -1.63441 48.621 0.955849 35.3954C3.54611 22.1698 11.1315 10.7439 22.3174 3.22337C23.0968 2.69976 24.1533 2.90643 24.6769 3.68582C25.2005 4.46522 24.9938 5.52078 24.2153 6.04439C13.783 13.058 6.70817 23.7147 4.29214 36.0487C1.87611 48.3838 4.40798 60.9208 11.4225 71.3513C18.4361 81.7819 29.0947 88.8566 41.4408 91.2718C53.786 93.6878 66.323 91.1559 76.7536 84.1414C77.532 83.6177 78.5885 83.8244 79.1131 84.6038C79.6367 85.3823 79.43 86.4388 78.6506 86.9633C70.2293 92.6257 60.5271 95.5645 50.5989 95.5645Z" fill="#FF9F01"/>
<path d="M79.5605 90.0087C79.0128 90.0087 78.4762 89.7454 78.1481 89.258L19.8835 2.64884C19.3599 1.86945 19.5666 0.813877 20.346 0.289338C21.1244 -0.234274 22.1819 -0.027608 22.7064 0.750859L80.9691 87.3609C81.4928 88.1403 81.2861 89.1959 80.5067 89.7204C80.2166 89.9151 79.8867 90.0087 79.5605 90.0087Z" fill="#FF9F01"/>
<path d="M53.1907 93.864H49.7896V104.543H53.1907V93.864Z" fill="#FF9F01"/>
<path d="M89.8065 45.1813C89.8065 67.1017 72.0361 84.8721 50.1148 84.8721C28.175 84.8721 10.4019 67.1017 10.4019 45.1813C10.4019 23.2601 28.175 5.4906 50.1148 5.4906C72.0361 5.4906 89.8065 23.261 89.8065 45.1813Z" fill="white"/>
<path d="M80.6146 19.7827C81.4839 23.2311 81.9472 26.8408 81.9472 30.5599C81.9472 54.8397 62.264 74.5229 37.9712 74.5229C31.37 74.5229 25.1126 73.0679 19.4956 70.4646C26.7771 79.2641 37.7887 84.8719 50.1135 84.8719C72.0347 84.8719 89.8051 67.1015 89.8051 45.1811C89.806 35.5198 86.353 26.6666 80.6146 19.7827Z" fill="#88BBEF" fill-opacity="0.333333"/>
<path d="M89.784 46.4774C86.6007 49.7044 83.2727 53.0833 79.7214 49.772C77.0431 47.2735 78.7344 46.6183 74.8588 46.2634C71.883 45.9909 70.3316 45.6415 69.6968 42.4174C69.1917 39.8512 70.4595 37.6354 68.0472 35.7485C64.9009 33.2889 60.3709 36.0868 57.8381 38.2331C51.9904 43.1875 52.982 52.2974 54.3387 58.9857C55.6519 65.4609 58.8678 70.8509 60.9807 77.0147C61.6332 78.9182 61.9121 81.0674 61.7036 83.1498C77.5769 78.314 89.228 63.7983 89.784 46.4774Z" fill="#FF9F01"/>
<path d="M29.5498 68.2829C30.7759 72.4718 32.3217 71.382 35.0186 73.2345C36.9907 74.5885 37.404 77.6839 39.5568 79.0193C45.6409 82.793 48.12 75.3067 46.0691 70.9353C45.2091 69.1022 44.6669 66.8177 43.6744 65.2339C41.6124 61.9412 38.3131 56.5244 33.5793 57.63C29.3793 58.6105 28.5536 64.8771 29.5498 68.2829Z" fill="#FF9F01"/>
<path d="M43.7589 56.456C47.5076 55.456 45.8839 50.2829 42.6079 49.9205C38.1391 49.4257 39.8035 57.5115 43.7589 56.456Z" fill="#FF9F01"/>
<path d="M73.5613 32.7293C76.7159 33.6134 78.1431 31.3827 78.0783 28.5209C78.0152 25.7444 73.6642 21.0013 70.5151 22.5138C66.8377 24.2801 70.8107 31.9592 73.5613 32.7293Z" fill="#FF9F01"/>
<path d="M10.4026 45.1808C10.4026 51.6217 11.9382 57.703 14.6601 63.0809C17.2151 59.9393 18.975 55.9478 20.2595 52.3205C22.6542 45.5571 22.3799 34.298 30.9838 32.3871C37.0271 31.0452 42.5524 32.1591 46.1908 25.5625C50.1155 18.4432 37.8556 12.045 37.9715 8.10816C37.9798 7.84682 38.0141 7.59566 38.0678 7.35193C22.0231 12.4481 10.4026 27.4568 10.4026 45.1808Z" fill="#FF9F01"/>
<path d="M73.9599 111.63C68.5282 105.421 60.549 101.497 51.6494 101.497C42.7434 101.497 34.7557 105.421 29.3194 111.63H21.2957V117H81.6667V111.63H73.9599Z" fill="#FFCC00"/>
<path d="M21.2957 117H81.6667V111.63H73.9608C71.1528 108.42 67.6627 105.823 63.7175 104.062C63.9177 107.59 61.94 111.739 51.4919 111.679L29.3204 111.63L21.2966 111.727L21.2957 117Z" fill="#FF9F01"/>
</svg>
