<svg width="84" height="117" viewBox="0 0 84 117" fill="none" xmlns="http://www.w3.org/2000/svg">
<path d="M49.6911 46.9809C50.0373 47.084 50.3702 47.1606 50.7046 47.2505C46.4076 59.05 44.4072 72.1842 45.0097 84.1649C42.5217 84.2297 40.0071 84.3446 37.5191 84.5376C38.4294 71.7761 35.1842 57.4487 30.0933 45.3399C32.3633 44.07 34.9161 43.3512 37.7253 43.4926C41.9309 43.6856 45.7403 45.7892 49.6911 46.9809Z" fill="#F6FF60"/>
<path d="M43.8812 2.19288C66.0702 2.8985 85.4382 23.1507 80.6153 45.8659C78.2304 57.0629 71.2525 63.8996 61.9529 69.736C56.6174 73.0829 52.0774 77.598 53.437 84.2299C51.3335 84.14 49.1916 84.1267 47.0365 84.14C47.4475 75.2513 47.9734 66.5423 49.9988 57.8069C50.7943 54.3819 51.8078 51.0468 52.9229 47.7515C56.258 48.3157 59.4899 48.0593 62.6968 46.3402C63.7869 45.7495 62.8117 44.082 61.7216 44.6859C58.964 46.187 56.2447 46.3918 53.5387 45.9823C54.9882 41.865 56.5909 37.8125 58.1686 33.6951C58.3733 33.1692 57.5528 32.8614 57.2832 33.3239C55 37.1083 53.0128 41.2256 51.3452 45.5477C46.2528 44.2646 41.1486 41.5335 35.8381 41.9813C33.5298 42.1743 31.3997 42.905 29.5024 44.0201C28.9249 42.6855 28.3225 41.3774 27.7067 40.1208C27.5653 39.8512 27.1425 40.0442 27.2191 40.3256C27.6684 41.7486 28.1044 43.1731 28.5405 44.5961C26.3854 46.0839 24.603 48.0976 23.3464 50.4959C23.1034 50.9452 23.7309 51.2913 24.0255 50.8803C25.4102 48.9815 27.0777 47.3022 28.9765 46.0324C30.4894 50.9967 31.9138 55.9861 32.9524 61.0904C34.5433 68.9022 34.7863 76.7509 35.7998 84.6143C35.8131 84.6394 35.8264 84.6659 35.8264 84.6791C33.44 84.8972 31.0801 85.1667 28.785 85.4997C29.85 79.1756 28.0279 73.2508 22.9487 69.107C19.1525 66.0032 14.4578 64.4387 10.8665 61.0005C6.82581 57.1263 4.20961 51.8688 3.02967 46.4433C-2.39568 21.6496 20.2809 1.44897 43.8812 2.19288Z" fill="#F6FF60"/>
<path d="M42.3146 107.253C45.3933 107.086 50.7023 107.125 55.0258 106.048C53.6146 111.601 49.0745 115.642 43.085 115.206C37.583 114.808 34.7223 111.165 32.4258 106.778C35.6327 107.662 39.3905 107.419 42.3146 107.253Z" fill="#9BEBFE"/>
<path d="M56.489 94.7597C64.121 104.174 48.0099 104.828 43.4316 105.149C41.4046 105.278 39.2628 105.444 37.2373 105.354C32.7488 105.149 23.9501 101.302 29.6833 95.67C29.7216 95.6185 29.7599 95.5669 29.7864 95.5168C32.877 96.6069 36.9044 96.2224 39.74 96.2224C44.5246 96.2357 52.002 97.5438 56.4787 94.7346C56.4757 94.7479 56.489 94.7597 56.489 94.7597Z" fill="#9BEBFE"/>
<path d="M56.8342 86.4233C61.3875 91.1431 53.4359 94.2086 49.7414 94.4399C47.4449 94.5681 45.1115 94.4532 42.8032 94.4532C40.7512 94.4532 38.711 94.4664 36.6722 94.4532C35.7619 94.4532 34.8633 94.4399 33.9662 94.4281C29.8622 94.8509 28.1563 92.4527 28.8354 87.2453C28.9253 87.1805 28.9886 87.1039 29.0402 87.014C38.1468 87.1289 47.6261 86.8726 56.7061 86.2318C56.7444 86.2952 56.7694 86.3718 56.8342 86.4233Z" fill="#9BEBFE"/>
<path opacity="0.6" d="M40.1616 82.623C41.4638 82.8543 42.7277 83.3919 43.8635 84.208C44.245 84.1963 44.6265 84.1756 45.0066 84.1653C44.955 83.1283 44.9477 82.075 44.9344 81.0217C43.4275 81.7332 41.8365 82.2753 40.1616 82.623Z" fill="#F2CFE0"/>
<path opacity="0.6" d="M29.0709 82.2084C29.0636 83.2882 28.9708 84.3871 28.7837 85.4993C30.1316 85.3033 31.5045 85.1354 32.8892 84.9807C32.9289 84.9424 32.9599 84.8982 32.9982 84.8599C33.8098 84.0792 34.6996 83.5121 35.6232 83.1202C35.6217 83.1055 35.6203 83.0908 35.6188 83.0775C33.5432 83.0716 31.3616 82.7947 29.0709 82.2084Z" fill="#F2CFE0"/>
<path opacity="0.6" d="M56.593 4.80151C70.8878 21.1043 67.6603 66.9988 47.2566 79.7499C47.1756 81.2098 47.1019 82.6711 47.0342 84.1383C49.1893 84.125 51.3312 84.1383 53.4347 84.2282C52.0751 77.5963 56.6151 73.0827 61.9506 69.7343C71.2502 63.8979 78.2267 57.0627 80.6131 45.8642C84.4784 27.6611 72.8028 11.0489 56.593 4.80151Z" fill="#F2CFE0"/>
<path opacity="0.6" d="M48.6705 106.955C47.5671 110.084 45.8598 112.96 43.5972 115.219C49.3304 115.393 53.6554 111.439 55.0253 106.048C53.0116 106.549 50.7873 106.803 48.6705 106.955Z" fill="#9BEBFE"/>
<path opacity="0.6" d="M56.4875 94.7597C56.4875 94.7597 56.4742 94.7479 56.4742 94.7346C54.6697 95.8674 52.3747 96.3256 49.9677 96.4744C50.2343 99.1687 50.0266 101.934 49.377 104.593C55.2914 103.734 61.932 101.477 56.4875 94.7597Z" fill="#9BEBFE"/>
<path opacity="0.6" d="M56.8325 86.4219C56.7677 86.3703 56.7427 86.2937 56.7044 86.2289C53.2986 86.469 49.8324 86.6384 46.356 86.771C48.0412 89.0366 49.1298 91.6617 49.6689 94.4399C49.6925 94.4385 49.7161 94.4385 49.7397 94.437C53.4327 94.2087 61.3858 91.1431 56.8325 86.4219Z" fill="#9BEBFE"/>
<path opacity="0.6" d="M31.1991 87.0184C30.4803 87.0139 29.7526 87.0228 29.0381 87.0125C28.9866 87.1023 28.9232 87.1804 28.8334 87.2437C28.6153 88.9098 28.6698 90.2562 28.9409 91.3463C29.5331 89.7907 30.2784 88.3338 31.1991 87.0184Z" fill="#9BEBFE"/>
<path opacity="0.6" d="M29.0706 82.2085C29.0529 82.2041 29.0367 82.2012 29.0191 82.1967C28.256 82.0008 27.6373 81.6738 27.1394 81.2672C27.2322 82.5208 27.1747 83.8805 26.9243 85.3831C26.8477 85.8972 27.1424 86.2684 27.5136 86.4348C25.5131 87.6266 24.9224 90.0646 26.0258 92.3479C26.1245 92.5541 26.2452 92.7353 26.3601 92.9209C27.0672 92.3155 27.9187 91.8838 28.8055 91.6791C28.8467 91.5656 28.8997 91.4581 28.9439 91.3447C28.6729 90.2546 28.6184 88.9082 28.8364 87.2421C28.9262 87.1788 28.9896 87.1007 29.0412 87.0108C29.7556 87.0197 30.4833 87.0123 31.2022 87.0167C31.7089 86.292 32.2598 85.6011 32.8903 84.9794C31.5071 85.1341 30.1327 85.302 28.7848 85.4979C28.9704 84.3872 29.0632 83.2883 29.0706 82.2085Z" fill="#C4007B"/>
<path opacity="0.6" d="M8.28129 16.0182C6.12617 18.6801 4.31724 21.6322 2.9458 24.8494C4.43214 22.1875 6.09378 19.6347 7.90567 17.179C8.03088 16.7916 8.15313 16.4027 8.28129 16.0182Z" fill="#C4007B"/>
<path opacity="0.6" d="M68.0707 8.33593C63.2538 4.62666 57.8299 2.22993 52.2012 0.998413C53.6139 1.87343 55.0016 3.03276 56.3524 4.5206C56.4349 4.61193 56.513 4.71062 56.594 4.80343C72.8038 11.0508 84.4794 27.663 80.6141 45.8676C78.2291 57.0646 71.2511 63.9013 61.9516 69.7377C56.6161 73.0846 52.076 77.5996 53.4357 84.2315C51.3321 84.1417 49.1903 84.1284 47.0352 84.1417C47.1029 82.673 47.1781 81.2117 47.2576 79.7533C46.5063 80.2232 45.733 80.6475 44.936 81.0246C44.9493 82.0764 44.9566 83.1311 45.0082 84.1682C44.6281 84.177 44.2451 84.1977 43.8651 84.2109C44.5221 84.6823 45.1393 85.2377 45.6917 85.8858C45.9333 86.1701 46.1366 86.478 46.359 86.7756C49.8355 86.643 53.3017 86.4736 56.7074 86.2335C56.7457 86.2968 56.7707 86.3749 56.8355 86.4265C61.3888 91.1463 53.4372 94.2118 49.7427 94.4431C49.7191 94.4446 49.6956 94.4446 49.672 94.446C49.8031 95.1163 49.9018 95.7924 49.9695 96.4774C52.3766 96.3287 54.6716 95.872 56.4761 94.7377C56.4761 94.751 56.4894 94.7627 56.4894 94.7627C61.9339 101.48 55.2947 103.737 49.3788 104.594C49.1829 105.396 48.9443 106.182 48.6717 106.957C50.7886 106.805 53.0129 106.55 55.0266 106.05C53.6566 111.443 49.3317 115.395 43.5985 115.221C43.1285 115.69 42.6395 116.136 42.1254 116.548C42.0193 116.634 41.903 116.7 41.7925 116.78C48.3256 117.942 55.4892 114.427 57.2083 105.895C57.2466 105.703 57.2215 105.522 57.1832 105.369C58.8507 104.715 60.2487 103.83 61.0957 102.56C63.3525 99.1732 60.505 95.5567 57.5809 93.8892C60.1971 91.5028 60.6332 87.7316 58.1319 85.1287C57.9904 84.9872 57.8373 84.9224 57.6826 84.8856C57.5544 84.6425 57.3099 84.4496 56.9387 84.423C56.5542 84.398 56.1432 84.3848 55.7455 84.3597C55.7455 84.2831 55.7587 84.2183 55.7455 84.1417C53.2442 74.0465 69.8149 68.7625 75.2417 62.2087C79.4238 57.1545 82.1681 50.9218 83.1816 44.4578C85.3603 30.6667 79.0113 16.7621 68.0707 8.33593Z" fill="#C4007B"/>
<path d="M23.8543 13.3637C12.5735 22.4233 7.0082 43.0747 17.5982 54.7122C18.5041 55.708 19.8652 54.6253 19.6708 53.5057C17.3153 39.9635 18.0548 28.1271 28.7965 18.306C32.1817 15.2125 27.2837 10.6105 23.8543 13.3637Z" fill="white"/>
<path d="M68.0694 8.33571C79.0099 16.7618 85.3589 30.6664 83.1787 44.4547C82.1653 50.9186 79.4209 57.1528 75.2389 62.207C69.8135 68.7608 53.2428 74.0448 55.7441 84.14C55.7574 84.2166 55.7441 84.2814 55.7441 84.358C56.1418 84.3831 56.5513 84.3963 56.9373 84.4228C57.31 84.4479 57.553 84.6409 57.6812 84.8839C57.8344 84.9222 57.9891 84.987 58.1305 85.127C60.6318 87.7314 60.1958 91.5011 57.5796 93.8875C60.5036 95.5551 63.3511 99.1715 61.0944 102.558C60.2473 103.828 58.8494 104.713 57.1819 105.367C57.2201 105.521 57.2452 105.7 57.2069 105.893C54.1797 120.926 34.2489 120.4 30.6443 106.125C29.3877 105.534 28.2844 104.713 27.4506 103.52C25.462 100.686 25.6682 96.8249 28.6056 95.0159C27.5155 94.4267 26.6169 93.5796 26.0277 92.3481C24.9243 90.0648 25.515 87.6283 27.5155 86.4351C27.1428 86.2686 26.8482 85.8959 26.9262 85.3833C29.401 70.6081 13.8571 68.9523 6.71263 59.769C2.12104 53.8693 -0.110681 46.2887 0.00421931 38.8628C0.538948 5.47643 42.6985 -11.1991 68.0694 8.33571ZM80.6127 45.8659C85.4355 23.1507 66.0675 2.8985 43.8784 2.19288C20.2782 1.44897 -2.39839 21.6511 3.02696 46.4434C4.2069 51.8688 6.8231 57.1278 10.8638 61.0005C14.4551 64.4388 19.1498 66.0032 22.946 69.107C28.0251 73.2494 29.8459 79.1756 28.7823 85.4997C31.0788 85.1667 33.4387 84.8972 35.8236 84.6792C35.8236 84.6659 35.8104 84.6409 35.7971 84.6143C34.7836 76.7524 34.5406 68.9022 32.9497 61.0904C31.9111 55.9861 30.4867 50.9967 28.9738 46.0324C27.075 47.3022 25.4075 48.983 24.0228 50.8803C23.7282 51.2913 23.0992 50.9452 23.3437 50.4959C24.6002 48.0977 26.3827 46.0839 28.5378 44.5961C28.1018 43.1731 27.6657 41.7486 27.2164 40.3256C27.1398 40.0427 27.5626 39.8512 27.704 40.1208C28.3198 41.3774 28.9223 42.6855 29.4997 44.0201C31.3985 42.905 33.5271 42.1728 35.8354 41.9813C41.1459 41.532 46.2501 44.2646 51.3425 45.5477C53.0101 41.2256 54.9987 37.1083 57.2805 33.3239C57.5501 32.8628 58.3706 33.1707 58.1659 33.6951C56.5882 37.8125 54.9855 41.865 53.536 45.9823C56.242 46.3933 58.9613 46.187 61.7189 44.686C62.809 44.0835 63.7842 45.751 62.6941 46.3402C59.4872 48.0593 56.2553 48.3157 52.9202 47.7515C51.8036 51.0483 50.7916 54.3834 49.9961 57.8069C47.9692 66.5423 47.4433 75.2513 47.0338 84.14C49.1889 84.1267 51.3308 84.14 53.4343 84.2299C52.0747 77.598 56.6147 73.0844 61.9502 69.736C71.2498 63.8996 78.2278 57.0629 80.6127 45.8659ZM49.7413 94.4399C53.4358 94.2086 61.3875 91.1431 56.8342 86.4233C56.7694 86.3718 56.7443 86.2951 56.706 86.2303C47.6245 86.8711 38.1467 87.1274 29.0401 87.0125C28.9886 87.1024 28.9252 87.179 28.8353 87.2438C28.1548 92.4512 29.8621 94.8494 33.9661 94.4267C34.8632 94.4399 35.7618 94.4517 36.6721 94.4517C38.7124 94.465 40.7511 94.4517 42.8031 94.4517C45.1099 94.4517 47.4448 94.5681 49.7413 94.4399ZM43.4306 105.149C48.0089 104.828 64.12 104.174 56.488 94.7596C56.488 94.7596 56.4748 94.7463 56.4748 94.7345C51.9981 97.5437 44.5207 96.2356 39.7362 96.2224C36.9019 96.2224 32.8745 96.6068 29.7825 95.5168C29.7575 95.5683 29.7192 95.6199 29.6794 95.67C23.9462 101.3 32.7449 105.148 37.2334 105.354C39.2618 105.444 41.4036 105.278 43.4306 105.149ZM50.7032 47.2506C50.3703 47.1608 50.0359 47.0842 49.6898 46.981C45.739 45.7878 41.9296 43.6842 37.7224 43.4927C34.9133 43.3513 32.3619 44.0702 30.0904 45.34C35.1829 57.4474 38.4281 71.7748 37.5162 84.5377C40.0042 84.3448 42.5188 84.2299 45.0068 84.165C44.4058 72.1858 46.4062 59.0516 50.7032 47.2506ZM55.0252 106.046C50.7032 107.123 45.3928 107.085 42.314 107.251C39.39 107.418 35.6321 107.662 32.4252 106.777C34.7218 111.164 37.581 114.807 43.0845 115.205C49.074 115.641 53.614 111.602 55.0252 106.046Z" fill="#55205A"/>
</svg>
