<svg width="109" height="224" viewBox="0 0 109 224" fill="none" xmlns="http://www.w3.org/2000/svg">
<line x1="-64.57" y1="54.3163" x2="108.547" y2="-38.3227" stroke="#E6E2E2" stroke-width="3"/>
<line x1="-59.8518" y1="63.1333" x2="113.265" y2="-29.5057" stroke="#E6E2E2" stroke-width="3"/>
<line x1="-55.1335" y1="71.9503" x2="117.983" y2="-20.6887" stroke="#E6E2E2" stroke-width="3"/>
<line x1="-50.4157" y1="80.7672" x2="122.701" y2="-11.8718" stroke="#E6E2E2" stroke-width="3"/>
<line x1="-45.6975" y1="89.5842" x2="127.419" y2="-3.0548" stroke="#E6E2E2" stroke-width="3"/>
<line x1="-40.9792" y1="98.4011" x2="132.138" y2="5.76216" stroke="#E6E2E2" stroke-width="3"/>
<line x1="-36.2609" y1="107.218" x2="136.856" y2="14.5791" stroke="#E6E2E2" stroke-width="3"/>
<line x1="-31.5427" y1="116.035" x2="141.574" y2="23.3961" stroke="#E6E2E2" stroke-width="3"/>
<line x1="-26.8244" y1="124.852" x2="146.292" y2="32.2131" stroke="#E6E2E2" stroke-width="3"/>
<line x1="-22.1067" y1="133.669" x2="151.01" y2="41.03" stroke="#E6E2E2" stroke-width="3"/>
<line x1="-17.3884" y1="142.486" x2="155.728" y2="49.847" stroke="#E6E2E2" stroke-width="3"/>
<line x1="-12.6701" y1="151.303" x2="160.447" y2="58.664" stroke="#E6E2E2" stroke-width="3"/>
<line x1="-7.95187" y1="160.12" x2="165.165" y2="67.4809" stroke="#E6E2E2" stroke-width="3"/>
<line x1="-3.2336" y1="168.937" x2="169.883" y2="76.2979" stroke="#E6E2E2" stroke-width="3"/>
<line x1="1.48417" y1="177.754" x2="174.601" y2="85.1149" stroke="#E6E2E2" stroke-width="3"/>
<line x1="6.20243" y1="186.571" x2="179.319" y2="93.9318" stroke="#E6E2E2" stroke-width="3"/>
<line x1="10.9207" y1="195.388" x2="184.037" y2="102.749" stroke="#E6E2E2" stroke-width="3"/>
<line x1="15.639" y1="204.205" x2="188.756" y2="111.566" stroke="#E6E2E2" stroke-width="3"/>
<line x1="20.3572" y1="213.022" x2="193.474" y2="120.383" stroke="#E6E2E2" stroke-width="3"/>
<line x1="25.075" y1="221.839" x2="198.192" y2="129.2" stroke="#E6E2E2" stroke-width="3"/>
</svg>
