<svg width="81" height="117" viewBox="0 0 81 117" fill="none" xmlns="http://www.w3.org/2000/svg">
<path d="M56.5364 116.902L6.05191 108.122C1.97595 107.413 -0.667306 103.039 0.147482 98.3528L15.481 10.119C16.6098 3.62273 22.1043 -0.846494 27.7523 0.135217L72.5404 7.92427C78.1894 8.90699 81.8524 14.969 80.7236 21.4652L65.3901 109.699C64.5763 114.386 60.6124 117.611 56.5364 116.902Z" fill="#287C74"/>
<path d="M74.9982 22.4139L73.5322 30.8484C72.9739 34.0611 69.9156 36.2155 66.7029 35.6549L23.8928 28.2103C21.4312 27.782 19.5927 25.8873 19.1191 23.5784C18.9737 22.8745 18.9586 22.1311 19.0878 21.3787L19.6441 18.1709L19.6754 17.9872L20.5518 12.9463C21.1102 9.73348 24.1684 7.5792 27.3811 8.13974L33.6157 9.22244L55.0788 12.9554L63.9981 14.5067L70.1923 15.5834C73.406 16.1429 75.5555 19.2012 74.9982 22.4139Z" fill="white"/>
<path d="M61.6463 81.9394L57.6097 105.155C57.2796 107.065 55.4622 108.345 53.553 108.011L46.7166 106.823C44.8084 106.491 43.5302 104.673 43.8634 102.763L44.2399 100.597L47.8969 79.5478C48.2281 77.6389 50.0454 76.3603 51.9537 76.6915L57.7259 77.6944L58.79 77.8803C60.6993 78.2126 61.9765 80.0285 61.6463 81.9394Z" fill="white"/>
<path d="M32.0539 41.6855L31.2341 46.4102C30.9019 48.3211 29.0866 49.5998 27.1763 49.2675L20.342 48.0777C19.4525 47.9242 18.7023 47.4485 18.1864 46.793C17.5907 46.0365 17.308 45.0417 17.4857 44.0206L18.3055 39.2959C18.6387 37.386 20.454 36.1083 22.3623 36.4396L24.3715 36.7891L29.1986 37.6284C31.1079 37.9617 32.3851 39.7776 32.0539 41.6855Z" fill="#D3F9D8"/>
<path d="M27.9406 58.9519L27.1208 63.6766C26.7886 65.5875 24.9732 66.8661 23.063 66.5338L16.2287 65.3441C15.3392 65.1905 14.589 64.7148 14.0731 64.0594C13.4774 63.3029 13.1947 62.308 13.3724 61.2869L14.1922 56.5622C14.5254 54.6523 16.3407 53.3747 18.249 53.706L20.2582 54.0554L25.0853 54.8947C26.9946 55.227 28.2718 57.044 27.9406 58.9519Z" fill="#D3F9D8"/>
<path d="M46.1032 62.2065L45.2834 66.9312C44.9512 68.8421 43.1358 70.1208 41.2256 69.7885L34.3913 68.5987C33.5018 68.4452 32.7516 67.9695 32.2357 67.314C31.64 66.5575 31.3573 65.5627 31.535 64.5416L32.3548 59.8169C32.688 57.907 34.5034 56.6293 36.4116 56.9606L38.4208 57.3101L43.2479 58.1494C45.1562 58.4816 46.4344 60.2976 46.1032 62.2065Z" fill="#D3F9D8"/>
<path d="M64.2385 65.2999L63.4186 70.0246C63.0865 71.9355 61.2711 73.2142 59.3608 72.8819L52.5265 71.6921C51.637 71.5386 50.8869 71.0629 50.3709 70.4074C49.7752 69.6509 49.4925 68.6561 49.6702 67.635L50.4911 62.9102C50.8243 61.0003 52.6396 59.7227 54.5478 60.054L56.5571 60.4035L61.3842 61.2427C63.2914 61.575 64.5697 63.391 64.2385 65.2999Z" fill="#D3F9D8"/>
<path d="M25.0632 75.2949L24.2433 80.0196C23.9112 81.9305 22.0958 83.2092 20.1855 82.8769L13.3512 81.6871C12.4617 81.5336 11.7116 81.0579 11.1956 80.4024C10.5999 79.6459 10.3172 78.6511 10.4949 77.63L11.3148 72.9052C11.648 70.9953 13.4633 69.7177 15.3715 70.049L17.3808 70.3984L22.2079 71.2377C24.1171 71.57 25.3943 73.386 25.0632 75.2949Z" fill="#D3F9D8"/>
<path d="M43.384 78.8577L42.5641 83.5825C42.232 85.4934 40.4166 86.772 38.5063 86.4397L31.672 85.25C30.7825 85.0965 30.0324 84.6208 29.5164 83.9653C28.9207 83.2088 28.638 82.214 28.8157 81.1928L29.6356 76.4681C29.9688 74.5582 31.7841 73.2806 33.6923 73.6118L35.7016 73.9613L40.5287 74.8006C42.4379 75.1329 43.7151 76.9489 43.384 78.8577Z" fill="#D3F9D8"/>
<path d="M21.9889 92.5777L21.1691 97.3024C20.837 99.2133 19.0216 100.492 17.1113 100.16L10.277 98.9699C9.38749 98.8164 8.63734 98.3407 8.12141 97.6852C7.52572 96.9287 7.24302 95.9339 7.42071 94.9128L8.24053 90.1881C8.57372 88.2782 10.3891 87.0005 12.2973 87.3318L14.3065 87.6813L19.1336 88.5206C21.0429 88.8529 22.3201 90.6688 21.9889 92.5777Z" fill="#D3F9D8"/>
<path d="M40.6804 95.8288L39.8605 100.554C39.5284 102.464 37.713 103.743 35.8028 103.411L28.9684 102.221C28.0789 102.068 27.3287 101.592 26.8128 100.936C26.2171 100.18 25.9344 99.185 26.1121 98.1639L26.932 93.4392C27.2652 91.5293 29.0805 90.2516 30.9887 90.5829L32.9979 90.9324L37.8251 91.7717C39.7333 92.104 41.0115 93.9199 40.6804 95.8288Z" fill="#D3F9D8"/>
<path d="M50.0092 44.7918L49.1894 49.5166C48.8572 51.4275 47.0419 52.7061 45.1316 52.3738L38.2973 51.1841C37.4078 51.0305 36.6576 50.5548 36.1417 49.8994C35.546 49.1429 35.2633 48.148 35.441 47.1269L36.2608 42.4022C36.594 40.4923 38.4093 39.2147 40.3176 39.5459L42.3268 39.8954L47.1539 40.7347C49.0632 41.067 50.3404 42.8829 50.0092 44.7918Z" fill="#D3F9D8"/>
<path d="M68.0442 47.0294L67.2243 51.7541C66.8922 53.665 65.0768 54.9437 63.1656 54.6114L56.3312 53.4216C55.4417 53.2681 54.6915 52.7924 54.1756 52.1369C53.5799 51.3804 53.2972 50.3856 53.4749 49.3645L54.2948 44.6397C54.6279 42.7298 56.4433 41.4522 58.3515 41.7835L60.3607 42.1329L65.1879 42.9722C67.0971 43.3045 68.3754 45.1205 68.0442 47.0294Z" fill="#D3F9D8"/>
<path d="M66.6423 32.0581L60.4148 31.1855C59.3627 31.038 58.6297 30.0654 58.7772 29.013L60.2553 18.4586C60.4027 17.4062 61.375 16.6729 62.427 16.8204L68.6546 17.693C69.7066 17.8405 70.4396 18.8131 70.2922 19.8655L68.8141 30.4199C68.6667 31.4723 67.6944 32.2056 66.6423 32.0581Z" fill="#287C74"/>
<path d="M60.4802 28.8823L61.7887 19.5379C61.8735 18.9298 62.4359 18.5067 63.0437 18.5915L68.0606 19.2944C68.3999 19.3419 68.6351 19.655 68.5877 19.9944L67.2933 29.2378C67.2004 29.9014 66.5876 30.3629 65.9242 30.27L61.0072 29.5812C60.669 29.5347 60.4327 29.2217 60.4802 28.8823Z" fill="#D3F9D8"/>
<path d="M67.0678 23.6572L62.3865 23.0013L62.1365 24.7867L66.8178 25.4425L67.0678 23.6572Z" fill="#287C74"/>
<path d="M53.9209 30.2191L47.6934 29.3465C46.6413 29.199 45.9083 28.2264 46.0557 27.174L47.5338 16.6196C47.6812 15.5672 48.6535 14.8339 49.7056 14.9814L55.9331 15.854C56.9852 16.0015 57.7182 16.9741 57.5708 18.0265L56.0927 28.5809C55.9442 29.6323 54.973 30.3656 53.9209 30.2191Z" fill="#287C74"/>
<path d="M47.7627 27.0433L49.0712 17.6989C49.156 17.0909 49.7183 16.6677 50.3262 16.7525L55.3431 17.4555C55.6823 17.503 55.9176 17.816 55.8701 18.1554L54.5758 27.3988C54.4829 28.0624 53.87 28.524 53.2067 28.431L48.2897 27.7422C47.9515 27.6958 47.7152 27.3817 47.7627 27.0433Z" fill="#D3F9D8"/>
<path d="M54.3461 21.8191L49.6648 21.1632L49.4148 22.9486L54.0962 23.6044L54.3461 21.8191Z" fill="#287C74"/>
</svg>
