<svg width="82" height="117" viewBox="0 0 82 117" fill="none" xmlns="http://www.w3.org/2000/svg">
<path d="M81.6573 93.1416C81.4057 83.6428 78.9198 73.891 77.1125 64.5219C75.895 58.2156 75.6294 51.8788 74.4347 45.6704C73.648 41.5907 72.447 37.5276 71.4328 33.5026C69.0346 23.9835 66.1432 14.2228 58.824 7.30143C44.0204 -6.69643 19.005 1.28111 7.67987 15.6717C3.78578 20.6232 0.80676 26.1542 0.131904 32.4694C-0.445092 37.867 0.938934 42.2414 2.95715 47.1866C6.28186 55.337 13.4282 62.0385 19.099 68.5418C25.3062 75.6614 28.7516 83.6199 31.859 92.4045C33.1935 96.1765 33.7857 100.55 35.349 104.159C36.9757 107.917 40.8838 111.009 44.2568 113.161C52.8228 118.618 64.4771 118.095 72.902 112.622C77.7137 109.498 79.6416 105.349 81.0549 100.021C81.6675 97.7029 81.7209 95.55 81.6573 93.1416Z" fill="#3685C7"/>
<path d="M51.2128 35.1243C61.0331 15.9678 27.209 4.01615 19.0396 21.5929C16.5104 27.035 17.7826 33.6831 22.5651 37.4666C27.2802 41.1981 36.1283 43.9026 42.1359 42.6405C45.7923 41.8716 49.5949 38.2813 51.2128 35.1243Z" fill="white"/>
<path d="M64.9967 98.0525C69.2899 88.499 49.151 74.1631 44.8692 85.037C42.682 90.5947 46.2685 99.5102 51.8313 101.799C55.4318 103.282 63.2467 101.947 64.9967 98.0525Z" fill="white"/>
<path d="M67.1437 65.8677C70.1177 61.0116 69.5915 49.8237 64.5333 46.335C59.9554 43.1768 53.5564 45.955 51.3501 50.6651C48.6443 56.4439 50.7998 65.6758 56.8684 68.5265C60.6011 70.2778 64.8764 69.5712 67.1437 65.8677Z" fill="white"/>
<path d="M38.2432 66.4604C43.6433 62.0783 33.6742 55.9258 30.0572 54.7604C26.6804 53.6737 23.0418 53.6407 23.6581 58.188C24.1004 61.4492 27.6742 64.5909 30.4118 66.069C32.8786 67.3996 35.8361 68.4138 38.2432 66.4604Z" fill="white"/>
<path d="M42.9668 51.1235C42.771 51.1235 42.5868 51.0015 42.5169 50.8058C41.9793 49.2909 41.8674 47.6425 41.7594 46.0488C41.673 44.7766 41.584 43.4612 41.2739 42.2627C41.1748 41.8789 41.0299 41.5002 40.885 41.1227C40.6728 40.5673 40.4529 39.9941 40.3652 39.3955C40.3271 39.135 40.5075 38.8922 40.7668 38.8541C41.0324 38.8198 41.2701 38.9965 41.3082 39.2557C41.3807 39.7514 41.5726 40.2521 41.7746 40.7821C41.9335 41.1939 42.0898 41.6069 42.1978 42.025C42.5283 43.3099 42.6211 44.6698 42.71 45.9852C42.8181 47.5853 42.921 49.0964 43.4154 50.4868C43.5031 50.7346 43.3734 51.0079 43.1256 51.0956C43.0735 51.1146 43.0189 51.1235 42.9668 51.1235Z" fill="#003BC3"/>
<path d="M55.015 37.3725C54.9336 37.3725 54.8498 37.3509 54.7748 37.3064C53.4606 36.535 52.1605 35.7394 50.8603 34.9425C49.4522 34.0796 48.0427 33.2179 46.6168 32.3867C46.3893 32.2545 46.313 31.9622 46.4452 31.7347C46.5786 31.5085 46.8684 31.4335 47.0972 31.5632C48.5282 32.3982 49.9427 33.2636 51.3585 34.1304C52.6536 34.9235 53.9487 35.7165 55.2577 36.4854C55.4852 36.6189 55.5602 36.9099 55.4268 37.1374C55.3378 37.2886 55.1789 37.3725 55.015 37.3725Z" fill="#003BC3"/>
<path d="M49.5383 22.3006C49.3997 22.3006 49.2612 22.2396 49.1671 22.1227C49.0032 21.9168 49.035 21.6168 49.2409 21.4529C50.6821 20.2964 52.4588 18.3341 53.1222 16.2981C53.2036 16.0477 53.473 15.9117 53.7234 15.993C53.9737 16.0744 54.111 16.3425 54.0284 16.5942C53.4107 18.4929 51.8437 20.5874 49.8382 22.1964C49.748 22.2675 49.6425 22.3006 49.5383 22.3006Z" fill="#003BC3"/>
<path d="M36.3074 16.0249C36.0596 16.0249 35.8499 15.833 35.8321 15.5813C35.7508 14.4273 35.9312 13.2467 36.1066 12.1067C36.2439 11.2043 36.3875 10.2702 36.3926 9.38055C36.3938 9.11874 36.6074 8.90649 36.8692 8.90649H36.8717C37.1348 8.90777 37.347 9.12255 37.3458 9.38563C37.3407 10.3452 37.192 11.3136 37.0496 12.2503C36.8755 13.389 36.7103 14.4668 36.784 15.514C36.8031 15.7771 36.6048 16.0046 36.3417 16.0223C36.3303 16.0236 36.3189 16.0249 36.3074 16.0249Z" fill="#003BC3"/>
<path d="M24.3192 18.9405C24.2022 18.9405 24.0853 18.8986 23.9938 18.8121C23.3405 18.2034 22.7623 17.5654 22.2018 16.9502C21.1902 15.8369 20.2344 14.7833 18.9051 13.9331C18.6839 13.7907 18.6191 13.4959 18.7602 13.2748C18.9025 13.0523 19.1974 12.9888 19.4185 13.1299C20.8534 14.05 21.8981 15.1977 22.9072 16.3084C23.4537 16.9108 24.0192 17.5323 24.6432 18.1157C24.8351 18.2949 24.8466 18.5961 24.6661 18.7893C24.5746 18.8897 24.4462 18.9405 24.3192 18.9405Z" fill="#003BC3"/>
<path d="M21.0119 27.8838C21.0043 27.8838 20.9954 27.8838 20.9877 27.8838C19.6889 27.819 18.3811 27.3246 17.1178 26.8455C15.5215 26.2405 14.013 25.6699 12.5667 25.9063C12.3099 25.9546 12.0621 25.7716 12.0189 25.5123C11.9769 25.2518 12.1523 25.0077 12.4129 24.9645C14.1095 24.6875 15.81 25.3306 17.4546 25.952C18.7052 26.4261 19.8859 26.8722 21.0348 26.9306C21.2978 26.9434 21.4999 27.1683 21.4872 27.4301C21.4745 27.6868 21.2648 27.8838 21.0119 27.8838Z" fill="#003BC3"/>
<path d="M13.231 38.2074C13.1116 38.2074 12.9921 38.1629 12.8993 38.0739C12.71 37.8909 12.7049 37.5897 12.8879 37.4004C14.8337 35.3898 17.439 34.1977 19.958 33.0449C20.685 32.712 21.4043 32.3828 22.0982 32.0384C22.3346 31.9227 22.6193 32.0168 22.7375 32.2532C22.8544 32.4895 22.7591 32.7755 22.5227 32.8924C21.8199 33.2419 21.0917 33.5762 20.3558 33.913C17.9169 35.0301 15.3941 36.1841 13.5742 38.065C13.4801 38.1578 13.3556 38.2074 13.231 38.2074Z" fill="#003BC3"/>
<path d="M20.8927 46.1659C20.8101 46.1659 20.7262 46.1443 20.65 46.0985C20.4238 45.9651 20.3488 45.6715 20.4835 45.4452C20.9728 44.6217 21.3947 43.6062 21.8421 42.5323C22.8131 40.1976 23.9137 37.5529 26.0476 36.4141C26.2814 36.2921 26.5674 36.3785 26.6919 36.6111C26.8152 36.8437 26.7275 37.1322 26.4949 37.2555C24.6623 38.2328 23.6748 40.6043 22.7203 42.8983C22.2602 44.0053 21.8256 45.0487 21.3007 45.932C21.2143 46.082 21.0554 46.1659 20.8927 46.1659Z" fill="#003BC3"/>
<path d="M30.8207 48.6416C30.8003 48.6416 30.78 48.6403 30.7584 48.6378C30.4966 48.6035 30.3136 48.3646 30.3466 48.104C30.658 45.7071 30.8461 43.6927 30.9376 41.7622C30.949 41.5054 30.9427 41.222 30.9363 40.9272C30.9173 40.0591 30.8944 39.078 31.2947 38.3065C31.4167 38.074 31.704 37.985 31.9378 38.1032C32.1717 38.2252 32.2619 38.5124 32.1412 38.7463C31.8527 39.3004 31.873 40.1532 31.8895 40.9056C31.8971 41.2233 31.9035 41.5296 31.8895 41.8066C31.7967 43.7638 31.6074 45.8049 31.2922 48.2273C31.2617 48.4675 31.0571 48.6416 30.8207 48.6416Z" fill="#003BC3"/>
<path d="M42.0286 19.2757C42.002 19.2757 41.9753 19.2744 41.9486 19.2693C41.6893 19.2248 41.5139 18.9795 41.5584 18.7203C41.6525 18.1611 41.9092 17.6768 42.1583 17.2079C42.232 17.0706 42.3044 16.9334 42.3718 16.7948C42.9285 15.6586 43.4101 14.464 43.8778 13.3087C44.1917 12.5309 44.5057 11.7544 44.8437 10.9867C44.9505 10.7453 45.2326 10.6385 45.4716 10.7427C45.7118 10.8482 45.8223 11.1304 45.7156 11.3706C45.3813 12.1293 45.0712 12.8982 44.7624 13.6658C44.2883 14.8363 43.8003 16.0488 43.2284 17.2142C43.156 17.3616 43.0784 17.5078 43.0009 17.654C42.7772 18.0746 42.5675 18.4724 42.4976 18.8791C42.4582 19.1117 42.2574 19.2757 42.0286 19.2757Z" fill="#003BC3"/>
<path d="M52.7886 73.4133C52.6221 73.4133 52.4607 73.3256 52.373 73.1705C52.2433 72.9418 52.3247 72.6507 52.5547 72.5211C53.8371 71.798 54.4064 70.1852 55.0076 68.4771C55.4486 67.2265 55.9048 65.9339 56.6826 65.0074C56.8529 64.8054 57.1529 64.78 57.3537 64.949C57.5558 65.118 57.5812 65.4192 57.4121 65.62C56.7462 66.4144 56.3382 67.5696 55.9061 68.7935C55.2719 70.5919 54.6161 72.4512 53.0211 73.3497C52.9474 73.3942 52.8673 73.4133 52.7886 73.4133Z" fill="#003BC3"/>
<path d="M65.7916 73.7514C65.5628 73.7514 65.362 73.5874 65.3226 73.3535C64.9883 71.3671 63.7378 68.988 61.6064 66.2822C61.4438 66.075 61.4793 65.7764 61.6865 65.6137C61.8937 65.4497 62.1936 65.4866 62.355 65.6937C64.5867 68.5266 65.9021 71.0507 66.2618 73.1972C66.3063 73.4565 66.1309 73.7018 65.8703 73.7463C65.8449 73.7488 65.8182 73.7514 65.7916 73.7514Z" fill="#003BC3"/>
<path d="M72.4016 63.8863C72.1919 63.8863 71.9999 63.7478 71.9415 63.5355C71.8017 63.0221 70.7328 62.3205 66.4359 61.8909L66.1881 61.8655C65.9262 61.8388 65.7369 61.605 65.7623 61.3419C65.789 61.0801 66.0228 60.892 66.2859 60.9161L66.5299 60.9416C69.4225 61.2313 72.4371 61.7346 72.8591 63.2839C72.929 63.5381 72.779 63.7999 72.5248 63.8698C72.4854 63.8799 72.4435 63.8863 72.4016 63.8863Z" fill="#003BC3"/>
<path d="M46.4004 59.1778C46.2187 59.1778 46.0433 59.0723 45.9645 58.8944C45.8577 58.6542 45.9658 58.3721 46.206 58.2653C47.4121 57.7302 48.7287 57.7188 50.0035 57.7086C50.9884 57.701 51.92 57.6934 52.7741 57.457C53.0308 57.3846 53.2901 57.5358 53.36 57.7887C53.4299 58.0429 53.2812 58.3047 53.0283 58.3746C52.0522 58.6453 51.0151 58.6529 50.0098 58.6618C48.7796 58.672 47.6167 58.6822 46.5923 59.1372C46.5313 59.1651 46.4665 59.1778 46.4004 59.1778Z" fill="#003BC3"/>
<path d="M65.119 54.2452C65.0173 54.2452 64.9156 54.2135 64.8292 54.1461C64.6208 53.986 64.5814 53.6873 64.7415 53.4776L65.335 52.7087C66.6352 51.0273 67.8642 49.4399 68.8466 47.6034C68.9699 47.3709 69.2596 47.2832 69.4909 47.4077C69.7235 47.5323 69.8112 47.8208 69.6867 48.0521C68.6674 49.9585 67.3571 51.6526 66.0887 53.2908L65.4977 54.0572C65.4049 54.1804 65.2626 54.2452 65.119 54.2452Z" fill="#003BC3"/>
<path d="M56.8255 50.6591C56.654 50.6591 56.4875 50.5663 56.4023 50.4037C55.5864 48.8481 54.9865 47.0408 54.4057 45.2946C54.2024 44.6845 54.0028 44.0821 53.7969 43.5039C53.7093 43.256 53.8389 42.9828 54.0867 42.8951C54.3371 42.8074 54.6078 42.937 54.6955 43.1849C54.9026 43.7682 55.1047 44.377 55.3093 44.9934C55.8774 46.704 56.4659 48.4731 57.2449 49.9601C57.3669 50.194 57.2767 50.4812 57.0441 50.6032C56.9755 50.6426 56.8993 50.6591 56.8255 50.6591Z" fill="#003BC3"/>
<path d="M41.5795 70.3873C41.4016 70.3873 41.2325 70.2882 41.1499 70.1191C40.3086 68.3805 38.4136 67.1287 36.7411 66.0243L36.2696 65.7116C36.051 65.5655 35.9913 65.2693 36.1374 65.0507C36.2836 64.8321 36.5797 64.7724 36.7983 64.9186L37.266 65.2287C39.0402 66.4017 41.0521 67.7298 42.0065 69.7036C42.1209 69.9412 42.0218 70.2259 41.7854 70.3403C41.7206 70.3721 41.6494 70.3873 41.5795 70.3873Z" fill="#003BC3"/>
<path d="M27.1244 68.7059C26.9808 68.7059 26.8384 68.641 26.7444 68.519C26.5842 68.3093 26.6249 68.0107 26.8346 67.8505C27.5743 67.2875 28.0738 66.5262 28.6025 65.7218C29.0841 64.9884 29.5823 64.2297 30.2839 63.6133C30.4809 63.4379 30.7833 63.4583 30.9562 63.6565C31.1303 63.8535 31.1112 64.1547 30.913 64.3288C30.3093 64.8613 29.867 65.5336 29.3993 66.2454C28.849 67.0816 28.2809 67.9471 27.4129 68.6093C27.3277 68.6741 27.2261 68.7059 27.1244 68.7059Z" fill="#003BC3"/>
<path d="M32.2782 59.0659C32.202 59.0659 32.1232 59.0469 32.052 59.0087C31.8207 58.8829 31.7343 58.5944 31.8601 58.3631C32.2909 57.5675 32.6125 56.6626 32.9518 55.7044C33.5644 53.9797 34.196 52.1966 35.5445 50.9549C35.7376 50.777 36.0401 50.7897 36.218 50.9829C36.396 51.1761 36.3833 51.4786 36.1901 51.6565C35.0158 52.738 34.4235 54.408 33.8516 56.0234C33.5148 56.9753 33.1653 57.9577 32.6989 58.8181C32.6112 58.9757 32.4472 59.0659 32.2782 59.0659Z" fill="#003BC3"/>
<path d="M27.5722 58.9529C27.4591 58.9529 27.3459 58.9135 27.2557 58.8321C26.5847 58.2361 25.8946 57.654 25.2032 57.0706C23.7594 55.8518 22.2674 54.5923 20.9482 53.2007C20.7677 53.0101 20.7753 52.7076 20.9672 52.5271C21.1566 52.3466 21.4591 52.353 21.6408 52.5462C22.9219 53.8997 24.3949 55.1427 25.817 56.3437C26.5148 56.9321 27.2112 57.5205 27.8874 58.1217C28.0844 58.2971 28.1021 58.597 27.9268 58.794C27.834 58.8995 27.7031 58.9529 27.5722 58.9529Z" fill="#003BC3"/>
<path d="M22.6382 64.0249C22.5047 64.0249 22.3687 64.0147 22.2302 63.9931C21.9697 63.9524 21.7917 63.7097 21.8311 63.4491C21.8718 63.1886 22.1196 63.0107 22.3751 63.0513C23.3918 63.2089 24.3285 62.4286 25.3223 61.6025C26.0214 61.0217 26.7458 60.4218 27.5299 60.1562C27.7752 60.0698 28.0497 60.2057 28.1336 60.4548C28.2175 60.7039 28.084 60.9746 27.8349 61.0585C27.2173 61.267 26.592 61.7868 25.9298 62.3358C24.9728 63.1314 23.8977 64.0249 22.6382 64.0249Z" fill="#003BC3"/>
<path d="M36.3106 62.5409C36.2763 62.5409 36.2407 62.537 36.2051 62.5294C35.9484 62.4722 35.787 62.2168 35.8455 61.9601C36.1632 60.5506 40.2174 59.3585 41.501 59.4602C41.7641 59.4792 41.9611 59.708 41.942 59.9698C41.923 60.2329 41.7006 60.4235 41.4324 60.4108C40.1729 60.318 36.9156 61.5521 36.7758 62.1697C36.7262 62.3909 36.5292 62.5409 36.3106 62.5409Z" fill="#003BC3"/>
<path d="M34.187 72.9656C33.9989 72.9656 33.8197 72.8525 33.7447 72.6669C33.1347 71.1444 33.1156 69.3816 33.0991 67.6773C33.089 66.644 33.0788 65.668 32.9326 64.8368C32.8869 64.5775 33.0597 64.331 33.319 64.2852C33.5795 64.242 33.8248 64.4136 33.8706 64.6716C34.0307 65.579 34.0409 66.5932 34.0523 67.6671C34.0688 69.2837 34.0854 70.955 34.6293 72.3111C34.7272 72.5551 34.609 72.8334 34.365 72.9313C34.3052 72.9541 34.2455 72.9656 34.187 72.9656Z" fill="#003BC3"/>
<path d="M48.8641 86.7516C48.7446 86.7516 48.6252 86.7071 48.5324 86.6181C47.7279 85.839 47.0226 84.9341 46.3413 84.0585C45.3996 82.8486 44.4248 81.598 43.206 80.7223C42.9925 80.5686 42.9442 80.2699 43.098 80.0564C43.2505 79.8429 43.5491 79.7946 43.7627 79.9471C45.0933 80.9041 46.11 82.2093 47.0937 83.4713C47.7559 84.3216 48.4396 85.1985 49.1958 85.9318C49.3852 86.1148 49.3903 86.4173 49.2073 86.6054C49.1132 86.7033 48.9887 86.7516 48.8641 86.7516Z" fill="#003BC3"/>
<path d="M65.5639 104.91C65.4737 104.91 65.3834 104.885 65.3021 104.832C64.0756 104.024 63.1314 102.82 62.2176 101.655C61.4639 100.696 60.6861 99.7034 59.7749 98.979C59.569 98.815 59.5347 98.5151 59.6986 98.3092C59.8626 98.1033 60.1638 98.069 60.3684 98.2329C61.3673 99.026 62.1807 100.063 62.9674 101.067C63.8736 102.222 64.7302 103.314 65.827 104.036C66.0468 104.181 66.1078 104.476 65.963 104.696C65.8702 104.834 65.7189 104.91 65.5639 104.91Z" fill="#003BC3"/>
<path d="M57.157 89.6646C57.0439 89.6646 56.9308 89.6252 56.8406 89.5438C56.6436 89.3684 56.6258 89.0672 56.8012 88.8715C58.3263 87.1558 59.6201 85.0905 60.8719 82.3771C60.9825 82.1382 61.2659 82.0353 61.5048 82.1446C61.7438 82.2539 61.848 82.5373 61.7374 82.7775C60.4449 85.5786 59.1028 87.7175 57.5142 89.5057C57.4188 89.6112 57.2879 89.6646 57.157 89.6646Z" fill="#003BC3"/>
<path d="M41.9111 100.762C41.6875 100.762 41.4879 100.604 41.4434 100.376C41.3939 100.118 41.5629 99.8672 41.8209 99.8176C43.116 99.5685 44.0145 98.5149 44.9677 97.3991C45.8167 96.4052 46.6936 95.377 47.9048 94.9106C48.1501 94.8178 48.4259 94.9386 48.5212 95.1839C48.6152 95.4291 48.4932 95.7049 48.2479 95.8003C47.2617 96.179 46.5004 97.0724 45.6921 98.018C44.6754 99.2101 43.6231 100.442 42.0014 100.754C41.9709 100.759 41.9416 100.762 41.9111 100.762Z" fill="#003BC3"/>
<path d="M46.8208 90.4799C45.832 90.4799 44.8255 90.3833 43.8342 90.288C42.7247 90.1812 41.6787 90.0758 40.6963 90.1152C40.3951 90.1215 40.2133 89.9169 40.2032 89.6551C40.1943 89.392 40.4001 89.1721 40.6632 89.162C41.7079 89.1289 42.834 89.2344 43.9244 89.3399C45.9223 89.5318 47.9913 89.7301 49.6994 89.0806C49.9435 88.9866 50.2205 89.1099 50.3146 89.3564C50.4086 89.603 50.2841 89.8775 50.0388 89.9715C49.0233 90.3566 47.9341 90.4799 46.8208 90.4799Z" fill="#003BC3"/>
<path d="M53.5688 85.6308C53.5447 85.6308 53.5193 85.6295 53.4951 85.6257C53.2346 85.585 53.0567 85.341 53.0973 85.0817C53.246 84.1285 53.3007 83.1334 53.3515 82.1701C53.41 81.0974 53.4697 79.9879 53.6604 78.9064C53.7061 78.6471 53.9527 78.473 54.2119 78.52C54.4712 78.5658 54.644 78.8123 54.5983 79.0716C54.4178 80.0972 54.3594 81.1775 54.3034 82.2222C54.2501 83.2084 54.1954 84.229 54.0391 85.2292C54.0035 85.463 53.8002 85.6308 53.5688 85.6308Z" fill="#003BC3"/>
<path d="M53.3451 106.703C53.1964 106.703 53.0503 106.635 52.9575 106.505C51.5595 104.558 52.0043 100.274 52.9118 98.2936C53.0211 98.0534 53.3045 97.9492 53.5434 98.0585C53.7823 98.1678 53.8878 98.4512 53.7785 98.6901C52.9728 100.448 52.5902 104.357 53.7328 105.948C53.8865 106.162 53.837 106.459 53.6235 106.613C53.5383 106.674 53.4417 106.703 53.3451 106.703Z" fill="#003BC3"/>
<path d="M61.4194 93.1404C61.2136 93.1404 61.0229 93.0069 60.9619 92.7985C60.8869 92.5456 61.0318 92.2812 61.2835 92.2062L62.2112 91.9279C64.2383 91.3153 66.1536 90.7358 68.4781 90.7281C68.7412 90.7281 68.956 90.9404 68.956 91.2022C68.9572 91.4666 68.745 91.6801 68.4819 91.6813C66.296 91.689 64.5307 92.2227 62.487 92.8404L61.5542 93.1213C61.5097 93.134 61.4639 93.1404 61.4194 93.1404Z" fill="#003BC3"/>
</svg>
