<svg width="128" height="117" viewBox="0 0 128 117" fill="none" xmlns="http://www.w3.org/2000/svg">
<path d="M40.7574 1.82349C43.9535 6.80352 46.4678 12.0693 48.3667 17.6686C43.0448 19.3971 37.8206 18.9396 32.5576 17.102C35.7011 12.3025 38.2455 6.99154 40.7574 1.82349Z" fill="#9BEBFE"/>
<path d="M48.3067 19.0059C48.3155 19.9573 48.313 20.9287 48.3217 21.8801C48.3142 21.8851 48.3054 21.8914 48.2916 21.8889C42.8933 24.1313 37.723 23.3341 32.6279 20.8234C32.638 19.847 32.6292 18.8592 32.6329 17.8752C37.4949 20.3371 43.2029 20.5138 48.3067 19.0059Z" fill="#9BEBFE"/>
<path d="M48.3282 22.9306C48.3295 23.4019 48.3257 23.8657 48.327 24.337C43.1028 26.5569 37.8661 26.1319 32.6382 24.1377C32.6457 23.2966 32.6332 22.4442 32.6407 21.6031C37.1968 24.6127 43.4199 24.8133 48.3282 22.9306Z" fill="#FDFDF7"/>
<path d="M48.3291 25.4011C48.3316 27.1084 48.3391 28.8244 48.3416 30.5303C41.0531 28.5599 34.1957 33.931 34.1218 41.507L32.7644 41.4994C32.6854 35.9064 32.6428 30.2997 32.649 24.7092C37.4082 27.4618 43.3744 27.4255 48.3291 25.4011Z" fill="#9BEBFE"/>
<path d="M35.3652 41.1924C35.6146 34.43 41.8127 29.6906 48.3366 31.7588C48.3404 38.1791 48.3717 44.6056 48.5146 51.0397C41.7939 55.2376 35.1157 48.3548 35.3652 41.1924Z" fill="#FDFDF7"/>
<path d="M34.1467 42.3267C34.5089 48.7332 42.8064 57.7457 48.5432 52.159C48.5582 53.0326 48.5683 53.8988 48.5996 54.7624C43.6925 57.6028 38.4471 57.5827 33.1615 55.7489C33.0988 51.2226 32.8519 46.6888 32.7729 42.2102C32.7654 41.9733 32.7717 41.7389 32.7642 41.502L34.1216 41.5095C34.1304 41.7815 34.1329 42.046 34.1467 42.3267Z" fill="#9BEBFE"/>
<path d="M48.6362 55.9984C48.6613 56.6602 48.6776 57.3271 48.7077 57.9977C46.0467 59.2436 43.5763 60.3003 40.5781 60.4796C37.9247 60.6425 35.6385 60.0208 33.1755 59.3502C33.1906 58.3462 33.1781 57.3371 33.1655 56.3281C37.9535 58.998 43.9824 58.5668 48.6362 55.9984Z" fill="#FDFDF7"/>
<path d="M48.7376 58.825C48.8128 60.6036 48.8955 62.3773 49.0058 64.1559C48.9757 64.1647 48.9544 64.1673 48.9356 64.1923C44.1953 68.0944 38.377 68.0167 33.2142 64.814C33.1252 64.7539 33.035 64.7426 32.9473 64.7539C33.0714 63.1783 33.1252 61.5901 33.1616 59.9907C37.8656 62.2933 44.5938 61.6528 48.7376 58.825Z" fill="#9BEBFE"/>
<path opacity="0.6" d="M40.1332 0.334447C39.316 2.01159 38.4524 3.66867 37.5763 5.31824C37.7806 5.90611 37.9811 6.49272 38.1804 7.07809C39.0578 5.327 39.9114 3.56714 40.7587 1.82231C43.9548 6.80234 46.4692 12.0682 48.3681 17.6674C46.1521 18.3881 43.9523 18.709 41.7589 18.7291C41.8679 19.1377 41.9695 19.5464 42.0747 19.955C44.1867 19.9211 46.2937 19.6002 48.3079 19.0048C48.3167 19.9562 48.3154 20.9277 48.3229 21.8791C48.3142 21.8841 48.3066 21.8903 48.2929 21.8878C46.4529 22.6524 44.6417 23.0385 42.8481 23.1488C42.9195 23.4622 42.9947 23.7743 43.0624 24.0877C44.8899 23.9523 46.6835 23.5612 48.328 22.9295C48.3292 23.4008 48.3254 23.8646 48.3267 24.3359C46.681 25.0353 45.034 25.4452 43.3871 25.6532C43.456 25.9917 43.5274 26.3301 43.5939 26.6698C45.2245 26.4442 46.8239 26.0155 48.3292 25.4013C48.3317 27.1085 48.3392 28.8233 48.3417 30.5305C46.9279 30.1482 45.5329 30.0492 44.198 30.182C44.2569 30.5618 44.3183 30.9404 44.3735 31.3214C45.6482 31.2074 46.9831 31.329 48.3367 31.7577C48.3405 38.1779 48.3718 44.6044 48.5147 51.0385C47.1698 51.8783 45.8299 52.2581 44.5439 52.2982C44.4499 52.8322 44.3421 53.3662 44.2231 53.8951C45.7134 53.9678 47.1986 53.4677 48.5423 52.1591C48.5573 53.0328 48.5674 53.8989 48.5987 54.7626C46.9141 55.7378 45.1894 56.3682 43.4384 56.7117C43.2943 57.1316 43.1376 57.5377 42.9722 57.9338C44.9613 57.6217 46.8953 56.9599 48.6363 55.9985C48.6614 56.6603 48.6776 57.3271 48.7077 57.9978C46.3726 59.092 44.1842 60.0384 41.6586 60.3743C41.4142 60.724 41.1548 61.0487 40.8778 61.347C43.7643 61.159 46.597 60.2866 48.7391 58.825C48.8143 60.6037 48.897 62.3774 49.0073 64.156C48.9772 64.1648 48.9559 64.1674 48.9371 64.1924C44.1967 68.0932 38.3785 68.0168 33.2157 64.8141C33.1267 64.754 33.0365 64.7427 32.9487 64.754C33.0089 63.9793 33.0528 63.2009 33.0866 62.42C32.7595 62.2708 32.4236 62.1003 32.0776 61.9086C32.2055 62.8737 32.3459 63.8351 32.5 64.7928C32.5151 64.8668 32.5577 64.9119 32.6153 64.9445C32.4562 65.1626 32.4211 65.4772 32.6717 65.6702C37.7931 69.749 44.8498 69.2965 49.6979 65.3092C49.9561 65.0962 49.9824 64.7878 49.8922 64.5346C49.8947 64.5208 49.8972 64.507 49.8997 64.4932C50.5891 49.1784 49.9912 33.698 49.8884 18.3531C49.8897 18.1462 49.8095 17.9946 49.7092 17.8817C47.6737 11.6119 44.8222 5.76573 41.1635 0.264253C40.9116 -0.124322 40.3325 -0.0679165 40.1332 0.334447Z" fill="#C4007B"/>
<path opacity="0.6" d="M38.1792 7.07805C39.5103 10.9939 40.7261 14.8583 41.7576 18.729C43.9511 18.709 46.1496 18.3881 48.3668 17.6674C46.4679 12.0681 43.9549 6.8023 40.7574 1.82227C39.9101 3.56709 39.0566 5.32696 38.1792 7.07805Z" fill="#9BEBFE"/>
<path opacity="0.6" d="M42.0737 19.9548C42.3457 21.0177 42.6052 22.0819 42.8471 23.1486C44.6407 23.0383 46.4519 22.651 48.2918 21.8876C48.3056 21.8901 48.3132 21.8851 48.3219 21.8788C48.3132 20.9275 48.3157 19.9573 48.3069 19.0046C46.2939 19.6 44.1857 19.9209 42.0737 19.9548Z" fill="#9BEBFE"/>
<path opacity="0.6" d="M43.3871 25.6545C45.0341 25.4464 46.6811 25.0365 48.3268 24.3371C48.3255 23.8658 48.3293 23.402 48.328 22.9307C46.6836 23.5612 44.89 23.9522 43.0625 24.0889C43.1766 24.6091 43.2806 25.1318 43.3871 25.6545Z" fill="#FDFDF7"/>
<path opacity="0.6" d="M44.1979 30.1831C45.5328 30.0502 46.9278 30.1492 48.3416 30.5315C48.3391 28.8243 48.3316 27.1083 48.3291 25.4023C46.8238 26.0178 45.2232 26.4465 43.5938 26.6709C43.8181 27.8353 44.0161 29.0073 44.1979 30.1831Z" fill="#9BEBFE"/>
<path opacity="0.6" d="M44.3735 31.3226C45.004 35.7348 45.3236 40.236 45.2359 44.9139C45.1983 46.9295 45.019 49.6094 44.544 52.2981C45.83 52.2592 47.1699 51.8794 48.5148 51.0384C48.3719 44.6043 48.3405 38.1778 48.3368 31.7575C46.9831 31.3301 45.6482 31.2085 44.3735 31.3226Z" fill="#FDFDF7"/>
<path opacity="0.6" d="M44.2231 53.895C44.0063 54.8602 43.7481 55.8078 43.4385 56.7103C45.1907 56.3668 46.9154 55.7364 48.5987 54.7612C48.5674 53.8975 48.5574 53.0326 48.5423 52.1577C47.1987 53.4688 45.7146 53.9677 44.2231 53.895Z" fill="#9BEBFE"/>
<path opacity="0.6" d="M41.6572 60.3743C44.1828 60.0371 46.3725 59.0907 48.7063 57.9977C48.6763 57.3271 48.66 56.6602 48.6349 55.9984C46.8939 56.9598 44.9599 57.6217 42.9708 57.9338C42.596 58.8275 42.1611 59.651 41.6572 60.3743Z" fill="#FDFDF7"/>
<path opacity="0.6" d="M33.0851 62.4187C33.0513 63.1996 33.0087 63.978 32.9473 64.7527C33.035 64.7414 33.1252 64.7527 33.2142 64.8128C38.377 68.0154 44.1953 68.0919 48.9356 64.1911C48.9544 64.166 48.9757 64.1635 49.0058 64.1548C48.8955 62.3761 48.8128 60.6024 48.7376 58.8237C46.5955 60.2853 43.7628 61.1577 40.8763 61.3457C39.0801 63.2773 36.5733 64.0106 33.0851 62.4187Z" fill="#9BEBFE"/>
<path d="M38.0372 13.5233C35.5592 15.6316 35.5116 18.8029 35.3512 21.9002C35.1343 26.0705 34.7947 30.311 35.3311 34.4788C35.4001 35.0102 36.2611 35.3111 36.4542 34.7031C37.4205 31.661 37.9106 28.4922 38.323 25.3184C38.7015 22.4066 38.5273 18.4958 40.3397 16.0942C41.4327 14.6477 39.5814 12.2109 38.0372 13.5233Z" fill="white"/>
<path d="M40.1338 0.334416C40.3331 -0.0692008 40.9121 -0.124352 41.1641 0.261717C44.8228 5.76319 47.6742 11.6094 49.7098 17.8792C49.81 17.992 49.8902 18.1437 49.889 18.3505C49.9918 33.6955 50.5896 49.1758 49.9003 64.4907C49.8978 64.5045 49.8953 64.5183 49.8927 64.5321C49.983 64.7853 49.9567 65.0949 49.6985 65.3067C44.8503 69.294 37.7924 69.7477 32.6723 65.669C32.4216 65.4759 32.4567 65.1613 32.6159 64.9432C32.5582 64.9106 32.5156 64.8655 32.5006 64.7915C30.0577 49.6496 31.0316 33.4135 31.1131 18.1475C31.0479 18.0346 31.0341 17.9106 31.0868 17.7777C31.1081 17.7388 31.1294 17.7 31.1494 17.6624C31.1783 17.5821 31.2121 17.5107 31.2522 17.4468C33.9971 11.6482 37.3224 6.10664 40.1338 0.334416ZM48.3674 17.6686C46.4685 12.0694 43.9554 6.80355 40.758 1.82352C38.2462 6.99157 35.7018 12.3038 32.5582 17.1021C37.8213 18.9397 43.0454 19.3972 48.3674 17.6686ZM48.3222 21.8803C48.3135 20.9289 48.316 19.9575 48.3072 19.0061C43.2034 20.514 37.4941 20.3385 32.6347 17.8742C32.6309 18.8582 32.6397 19.8459 32.6297 20.8224C37.7235 23.3331 42.895 24.1303 48.2934 21.8878C48.3059 21.8903 48.3147 21.8853 48.3222 21.8803ZM48.3273 24.3371C48.326 23.8658 48.3298 23.402 48.3285 22.9307C43.4202 24.8134 37.1983 24.6128 32.641 21.6033C32.6334 22.4443 32.646 23.2967 32.6385 24.1378C37.8664 26.132 43.1031 26.557 48.3273 24.3371ZM48.3423 30.5317C48.3398 28.8245 48.3323 27.1098 48.3298 25.4025C43.3751 27.4269 37.4089 27.462 32.6497 24.7119C32.6447 30.3023 32.6861 35.9091 32.765 41.5021C32.7726 41.739 32.7663 41.9734 32.7738 42.2103C32.8528 46.6889 33.0985 51.2227 33.1624 55.749C38.448 57.5828 43.6934 57.6029 48.6005 54.7625C48.5692 53.8989 48.5591 53.0327 48.5441 52.1591C42.8073 57.747 34.5098 48.7333 34.1476 42.3269C34.1338 42.0461 34.1313 41.7803 34.1225 41.5083C34.1964 33.9324 41.0538 28.5613 48.3423 30.5317ZM48.3373 31.7589C41.8133 29.6919 35.6153 34.43 35.3659 41.1925C35.1164 48.3548 41.7945 55.2376 48.5153 51.0385C48.3724 44.6057 48.341 38.1791 48.3373 31.7589ZM48.7083 57.9977C48.6782 57.3271 48.6619 56.6603 48.6368 55.9984C43.9842 58.5681 37.9541 58.998 33.1661 56.3281C33.1787 57.3371 33.1912 58.3475 33.1762 59.3502C35.6391 60.0208 37.9253 60.6413 40.5787 60.4796C43.5756 60.3004 46.0473 59.2437 48.7083 57.9977ZM49.0066 64.156C48.8963 62.3773 48.8136 60.6037 48.7384 58.825C44.5946 61.6528 37.8664 62.2946 33.1624 59.9907C33.1273 61.5902 33.0721 63.1783 32.9481 64.7539C33.0358 64.7427 33.126 64.7539 33.215 64.8141C38.3778 68.0167 44.196 68.0932 48.9364 64.1924C48.9552 64.1661 48.9765 64.1635 49.0066 64.156Z" fill="#55205A"/>
<path d="M65.5777 1.82349C68.7738 6.80352 71.2882 12.0693 73.187 17.6686C67.8664 19.3971 62.6422 18.9396 57.3779 17.102C60.5202 12.3025 63.0659 6.99154 65.5777 1.82349Z" fill="#F6FF60"/>
<path d="M73.1275 19.0059C73.1363 19.9573 73.1338 20.9287 73.1425 21.8801C73.135 21.8851 73.1262 21.8914 73.1125 21.8889C67.7141 24.1313 62.5425 23.3341 57.4487 20.8234C57.4588 19.847 57.4487 18.8592 57.4538 17.8752C62.3144 20.3371 68.0224 20.5138 73.1275 19.0059Z" fill="#F6FF60"/>
<path d="M73.1471 22.9306C73.1483 23.4019 73.1446 23.8657 73.1458 24.337C67.9217 26.5569 62.685 26.1319 57.457 24.1377C57.4646 23.2966 57.452 22.4442 57.4595 21.6031C62.0169 24.6127 68.2388 24.8133 73.1471 22.9306Z" fill="#FDFDF7"/>
<path d="M73.1489 25.4011C73.1514 27.1084 73.1589 28.8244 73.1614 30.5303C65.8729 28.5599 59.0156 33.931 58.9416 41.507L57.5842 41.4994C57.5052 35.9064 57.4626 30.2997 57.4689 24.7092C62.2293 27.4618 68.1954 27.4255 73.1489 25.4011Z" fill="#F6FF60"/>
<path d="M60.186 41.1924C60.4354 34.43 66.6335 29.6906 73.1574 31.7588C73.1612 38.1791 73.1925 44.6056 73.3354 51.0397C66.6147 55.2376 59.9365 48.3548 60.186 41.1924Z" fill="#FDFDF7"/>
<path d="M58.9665 42.3267C59.3287 48.7332 67.6262 57.7457 73.363 52.159C73.3781 53.0326 73.3881 53.8988 73.4194 54.7624C68.5124 57.6028 63.2669 57.5827 57.9813 55.7489C57.9186 51.2226 57.6717 46.6888 57.5928 42.2102C57.5852 41.9733 57.5915 41.7389 57.584 41.502L58.9414 41.5095C58.9502 41.7815 58.9527 42.046 58.9665 42.3267Z" fill="#F6FF60"/>
<path d="M73.4556 55.9984C73.4806 56.6602 73.4969 57.3271 73.527 57.9977C70.866 59.2436 68.3956 60.3003 65.3975 60.4796C62.744 60.6425 60.4578 60.0208 57.9949 59.3502C58.0099 58.3462 57.9974 57.3371 57.9849 56.3281C62.7741 58.998 68.803 58.5668 73.4556 55.9984Z" fill="#FDFDF7"/>
<path d="M73.5584 58.825C73.6336 60.6036 73.7163 62.3773 73.8266 64.1559C73.7965 64.1647 73.7752 64.1673 73.7564 64.1923C69.0161 68.0944 63.1978 68.0167 58.035 64.814C57.946 64.7539 57.8558 64.7426 57.7681 64.7539C57.8922 63.1783 57.946 61.5901 57.9824 59.9907C62.6851 62.2933 69.4134 61.6528 73.5584 58.825Z" fill="#F6FF60"/>
<path opacity="0.6" d="M64.954 0.334447C64.1368 2.01159 63.2732 3.66867 62.3971 5.31824C62.6014 5.90611 62.8019 6.49272 63.0012 7.07809C63.8786 5.327 64.7322 3.56714 65.5795 1.82231C68.7769 6.80234 71.29 12.0682 73.1889 17.6674C70.9729 18.3881 68.7731 18.709 66.5797 18.7291C66.6887 19.1377 66.7903 19.5464 66.8955 19.955C69.0075 19.9211 71.1145 19.6002 73.1287 19.0048C73.1375 19.9562 73.1362 20.9277 73.1437 21.8791C73.1362 21.8841 73.1274 21.8903 73.1137 21.8878C71.2737 22.6524 69.4625 23.0385 67.6689 23.1488C67.7403 23.4622 67.8143 23.7743 67.8832 24.0877C69.7107 23.9523 71.5043 23.5612 73.1488 22.9295C73.15 23.4008 73.1462 23.8646 73.1475 24.3359C71.5018 25.0353 69.8548 25.4452 68.2078 25.6532C68.2768 25.9917 68.3482 26.3301 68.4147 26.6698C70.0453 26.4442 71.6447 26.0155 73.15 25.4013C73.1525 27.1085 73.16 28.8233 73.1625 30.5305C71.7487 30.1482 70.3537 30.0492 69.0188 30.182C69.0777 30.5618 69.1391 30.9404 69.1943 31.3214C70.469 31.2074 71.8039 31.329 73.1575 31.7577C73.1613 38.1779 73.1926 44.6044 73.3355 51.0385C71.9906 51.8783 70.6507 52.2581 69.3647 52.2982C69.2707 52.8322 69.1629 53.3662 69.0439 53.8951C70.5342 53.9678 72.0194 53.4677 73.3631 52.1591C73.3781 53.0328 73.3882 53.8989 73.4195 54.7626C71.7349 55.7378 70.0102 56.3682 68.2592 56.7117C68.1151 57.1316 67.9584 57.5377 67.793 57.9338C69.7821 57.6217 71.7161 56.9599 73.4571 55.9985C73.4822 56.6603 73.4984 57.3271 73.5285 57.9978C71.1934 59.092 69.005 60.0384 66.4794 60.3743C66.235 60.724 65.9755 61.0487 65.6985 61.347C68.5851 61.159 71.4178 60.2866 73.5599 58.825C73.6351 60.6037 73.7178 62.3774 73.8281 64.156C73.798 64.1648 73.7767 64.1674 73.7579 64.1924C69.0175 68.0932 63.1993 68.0168 58.0365 64.8141C57.9475 64.754 57.8573 64.7427 57.7695 64.754C57.8297 63.9793 57.8736 63.2009 57.9074 62.42C57.5803 62.2708 57.2431 62.1003 56.8984 61.9086C57.0263 62.8737 57.1667 63.8351 57.3208 64.7928C57.3359 64.8668 57.3785 64.9119 57.4361 64.9445C57.277 65.1626 57.2419 65.4772 57.4925 65.6702C62.6139 69.749 69.6706 69.2965 74.5187 65.3092C74.7769 65.0962 74.8032 64.7878 74.713 64.5346C74.7155 64.5208 74.718 64.507 74.7205 64.4932C75.4099 49.1784 74.812 33.698 74.7092 18.3531C74.7105 18.1462 74.6303 17.9946 74.53 17.8817C72.4945 11.6119 69.643 5.76573 65.9843 0.264253C65.7324 -0.124322 65.1533 -0.0679165 64.954 0.334447Z" fill="#C4007B"/>
<path opacity="0.6" d="M62.9995 7.07805C64.3306 10.9939 65.5464 14.8583 66.578 18.729C68.7702 18.709 70.9699 18.3881 73.1871 17.6674C71.2882 12.0681 68.7752 6.8023 65.5778 1.82227C64.7292 3.56709 63.8756 5.32696 62.9995 7.07805Z" fill="#F6FF60"/>
<path opacity="0.6" d="M66.8945 19.9548C67.1665 21.0177 67.426 22.0819 67.6679 23.1486C69.4602 23.0383 71.2727 22.651 73.1126 21.8876C73.1264 21.8901 73.134 21.8851 73.1427 21.8788C73.134 20.9275 73.1365 19.9573 73.1277 19.0046C71.1135 19.6 69.0065 19.9209 66.8945 19.9548Z" fill="#F6FF60"/>
<path opacity="0.6" d="M68.206 25.6545C69.8529 25.4464 71.4999 25.0365 73.1456 24.3371C73.1444 23.8658 73.1481 23.402 73.1469 22.9307C71.5024 23.5612 69.7088 23.9522 67.8813 24.0889C67.9954 24.6091 68.1007 25.1318 68.206 25.6545Z" fill="#FDFDF7"/>
<path opacity="0.6" d="M69.0187 30.1831C70.3536 30.0502 71.7486 30.1492 73.1624 30.5315C73.1599 28.8243 73.1524 27.1083 73.1499 25.4023C71.6446 26.0178 70.044 26.4465 68.4146 26.6709C68.6377 27.8353 68.8357 29.0073 69.0187 30.1831Z" fill="#F6FF60"/>
<path opacity="0.6" d="M69.1929 31.3226C69.8233 35.7348 70.143 40.236 70.0552 44.9139C70.0176 46.9295 69.8384 49.6094 69.3633 52.2981C70.6493 52.2592 71.9892 51.8794 73.3341 51.0384C73.1912 44.6043 73.1599 38.1778 73.1561 31.7575C71.8037 31.3301 70.4688 31.2085 69.1929 31.3226Z" fill="#FDFDF7"/>
<path opacity="0.6" d="M69.0439 53.895C68.8271 54.8602 68.5689 55.8078 68.2593 56.7103C70.0115 56.3668 71.7362 55.7364 73.4195 54.7612C73.3882 53.8975 73.3782 53.0326 73.3631 52.1577C72.0195 53.4688 70.5342 53.9677 69.0439 53.895Z" fill="#F6FF60"/>
<path opacity="0.6" d="M66.478 60.3743C69.0036 60.0371 71.1933 59.0907 73.5271 57.9977C73.4971 57.3271 73.4808 56.6602 73.4557 55.9984C71.7147 56.9598 69.782 57.6217 67.7916 57.9338C67.4168 58.8275 66.9806 59.651 66.478 60.3743Z" fill="#FDFDF7"/>
<path opacity="0.6" d="M57.9059 62.4187C57.8721 63.1996 57.8295 63.978 57.7681 64.7527C57.8558 64.7414 57.946 64.7527 58.035 64.8128C63.1978 68.0154 69.0161 68.0919 73.7564 64.1911C73.7752 64.166 73.7965 64.1635 73.8266 64.1548C73.7163 62.3761 73.6336 60.6024 73.5584 58.8237C71.4163 60.2853 68.5836 61.1577 65.6971 61.3457C63.9009 63.2773 61.3942 64.0106 57.9059 62.4187Z" fill="#F6FF60"/>
<path d="M62.858 13.5233C60.38 15.6316 60.3324 18.8029 60.172 21.9002C59.9551 26.0705 59.6155 30.311 60.1519 34.4788C60.2209 35.0102 61.0819 35.3111 61.275 34.7031C62.2413 31.661 62.7314 28.4922 63.145 25.3184C63.5236 22.4066 63.3481 18.4958 65.1617 16.0942C66.2535 14.6477 64.4009 12.2109 62.858 13.5233Z" fill="white"/>
<path d="M64.9539 0.334416C65.1532 -0.0692008 65.7323 -0.124352 65.9842 0.261717C69.6429 5.76319 72.4944 11.6094 74.5299 17.8792C74.6314 17.992 74.7104 18.1437 74.7091 18.3505C74.8119 33.6955 75.4098 49.1758 74.7204 64.4907C74.7179 64.5045 74.7154 64.5183 74.7129 64.5321C74.8031 64.7853 74.7768 65.0949 74.5186 65.3067C69.6704 69.294 62.6126 69.7477 57.4924 65.669C57.2417 65.4759 57.2768 65.1613 57.436 64.9432C57.3784 64.9106 57.3357 64.8655 57.3207 64.7915C54.8778 49.6496 55.8517 33.4135 55.9344 18.1475C55.8693 18.0346 55.8555 17.9106 55.9081 17.7777C55.9294 17.7388 55.9507 17.7 55.9708 17.6624C55.9996 17.5821 56.0335 17.5107 56.0736 17.4468C58.8173 11.6482 62.1425 6.10664 64.9539 0.334416ZM73.1862 17.6686C71.2873 12.0694 68.7743 6.80355 65.5768 1.82352C63.065 6.99157 60.5206 12.3038 57.3771 17.1021C62.6414 18.9397 67.8655 19.3972 73.1862 17.6686ZM73.1424 21.8803C73.1336 20.9289 73.1361 19.9575 73.1273 19.0061C68.0235 20.514 62.3142 20.3385 57.4548 17.8742C57.4511 18.8582 57.4598 19.8459 57.4498 20.8224C62.5436 23.3331 67.7151 24.1303 73.1135 21.8878C73.1261 21.8903 73.1336 21.8853 73.1424 21.8803ZM73.1461 24.3371C73.1449 23.8658 73.1486 23.402 73.1474 22.9307C68.2391 24.8134 62.0172 24.6128 57.4598 21.6033C57.4523 22.4443 57.4648 23.2967 57.4573 24.1378C62.6852 26.132 67.9232 26.557 73.1461 24.3371ZM73.1612 30.5317C73.1586 28.8245 73.1511 27.1098 73.1486 25.4025C68.1939 27.4269 62.2278 27.462 57.4686 24.7119C57.4636 30.3023 57.5049 35.9091 57.5839 41.5021C57.5914 41.739 57.5852 41.9734 57.5927 42.2103C57.6717 46.6889 57.9173 51.2227 57.9812 55.749C63.2668 57.5828 68.5123 57.6029 73.4194 54.7625C73.388 53.8989 73.378 53.0327 73.363 52.1591C67.6262 57.747 59.3286 48.7333 58.9664 42.3269C58.9526 42.0461 58.9501 41.7803 58.9413 41.5083C59.0153 33.9324 65.8739 28.5613 73.1612 30.5317ZM73.1574 31.7589C66.6335 29.6919 60.4354 34.43 60.186 41.1925C59.9365 48.3548 66.6147 55.2376 73.3354 51.0385C73.1912 44.6057 73.1599 38.1791 73.1574 31.7589ZM73.5271 57.9977C73.4971 57.3271 73.4808 56.6603 73.4557 55.9984C68.8031 58.5681 62.773 58.998 57.985 56.3281C57.9975 57.3371 58.0101 58.3475 57.995 59.3502C60.458 60.0208 62.7442 60.6413 65.3976 60.4796C68.3957 60.3004 70.8662 59.2437 73.5271 57.9977ZM73.8267 64.156C73.7164 62.3773 73.6337 60.6037 73.5585 58.825C69.4147 61.6528 62.6865 62.2946 57.9825 59.9907C57.9474 61.5902 57.8923 63.1783 57.7682 64.7539C57.8559 64.7427 57.9461 64.7539 58.0351 64.8141C63.1979 68.0167 69.0162 68.0932 73.7565 64.1924C73.7741 64.1661 73.7966 64.1635 73.8267 64.156Z" fill="#55205A"/>
<path d="M91.4336 1.82349C94.631 6.80352 97.1441 12.0693 99.043 17.6686C93.7211 19.3971 88.4982 18.9396 83.2339 17.102C86.3774 12.3025 88.9218 6.99154 91.4336 1.82349Z" fill="#DB32C5"/>
<path d="M98.983 19.0059C98.9917 19.9573 98.9892 20.9287 98.998 21.8801C98.9905 21.8851 98.9817 21.8914 98.9679 21.8889C93.5695 24.1313 88.3993 23.3341 83.3042 20.8234C83.3142 19.847 83.3054 18.8592 83.3092 17.8752C88.1699 20.3371 93.8779 20.5138 98.983 19.0059Z" fill="#DB32C5"/>
<path d="M99.003 22.9306C99.0043 23.4019 99.0005 23.8657 99.0018 24.337C93.7776 26.5569 88.5409 26.1319 83.313 24.1377C83.3205 23.2966 83.308 22.4442 83.3155 21.6031C87.8729 24.6127 94.096 24.8133 99.003 22.9306Z" fill="#FDFDF7"/>
<path d="M99.0044 25.4011C99.0069 27.1084 99.0144 28.8244 99.0169 30.5303C91.7284 28.5599 84.871 33.931 84.7971 41.507L83.4397 41.4994C83.3595 35.9064 83.3181 30.2997 83.3244 24.7092C88.0848 27.4618 94.051 27.4255 99.0044 25.4011Z" fill="#DB32C5"/>
<path d="M86.0419 41.1924C86.2914 34.43 92.4894 29.6906 99.0134 31.7588C99.0171 38.1791 99.0485 44.6056 99.1914 51.0397C92.4706 55.2376 85.7925 48.3548 86.0419 41.1924Z" fill="#FDFDF7"/>
<path d="M84.8219 42.3267C85.1842 48.7332 93.4817 57.7457 99.2185 52.159C99.2335 53.0326 99.2436 53.8988 99.2749 54.7624C94.3678 57.6028 89.1224 57.5827 83.8368 55.7489C83.7741 51.2226 83.5272 46.6888 83.4482 42.2102C83.4407 41.9733 83.447 41.7389 83.4395 41.502L84.7969 41.5095C84.8056 41.7815 84.8082 42.046 84.8219 42.3267Z" fill="#DB32C5"/>
<path d="M99.311 55.9984C99.3361 56.6602 99.3524 57.3271 99.3825 57.9977C96.7215 59.2436 94.2511 60.3003 91.2529 60.4796C88.5995 60.6425 86.3133 60.0208 83.8504 59.3502C83.8654 58.3462 83.8529 57.3371 83.8403 56.3281C88.6296 58.998 94.6584 58.5668 99.311 55.9984Z" fill="#FDFDF7"/>
<path d="M99.4138 58.825C99.489 60.6036 99.5718 62.3773 99.6821 64.1559C99.652 64.1647 99.6307 64.1673 99.6119 64.1923C94.8715 68.0944 89.0533 68.0167 83.8905 64.814C83.8015 64.7539 83.7113 64.7426 83.6235 64.7539C83.7476 63.1783 83.8015 61.5901 83.8379 59.9907C88.5406 62.2933 95.2689 61.6528 99.4138 58.825Z" fill="#DB32C5"/>
<path opacity="0.6" d="M90.8095 0.334447C89.9923 2.01159 89.1287 3.66867 88.2526 5.31824C88.4569 5.90611 88.6574 6.49272 88.8567 7.07809C89.7328 5.327 90.5864 3.56714 91.4349 1.82231C94.6324 6.80234 97.1454 12.0682 99.0443 17.6674C96.8271 18.3881 94.6286 18.709 92.4352 18.7291C92.5442 19.1377 92.6457 19.5464 92.751 19.955C94.863 19.9211 96.9699 19.6002 98.9842 19.0048C98.9929 19.9562 98.9917 20.9277 98.9992 21.8791C98.9904 21.8841 98.9829 21.8903 98.9691 21.8878C97.1291 22.6524 95.318 23.0385 93.5243 23.1488C93.5958 23.4622 93.671 23.7743 93.7387 24.0877C95.5661 23.9523 97.3598 23.5612 99.0042 22.9295C99.0055 23.4008 99.0017 23.8646 99.003 24.3359C97.3572 25.0353 95.7103 25.4452 94.0633 25.6532C94.1323 25.9917 94.2037 26.3301 94.2701 26.6698C95.9008 26.4442 97.5001 26.0155 99.0055 25.4013C99.008 27.1085 99.0155 28.8233 99.018 30.5305C97.6054 30.1482 96.2091 30.0492 94.8755 30.182C94.9344 30.5618 94.9959 30.9404 95.0497 31.3214C96.3245 31.2074 97.6606 31.329 99.013 31.7577C99.0168 38.1779 99.0481 44.6044 99.191 51.0385C97.8461 51.8783 96.5062 52.2581 95.2202 52.2982C95.1262 52.8322 95.0184 53.3662 94.8993 53.8951C96.3896 53.9678 97.8749 53.4677 99.2185 52.1591C99.2336 53.0328 99.2436 53.8989 99.275 54.7626C97.5904 55.7378 95.8657 56.3682 94.1147 56.7117C93.9706 57.1316 93.8139 57.5377 93.6484 57.9338C95.6376 57.6217 97.5716 56.9599 99.3126 55.9985C99.3376 56.6603 99.3539 57.3271 99.384 57.9978C97.0489 59.092 94.8605 60.0384 92.3349 60.3743C92.0905 60.724 91.831 61.0487 91.554 61.347C94.4406 61.159 97.2733 60.2866 99.4153 58.825C99.4905 60.6037 99.5733 62.3774 99.6836 64.156C99.6535 64.1648 99.6322 64.1674 99.6134 64.1924C94.873 68.0932 89.0547 68.0168 83.892 64.8141C83.803 64.754 83.7127 64.7427 83.625 64.754C83.6852 63.9793 83.729 63.2009 83.7629 62.42C83.4357 62.2708 83.0998 62.1003 82.7539 61.9086C82.8818 62.8737 83.0221 63.8351 83.1763 64.7928C83.1913 64.8668 83.2339 64.9119 83.2916 64.9445C83.1324 65.1626 83.0973 65.4772 83.348 65.6702C88.4694 69.749 95.526 69.2965 100.374 65.3092C100.632 65.0962 100.659 64.7878 100.568 64.5346C100.571 64.5208 100.573 64.507 100.576 64.4932C101.264 49.1784 100.667 33.698 100.565 18.3531C100.566 18.1462 100.486 17.9946 100.385 17.8817C98.3499 11.6119 95.4985 5.76573 91.8398 0.264253C91.5879 -0.124322 91.0088 -0.0679165 90.8095 0.334447Z" fill="#C4007B"/>
<path opacity="0.6" d="M88.855 7.07805C90.1848 10.9939 91.4019 14.8583 92.4334 18.729C94.6256 18.709 96.8253 18.3881 99.0426 17.6674C97.1437 12.0681 94.6306 6.8023 91.4332 1.82227C90.5847 3.56709 89.7311 5.32696 88.855 7.07805Z" fill="#DB32C5"/>
<path opacity="0.6" d="M92.75 19.9548C93.022 21.0177 93.2814 22.0819 93.5234 23.1486C95.3157 23.0383 97.1281 22.651 98.9681 21.8876C98.9819 21.8901 98.9894 21.8851 98.9982 21.8788C98.9894 20.9275 98.9919 19.9573 98.9832 19.0046C96.969 19.6 94.862 19.9209 92.75 19.9548Z" fill="#DB32C5"/>
<path opacity="0.6" d="M94.0619 25.6545C95.7089 25.4464 97.3559 25.0365 99.0016 24.3371C99.0003 23.8658 99.0041 23.402 99.0028 22.9307C97.3584 23.5612 95.5648 23.9522 93.7373 24.0889C93.8514 24.6091 93.9567 25.1318 94.0619 25.6545Z" fill="#FDFDF7"/>
<path opacity="0.6" d="M94.8744 30.1831C96.2093 30.0502 97.6043 30.1492 99.0169 30.5315C99.0144 28.8243 99.0069 27.1083 99.0044 25.4023C97.4991 26.0178 95.8985 26.4465 94.269 26.6709C94.4934 27.8353 94.6914 29.0073 94.8744 30.1831Z" fill="#DB32C5"/>
<path opacity="0.6" d="M95.0488 31.3226C95.6793 35.7348 95.9989 40.236 95.9112 44.9139C95.8736 46.9295 95.6943 49.6094 95.2193 52.2981C96.5053 52.2592 97.8452 51.8794 99.1901 51.0384C99.0472 44.6043 99.0158 38.1778 99.0121 31.7575C97.6597 31.3301 96.3248 31.2085 95.0488 31.3226Z" fill="#FDFDF7"/>
<path opacity="0.6" d="M94.8994 53.895C94.6825 54.8602 94.4243 55.8078 94.1147 56.7103C95.867 56.3668 97.5917 55.7364 99.275 54.7612C99.2437 53.8975 99.2336 53.0326 99.2186 52.1577C97.8749 53.4688 96.3897 53.9677 94.8994 53.895Z" fill="#DB32C5"/>
<path opacity="0.6" d="M92.334 60.3743C94.8596 60.0371 97.0493 59.0907 99.3831 57.9977C99.353 57.3271 99.3367 56.6602 99.3117 55.9984C97.5707 56.9598 95.6367 57.6217 93.6476 57.9338C93.2728 58.8275 92.8366 59.651 92.334 60.3743Z" fill="#FDFDF7"/>
<path opacity="0.6" d="M83.7614 62.4187C83.7275 63.1996 83.685 63.978 83.6235 64.7527C83.7113 64.7414 83.8015 64.7527 83.8905 64.8128C89.0533 68.0154 94.8715 68.0919 99.6119 64.1911C99.6307 64.166 99.652 64.1635 99.6821 64.1548C99.5718 62.3761 99.489 60.6024 99.4138 58.8237C97.2718 60.2853 94.4391 61.1577 91.5525 61.3457C89.7564 63.2773 87.2496 64.0106 83.7614 62.4187Z" fill="#DB32C5"/>
<path d="M88.7135 13.5233C86.2342 15.6316 86.1879 18.8029 86.0274 21.9002C85.8106 26.0705 85.4709 30.311 86.0074 34.4788C86.0751 35.0102 86.9374 35.3111 87.1304 34.7031C88.0968 31.661 88.5869 28.4922 88.9992 25.3184C89.3778 22.4066 89.2036 18.4958 91.016 16.0942C92.1089 14.6477 90.2564 12.2109 88.7135 13.5233Z" fill="white"/>
<path d="M90.8099 0.334416C91.0091 -0.0692008 91.5882 -0.124352 91.8402 0.261717C95.4988 5.76319 98.3503 11.6094 100.386 17.8792C100.487 17.992 100.566 18.1437 100.565 18.3505C100.668 33.6955 101.266 49.1758 100.576 64.4907C100.574 64.5045 100.571 64.5183 100.569 64.5321C100.659 64.7853 100.633 65.0949 100.375 65.3067C95.5264 69.294 88.4685 69.7477 83.3484 65.669C83.0977 65.4759 83.1328 65.1613 83.292 64.9432C83.2343 64.9106 83.1917 64.8655 83.1767 64.7915C80.7338 49.6496 81.7077 33.4135 81.7904 18.1475C81.7252 18.0346 81.7114 17.9106 81.7641 17.7777C81.7854 17.7388 81.8067 17.7 81.828 17.6624C81.8568 17.5821 81.8907 17.5107 81.9308 17.4468C84.6732 11.6482 87.9985 6.10664 90.8099 0.334416ZM99.0434 17.6686C97.1445 12.0694 94.6315 6.80355 91.434 1.82352C88.9222 6.99157 86.3778 12.3038 83.2343 17.1021C88.4973 18.9397 93.7215 19.3972 99.0434 17.6686ZM98.9983 21.8803C98.9895 20.9289 98.9921 19.9575 98.9833 19.0061C93.8794 20.514 88.1702 20.3385 83.3108 17.8742C83.307 18.8582 83.3158 19.8459 83.3058 20.8224C88.3996 23.3331 93.5711 24.1303 98.9695 21.8878C98.982 21.8903 98.9908 21.8853 98.9983 21.8803ZM99.0021 24.3371C99.0008 23.8658 99.0046 23.402 99.0033 22.9307C94.095 24.8134 87.8732 24.6128 83.3158 21.6033C83.3083 22.4443 83.3208 23.2967 83.3133 24.1378C88.5412 26.132 93.7792 26.557 99.0021 24.3371ZM99.0171 30.5317C99.0146 28.8245 99.0071 27.1098 99.0046 25.4025C94.0512 27.4269 88.0837 27.462 83.3246 24.7119C83.3195 30.3023 83.3609 35.9091 83.4399 41.5021C83.4474 41.739 83.4411 41.9734 83.4486 42.2103C83.5276 46.6889 83.7733 51.2227 83.8372 55.749C89.1228 57.5828 94.3683 57.6029 99.2753 54.7625C99.244 53.8989 99.2339 53.0327 99.2189 52.1591C93.4821 57.747 85.1846 48.7333 84.8224 42.3269C84.8086 42.0461 84.8061 41.7803 84.7973 41.5083C84.8713 33.9324 91.7299 28.5613 99.0171 30.5317ZM99.0134 31.7589C92.4894 29.6919 86.2913 34.43 86.0419 41.1925C85.7925 48.3548 92.4706 55.2376 99.1913 51.0385C99.0472 44.6057 99.0159 38.1791 99.0134 31.7589ZM99.3831 57.9977C99.353 57.3271 99.3367 56.6603 99.3117 55.9984C94.659 58.5681 88.6289 58.998 83.841 56.3281C83.8535 57.3371 83.866 58.3475 83.851 59.3502C86.3139 60.0208 88.6001 60.6413 91.2536 60.4796C94.2517 60.3004 96.7221 59.2437 99.3831 57.9977ZM99.6827 64.156C99.5724 62.3773 99.4896 60.6037 99.4144 58.825C95.2707 61.6528 88.5425 62.2946 83.8385 59.9907C83.8034 61.5902 83.7482 63.1783 83.6241 64.7539C83.7119 64.7427 83.8021 64.7539 83.8911 64.8141C89.0539 68.0167 94.8721 68.0932 99.6125 64.1924C99.6313 64.1661 99.6526 64.1635 99.6827 64.156Z" fill="#55205A"/>
<path d="M124.767 111.384C123.824 112.178 122.943 113.02 122.098 113.945C122.029 113.925 121.95 113.896 121.864 113.896C101.898 113.945 81.9218 113.985 61.9564 114.033C42.9636 114.079 23.7578 113.692 4.81641 115.904C5.5346 114.775 6.22648 113.658 6.77296 112.425C46.042 113.049 85.4676 111.117 124.767 111.384Z" fill="#C5EB78"/>
<path d="M125.042 97.744C125.475 101.644 125.588 105.497 125.829 109.381C86.6088 109.039 46.7532 107.979 7.54941 110.992C7.55818 110.981 7.55567 110.962 7.56445 110.952C6.77857 103.095 6.55797 94.8723 5.0376 87.1233C6.43388 87.1472 7.83643 87.1409 9.23899 87.1346C9.5373 88.8017 9.84563 90.4776 10.5062 92.0344C10.6528 92.3616 11.2745 92.3729 11.2795 91.9417C11.3472 90.3072 11.0577 88.7341 10.7669 87.1422C12.0065 87.1271 13.2361 87.1033 14.4732 87.0694C14.4682 87.1183 14.4556 87.1773 14.4606 87.2337C14.5145 87.6774 14.5659 88.1011 14.6374 88.5423C14.6687 88.7591 14.6888 88.9672 14.7364 89.1615C14.7539 89.2455 14.7828 89.3382 14.8003 89.4222C14.8279 89.515 14.8968 89.6215 14.9244 89.713C15.0159 90.1517 15.6301 90.0878 15.6226 89.6291C15.6263 89.4749 15.6852 89.2956 15.679 89.1339C15.684 88.8945 15.6514 88.6589 15.6476 88.4295C15.6138 87.9845 15.5599 87.5408 15.526 87.0945C15.516 87.0858 15.5135 87.0669 15.5035 87.0594C17.0652 87.0243 18.6257 86.9705 20.1949 86.9065C19.8691 86.993 19.6196 87.2625 19.7099 87.7012C19.9681 89.0574 20.2827 90.4074 20.6813 91.7374C20.8868 92.4594 22.0387 92.1485 21.9472 91.4127C21.7893 90.1016 21.5361 88.8018 21.2566 87.5157C21.1839 87.161 20.9257 86.9717 20.6424 86.9003C22.2593 86.8401 23.885 86.7686 25.4906 86.6997C25.4605 86.7799 25.4492 86.8576 25.468 86.9604C25.5269 87.6523 25.5871 88.3618 25.7412 89.0424C25.8064 89.3219 25.9819 89.5488 26.2965 89.54C26.5534 89.5375 26.8593 89.3483 26.8693 89.06C26.9094 88.3091 26.8543 87.5495 26.7891 86.8012C26.7916 86.7335 26.759 86.6896 26.7452 86.6433C28.0751 86.5793 29.4049 86.5142 30.736 86.4502C30.4264 87.176 30.7335 88.259 30.805 88.9772C30.8977 90.0088 30.9065 91.1658 31.2988 92.1422C31.5269 92.7088 32.3466 92.5997 32.4682 92.0018C32.6713 90.9627 32.482 89.8183 32.3893 88.7867C32.3304 88.0961 32.4269 87.0406 32.0659 86.3851C33.6051 86.3149 35.1643 86.2422 36.7035 86.172C36.5117 87.1321 36.6847 88.1073 37.2048 88.9246C37.4304 89.2806 37.9782 89.0224 37.9493 88.6338C37.8553 87.7739 37.9819 86.9366 38.1662 86.0905C39.3456 86.0441 40.5426 85.9965 41.7221 85.9501C41.7283 87.6624 41.8411 89.8584 42.9028 91.2335C43.1873 91.6008 43.7162 91.3463 43.7212 90.9151C43.73 90.0339 43.463 89.1766 43.3402 88.3104C43.2224 87.5019 43.1622 86.7047 43.1685 85.8912C44.3855 85.841 45.5938 85.8009 46.8121 85.7684C46.6918 86.1945 46.7332 86.6107 46.757 87.0481C46.7733 87.4956 46.8134 87.9118 46.9137 88.3405C47.0578 88.9258 47.8951 88.7102 48.0079 88.2088C48.0818 87.7977 48.0969 87.3753 48.0944 86.9542C48.1019 86.5418 48.1545 86.1143 48.0204 85.7283C49.7438 85.6831 51.4497 85.6606 53.1669 85.6455C53.0027 87.2725 53.044 88.9421 53.5654 90.4588C53.687 90.8173 54.2736 90.7659 54.3112 90.3786C54.4704 88.8005 54.4654 87.2124 54.5769 85.6292C56.3229 85.6205 58.0714 85.6292 59.8212 85.6581C59.781 85.9213 59.7998 86.2158 59.8074 86.4828C59.8324 87.0256 59.9816 87.4756 60.1558 87.982C60.3162 88.4407 60.9918 88.2352 60.9743 87.7689C60.9605 87.3402 60.9993 86.8664 61.0131 86.4239C61.0269 86.1732 61.0695 85.9288 61.0645 85.6806C61.8767 85.6881 62.6802 85.7057 63.4949 85.7333C64.1855 85.7646 64.8761 85.7972 65.5555 85.8198C65.5467 85.8298 65.5304 85.8511 65.5128 85.8724C65.093 86.736 65.4364 88.0923 65.6307 88.996C65.8675 90.0389 66.1458 91.1156 66.7036 92.0344C66.9743 92.4606 67.7276 92.1598 67.6499 91.6622C67.4794 90.6205 67.1711 89.624 67.0207 88.5799C66.8953 87.6949 66.9831 86.6521 66.5983 85.8561C68.4671 85.9276 70.3485 86.0266 72.216 86.0993C72.2098 86.1281 72.1922 86.1494 72.1859 86.1795C72.122 86.5982 72.2235 87.0456 72.2749 87.4706C72.3263 87.8955 72.4053 88.3066 72.4842 88.7178C72.5782 89.2806 73.5246 89.3959 73.5647 88.7316C73.5872 88.2791 73.6198 87.8353 73.6223 87.3853C73.6298 86.9729 73.6361 86.5606 73.5572 86.1494C74.9196 86.2146 76.2808 86.281 77.6432 86.3462C77.5417 87.1522 77.6758 88.0271 77.7159 88.8256C77.7623 89.6817 77.7811 90.5491 78.0606 91.3488C78.2348 91.8539 78.9067 91.6973 79.0232 91.2335C79.2175 90.3962 79.1586 89.5137 79.1222 88.6664C79.1059 87.9218 79.1335 87.1434 78.9944 86.4039C80.3857 86.4753 81.7769 86.548 83.1657 86.6007C83.1168 86.9792 83.1193 87.3816 83.1081 87.7564C83.0968 88.2176 83.1218 88.6739 83.1482 89.1289C83.197 89.7256 84.023 89.6742 84.1421 89.1439C84.3226 88.3655 84.5131 87.4919 84.5081 86.6696C86.0811 86.7486 87.6729 86.825 89.256 86.8927C89.1595 88.4357 89.3563 89.9336 89.8263 91.4077C89.9867 91.8665 90.7024 91.6759 90.656 91.2021C90.5069 89.7945 90.5194 88.3768 90.5996 86.9604C92.125 87.0356 93.6504 87.1096 95.1645 87.176C95.0617 87.8767 95.0592 88.6237 95.3512 89.258C95.5292 89.6102 96.1823 89.6466 96.2199 89.154C96.2524 88.5185 96.2374 87.8792 96.3552 87.2437C98.3895 87.3427 100.423 87.443 102.445 87.5345C102.329 88.19 102.435 88.971 102.466 89.5701C102.499 90.5905 102.583 91.6321 102.815 92.6186C102.939 93.1011 103.719 92.9783 103.759 92.5045C103.863 91.5255 103.822 90.5353 103.841 89.5576C103.861 88.981 103.977 88.2402 103.887 87.6097C105.565 87.6849 107.254 87.7689 108.932 87.8454C108.66 88.1838 108.645 88.6075 108.601 89.0424C108.556 89.5451 108.527 90.0277 108.548 90.5316C108.56 90.9414 109.22 91.053 109.35 90.6356C109.505 90.1668 109.601 89.6867 109.696 89.2066C109.785 88.7554 109.902 88.2916 109.68 87.888C111.493 87.9669 113.296 88.0559 115.099 88.1449C115.005 89.515 114.877 90.9276 115.012 92.2889C115.066 92.8379 115.797 92.7978 115.928 92.2939C116.267 90.9803 116.356 89.5726 116.49 88.2164C119.232 88.3455 121.986 88.4834 124.74 88.6212C123.981 91.4604 124.732 95.0929 125.042 97.744ZM119.329 102.144C120.64 100.828 120.536 98.8984 119.355 97.6713C118.55 96.1032 116.284 95.8688 114.843 96.8365C113.053 98.0474 112.898 100.726 114.27 102.245C115.596 103.694 117.965 103.505 119.329 102.144Z" fill="#C5EB78"/>
<path d="M119.058 100.569C118.926 100.881 118.734 101.163 118.454 101.408C117.555 102.166 116.062 102.327 115.231 101.452C114.826 101.022 114.617 100.454 114.587 99.8548C115.266 99.5815 115.904 99.2757 116.701 99.3233C117.662 99.3785 118.479 99.826 119.058 100.569Z" fill="#C5EB78"/>
<path d="M119.264 99.3772C118.575 98.7718 117.682 98.4384 116.732 98.3895C116.119 98.3669 115.366 98.4772 114.75 98.8006C114.911 98.4083 115.152 98.0435 115.529 97.8079C116.576 97.0984 117.907 97.4356 118.893 98.0348C119.115 98.4384 119.247 98.9097 119.264 99.3772Z" fill="#C5EB78"/>
<path d="M5.75398 111.955C5.22755 112.611 4.75 113.291 4.31507 114.003C3.78113 106.087 3.10178 97.8632 1.0249 90.2759C1.05248 90.2634 1.07254 90.2797 1.10011 90.2672C1.76943 89.8999 2.15798 89.2882 2.65558 88.7116C2.92882 88.3919 3.23214 88.0773 3.50664 87.7577C3.5129 95.5467 4.78385 103.479 5.46068 111.196C5.487 111.461 5.59104 111.65 5.73017 111.795C5.73393 111.852 5.74019 111.908 5.75398 111.955Z" fill="#C5EB78"/>
<path opacity="0.6" d="M127.483 110.952C127.651 110.721 127.746 110.432 127.74 110.165C128.419 106.409 127.605 102.325 127.142 98.6102C126.885 96.5934 126.631 94.5953 126.517 92.571C126.422 90.9277 126.546 89.2856 126.171 87.7138C126.265 87.2149 126.032 86.6972 125.379 86.6609C123.766 86.5844 122.15 86.4992 120.536 86.4177C121.4 86.9554 122.018 87.6825 122.396 88.5085C123.179 88.5473 123.959 88.585 124.742 88.6238C123.981 91.4617 124.732 95.0929 125.042 97.7453C125.474 101.645 125.588 105.497 125.829 109.383C86.6086 109.04 46.753 107.98 7.54917 110.993C7.55794 110.982 7.55544 110.964 7.56421 110.953C6.77833 103.096 6.55774 94.8736 5.03736 87.1247C5.47981 87.1322 5.92602 87.1259 6.36972 87.1284C6.32209 86.8075 6.2519 86.4942 6.20929 86.172C6.19049 86.0316 6.19425 85.9013 6.18548 85.7659C5.69665 85.8248 5.20782 85.8674 4.72024 85.9288C4.42695 85.5716 3.88799 85.6268 3.63856 86.0016C2.98805 86.4716 2.44659 87.0833 1.90386 87.6749C1.36741 88.2365 0.680549 88.8169 0.438643 89.5639C0.414828 89.6141 0.431115 89.6792 0.417328 89.7381C0.184196 89.7945 -0.0251237 89.9926 0.00245105 90.2759C0.856016 99.005 2.49547 107.583 3.04947 116.367C3.08958 116.869 3.76015 117.182 4.15121 116.885C4.21137 116.916 4.27906 116.917 4.35552 116.927C43.5819 115.202 82.7794 115.509 122.006 115.42C122.159 115.42 122.27 115.388 122.369 115.329C122.531 115.319 122.705 115.25 122.853 115.108C124.154 113.785 125.621 112.594 127.16 111.547C127.392 111.384 127.476 111.172 127.483 110.952ZM1.02523 90.2759C1.0528 90.2634 1.07286 90.2797 1.10044 90.2671C1.77101 89.8999 2.1583 89.2881 2.6559 88.7115C2.92914 88.3919 3.23247 88.0773 3.50696 87.7577C3.51323 95.5455 4.78417 103.479 5.46101 111.196C5.48733 111.461 5.59137 111.65 5.73049 111.795C5.73676 111.852 5.74177 111.908 5.75556 111.955C5.22788 112.611 4.75158 113.291 4.3154 114.004C3.78145 106.087 3.10211 97.8631 1.02523 90.2759ZM122.099 113.944C122.03 113.924 121.951 113.895 121.864 113.895C101.899 113.944 81.9221 113.984 61.9567 114.032C42.964 114.078 23.7569 113.691 4.81676 115.903C5.53621 114.774 6.22683 113.657 6.77331 112.423C46.041 113.048 85.4667 111.116 124.766 111.383C123.823 112.176 122.943 113.02 122.099 113.944Z" fill="#C4007B"/>
<path opacity="0.6" d="M124.767 111.384C123.824 112.178 122.943 113.02 122.098 113.945C122.029 113.925 121.95 113.896 121.864 113.896C101.898 113.945 81.9218 113.985 61.9564 114.033C42.9636 114.079 23.7578 113.692 4.81641 115.904C5.5346 114.775 6.22648 113.658 6.77296 112.425C46.042 113.049 85.4676 111.117 124.767 111.384Z" fill="#C5EB78"/>
<path opacity="0.6" d="M125.041 97.7441C124.732 95.0917 123.981 91.4604 124.742 88.6226C123.959 88.5837 123.179 88.5461 122.396 88.5073C123.722 91.4053 122.147 95.4164 118.351 95.9378C83.7708 100.691 49.0404 105.388 14.1696 104.914C12.4261 104.89 10.7115 103.259 10.1687 101.703C8.50923 96.9444 7.12172 92.126 6.37093 87.1259C5.92723 87.1234 5.48102 87.1297 5.03857 87.1222C6.55895 94.8724 6.77954 103.094 7.56543 110.951C7.55665 110.962 7.55916 110.979 7.55038 110.991C46.7542 107.976 86.6098 109.037 125.83 109.38C125.588 105.496 125.474 101.644 125.041 97.7441ZM119.329 102.144C117.964 103.504 115.596 103.693 114.27 102.245C112.899 100.726 113.053 98.0474 114.843 96.8366C116.284 95.8689 118.55 96.1033 119.355 97.6714C120.536 98.8985 120.64 100.829 119.329 102.144Z" fill="#C5EB78"/>
<path opacity="0.6" d="M119.355 97.6726C120.536 98.8985 120.641 100.829 119.329 102.145C117.965 103.505 115.596 103.694 114.27 102.246C112.898 100.727 113.053 98.0486 114.843 96.8378C116.284 95.8701 118.551 96.1045 119.355 97.6726ZM118.454 101.407C118.735 101.162 118.927 100.881 119.058 100.568C118.479 99.8248 117.662 99.3773 116.702 99.3209C115.905 99.2733 115.267 99.5804 114.587 99.8524C114.617 100.452 114.827 101.019 115.232 101.449C116.063 102.327 117.555 102.166 118.454 101.407ZM116.733 98.3896C117.683 98.4385 118.576 98.7706 119.265 99.3773C119.247 98.911 119.115 98.4385 118.894 98.0348C117.909 97.4357 116.578 97.0985 115.53 97.808C115.153 98.0449 114.912 98.4084 114.75 98.8007C115.368 98.4773 116.12 98.3683 116.733 98.3896Z" fill="#C4007B"/>
<path opacity="0.6" d="M119.058 100.569C118.926 100.881 118.734 101.163 118.454 101.408C117.555 102.166 116.062 102.327 115.231 101.452C114.826 101.022 114.617 100.454 114.587 99.8548C115.266 99.5815 115.904 99.2757 116.701 99.3233C117.662 99.3785 118.479 99.826 119.058 100.569Z" fill="#C5EB78"/>
<path opacity="0.6" d="M119.264 99.3772C118.575 98.7718 117.682 98.4384 116.732 98.3895C116.119 98.3669 115.366 98.4772 114.75 98.8006C114.911 98.4083 115.152 98.0435 115.529 97.8079C116.576 97.0984 117.907 97.4356 118.893 98.0348C119.115 98.4384 119.247 98.9097 119.264 99.3772Z" fill="#C5EB78"/>
<path opacity="0.6" d="M5.75398 111.955C5.22755 112.611 4.75 113.291 4.31507 114.003C3.78113 106.087 3.10178 97.8632 1.0249 90.2759C1.05248 90.2634 1.07254 90.2797 1.10011 90.2672C1.76943 89.8999 2.15798 89.2882 2.65558 88.7116C2.92882 88.3919 3.23214 88.0773 3.50664 87.7577C3.5129 95.5467 4.78385 103.479 5.46068 111.196C5.487 111.461 5.59104 111.65 5.73017 111.795C5.73393 111.852 5.74019 111.908 5.75398 111.955Z" fill="#C5EB78"/>
<path d="M80.7208 87.2299C76.2851 85.8536 71.6613 86.3813 67.0174 86.4665C61.1503 86.5743 55.2831 86.7786 49.4172 87.0418C37.8408 87.562 25.7029 87.6435 14.2982 89.9888C13.3293 90.1881 13.1426 91.706 14.2443 91.8201C25.1276 92.952 36.4044 91.9166 47.3554 91.7486C53.8593 91.6496 60.3631 91.6007 66.8633 91.6834C71.5159 91.7423 76.0582 92.3741 80.598 91.177C82.3503 90.7158 82.4142 87.7538 80.7208 87.2299Z" fill="white"/>
<path d="M127.484 110.952C127.477 111.172 127.393 111.384 127.16 111.546C125.621 112.592 124.155 113.783 122.854 115.107C122.706 115.25 122.53 115.319 122.37 115.328C122.271 115.388 122.159 115.42 122.006 115.419C82.7799 115.508 43.5824 115.201 4.356 116.926C4.27829 116.916 4.21186 116.914 4.1517 116.883C3.76064 117.179 3.09007 116.867 3.04996 116.365C2.49721 107.581 0.856504 99.0036 0.00293934 90.2745C-0.0246354 89.9912 0.184684 89.7931 0.417816 89.7367C0.431603 89.6778 0.415317 89.6126 0.439131 89.5625C0.679784 88.8154 1.3679 88.2351 1.90435 87.6735C2.44707 87.0819 2.98854 86.4714 3.63905 86.0001C3.88848 85.6253 4.42744 85.5702 4.72073 85.9274C44.7794 80.9349 85.4033 84.7542 125.379 86.6607C126.032 86.6971 126.264 87.2147 126.17 87.7136C126.545 89.2855 126.421 90.9275 126.517 92.5708C126.631 94.5952 126.886 96.5932 127.143 98.61C127.605 102.324 128.42 106.408 127.741 110.165C127.747 110.431 127.652 110.721 127.484 110.952ZM122.099 113.944C122.944 113.019 123.824 112.176 124.768 111.383C85.4685 111.117 46.0428 113.047 6.77505 112.423C6.22857 113.657 5.5367 114.774 4.8185 115.903C23.7586 113.691 42.9657 114.078 61.9585 114.031C81.9239 113.983 101.901 113.942 121.866 113.895C121.951 113.895 122.03 113.924 122.099 113.944ZM125.829 109.381C125.589 105.497 125.474 101.643 125.042 97.7439C124.732 95.0928 123.982 91.4602 124.742 88.6224C121.989 88.4845 119.236 88.3479 116.493 88.2175C116.36 89.5738 116.269 90.9814 115.931 92.295C115.799 92.7989 115.069 92.8391 115.015 92.29C114.881 90.9288 115.007 89.5161 115.101 88.1461C113.298 88.0571 111.494 87.9681 109.683 87.8891C109.905 88.2927 109.788 88.7565 109.699 89.2078C109.604 89.6879 109.507 90.1679 109.353 90.6367C109.223 91.0541 108.562 90.9425 108.551 90.5327C108.53 90.0275 108.559 89.5462 108.604 89.0436C108.646 88.6073 108.663 88.1849 108.935 87.8465C107.256 87.7713 105.568 87.6873 103.89 87.6108C103.981 88.2413 103.863 88.9821 103.843 89.5587C103.826 90.5364 103.866 91.5267 103.762 92.5056C103.723 92.9794 102.942 93.1023 102.818 92.6197C102.587 91.6332 102.503 90.5903 102.468 89.5713C102.438 88.9721 102.332 88.1912 102.448 87.5356C100.425 87.4441 98.391 87.3451 96.358 87.2448C96.2402 87.8816 96.2552 88.5196 96.2226 89.1551C96.185 89.6477 95.532 89.6114 95.354 89.2591C95.062 88.6249 95.0645 87.8778 95.1673 87.1771C93.6519 87.1107 92.1265 87.0355 90.6024 86.9615C90.5234 88.3779 90.5109 89.7956 90.6588 91.2033C90.7052 91.6758 89.9895 91.8676 89.829 91.4088C89.359 89.9348 89.1622 88.4369 89.2587 86.8939C87.6769 86.8262 86.0851 86.7497 84.5109 86.6707C84.5159 87.493 84.3254 88.3679 84.1449 89.1451C84.0258 89.6765 83.1998 89.7279 83.1509 89.13C83.1246 88.6738 83.0995 88.2175 83.1108 87.7575C83.1221 87.3827 83.1196 86.9816 83.1685 86.6018C81.7784 86.5492 80.3872 86.4777 78.9972 86.405C79.1363 87.1445 79.1087 87.923 79.125 88.6675C79.1614 89.5149 79.2203 90.3973 79.026 91.2346C78.9094 91.6984 78.2376 91.8563 78.0634 91.3499C77.7839 90.5515 77.7651 89.6828 77.7187 88.8267C77.6773 88.0282 77.5432 87.1546 77.646 86.3473C76.2836 86.2822 74.9224 86.2157 73.5599 86.1505C73.6389 86.5617 73.6314 86.9741 73.6251 87.3865C73.6213 87.8365 73.5887 88.2802 73.5674 88.7327C73.5286 89.3983 72.581 89.2817 72.487 88.7189C72.408 88.3078 72.3291 87.8954 72.2777 87.4717C72.2263 87.0468 72.1248 86.6005 72.1887 86.1806C72.195 86.1518 72.2125 86.1305 72.2188 86.1004C70.35 86.029 68.4699 85.9299 66.6011 85.8572C66.9846 86.6532 66.8969 87.6973 67.0234 88.581C67.1739 89.6252 67.4822 90.6217 67.6527 91.6633C67.7304 92.1609 66.9771 92.4618 66.7063 92.0356C66.1473 91.1168 65.8703 90.0413 65.6334 88.9972C65.4392 88.0922 65.0945 86.7372 65.5156 85.8735C65.5332 85.8522 65.5494 85.8309 65.5582 85.8209C64.8776 85.7971 64.187 85.7657 63.4976 85.7344C62.6842 85.7081 61.8795 85.6893 61.0673 85.6817C61.0723 85.9299 61.0297 86.1744 61.0159 86.4251C61.0021 86.8675 60.9633 87.3401 60.977 87.77C60.9946 88.2363 60.3178 88.4431 60.1586 87.9831C59.9844 87.478 59.8352 87.0267 59.8101 86.484C59.8026 86.217 59.7838 85.9224 59.8239 85.6592C58.0742 85.6303 56.3257 85.6203 54.5797 85.6304C54.4694 87.2135 54.4732 88.8016 54.314 90.3798C54.2764 90.7671 53.6885 90.8185 53.5682 90.46C53.0468 88.9433 53.0054 87.2737 53.1696 85.6467C51.4525 85.6617 49.7466 85.6855 48.0232 85.7294C48.1573 86.1154 48.1034 86.5429 48.0971 86.9553C48.1009 87.3764 48.0846 87.7988 48.0106 88.21C47.8978 88.7114 47.0606 88.927 46.9164 88.3416C46.8174 87.9129 46.776 87.498 46.7597 87.0493C46.7359 86.6118 46.6946 86.1957 46.8149 85.7695C45.5966 85.8008 44.3883 85.8409 43.1713 85.8923C43.1662 86.7071 43.2252 87.503 43.343 88.3115C43.4671 89.1764 43.7328 90.035 43.724 90.9162C43.719 91.3474 43.1901 91.6019 42.9055 91.2346C41.8439 89.8608 41.7311 87.6635 41.7248 85.9512C40.5454 85.9976 39.3471 86.0465 38.1689 86.0916C37.9847 86.9365 37.8581 87.7751 37.9521 88.6349C37.9809 89.0235 37.4332 89.2805 37.2076 88.9257C36.6874 88.1085 36.5145 87.1333 36.7062 86.1731C35.1671 86.2433 33.6078 86.316 32.0686 86.3862C32.4296 87.0418 32.3331 88.0959 32.392 88.7878C32.4848 89.8194 32.674 90.9651 32.471 92.003C32.3482 92.6009 31.5284 92.7099 31.3016 92.1434C30.9093 91.1669 30.8992 90.01 30.8077 88.9784C30.7363 88.2601 30.4292 87.1771 30.7388 86.4514C29.4089 86.5153 28.0791 86.5805 26.748 86.6444C26.7618 86.6908 26.7956 86.7347 26.7918 86.8024C26.8558 87.5507 26.9122 88.309 26.8721 89.0611C26.862 89.3494 26.5562 89.5399 26.2993 89.5412C25.9847 89.55 25.8104 89.3231 25.744 89.0436C25.5911 88.3629 25.5297 87.6534 25.4708 86.9615C25.4507 86.8587 25.462 86.7811 25.4933 86.7008C23.8865 86.7698 22.2621 86.8412 20.6452 86.9014C20.9297 86.9728 21.1866 87.1609 21.2593 87.5168C21.5388 88.8042 21.792 90.104 21.95 91.4139C22.0415 92.1496 20.8883 92.4605 20.684 91.7385C20.2854 90.4086 19.9708 89.0586 19.7126 87.7023C19.6211 87.2636 19.8718 86.9941 20.1977 86.9076C18.6285 86.9716 17.0692 87.0255 15.5062 87.0606C15.5163 87.0693 15.5188 87.0881 15.5288 87.0956C15.5626 87.5406 15.6165 87.9844 15.6504 88.4306C15.6541 88.66 15.6867 88.8944 15.6817 89.1351C15.688 89.2968 15.6291 89.476 15.6253 89.6302C15.6328 90.0889 15.0187 90.1529 14.9272 89.7142C14.8996 89.6214 14.8307 89.5149 14.8031 89.4234C14.7855 89.3394 14.7567 89.2466 14.7392 89.1626C14.6915 88.9671 14.6702 88.759 14.6401 88.5434C14.5674 88.1022 14.5161 87.6785 14.4634 87.2348C14.4584 87.1784 14.4709 87.1195 14.4759 87.0706C13.2388 87.1044 12.0093 87.1283 10.7696 87.1433C11.0604 88.7352 11.35 90.3083 11.2823 91.9428C11.2773 92.374 10.6556 92.3627 10.5089 92.0356C9.84965 90.4788 9.54006 88.8029 9.24175 87.1358C7.83919 87.142 6.43664 87.1483 5.04036 87.1245C6.56073 94.8747 6.78133 103.096 7.56721 110.953C7.55843 110.963 7.56094 110.983 7.55217 110.993C46.7535 107.977 86.6091 109.038 125.829 109.381ZM4.31589 114.003C4.75207 113.289 5.22837 112.61 5.75479 111.954C5.74101 111.908 5.73473 111.852 5.72972 111.795C5.59059 111.65 5.48657 111.461 5.46024 111.196C4.78341 103.479 3.51246 95.5465 3.5062 87.7575C3.2317 88.0771 2.92963 88.3917 2.65514 88.7114C2.15879 89.288 1.77023 89.8997 1.09966 90.267C1.07209 90.2795 1.05204 90.2632 1.02446 90.2757C3.1026 97.863 3.78194 106.087 4.31589 114.003Z" fill="#55205A"/>
<path d="M119.355 97.6726C120.536 98.8985 120.641 100.829 119.329 102.145C117.965 103.505 115.596 103.694 114.27 102.246C112.898 100.727 113.053 98.0486 114.843 96.8378C116.284 95.8701 118.551 96.1045 119.355 97.6726ZM118.454 101.407C118.735 101.162 118.927 100.881 119.058 100.568C118.479 99.8248 117.662 99.3773 116.702 99.3209C115.905 99.2733 115.267 99.5804 114.587 99.8524C114.617 100.452 114.827 101.019 115.232 101.449C116.063 102.327 117.555 102.166 118.454 101.407ZM116.733 98.3896C117.683 98.4385 118.576 98.7706 119.265 99.3773C119.247 98.911 119.115 98.4385 118.894 98.0348C117.909 97.4357 116.578 97.0985 115.53 97.808C115.153 98.0449 114.912 98.4084 114.75 98.8007C115.368 98.4773 116.12 98.3683 116.733 98.3896Z" fill="#55205A"/>
</svg>
