<svg width="129" height="117" viewBox="0 0 129 117" fill="none" xmlns="http://www.w3.org/2000/svg">
<path d="M128.725 86.3487L79.2994 114.885L0 69.1011L49.4243 40.5631L128.725 86.3487Z" fill="white"/>
<path d="M36.3245 59.0267L12.6972 72.6682L12.2886 72.4339L35.9175 58.7908L36.3245 59.0267Z" fill="black"/>
<path d="M27.1708 65.7195L13.9123 73.373L13.5054 73.1387L26.7621 65.4835L27.1708 65.7195Z" fill="black"/>
<path d="M35.4194 62.3671L15.1367 74.0781L14.728 73.8438L35.0124 62.1328L35.4194 62.3671Z" fill="black"/>
<path d="M25.338 69.6007L16.3593 74.7851L15.9507 74.5491L24.931 69.3647L25.338 69.6007Z" fill="black"/>
<path d="M39.2431 62.9851L17.5856 75.4912L17.1787 75.2553L38.8361 62.7491L39.2431 62.9851Z" fill="black"/>
<path d="M59.1363 52.1266L52.8234 55.772L46.5088 52.1266L52.8234 48.4811L59.1363 52.1266ZM52.8217 55.3018L58.3207 52.1266L52.8217 48.9513L47.3193 52.1266L52.8217 55.3018Z" fill="black"/>
<path d="M34.3539 74.2735L24.9153 79.723L24.5083 79.487L33.9452 74.0393L34.3539 74.2735Z" fill="black"/>
<path d="M49.7693 66.7877L26.1437 80.4275L25.7368 80.1949L49.3623 66.5518L49.7693 66.7877Z" fill="black"/>
<path d="M50.9878 67.4916L27.3622 81.1348L26.9536 80.8988L50.5808 67.2573L50.9878 67.4916Z" fill="black"/>
<path d="M43.7167 73.0974L28.5791 81.8401L28.1704 81.6041L43.3098 72.8632L43.7167 73.0974Z" fill="black"/>
<path d="M53.4272 68.9044L29.8 82.5459L29.3931 82.3099L53.0203 68.6685L53.4272 68.9044Z" fill="black"/>
<path d="M71.3548 59.1814L65.0419 62.8268L58.729 59.1814L65.0419 55.5359L71.3548 59.1814ZM65.0419 62.3566L70.5409 59.1814L65.0419 56.0061L59.5429 59.1814L65.0419 62.3566Z" fill="black"/>
<path d="M60.7643 73.1381L37.1371 86.7778L36.7285 86.5436L60.3574 72.9038L60.7643 73.1381Z" fill="black"/>
<path d="M44.332 84.035L38.3576 87.4839L37.9507 87.2496L43.925 83.7991L44.332 84.035Z" fill="black"/>
<path d="M63.2058 74.5485L39.5786 88.1882L39.1733 87.954L62.7971 74.3142L63.2058 74.5485Z" fill="black"/>
<path d="M56.6553 79.7416L40.803 88.8946L40.396 88.6603L56.2483 79.5073L56.6553 79.7416Z" fill="black"/>
<path d="M65.6494 75.9589L42.0239 89.6003L41.6187 89.3644L65.2425 75.7246L65.6494 75.9589Z" fill="black"/>
<path d="M83.5762 66.2382L77.2633 69.8837L70.9487 66.2382L77.2633 62.5928L83.5762 66.2382ZM77.2616 69.4135L82.7623 66.2382L77.2616 63.063L71.7609 66.2382L77.2616 69.4135Z" fill="black"/>
<path d="M65.9264 84.269L49.3611 93.8358L48.9541 93.5982L65.5195 84.0348L65.9264 84.269Z" fill="black"/>
<path d="M60.9371 88.5615L50.5837 94.541L50.1768 94.305L60.5302 88.3273L60.9371 88.5615Z" fill="black"/>
<path d="M58.088 91.6201L51.8093 95.2451L51.3989 95.0108L57.6793 91.3859L58.088 91.6201Z" fill="black"/>
<path d="M76.654 82.3094L53.0302 95.9509L52.6216 95.7167L76.2471 82.0752L76.654 82.3094Z" fill="black"/>
<path d="M70.2044 87.4442L54.2512 96.6554L53.8442 96.4211L69.7975 87.2083L70.2044 87.4442Z" fill="black"/>
<path d="M95.7943 73.2929L89.4797 76.9384L83.1685 73.2929L89.4797 69.6475L95.7943 73.2929ZM89.4797 76.4699L94.9804 73.2946L89.4797 70.1194L83.9807 73.2946L89.4797 76.4699Z" fill="black"/>
<path d="M85.2026 87.2498L61.5754 100.891L61.1685 100.655L84.7957 87.0155L85.2026 87.2498Z" fill="black"/>
<path d="M78.8534 92.3259L62.7959 101.597L62.3906 101.359L78.4465 92.09L78.8534 92.3259Z" fill="black"/>
<path d="M87.6474 88.6609L64.0185 102.302L63.6133 102.066L87.2371 88.4266L87.6474 88.6609Z" fill="black"/>
<path d="M88.8726 89.3643L65.2454 103.006L64.8418 102.77L88.4656 89.13L88.8726 89.3643Z" fill="black"/>
<path d="M90.0928 90.0705L66.4656 103.712L66.0586 103.478L89.6858 89.8363L90.0928 90.0705Z" fill="black"/>
<path d="M108.022 80.3506L101.706 83.996L95.3945 80.3506L101.706 76.7051L108.022 80.3506ZM101.704 83.5258L107.206 80.3506L101.704 77.1753L96.2067 80.3506L101.704 83.5258Z" fill="black"/>
<path d="M97.4265 94.3048L73.801 107.946L73.394 107.712L97.0195 94.0688L97.4265 94.3048Z" fill="black"/>
<path d="M84.7661 103.027L75.0232 108.653L74.6162 108.415L84.3591 102.791L84.7661 103.027Z" fill="black"/>
<path d="M88.6373 102.204L76.2475 109.357L75.8389 109.121L88.2287 101.968L88.6373 102.204Z" fill="black"/>
<path d="M93.0089 101.086L77.4626 110.063L77.0557 109.829L92.6019 100.85L93.0089 101.086Z" fill="black"/>
<path d="M87.2056 105.85L78.6836 110.768L78.2783 110.535L86.797 105.614L87.2056 105.85Z" fill="black"/>
<path d="M120.232 87.4053L113.921 91.0508L107.608 87.4053L113.921 83.7599L120.232 87.4053ZM113.921 90.5806L119.42 87.4053L113.921 84.2301L108.422 87.4053L113.921 90.5806Z" fill="black"/>
<path d="M43.3553 52.5002C45.5935 52.6814 47.6967 53.1055 49.8734 53.4406C51.8859 53.7518 53.8215 54.3041 55.9417 54.2511C57.0412 54.2237 57.7098 53.5757 57.1951 53.008C55.0782 50.6791 52.4826 48.5315 50.6787 46.1086C49.94 45.122 47.4453 45.9581 48.1703 46.9311C49.9777 49.3523 52.5733 51.5016 54.6901 53.8305C55.1073 53.4149 55.5245 53.0012 55.9417 52.5874C54.0728 52.6335 52.4074 52.0453 50.6052 51.8316C48.3977 51.5666 46.3356 51.0724 44.0854 50.8894C42.2695 50.7441 41.512 52.3497 43.3553 52.5002Z" fill="#EF4C43"/>
<path d="M49.6987 42.6798L0.274414 69.1198V71.2178L79.5721 117L128.728 88.6227L128.478 86.4905L49.6987 42.6798Z" fill="#1E88E5"/>
<path d="M128.725 86.3487L79.2994 114.885L0 69.1011L49.4243 40.5631L128.725 86.3487Z" fill="#BBDEFB"/>
<path d="M36.3245 59.0267L12.6972 72.6682L12.2886 72.4339L35.9175 58.7908L36.3245 59.0267Z" fill="black"/>
<path d="M27.1708 65.7195L13.9123 73.373L13.5054 73.1387L26.7621 65.4835L27.1708 65.7195Z" fill="black"/>
<path d="M35.4194 62.3671L15.1367 74.0781L14.728 73.8438L35.0124 62.1328L35.4194 62.3671Z" fill="black"/>
<path d="M25.338 69.6007L16.3593 74.7851L15.9507 74.5491L24.931 69.3647L25.338 69.6007Z" fill="black"/>
<path d="M39.2431 62.9851L17.5856 75.4912L17.1787 75.2553L38.8361 62.7491L39.2431 62.9851Z" fill="black"/>
<path d="M59.1363 52.1266L52.8234 55.772L46.5088 52.1266L52.8234 48.4811L59.1363 52.1266ZM52.8217 55.3018L58.3207 52.1266L52.8217 48.9513L47.3193 52.1266L52.8217 55.3018Z" fill="black"/>
<path d="M34.3539 74.2735L24.9153 79.723L24.5083 79.487L33.9452 74.0393L34.3539 74.2735Z" fill="black"/>
<path d="M49.7693 66.7877L26.1437 80.4275L25.7368 80.1949L49.3623 66.5518L49.7693 66.7877Z" fill="black"/>
<path d="M50.9878 67.4916L27.3622 81.1348L26.9536 80.8988L50.5808 67.2573L50.9878 67.4916Z" fill="black"/>
<path d="M43.7167 73.0974L28.5791 81.8401L28.1704 81.6041L43.3098 72.8632L43.7167 73.0974Z" fill="black"/>
<path d="M53.4272 68.9044L29.8 82.5459L29.3931 82.3099L53.0203 68.6685L53.4272 68.9044Z" fill="black"/>
<path d="M71.3548 59.1814L65.0419 62.8268L58.729 59.1814L65.0419 55.5359L71.3548 59.1814ZM65.0419 62.3566L70.5409 59.1814L65.0419 56.0061L59.5429 59.1814L65.0419 62.3566Z" fill="black"/>
<path d="M60.7643 73.1381L37.1371 86.7778L36.7285 86.5436L60.3574 72.9038L60.7643 73.1381Z" fill="black"/>
<path d="M44.332 84.035L38.3576 87.4839L37.9507 87.2496L43.925 83.7991L44.332 84.035Z" fill="black"/>
<path d="M63.2058 74.5485L39.5786 88.1882L39.1733 87.954L62.7971 74.3142L63.2058 74.5485Z" fill="black"/>
<path d="M56.6553 79.7416L40.803 88.8946L40.396 88.6603L56.2483 79.5073L56.6553 79.7416Z" fill="black"/>
<path d="M65.6494 75.9589L42.0239 89.6003L41.6187 89.3644L65.2425 75.7246L65.6494 75.9589Z" fill="black"/>
<path d="M83.5762 66.2382L77.2633 69.8837L70.9487 66.2382L77.2633 62.5928L83.5762 66.2382ZM77.2616 69.4135L82.7623 66.2382L77.2616 63.063L71.7609 66.2382L77.2616 69.4135Z" fill="black"/>
<path d="M65.9264 84.269L49.3611 93.8358L48.9541 93.5982L65.5195 84.0348L65.9264 84.269Z" fill="black"/>
<path d="M60.9371 88.5615L50.5837 94.541L50.1768 94.305L60.5302 88.3273L60.9371 88.5615Z" fill="black"/>
<path d="M58.088 91.6201L51.8093 95.2451L51.3989 95.0108L57.6793 91.3859L58.088 91.6201Z" fill="black"/>
<path d="M76.654 82.3094L53.0302 95.9509L52.6216 95.7167L76.2471 82.0752L76.654 82.3094Z" fill="black"/>
<path d="M70.2044 87.4442L54.2512 96.6554L53.8442 96.4211L69.7975 87.2083L70.2044 87.4442Z" fill="black"/>
<path d="M95.7943 73.2929L89.4797 76.9384L83.1685 73.2929L89.4797 69.6475L95.7943 73.2929ZM89.4797 76.4699L94.9804 73.2946L89.4797 70.1194L83.9807 73.2946L89.4797 76.4699Z" fill="black"/>
<path d="M85.2026 87.2498L61.5754 100.891L61.1685 100.655L84.7957 87.0155L85.2026 87.2498Z" fill="black"/>
<path d="M78.8534 92.3259L62.7959 101.597L62.3906 101.359L78.4465 92.09L78.8534 92.3259Z" fill="black"/>
<path d="M87.6474 88.6609L64.0185 102.302L63.6133 102.066L87.2371 88.4266L87.6474 88.6609Z" fill="black"/>
<path d="M88.8726 89.3643L65.2454 103.006L64.8418 102.77L88.4656 89.13L88.8726 89.3643Z" fill="black"/>
<path d="M90.0928 90.0705L66.4656 103.712L66.0586 103.478L89.6858 89.8363L90.0928 90.0705Z" fill="black"/>
<path d="M108.022 80.3506L101.706 83.996L95.3945 80.3506L101.706 76.7051L108.022 80.3506ZM101.704 83.5258L107.206 80.3506L101.704 77.1753L96.2067 80.3506L101.704 83.5258Z" fill="black"/>
<path d="M97.4265 94.3048L73.801 107.946L73.394 107.712L97.0195 94.0688L97.4265 94.3048Z" fill="black"/>
<path d="M84.7661 103.027L75.0232 108.653L74.6162 108.415L84.3591 102.791L84.7661 103.027Z" fill="black"/>
<path d="M88.6373 102.204L76.2475 109.357L75.8389 109.121L88.2287 101.968L88.6373 102.204Z" fill="black"/>
<path d="M93.0089 101.086L77.4626 110.063L77.0557 109.829L92.6019 100.85L93.0089 101.086Z" fill="black"/>
<path d="M87.2056 105.85L78.6836 110.768L78.2783 110.535L86.797 105.614L87.2056 105.85Z" fill="black"/>
<path d="M120.232 87.4053L113.921 91.0508L107.608 87.4053L113.921 83.7599L120.232 87.4053ZM113.921 90.5806L119.42 87.4053L113.921 84.2301L108.422 87.4053L113.921 90.5806Z" fill="black"/>
<path d="M43.3553 52.5002C45.5935 52.6814 47.6967 53.1055 49.8734 53.4406C51.8859 53.7518 53.8215 54.3041 55.9417 54.2511C57.0412 54.2237 57.7098 53.5757 57.1951 53.008C55.0782 50.6791 52.4826 48.5315 50.6787 46.1086C49.94 45.122 47.4453 45.9581 48.1703 46.9311C49.9777 49.3523 52.5733 51.5016 54.6901 53.8305C55.1073 53.4149 55.5245 53.0012 55.9417 52.5874C54.0728 52.6335 52.4074 52.0453 50.6052 51.8316C48.3977 51.5666 46.3356 51.0724 44.0854 50.8894C42.2695 50.7441 41.512 52.3497 43.3553 52.5002Z" fill="#EF4C43"/>
<path d="M68.7021 59.3451C67.8386 59.157 67.1957 58.786 67.312 58.1892C67.2795 58.2012 67.2504 58.2132 67.2162 58.2251C66.7255 58.4064 66.3271 58.5688 66.0381 58.4303C66.0261 58.4252 66.0125 58.4184 66.0022 58.4098C65.7526 58.2679 65.5816 57.8746 65.4961 57.047L65.4824 56.9119C65.1301 57.0162 64.7301 56.4263 64.5095 55.8245C64.0051 59.1587 62.8577 63.0573 63.3912 63.4147C63.8494 63.7207 66.9478 61.5799 69.6904 60.0701L70.3932 59.4905C69.834 59.5024 69.2271 59.458 68.7021 59.3451Z" fill="#C42126"/>
<path d="M70.6846 50.835L66.0063 58.4098C66.0166 58.4166 66.0303 58.4251 66.0422 58.4303C66.3312 58.5688 66.728 58.4063 67.2204 58.2251L72.0491 51.4864L70.6846 50.835Z" fill="#F5DA9F"/>
<path d="M67.2178 58.2228C67.252 58.2108 67.281 58.1989 67.3135 58.1869C67.1973 58.7853 67.8402 59.1547 68.7036 59.3428L74.9242 52.8623L72.0482 51.4841L67.2178 58.2228Z" fill="#F5D186"/>
<path d="M74.9237 52.8645L68.7031 59.345C69.2281 59.4578 69.8333 59.5023 70.3959 59.4903L77.1722 53.9383L74.9237 52.8645Z" fill="#F5C96D"/>
<path d="M70.0949 50.5512L68.6894 47.6136L65.5039 57.0471C65.5894 57.8747 65.7587 58.2662 66.01 58.4099L70.6883 50.8351L70.0949 50.5512Z" fill="#F5C96D"/>
<path d="M77.1762 53.9378L70.3999 59.4898C70.523 59.4881 70.6427 59.4846 70.759 59.4778C76.1195 56.4393 82.9368 52.0124 83.5899 51.5884L78.5714 54.6063L77.1762 53.9378Z" fill="#DDAF4E"/>
<path d="M65.4903 56.9111L65.5039 57.0462L68.6895 47.6128L66.8103 43.6903C66.4102 45.537 65.2064 51.2138 64.5156 55.8237C64.7362 56.4273 65.138 57.0154 65.4903 56.9111Z" fill="#DDAF4E"/>
<path d="M106.398 14.2105L78.5693 54.6065L83.5878 51.5886C83.622 51.5664 83.6374 51.5561 83.6374 51.5561L111.466 11.1566L106.398 14.2105Z" fill="#C42126"/>
<path d="M100.696 11.4819L106.395 14.2109L111.463 11.157L108.064 4.05414L106.538 3.32402L99.5877 0L94.5195 3.05044L97.9222 10.155L100.696 11.4819ZM100.381 5.00313C100.72 3.90709 102.544 3.89 104.456 4.96723C104.675 5.08863 104.883 5.222 105.085 5.35879C106.636 6.43431 107.609 7.92533 107.309 8.89484C106.974 9.98916 105.15 10.0063 103.238 8.93246C103.066 8.8367 102.9 8.73411 102.741 8.62639C101.111 7.54745 100.078 6 100.381 5.00313Z" fill="#F5C96D"/>
<path d="M102.742 8.62606C102.901 8.73378 103.067 8.83638 103.239 8.93213C105.151 10.0042 106.975 9.98884 107.311 8.89451C107.61 7.92329 106.637 6.43398 105.086 5.35846C104.884 5.22167 104.676 5.08831 104.457 4.96691C102.545 3.89139 100.721 3.90677 100.382 5.00281C100.08 5.99967 101.112 7.54712 102.742 8.62606Z" fill="#EF4C43"/>
<path d="M97.9249 10.1533L70.0913 50.5511L70.6847 50.8349L72.0457 51.4864L74.9218 52.8646L77.1719 53.9384L78.5672 54.6069L106.396 14.2109L100.697 11.4819L97.9249 10.1533Z" fill="#EF4C43"/>
<path d="M70.0912 50.5517L97.9247 10.1539L94.522 3.04932L66.9381 43.0846L66.6919 43.4488L66.8065 43.6899V43.6916L68.6856 47.6141L70.0912 50.5517Z" fill="#C42126"/>
</svg>
