<svg width="230" height="141" viewBox="0 0 230 141" fill="none" xmlns="http://www.w3.org/2000/svg">
<path d="M102.797 78.9111C101.024 76.8121 98.986 74.7726 98.4548 72.3718C97.9378 70.6053 98.1278 68.7408 99.465 66.9568C101.126 64.7398 104.184 63.5676 106.871 64.686C108.227 65.2492 109.648 66.0981 110.497 67.2728C110.509 67.2156 110.523 67.1594 110.531 67.1003C110.593 66.7012 110.65 66.3301 110.847 65.9707C110.907 65.8633 110.986 65.8052 111.07 65.7683C111.073 65.3705 111.082 64.9749 111.114 64.5827C111.125 64.4489 111.181 64.3528 111.255 64.2758C111.222 63.9097 111.187 63.5516 111.165 63.2192C111.217 63.1398 111.24 63.0445 111.198 62.95C110.166 60.5779 106.424 60.15 104.202 60.0858C101.35 60.0033 98.3465 60.9096 96.6241 63.2938C95.0459 65.4824 94.6635 69.5122 95.3815 72.0636C96.3062 75.3489 97.9806 77.1522 100.93 78.8094C101.134 78.9244 101.315 78.8824 101.448 78.7731C101.7 78.9951 101.958 79.2096 102.224 79.4163C102.552 79.6694 103.091 79.2591 102.797 78.9111Z" fill="#0075A1"/>
<path d="M82.9683 108.437C82.1247 106.567 81.8935 104.568 82.7106 102.855C85.1282 97.7844 90.1347 97.3687 94.0141 100.484C94.1912 100.005 94.1827 99.9116 94.3539 99.4316C94.3551 99.4209 94.3564 99.4103 94.3555 99.3994C94.3611 99.3962 94.3642 99.3913 94.369 99.3876C94.3809 99.3588 94.3913 99.3289 94.4012 99.2999C94.468 99.1122 94.5259 98.9154 94.5822 98.7174C94.5979 98.4644 94.5744 98.2028 94.4804 97.9789C94.3848 97.747 94.0793 97.6677 93.9043 97.8683C93.8361 97.9462 93.7936 98.025 93.7584 98.105C90.2669 94.5219 83.4592 94.0714 80.5762 98.703C78.9571 101.302 79.0071 103.937 79.9333 106.765C80.4995 108.488 82.629 111.026 84.6517 111.278C83.9758 110.415 83.3874 109.451 82.9683 108.437Z" fill="#EEA821"/>
<path d="M51.0764 31.7947C49.7444 29.4914 46.4935 28.4239 43.946 28.7476C43.8272 28.7627 43.7524 28.8524 43.7245 28.9544C43.6887 28.9425 43.6507 28.9429 43.6124 28.9716C43.0295 29.4084 42.6356 29.6824 42.4118 30.1098C42.4655 30.0052 44.5647 30.9869 44.7603 31.0906C47.6862 32.6419 49.0065 36.3275 47.0629 39.1385C46.5644 39.8593 45.7573 40.9041 44.982 41.3388C42.6863 42.6285 39.9864 42.6477 37.7927 41.5059C37.719 41.6341 37.702 41.7947 37.7947 41.9262C37.8132 41.952 37.8366 41.9741 37.8565 41.9997C37.8182 42.032 37.7777 42.0639 37.7467 42.1112C36.7492 43.6339 41.4135 44.8162 42.1999 44.9715C45.594 45.6437 48.466 42.3251 50.3107 39.9728C52.2931 37.4436 52.6835 34.5719 51.0764 31.7947Z" fill="#A8225F"/>
<path d="M31.8994 53.0792C32.926 53.6341 39.7714 57.8162 40.8646 58.4443C41.9584 59.0716 39.8537 58.7961 38.0061 60.5983C36.1607 62.4006 32.9686 68.732 39.1358 72.4414C45.3054 76.1524 48.5035 70.6917 48.7423 70.2397C48.9806 69.7886 49.6253 67.2581 49.6035 66.3188C49.5825 65.38 49.4042 64.1931 49.9514 64.4635C50.4585 64.7145 59.0896 68.6146 61.4261 69.8394C62.5105 67.8045 67.3019 58.7326 67.7294 57.8738C68.207 56.9103 68.3512 61.2909 75.3136 61.5C82.2756 61.71 84.4498 53.7922 81.3325 49.8181C78.2165 45.8436 74.6226 47.1189 74.0841 46.615C73.5456 46.111 80.2794 35.1833 80.7753 34.0624C80.7753 34.0624 80.9556 32.9562 78.8924 31.9476C76.8285 30.9398 69.8259 27.3877 69.365 27.1554C68.9046 26.9223 70.2356 26.4039 71.3977 24.469C72.8952 21.9768 74.4133 18.4105 69.9004 15.7357C65.5488 13.1558 61.0663 14.2515 60.2544 19.2327C59.5835 23.3478 60.7071 23.9488 59.6906 23.4223C58.6737 22.8945 49.5386 17.6085 48.3877 18.0132C47.2381 18.4176 41.8523 30.2772 42.3745 30.2095C42.3745 30.2095 44.786 29.3344 47.5664 31.0151C50.3474 32.6951 50.3359 36.974 47.9912 40.1367C45.6473 43.3 40.3394 43.915 37.2092 40.1705C37.2092 40.1705 32.31 49.8303 31.8144 51.003C31.3531 52.0939 31.5968 52.8152 31.6343 52.9118C31.7323 52.9792 31.8238 53.039 31.8994 53.0792Z" fill="#EB9609"/>
<path d="M81.3312 49.7945C80.6706 48.952 79.9886 48.3452 79.3177 47.907C76.893 46.3235 74.6297 46.9531 74.1208 46.6208C74.1064 46.6113 74.0946 46.6013 74.0828 46.5913C73.5448 46.0866 80.2789 35.1601 80.7754 34.0384C80.7754 34.0384 80.8782 33.3339 79.8788 32.5381C79.9019 32.5921 79.9162 32.6507 79.9353 32.7089C79.9943 32.8551 80.0443 33.0079 80.0898 33.1624C80.1602 33.403 80.1447 33.6402 80.0603 33.8267C80.0704 33.8516 80.082 33.8775 80.0848 33.8942C79.8456 34.3574 79.1375 35.5711 78.392 36.8508C73.0802 45.9595 73.0162 46.5279 73.615 47.0884C73.6547 47.1258 73.6978 47.1597 73.7468 47.1917C74.0678 47.4013 74.4806 47.4133 75.0517 47.4302C76.0047 47.4572 77.4428 47.4977 78.9437 48.4779C79.6066 48.9109 80.2286 49.4957 80.7937 50.2162C82.263 52.0894 82.4533 55.0439 81.2567 57.404C80.5924 58.7172 78.938 60.9032 75.3331 60.794C73.338 60.7344 71.7208 60.3079 70.5281 59.529C69.569 58.9026 69.1065 58.2055 68.799 57.7425C68.6249 57.48 68.499 57.289 68.304 57.1617C68.109 57.0343 67.8836 56.997 67.6678 57.0553C67.431 57.1193 67.2459 57.2846 67.1164 57.547C66.7288 58.3276 62.6184 66.1133 61.1378 68.9016C58.9987 67.8355 54.5156 65.7834 51.9932 64.6272C51.0888 64.2129 50.3767 63.8864 50.2546 63.8261C49.9407 63.6703 49.609 63.6815 49.3444 63.8545C48.8179 64.1999 48.8543 64.9071 48.8997 65.8034C48.9088 65.9731 48.918 66.1463 48.921 66.3097C48.9405 67.165 48.3117 69.5662 48.1397 69.897C48.128 69.9202 46.9105 72.1809 44.548 72.8396C43.0144 73.2668 41.3135 72.9277 39.4919 71.8318C39.3849 71.7677 39.2811 71.7022 39.1808 71.6367C37.399 70.473 36.4085 68.9743 36.2339 67.1819C35.9932 64.712 37.4065 62.1156 38.4881 61.0611C39.3219 60.2467 40.218 59.9092 40.8107 59.6849C41.3146 59.493 41.7906 59.3139 41.8484 58.7849C41.8849 58.4458 41.7177 58.1535 41.3493 57.9129C41.3076 57.8856 41.2608 57.8573 41.2081 57.8275C40.76 57.5704 39.2718 56.6705 37.6959 55.7192C35.431 54.35 32.8637 52.8004 32.2343 52.458C32.2337 52.4519 32.2339 52.4428 32.2335 52.4346C32.0511 52.2914 31.9134 52.1099 31.8504 51.8718C31.7828 51.6182 31.7581 51.341 31.8009 51.0781C31.8028 51.0576 31.7981 51.0385 31.7996 51.0189C31.3638 52.0864 31.5994 52.7921 31.6345 52.8872C31.6749 52.9147 31.7129 52.9407 31.7498 52.9648C31.8044 53.0004 31.856 53.0318 31.9023 53.0575C32.9289 53.6123 39.7735 57.7939 40.8673 58.4212C40.9074 58.444 40.9424 58.4657 40.9737 58.4862C41.8093 59.0318 39.7883 58.8385 38.0088 60.5752C36.1957 62.3438 33.0882 68.4763 38.8052 72.21C38.9128 72.2802 39.023 72.3499 39.138 72.4193C45.306 76.1293 48.5063 70.6687 48.7445 70.2176C48.9833 69.7656 49.6259 67.2349 49.6046 66.2947C49.5841 65.3551 49.4054 64.1691 49.9517 64.4389C50.461 64.6902 59.09 68.59 61.4273 69.8154C62.5126 67.781 67.304 58.7091 67.7306 57.8497C67.7981 57.7151 67.8583 57.6846 67.9321 57.7328C68.1962 57.9053 68.6304 59.1036 70.1562 60.1001C71.2293 60.8009 72.8422 61.402 75.3145 61.4768C82.2733 61.6881 84.4472 53.7689 81.3312 49.7945Z" fill="#C00073"/>
<path d="M51.0512 91.3619C50.2439 92.1078 48.0626 92.5003 45.3031 90.3134C42.0084 87.7014 42.866 81.0497 48.2038 79.9606C53.0594 78.9688 53.8172 83.3209 54.5533 83.4445C55.2895 83.5681 61.1419 70.347 61.2123 70.2396C61.2197 70.2283 61.3006 70.0785 61.4323 69.8302C59.0958 68.6054 50.4644 64.7052 49.9573 64.4542C49.4101 64.1838 49.5884 65.3707 49.6094 66.3095C49.6307 67.2497 48.9873 69.7799 48.7482 70.2306C48.5094 70.6826 45.3107 76.1443 39.1414 72.4324C32.9741 68.7228 36.1654 62.3908 38.0117 60.5889C39.8593 58.7867 41.9649 59.0627 40.8703 58.4348C39.777 57.8067 32.9314 53.6245 31.9048 53.0696C31.8292 53.0294 31.7377 52.9696 31.6386 52.9004C31.6422 52.9073 31.6455 52.9197 31.6455 52.9197C31.6455 52.9197 30.8856 52.8322 30.5593 53.4354C30.2313 54.0375 24.3758 66.406 24.3758 66.406C24.3758 66.406 21.7664 60.619 16.3443 64.4259C10.9227 68.2321 12.535 75.7493 19.5695 75.513C19.5695 75.513 14.3569 83.4697 14.6309 84.1937C14.9055 84.9168 24.8895 89.5321 24.924 89.8958C24.959 90.2587 22.1589 90.0615 19.8355 93.9195C17.5128 97.778 19.4388 101.281 22.9338 103.223C26.4287 105.166 30.8226 104.905 32.6878 101.225C32.6878 101.225 33.6085 99.9216 33.7352 97.963C33.8607 96.0047 33.5749 95.8181 37.6749 98.2908C41.7751 100.765 45.0232 103.499 45.746 103.018C46.7702 100.185 52.4754 90.0469 51.0512 91.3619Z" fill="#68BD46"/>
<path d="M51.0512 91.3619C50.2439 92.1078 48.0626 92.5003 45.3031 90.3134C42.0084 87.7014 42.866 81.0497 48.2038 79.9606C53.0594 78.9688 53.8172 83.3209 54.5533 83.4445C55.2895 83.5681 61.1419 70.347 61.2123 70.2396C61.2197 70.2283 61.3006 70.0785 61.4323 69.8302C59.0958 68.6054 50.4644 64.7052 49.9573 64.4542C49.4101 64.1838 49.5884 65.3707 49.6094 66.3095C49.6307 67.2497 48.9873 69.7799 48.7482 70.2306C48.5094 70.6826 45.3107 76.1443 39.1414 72.4324C32.9741 68.7228 36.1654 62.3908 38.0117 60.5889C39.8593 58.7867 41.9649 59.0627 40.8703 58.4348C39.777 57.8067 32.9314 53.6245 31.9048 53.0696C31.8292 53.0294 31.7377 52.9696 31.6386 52.9004C31.6422 52.9073 31.6455 52.9197 31.6455 52.9197C31.6455 52.9197 30.8856 52.8322 30.5593 53.4354C30.2313 54.0375 24.3758 66.406 24.3758 66.406C24.3758 66.406 21.7664 60.619 16.3443 64.4259C10.9227 68.2321 12.535 75.7493 19.5695 75.513C19.5695 75.513 14.3569 83.4697 14.6309 84.1937C14.9055 84.9168 24.8895 89.5321 24.924 89.8958C24.959 90.2587 22.1589 90.0615 19.8355 93.9195C17.5128 97.778 19.4388 101.281 22.9338 103.223C26.4287 105.166 30.8226 104.905 32.6878 101.225C32.6878 101.225 33.6085 99.9216 33.7352 97.963C33.8607 96.0047 33.5749 95.8181 37.6749 98.2908C41.7751 100.765 45.0232 103.499 45.746 103.018C46.7702 100.185 52.4754 90.0469 51.0512 91.3619Z" fill="#68BD46"/>
<path d="M74.0875 46.6224C74.6246 47.1266 78.2194 45.8518 81.3359 49.8255C84.4532 53.7997 82.279 61.7175 75.317 61.5076C68.355 61.2976 68.2103 56.9178 67.7326 57.8813C67.3057 58.7394 62.513 67.8116 61.4293 69.847C61.6076 69.9405 61.7533 70.0208 61.8509 70.08C63.2407 70.9201 76.0369 79.039 75.8062 77.9357C75.5762 76.833 75.0778 74.0585 76.2661 71.5694C77.4544 69.0802 81.7199 66.9337 86.2583 69.7271C90.7959 72.52 89.6942 76.593 89.5018 77.4325C89.3051 78.2909 88.1515 80.4295 86.7393 81.6493C85.3273 82.8704 84.9389 82.8126 85.2247 82.9992C85.4879 83.1711 96.6202 88.8408 99.4815 90.3649C99.5933 90.3727 100.487 90.316 102.113 87.0564C103.854 83.5667 105.452 79.985 105.933 78.9378C106.415 77.8911 105.938 77.7851 104.162 77.169C102.388 76.5539 96.0687 73.3108 97.335 67.9474C98.6013 62.5839 104.882 61.3108 108.164 64.2029C111.444 67.0934 109.82 69.3678 111.838 65.0381C113.856 60.7097 117.276 55.595 116.792 54.463C116.307 53.3299 103.072 47.3387 105.166 46.3259C107.259 45.313 110.262 41.3547 110.316 38.4639C110.37 35.5739 107.813 30.4349 101.265 30.2401C94.7183 30.0471 93.3846 35.0952 93.7092 37.8237C94.033 40.5517 94.3079 41.2762 93.1929 40.2755C92.0779 39.2748 81.7933 32.8306 80.7764 34.0716C80.282 35.1901 73.5489 46.1184 74.0875 46.6224Z" fill="#00C1F1"/>
<path d="M100.095 86.1794C101.429 83.5048 102.701 80.7261 103.406 79.176L103.308 79.1413C102.959 79.0212 101.697 78.5465 100.15 77.5359C96.0374 74.8501 94.264 71.291 95.1559 67.5138C95.832 64.6501 97.754 62.395 100.428 61.3273C103.091 60.2647 106.167 60.5335 108.454 62.0274C108.766 62.2308 109.063 62.4572 109.341 62.7023C109.64 62.9656 109.907 63.2267 110.145 63.4829C110.832 62.0825 111.623 60.6343 112.334 59.3326C113.051 58.0228 113.976 56.3348 114.393 55.3397C113.574 54.8218 112.301 54.1142 110.96 53.3691C109.203 52.3912 107.211 51.2833 105.737 50.3209C104.083 49.2406 102.609 48.1371 102.714 46.5104C102.769 45.6533 103.284 44.9097 104.093 44.5185C105.53 43.8222 108.046 40.5675 108.085 38.4634C108.108 37.2601 107.349 34.9511 105.164 33.5242C104.019 32.7763 102.627 32.3732 101.025 32.3255C99.0962 32.2679 97.65 32.7488 96.7287 33.7546C95.6706 34.9079 95.443 36.5568 95.5686 37.6177C95.6181 38.0301 95.6662 38.3958 95.7072 38.7146C95.9228 40.3586 96.0924 41.6566 94.8139 42.4589C94.5316 42.6363 93.5162 43.1523 92.305 42.3614C92.1076 42.2324 91.9027 42.0711 91.6429 41.8362C91.6413 41.8351 91.3497 41.584 90.1803 40.8203C86.8045 38.6156 83.4015 36.8111 81.7878 36.2094C81.5026 36.7078 81.1126 37.3782 80.5785 38.2933C79.5962 39.9782 77.883 42.9169 76.8156 44.924C77.8273 45.0924 79.0305 45.4546 80.2649 46.2608C81.1775 46.8568 82.0207 47.6444 82.7697 48.5984C84.9029 51.3197 85.2048 55.3808 83.5205 58.7058C81.889 61.9257 78.8096 63.7065 75.0717 63.594C72.5654 63.5188 70.4728 62.9433 68.8515 61.8844C68.5722 61.702 68.3192 61.5127 68.0895 61.3227C66.8805 63.6266 65.1151 66.9685 63.9701 69.131C68.593 72.007 71.4874 73.7359 73.2826 74.7515C73.3401 73.28 73.6564 71.933 74.2341 70.7258C75.1067 68.8971 76.9466 67.4162 79.1549 66.7656C81.7563 65.9995 84.5964 66.4451 87.1557 68.0191C87.2503 68.0775 87.3445 68.1367 87.4352 68.196C89.4321 69.5001 92.5935 72.4887 91.3391 77.8565L91.3222 77.9244C91.0787 78.9905 90.0361 81.0333 88.5941 82.5679C89.3854 82.9748 90.2843 83.4359 91.1717 83.8918C93.8618 85.2732 97.0824 86.9276 99.0663 87.9612C99.3171 87.6063 99.6628 87.0455 100.095 86.1794Z" fill="#6ECFF4"/>
<path d="M89.1353 110.404C88.6593 110.093 81.9583 110.549 82.0477 104.279C82.0712 102.636 82.443 100.921 83.5296 99.6484C84.8956 98.0514 86.9788 96.8989 89.1363 97.1253C90.1927 97.2359 91.1946 97.6063 92.0881 98.1703C92.8881 98.6756 93.3409 99.293 93.738 100.121C94.0535 100.779 94.3303 100.263 94.5787 99.8072C95.2632 98.5541 100.086 91.0893 99.4901 90.3544C96.6296 88.8309 85.4964 83.1605 85.2332 82.9886C84.9474 82.802 85.3358 82.8599 86.7478 81.6388C88.1606 80.4181 89.3136 78.2803 89.5103 77.4219C89.702 76.5819 90.8045 72.5093 86.2668 69.7165C81.7292 66.9236 77.4637 69.0701 76.2745 71.5587C75.0862 74.0479 75.5847 76.8224 75.8146 77.9251C76.0453 79.0284 63.249 70.9094 61.8592 70.0693C61.7608 70.0096 61.6151 69.9294 61.4376 69.8364C61.3051 70.0841 61.2255 70.2336 61.2176 70.2457C61.1472 70.3531 55.2949 83.574 54.5587 83.4505C53.8225 83.3269 53.0648 78.9749 48.2092 79.9666C42.8715 81.0557 42.0147 87.7078 45.3086 90.3193C48.0681 92.5061 50.2493 92.1137 51.0566 91.3678C52.4808 90.0528 46.7757 100.19 45.7518 103.025C45.7518 103.025 45.8548 103.909 50.938 106.752C56.0207 109.597 58.6395 110.693 58.6395 110.693C58.6395 110.693 54.0446 111.367 52.4882 116.133C50.9313 120.899 55.5203 123.351 58.1379 124.243C60.7536 125.136 64.6739 124.974 66.3521 121.58C68.0311 118.186 67.7868 115.646 67.7868 115.646C67.7868 115.646 72.2401 118.622 75.1642 120.396C78.0881 122.17 81.1206 123.674 81.9237 123.382C82.729 123.094 89.6129 110.716 89.1353 110.404Z" fill="#EB9609"/>
<path d="M99.4604 90.3454C99.4604 90.3454 99.4646 90.3459 99.4723 90.3463C96.6101 88.8217 85.4776 83.1518 85.2159 82.9809C84.9294 82.7938 85.317 82.8511 86.729 81.63C88.1418 80.4093 89.2964 78.2725 89.4916 77.413C89.6809 76.5887 90.7473 72.6413 86.4805 69.8547C86.405 69.8054 86.3269 69.7567 86.248 69.7075C81.7111 66.9151 77.4447 69.0611 76.2555 71.5498C75.0671 74.039 75.5664 76.8141 75.7967 77.9181C76.0266 79.0209 63.2314 70.9015 61.8402 70.0616C61.7409 70.0014 61.5947 69.922 61.4165 69.8284C61.2848 70.0767 61.2043 70.2257 61.197 70.2369C61.1266 70.3444 55.2741 83.5656 54.5385 83.4412C54.5054 83.4357 54.472 83.4219 54.4383 83.3999C53.9913 83.1079 53.4709 81.4583 52.0045 80.5006C51.1304 79.9297 49.9211 79.6048 48.1896 79.9578C42.8532 81.0466 41.9942 87.6986 45.2895 90.3098C45.5461 90.5129 45.7975 90.6943 46.0423 90.8542C48.4437 92.4225 50.3056 92.0367 51.0371 91.3592C51.1435 91.2615 51.2097 91.2269 51.241 91.2474C51.6399 91.5079 46.6807 100.392 45.7335 103.017C45.7335 103.017 45.7698 103.286 46.644 104C46.5344 103.844 46.4457 103.675 46.4206 103.472C46.3986 103.298 46.4263 103.108 46.4961 102.939C47.0029 101.677 48.1611 99.3949 49.2832 97.1818C52.2001 91.433 52.3098 91.1291 51.6155 90.6756C51.4309 90.5551 51.0488 90.4177 50.5717 90.8572C50.0271 91.3614 48.4699 91.6233 46.416 90.2819C46.1832 90.1299 45.9474 89.9598 45.7138 89.7741C44.3265 88.6746 43.7159 86.5996 44.1927 84.6086C44.6959 82.5111 46.2017 81.0592 48.3246 80.6264C49.6691 80.3515 50.7503 80.4978 51.6284 81.0712C52.4446 81.6043 52.9449 82.4222 53.3097 83.02C53.5803 83.4623 53.7746 83.7815 54.0627 83.9697C54.1767 84.0442 54.2984 84.0927 54.4239 84.1129C55.1422 84.2339 55.5755 84.3074 61.4706 71.28C61.5641 71.0709 61.6427 70.9001 61.6991 70.7755C61.9219 70.913 62.248 71.1168 62.6543 71.3696C75.2398 79.202 75.6064 78.9468 76.1623 78.56C76.4126 78.3845 76.5295 78.0853 76.4643 77.7771C75.9743 75.4306 76.1119 73.4344 76.8721 71.8437C77.4085 70.7205 78.6428 69.7565 80.0966 69.3287C81.4016 68.9444 83.4653 68.798 85.8874 70.2894C85.9176 70.308 86.0045 70.3625 86.1064 70.4222L86.1038 70.4262C88.5882 72.0499 89.5098 74.3221 88.8423 77.1813L88.8238 77.262C88.6571 77.9889 87.5658 80.0045 86.2803 81.1148C85.667 81.6451 85.2606 81.919 85.0175 82.0819C84.7329 82.275 84.439 82.4735 84.4417 82.8909C84.4428 83.0747 84.5129 83.3404 84.8395 83.5537C84.9688 83.6381 86.0126 84.1755 90.0886 86.2685C93.1964 87.8642 97.0132 89.8246 98.7921 90.7619C98.7913 90.7648 98.7903 90.7699 98.7882 90.7731C99.0417 90.9215 99.2102 91.2101 99.2284 91.5357C99.4794 90.9303 99.5832 90.4954 99.4604 90.3454Z" fill="#FFC709"/>
<path d="M86.2367 111.69C85.2704 111.47 84.1644 111.1 83.1354 110.428C81.645 109.454 79.8783 107.538 79.9297 103.936C80.0342 96.6132 85.9418 94.7697 88.2078 94.6765C89.4913 94.6241 92.007 95.4564 93.4863 96.4225C93.6042 96.4996 93.7161 96.5772 93.8219 96.6554C94.602 95.372 96.2236 92.6815 97.0045 91.0871C95.024 90.057 91.979 88.4931 89.4163 87.1779C84.4105 84.6082 84.2186 84.5057 84.0444 84.392C83.1343 83.7976 83.0306 82.9376 83.028 82.597C83.0201 81.4458 83.8515 80.8851 84.2068 80.6454C84.4383 80.4898 84.787 80.255 85.3397 79.7768C86.4504 78.8179 87.3383 77.0794 87.4438 76.6526L87.4646 76.5665C87.8037 75.1165 87.9482 72.9909 85.3089 71.2661L85.3205 71.2484C85.2224 71.2004 85.142 71.1605 85.1225 71.15C83.1308 69.9237 81.4755 70.031 80.4362 70.3369C79.13 70.7214 78.3398 71.5427 78.0596 72.1279C77.4328 73.445 77.331 75.1486 77.757 77.1957C77.9329 78.0364 77.5956 78.8923 76.8981 79.3779C75.5683 80.3058 75.2446 80.534 62.2563 72.458C56.3241 85.526 55.9237 85.4568 54.1511 85.159C53.8372 85.1063 53.5398 84.99 53.2678 84.8123C52.7212 84.4553 52.4182 83.9574 52.0965 83.4303C51.766 82.8904 51.391 82.2768 50.834 81.913C50.8324 81.912 50.8308 81.9109 50.8308 81.9109C50.6221 81.7746 49.9918 81.3687 48.5523 81.6628C46.308 82.1217 45.6541 83.886 45.4774 84.6247C45.1218 86.1086 45.5404 87.6265 46.5192 88.4031C46.7201 88.5618 46.9219 88.7085 47.1194 88.8375C48.5376 89.7637 49.4341 89.6233 49.6285 89.5259C50.6034 88.6501 51.6847 88.8171 52.3188 89.2312C53.9577 90.3016 53.1221 92.0686 52.3856 93.6266C51.8841 94.6879 51.1904 96.0529 50.4574 97.4988C49.613 99.1639 48.6849 100.992 48.0987 102.275C48.369 102.483 48.7443 102.754 49.2604 103.091C49.9803 103.561 50.8609 104.087 51.8773 104.655C56.7683 107.392 59.3463 108.486 59.3706 108.496C59.4855 108.545 59.5953 108.603 59.698 108.67C60.3457 109.093 60.7103 109.855 60.609 110.643C60.4928 111.555 59.7819 112.278 58.8707 112.411C58.7525 112.433 55.5006 113.011 54.375 116.459C53.9845 117.654 53.8507 119.231 56.2987 120.83C57.1872 121.41 58.1144 121.784 58.7372 121.995C58.9104 122.054 62.9509 123.391 64.4483 120.366C65.8131 117.604 65.6793 115.532 65.6786 115.512C65.6038 114.724 65.9903 113.974 66.6712 113.568C67.3452 113.166 68.1901 113.193 68.8467 113.622C68.8531 113.626 68.8587 113.63 68.8651 113.634C68.8691 113.637 69.9788 114.38 71.4508 115.341C73.361 116.589 74.9912 117.624 76.1652 118.337C78.4801 119.74 80.1346 120.536 81.0269 120.873C82.2588 119.043 84.8702 114.415 86.2367 111.69Z" fill="#FF9F01"/>
<path d="M68.9241 94.8522C68.9111 95.1082 68.8094 95.3772 68.7538 95.6283C68.6734 95.9959 69.1911 96.1291 69.3585 95.8229C69.6119 95.3644 69.7237 94.9279 69.6126 94.41C69.5331 94.0433 69.1173 93.7213 68.7438 93.8174C68.2503 93.9428 68.1064 94.5735 68.022 95.0049C67.9062 95.5945 67.8311 96.2495 68.0616 96.8213C68.1602 97.0678 68.4907 96.9779 68.4952 96.7279C68.5086 96.1092 68.5485 95.5113 68.7425 94.9179C68.7786 94.8156 68.8235 94.7155 68.8761 94.6194C68.8701 94.5971 68.864 94.5749 68.8585 94.5518C68.9144 94.6432 68.9368 94.7437 68.9241 94.8522Z" fill="#916337"/>
<path d="M74.9794 103.958C74.9486 103.34 74.6485 102.724 74.4512 102.142C74.288 101.66 74.0833 101.185 73.8059 100.756C73.7008 100.595 73.4261 100.687 73.4501 100.881C73.5019 101.308 73.6027 101.707 73.7129 102.118C71.4914 103.012 69.7208 103.474 67.3437 102.895C64.0854 102.102 62.4872 98.7714 62.572 95.6468C62.5766 95.4403 62.2503 95.4344 62.2163 95.6298C61.6778 98.6195 62.7593 101.514 65.3248 103.167C67.8657 104.804 71.4456 104.636 73.9429 103.039C74.0421 103.44 74.1622 103.839 74.4063 104.158C74.5976 104.406 74.9943 104.278 74.9794 103.958Z" fill="#892614"/>
<path d="M81.0586 90.7649C81.091 90.5319 81.1985 90.3101 81.2229 90.0593C81.2605 89.6854 81.2644 89.2998 81.274 88.9248C81.2896 88.2571 81.177 87.4336 80.8007 86.8604C80.0473 85.7135 78.8417 86.1718 78.1956 87.1651C77.9692 87.5141 78.457 87.7789 78.7388 87.6321C78.995 87.4982 79.2135 87.3134 79.4523 87.15C80.0055 86.7693 80.2942 87.6826 80.4201 88.0625C80.7 88.9174 80.5229 89.8666 80.6357 90.744C80.6659 90.9779 81.0248 91.0142 81.0586 90.7649Z" fill="#916337"/>
<path d="M72.0282 83.5017C72.0968 82.4978 71.4572 81.4274 70.3761 81.3545C69.3839 81.2893 68.3456 82.1604 67.6348 82.7485C67.4959 82.8627 67.5974 83.1397 67.7859 83.0498C68.3512 82.7869 68.9551 82.5264 69.5536 82.3528C69.9796 82.2291 70.3262 82.1601 70.7097 82.4494C71.0257 82.6878 71.085 83.227 71.2513 83.5646C71.4048 83.8778 71.998 83.9537 72.0282 83.5017Z" fill="#916337"/>
<path d="M68.2562 88.7717C68.7079 88.2081 69.0286 87.528 69.1047 86.9046C69.1523 86.5258 69.0671 86.0454 68.7749 85.8145C68.4061 85.5256 67.9595 85.7823 67.6187 86.0611C66.9336 86.6223 66.4044 87.4948 66.0652 88.3048C65.9275 88.6339 65.758 89.0623 65.7549 89.4186C65.7523 89.9298 66.3264 90.0312 66.6948 89.9203C67.2703 89.7466 67.8239 89.3126 68.2562 88.7717Z" fill="#4F3220"/>
<path d="M68.9429 86.2494C68.7898 85.9777 68.4465 86.0626 68.2544 86.2142C68.0617 86.3666 67.9226 86.586 67.8306 86.8121C67.6816 87.1865 67.6169 88.0968 68.2591 88.0331C68.9936 87.9598 69.2516 86.7945 68.9429 86.2494Z" fill="white"/>
<path d="M77.2718 94.6604C77.7235 94.0968 78.0434 93.4161 78.1203 92.7932C78.1679 92.4145 78.0827 91.9341 77.7905 91.7032C77.4225 91.4148 76.9751 91.671 76.6343 91.9498C75.9493 92.511 75.4201 93.3835 75.0808 94.1934C74.9432 94.5225 74.7736 94.951 74.7705 95.3073C74.7671 95.818 75.3413 95.9193 75.7088 95.8079C76.2851 95.6348 76.8396 95.2012 77.2718 94.6604Z" fill="#4F3220"/>
<path d="M77.96 92.1391C77.8069 91.8673 77.4628 91.9517 77.2715 92.1038C77.0788 92.2562 76.9397 92.4756 76.8477 92.7018C76.6987 93.0761 76.6332 93.9859 77.2754 93.9222C78.0091 93.8484 78.2679 92.6836 77.96 92.1391Z" fill="white"/>
<path d="M46.4271 95.6695C46.7574 95.0185 47.1313 94.2815 47.4839 93.5753C46.5471 93.3767 45.54 92.9686 44.5022 92.2909C44.2004 92.0938 43.8966 91.8736 43.5968 91.6366C41.3591 89.8638 40.3849 86.7465 41.1165 83.6968C41.8658 80.5693 44.202 78.3169 47.3642 77.671C49.4205 77.2507 51.2201 77.5318 52.713 78.5068C53.2138 78.8339 53.6305 79.209 53.9796 79.5893C54.7954 78.0029 56.1242 75.2539 58.2851 70.4929C56.2334 69.5102 53.2416 68.1345 51.1302 67.1677C50.9225 68.5571 50.4371 70.3319 50.1344 70.9059C49.9548 71.2465 48.2826 74.2521 44.8559 75.2073C42.5679 75.8449 40.1444 75.407 37.6528 73.908C37.518 73.8269 37.384 73.7428 37.2556 73.6589C34.1285 71.6167 33.2606 69.0108 33.0828 67.183C32.733 63.5988 34.7249 60.233 36.1493 58.8425C36.344 58.6537 36.5394 58.4814 36.7347 58.325C36.4515 58.1538 36.1557 57.9755 35.8532 57.7917C34.3305 56.8728 32.5457 55.7941 31.4421 55.1398C30.3356 57.4375 27.668 63.0594 25.8026 67.0001C25.4602 67.7222 24.7288 68.181 23.9276 68.1741C23.5277 68.1705 23.1465 68.051 22.823 67.8397C22.5019 67.63 22.2405 67.3311 22.077 66.9667C22.077 66.9667 21.557 65.8817 20.6243 65.2726L20.6219 65.271C20.231 65.0157 19.1954 64.3451 17.0936 65.8199C15.5683 66.8903 14.7087 68.3703 14.7341 69.8798C14.7525 70.9852 15.2555 71.916 16.1505 72.5005C16.8937 72.9859 17.9043 73.2223 19.0699 73.182C19.5013 73.1672 19.9147 73.2884 20.2623 73.5154C20.5327 73.692 20.7633 73.9331 20.927 74.2255C21.3012 74.8912 21.2752 75.7111 20.8555 76.3518C19.2979 78.7292 17.55 81.5617 16.6985 83.1432C17.9066 83.8234 19.7795 84.7729 21.3518 85.5707C23.4737 86.6474 24.8058 87.3273 25.4142 87.7246C25.667 87.8898 26.4383 88.3935 26.5364 89.4159C26.6134 90.2115 26.3449 91.2738 24.6326 91.8145C23.8838 92.0513 22.4894 92.4917 21.1632 94.6928C19.3 97.7888 21.49 99.8636 22.962 100.825C23.1354 100.938 23.3161 101.047 23.5027 101.151C25.0976 102.037 26.8703 102.315 28.2446 101.895C29.2124 101.598 29.9467 100.967 30.4287 100.018C30.4732 99.9292 30.5254 99.8442 30.5825 99.7624C30.5825 99.7624 31.1744 98.8553 31.2586 97.5512C31.2653 97.4308 31.2729 97.3178 31.2783 97.2115C31.3243 96.3576 31.3932 95.0664 32.6367 94.4085C34.0275 93.6728 35.1055 94.3241 38.3069 96.2546C38.9362 96.6358 39.595 97.0489 40.3158 97.5196C41.051 97.9998 41.7451 98.4692 42.3844 98.9015C42.9132 99.2595 43.4045 99.5906 43.85 99.8816C43.9824 99.968 44.1044 100.048 44.2167 100.118C44.8134 98.8518 45.6063 97.2881 46.4271 95.6695Z" fill="#97C93D"/>
<path d="M51.2358 91.2575C51.2045 91.237 51.1374 91.2711 51.0319 91.3693C50.2995 92.0463 48.4377 92.4321 46.037 90.8642C45.7922 90.7044 45.5408 90.523 45.2842 90.3199C41.9894 87.7079 42.8487 81.0571 48.1849 79.967C49.9172 79.6145 51.1258 79.9389 51.9999 80.5098C53.4663 81.4675 53.9872 83.1163 54.4342 83.4083C54.4679 83.4303 54.5013 83.4441 54.5343 83.4496C55.2705 83.5732 61.1231 70.3519 61.1929 70.2452C61.2008 70.2332 61.2804 70.0837 61.413 69.8359C59.0769 68.6102 50.447 64.711 49.9374 64.4584C49.391 64.1886 49.5685 65.375 49.5898 66.3151C49.6116 67.2545 48.9677 69.7856 48.7302 70.2373C48.4914 70.6893 45.291 76.15 39.1227 72.4399C39.009 72.3703 38.8975 72.3009 38.7899 72.2306C33.0711 68.4957 36.1796 62.3636 37.9935 60.5954C39.773 58.8586 41.7933 59.0514 40.9585 58.5063C40.9272 58.4858 40.8922 58.4641 40.8521 58.4413C39.7588 57.8132 32.9131 53.6309 31.8867 53.0774C31.84 53.0525 31.7897 53.0208 31.7343 52.9847C31.6974 52.9606 31.658 52.9349 31.619 52.9071C31.6225 52.9139 31.6266 52.9269 31.6266 52.9269C31.6266 52.9269 30.8668 52.8394 30.5396 53.4421C30.5335 53.453 30.5228 53.4746 30.5147 53.4923C30.7383 53.4448 30.9812 53.4328 31.1862 53.5152C31.2588 53.5443 31.3309 53.5776 31.3967 53.6172C31.4113 53.6141 31.4281 53.6113 31.4416 53.6099C31.4831 53.6358 31.5232 53.6586 31.5598 53.6779C32.1444 53.9944 34.7096 55.5438 36.9719 56.9102C38.1047 57.5951 39.1327 58.2161 39.816 58.6234C39.1699 58.8906 38.3256 59.317 37.5152 60.1079C36.2805 61.312 34.553 64.2323 34.8553 67.3379C35.0719 69.5631 36.2694 71.402 38.4157 72.8037C38.5296 72.8781 38.6484 72.9522 38.7698 73.0258C40.9253 74.3225 42.9877 74.7099 44.8988 74.1788C47.8247 73.3636 49.2753 70.67 49.3339 70.556C49.6458 69.9663 50.2967 67.3195 50.2739 66.2994C50.2703 66.123 50.26 65.9376 50.2523 65.7552C50.2457 65.6341 50.2386 65.4909 50.2345 65.352C50.5182 65.4823 50.9031 65.6592 51.4095 65.8903C53.9189 67.0403 58.3766 69.0826 60.4898 70.1341C60.4347 70.255 60.3533 70.4388 60.2203 70.7275C56.6617 78.5911 55.1678 81.4452 54.5425 82.4313C54.5198 82.3925 54.4966 82.3544 54.4739 82.319C54.066 81.6507 53.4483 80.6394 52.3736 79.9375C51.1945 79.1675 49.7392 78.952 48.0475 79.2968C45.4202 79.833 43.4795 81.7038 42.8571 84.3016C42.2494 86.8369 43.0349 89.4097 44.8583 90.8547C45.1248 91.0654 45.3952 91.2614 45.6617 91.4354C47.3464 92.5357 48.8844 92.8017 50.0499 92.5656C49.5401 93.6569 48.745 95.2204 48.0581 96.575C47.0185 98.6256 45.9534 100.724 45.3701 102.086C45.3696 102.091 45.367 102.095 45.3657 102.098C45.3331 102.174 45.2957 102.258 45.2663 102.329C45.2526 102.323 45.2326 102.314 45.2161 102.308C44.9509 102.574 44.6273 102.657 44.2951 102.603C44.9958 102.997 45.4943 103.181 45.7277 103.028C46.6754 100.402 51.6347 91.518 51.2358 91.2575Z" fill="#00A652"/>
<path d="M79.9976 56.6281C80.9466 54.7543 80.8107 52.3449 79.6765 50.8977C79.2055 50.2959 78.6935 49.8127 78.1566 49.462C76.9783 48.6925 75.8662 48.66 74.9726 48.6351C74.2986 48.6162 73.6035 48.5962 72.9582 48.1747C72.845 48.1008 72.7379 48.016 72.6397 47.9244C71.1255 46.5062 71.678 45.4233 77.1706 36.0034C77.6046 35.2588 78.0727 34.4551 78.4114 33.8646C78.4034 33.8593 78.3954 33.8541 78.3881 33.8494C78.2621 33.7671 78.1146 33.6844 77.9495 33.6041C77.0881 33.1835 74.7818 32.0334 68.6816 28.9424L68.3978 28.7983C68.33 28.7654 68.2361 28.711 68.1727 28.6696C67.6085 28.3011 67.2499 27.7097 67.1895 27.0497C67.0894 25.9517 67.7899 25.2849 68.2549 24.8444C68.6236 24.4933 69.1306 24.0115 69.5994 23.2312C71.3455 20.3244 71.2226 18.8783 69.1114 17.4984C69.0151 17.4355 68.9172 17.375 68.8143 17.3135C67.0353 16.2593 65.2463 15.969 64.0273 16.5387C63.0762 16.9812 62.4769 17.9362 62.2417 19.3763C61.937 21.2495 62.0554 22.2462 62.1119 22.725C62.1632 23.1661 62.3022 24.3376 61.2342 25.0758C60.164 25.8137 59.1031 25.264 58.705 25.0566C58.5339 24.9678 58.1418 24.7495 57.6005 24.4475C52.6549 21.695 50.2569 20.5273 49.12 20.0813C48.1344 21.661 46.3646 25.3298 45.2665 27.8457C46.2663 28.0006 47.4043 28.3592 48.589 29.0768C48.6524 29.1147 48.7155 29.1548 48.7765 29.1947C50.2565 30.1612 51.2563 31.7209 51.5895 33.5861C52.0317 36.0581 51.2888 38.8942 49.6001 41.171C46.9403 44.7588 41.6874 45.6731 37.8168 43.2494C36.0344 46.7782 34.0135 50.8164 33.6808 51.578C34.6682 52.1611 36.3137 53.1533 38.364 54.3916C39.9322 55.339 41.4132 56.2341 41.85 56.4839C41.927 56.5273 41.9955 56.5698 42.0573 56.6101C43.1914 57.3508 43.2104 58.3696 43.1668 58.7738C43.0174 60.1371 41.8253 60.5871 41.2519 60.8045C40.708 61.0103 40.0304 61.2661 39.4009 61.8808C38.7328 62.5332 37.339 64.6993 37.5534 66.8909C37.6872 68.2698 38.4516 69.3964 39.8883 70.3346C39.9757 70.3918 40.0643 70.4473 40.1571 70.5033C41.6354 71.392 42.9702 71.6845 44.1219 71.3697C45.7379 70.9287 46.7148 69.3937 46.8688 69.1359C47.0734 68.5998 47.5197 66.708 47.5128 66.1814C47.5081 66.0295 47.5012 65.8704 47.4918 65.7132C47.4386 64.6503 47.3721 63.328 48.5531 62.5538C49.2241 62.1138 50.0724 62.0714 50.8221 62.4419C50.9418 62.5006 51.7105 62.8527 52.523 63.2253C54.6461 64.1986 58.1525 65.8051 60.5078 66.9346C62.2779 63.5924 65.5113 57.4655 65.8501 56.7823C66.2587 55.9592 66.9136 55.6748 67.2683 55.5778C67.8586 55.4184 68.494 55.5208 69.0125 55.8594C69.4435 56.1409 69.6863 56.5067 69.9008 56.83C70.159 57.2196 70.514 57.7536 71.2371 58.2259C72.2179 58.8665 73.5961 59.217 75.336 59.2691C78.1837 59.3532 79.4782 57.6501 79.9976 56.6281Z" fill="#FF9F01"/>
<path d="M100.132 89.7114C99.8356 89.7608 99.6025 89.6899 99.4086 89.5449C97.6081 88.5969 93.823 86.6527 90.7306 85.0648C88.9885 84.1709 87.3138 83.3107 86.3702 82.8215C86.5967 82.6524 86.8703 82.436 87.1907 82.1586C88.6846 80.8684 89.9346 78.621 90.1737 77.5772L90.1904 77.5011C91.2024 73.1712 88.9436 70.6484 86.8696 69.2939C86.7893 69.2415 86.7069 69.1888 86.6218 69.1367C84.3987 67.7683 81.9483 67.3748 79.7256 68.0299C77.8843 68.5734 76.3617 69.7831 75.6528 71.2676C74.8769 72.8928 74.647 74.8356 74.962 77.0541C73.3183 76.276 69.4409 73.9865 63.3932 70.2234C62.9318 69.9358 62.5723 69.7114 62.3473 69.5736C63.6209 67.1766 66.799 61.1585 67.9537 58.9427C68.3145 59.4417 68.8789 60.1057 69.7843 60.697C71.1921 61.6164 73.0469 62.1179 75.2981 62.1855C78.4832 62.2815 81.1034 60.7731 82.4839 58.0464C83.9109 55.2298 83.6611 51.6731 81.8775 49.3976C81.221 48.5612 80.4885 47.8756 79.7003 47.3609C77.8759 46.1694 76.1373 46.1204 75.0983 46.0899C75.0307 46.0882 74.9588 46.0859 74.8883 46.0833C75.5455 44.4837 78.2164 39.9011 79.5806 37.5633C80.4628 36.0522 81.03 35.0727 81.2889 34.5812C81.2943 34.5801 81.3039 34.5829 81.3094 34.5831C81.4745 34.312 81.7626 34.1188 82.0704 34.0496C81.4228 33.866 80.96 33.8465 80.7809 34.0639C80.2841 35.1844 73.5508 46.1132 74.0893 46.6172C74.0998 46.6274 74.1129 46.6371 74.1265 46.6461C74.6346 46.9779 76.8996 46.3493 79.3244 47.9329C79.9938 48.37 80.6775 48.978 81.3381 49.8204C84.4556 53.7948 82.2807 61.7137 75.3184 61.5038C72.8439 61.4288 71.2314 60.8269 70.1583 60.126C68.6325 59.1295 68.1984 57.9324 67.9336 57.7594C67.8597 57.7112 67.7996 57.7418 67.7342 57.8765C67.3073 58.7347 62.5143 67.8072 61.4306 69.8428C61.6089 69.9363 61.7546 70.0166 61.8527 70.075C63.2426 70.9151 76.0394 79.0343 75.8094 77.9316C75.5787 76.8283 75.0815 74.0534 76.2699 71.5641C77.4583 69.0749 81.7237 66.927 86.2626 69.7218C86.3404 69.7692 86.4188 69.8193 86.4942 69.8685C90.7619 72.6557 89.6945 76.6013 89.5062 77.4275C89.3094 78.2859 88.1556 80.4234 86.7436 81.6445C85.3307 82.8652 84.9423 82.8073 85.2289 82.9944C85.4921 83.1664 96.6241 88.8358 99.4855 90.36C99.5545 90.3649 99.9182 90.3346 100.558 89.5766C100.421 89.6349 100.28 89.6859 100.132 89.7114Z" fill="#00A2E3"/>
<path d="M224.746 53.6007C224.282 52.5733 212.066 47.3318 213.965 46.3665C215.862 45.4004 218.539 41.7215 218.536 39.0757C218.535 36.4301 216.103 31.772 210.11 31.7141C204.117 31.6572 202.987 36.3025 203.331 38.7937C203.677 41.2851 203.942 41.9436 202.903 41.0475C202.356 40.5752 199.445 38.7622 196.686 37.3258C197.864 40.8287 197.387 45.2508 197.302 48.6242C197.234 51.2713 197.177 53.9374 196.806 56.5636C196.554 58.3477 196.378 60.6216 194.91 61.9067C192.35 64.1483 188.49 64.1494 185.28 63.9108C182.422 63.6992 179.517 63.4014 176.697 62.7822C175.313 64.9596 173.913 67.1888 173.459 68.0837C173.624 68.1659 173.667 69.0818 173.76 69.1356C175.045 69.8777 187.657 77.32 187.551 76.5088C187.418 75.4853 186.629 71.9336 187.671 69.634C188.712 67.3334 192.918 66.1516 197.119 68.6247C201.321 71.0978 200.35 74.3543 200.188 75.1267C200.024 75.9165 196.79 78.6818 195.403 79.5523C195.068 79.7625 194.997 80.6634 195.081 80.7503C195.28 80.9571 205.999 86.0335 208.644 87.3768C208.745 87.3804 210.468 86.7166 211.898 83.7034C213.427 80.4771 214.826 77.1694 215.247 76.2024C215.669 75.2353 215.271 74.8782 213.637 74.3473C212.002 73.8167 206.123 71.2331 207.186 66.3005C208.248 61.3674 213.596 60.2994 216.274 63.6538C218.679 66.6665 218.633 67.3697 220.403 63.3714C222.172 59.372 225.209 54.6278 224.746 53.6007Z" fill="#0075A1"/>
<path d="M184.571 46.6185C185.072 47.0702 188.336 45.8358 191.26 49.4176C194.182 52.9989 192.335 60.2856 185.962 60.2209C179.587 60.1564 179.379 56.1506 178.959 57.0408C178.584 57.8351 174.361 66.226 173.405 68.1089C173.572 68.1908 173.704 68.2606 173.798 68.3146C175.084 69.0572 186.935 76.2541 186.706 75.2484C186.474 74.2422 185.969 71.7115 187.011 69.4112C188.053 67.1108 191.918 65.0688 196.119 67.5417C200.321 70.0148 199.385 73.7621 199.223 74.5344C199.06 75.3244 198.043 77.3019 196.773 78.4453C195.503 79.5879 195.147 79.5427 195.412 79.7081C195.656 79.8595 205.94 84.8452 208.586 86.1879C208.688 86.1915 209.504 86.1237 210.935 83.1108C212.463 79.885 213.863 76.5768 214.284 75.6097C214.706 74.6435 214.268 74.5547 212.634 74.0235C210.997 73.4927 205.159 70.6405 206.223 65.7087C207.285 60.7748 213.009 59.4949 216.062 62.0814C219.116 64.6665 217.669 66.7779 219.44 62.7788C221.208 58.78 224.245 54.0361 223.782 53.0078C223.318 51.9805 211.103 46.7384 213 45.7743C214.898 44.8077 217.574 41.1296 217.571 38.4835C217.571 35.8373 215.138 31.1799 209.145 31.1222C203.153 31.0653 202.023 35.7105 202.367 38.2017C202.713 40.6923 202.978 41.3517 201.939 40.4564C200.9 39.5596 191.377 33.851 190.469 35.005C190.034 36.0418 184.069 46.1666 184.571 46.6185Z" fill="#00C1F1"/>
<path d="M209.071 82.3482C210.243 79.8747 211.357 77.3083 211.973 75.8766L211.882 75.8468C211.561 75.7429 210.399 75.3324 208.965 74.4353C205.155 72.0533 203.469 68.8276 204.218 65.3548C204.785 62.7203 206.502 60.6211 208.93 59.5946C211.347 58.5741 214.165 58.7633 216.286 60.0883C216.574 60.2697 216.852 60.4702 217.108 60.6894C217.387 60.9254 217.636 61.1601 217.858 61.3883C218.46 60.0936 219.159 58.7539 219.787 57.5496C220.419 56.3373 221.235 54.7746 221.599 53.8567C220.839 53.3976 219.663 52.7745 218.423 52.1152C216.797 51.2523 214.956 50.2753 213.59 49.4217C212.057 48.4626 210.689 47.4805 210.755 45.9891C210.791 45.2032 211.248 44.5135 211.981 44.1399C213.282 43.478 215.526 40.4526 215.525 38.5254C215.523 37.4224 214.789 35.3248 212.763 34.0588C211.703 33.3951 210.421 33.0515 208.955 33.0376C207.19 33.0208 205.876 33.4871 205.051 34.4241C204.103 35.4994 203.924 37.0124 204.059 37.9811C204.111 38.3583 204.16 38.6911 204.204 38.9835C204.432 40.4836 204.609 41.6686 203.455 42.4272C203.199 42.5932 202.28 43.0859 201.157 42.3843C200.975 42.2694 200.786 42.1253 200.541 41.9156C200.541 41.9156 200.269 41.6904 199.186 41.0133C196.059 39.0578 192.913 37.4681 191.426 36.9472C191.175 37.4094 190.831 38.0286 190.358 38.8774C189.489 40.4369 187.974 43.1584 187.033 45.0156C187.963 45.1514 189.071 45.4602 190.214 46.1744C191.06 46.7047 191.844 47.4091 192.546 48.2687C194.548 50.7204 194.896 54.4322 193.414 57.5059C191.979 60.483 189.195 62.17 185.774 62.1358C183.48 62.113 181.556 61.6241 180.053 60.6849C179.794 60.523 179.56 60.3552 179.347 60.1847C178.28 62.3143 176.726 65.4077 175.718 67.4076C179.999 69.9554 182.678 71.4849 184.336 72.3803C184.363 71.0326 184.63 69.7946 185.135 68.6774C185.901 66.9889 187.559 65.5992 189.566 64.9635C191.932 64.2144 194.538 64.5695 196.908 65.9638C196.995 66.0161 197.083 66.0677 197.167 66.1202C199.016 67.2762 201.962 69.9542 200.911 74.8911L200.898 74.9527C200.694 75.9344 199.776 77.823 198.484 79.2541C199.216 79.6122 200.047 80.0194 200.868 80.4187C203.354 81.6343 206.33 83.0878 208.163 83.9981C208.384 83.6686 208.691 83.1485 209.071 82.3482Z" fill="#6ECFF4"/>
<path d="M127.637 56.3275C128.664 56.6236 135.601 59.0279 136.701 59.3756C137.801 59.7231 135.865 59.8876 134.566 61.8585C133.265 63.8298 131.648 70.1148 137.887 72.2291C144.127 74.3437 145.921 68.8369 146.047 68.3865C146.171 67.9359 146.38 66.0631 146.051 64.7112C145.847 63.8751 145.558 63.4681 146.1 63.6039C146.603 63.7294 156.457 66.048 156.739 65.9071C157.184 65.6847 160.398 54.4749 160.611 53.6238C160.85 52.6696 161.833 56.5581 168.099 55.3874C174.365 54.2164 174.764 46.7124 171.203 43.7665C167.64 40.8193 164.675 42.6608 164.096 42.3163C163.517 41.9699 167.404 30.8856 167.629 29.786C167.629 29.786 167.574 28.7617 165.533 28.2625C163.49 27.7637 156.536 25.9532 156.079 25.8344C155.622 25.7162 156.711 24.9928 157.372 23.0357C158.224 20.5151 158.887 17.0294 154.331 15.5174C149.935 14.0592 146.142 15.9137 146.387 20.5256C146.59 24.3363 147.713 24.6562 146.7 24.3819C145.688 24.1086 136.487 21.1637 135.539 21.751C134.589 22.3371 132.087 33.9916 132.541 33.8295C132.541 33.8295 134.526 32.5769 137.34 33.537C140.155 34.4972 140.979 38.325 139.5 41.6117C138.022 44.8975 133.395 46.4838 129.866 43.7446C129.866 43.7446 127.371 53.3388 127.158 54.4841C126.958 55.5493 127.317 56.1474 127.368 56.2265C127.468 56.2694 127.561 56.3052 127.637 56.3275Z" fill="#A8225F"/>
<path d="M126.705 55.9754C127.732 56.2717 134.668 58.6767 135.768 59.0236C136.869 59.3713 134.932 59.5356 133.633 61.5073C132.333 63.4788 130.715 69.7636 136.954 71.878C143.193 73.9933 144.99 68.4862 145.115 68.0356C145.239 67.5849 145.32 65.1967 145.119 64.3602C144.916 63.5243 144.525 62.4981 145.067 62.634C145.57 62.7592 154.047 64.5629 156.376 65.2034C156.949 63.1721 159.464 54.1251 159.677 53.2741C159.916 52.3193 160.899 56.2075 167.166 55.037C173.431 53.8658 173.831 46.3618 170.269 43.4159C166.706 40.4697 163.741 42.3113 163.162 41.9658C162.583 41.6193 166.47 30.535 166.697 29.4359C166.697 29.4359 166.641 28.4114 164.6 27.9122C162.557 27.4125 155.603 25.602 155.146 25.4832C154.69 25.365 155.778 24.6425 156.44 22.6848C157.291 20.1639 157.954 16.6791 153.398 15.167C149.002 13.7089 145.209 15.5644 145.454 20.1761C145.657 23.9868 146.78 24.3059 145.767 24.0326C144.754 23.7591 135.554 20.8142 134.606 21.4007C133.656 21.9867 131.154 33.6421 131.607 33.48C131.607 33.48 133.593 32.2274 136.408 33.1877C139.222 34.1477 140.047 37.9766 138.567 41.2622C137.088 44.548 132.462 46.1335 128.932 43.3949C128.932 43.3949 126.438 52.9885 126.224 54.1343C126.025 55.1998 126.383 55.7976 126.435 55.8762C126.536 55.9176 126.628 55.954 126.705 55.9754Z" fill="#EB9609"/>
<path d="M170.401 49.7658C170.886 47.905 170.294 45.7775 168.997 44.7044C168.459 44.2582 167.907 43.9263 167.356 43.7165C166.153 43.2586 165.154 43.4465 164.35 43.5984C163.744 43.7125 163.117 43.831 162.459 43.5796C162.343 43.5361 162.231 43.4815 162.124 43.4185C160.494 42.4444 160.777 41.3686 163.85 31.8734C164.091 31.1226 164.354 30.313 164.541 29.7192C164.533 29.7152 164.526 29.7134 164.518 29.7103C164.388 29.6601 164.241 29.6162 164.078 29.5763C163.226 29.3678 160.938 28.7888 154.881 27.2144L154.599 27.1419C154.533 27.1251 154.437 27.094 154.372 27.0693C153.796 26.8499 153.36 26.392 153.177 25.813C152.873 24.8499 153.37 24.1176 153.699 23.6324C153.96 23.2466 154.32 22.7179 154.587 21.9277C155.581 18.9872 155.187 17.718 153.032 16.8959C152.933 16.8586 152.834 16.8229 152.729 16.7876C150.933 16.1933 149.278 16.2828 148.298 17.0298C147.535 17.6113 147.185 18.5817 147.255 19.9145C147.348 21.6499 147.648 22.5182 147.792 22.9354C147.925 23.3196 148.277 24.3407 147.467 25.2083C146.654 26.077 145.598 25.7919 145.2 25.6839C145.03 25.6384 144.637 25.5207 144.095 25.3557C139.136 23.8586 136.764 23.2829 135.66 23.1057C135.087 24.7114 134.221 28.3371 133.73 30.8C134.656 30.7441 135.742 30.8429 136.944 31.2539C137.007 31.2754 137.071 31.2979 137.133 31.3217C138.645 31.8976 139.843 33.0975 140.506 34.7004C141.385 36.8247 141.271 39.5057 140.207 41.8716C138.529 45.5989 134.01 47.4402 130.076 46.0289C129.171 49.5317 128.153 53.538 128.004 54.2827C129 54.6114 130.665 55.1783 132.74 55.8853C134.328 56.426 135.828 56.9377 136.264 57.0771C136.343 57.1007 136.412 57.1257 136.475 57.1497C137.634 57.5902 137.85 58.4978 137.89 58.8671C138.022 60.1156 137.044 60.7503 136.574 61.056C136.129 61.3465 135.573 61.7065 135.129 62.3787C134.66 63.0921 133.836 65.3018 134.455 67.2196C134.844 68.4276 135.746 69.2845 137.215 69.845C137.304 69.8788 137.395 69.9114 137.488 69.9435C138.984 70.4504 140.233 70.4502 141.203 69.9449C142.561 69.2355 143.135 67.6718 143.222 67.411C143.301 66.8917 143.33 65.1137 143.222 64.6443C143.19 64.5096 143.15 64.3681 143.112 64.2301C142.857 63.2893 142.539 62.1201 143.444 61.197C143.959 60.6727 144.708 60.4699 145.452 60.655C145.57 60.6829 146.327 60.8489 147.126 61.0234C149.215 61.4791 152.662 62.2309 154.988 62.7817C155.919 59.4477 157.614 53.3377 157.784 52.6605C157.989 51.8452 158.519 51.4631 158.818 51.3068C159.313 51.0488 159.902 51.0156 160.432 51.217C160.873 51.3859 161.162 51.6654 161.415 51.9121C161.722 52.2111 162.144 52.619 162.883 52.901C163.883 53.2828 165.184 53.3272 166.751 53.0342C169.313 52.5577 170.138 50.7815 170.401 49.7658Z" fill="#FF9F01"/>
<path d="M152.05 100.688C151.991 100.598 150.957 99.9481 150.774 100.331C150.154 101.63 148.512 102.119 146.406 101.248C142.85 99.7762 141.936 93.7058 146.36 91.4077C149.379 89.8401 150.604 91.6494 151.553 92.5741C151.754 92.7715 152.723 92.649 152.907 92.6337C153.587 92.5776 155.267 79.9315 155.303 79.8194C155.306 79.8067 155.34 79.6549 155.394 79.4043C155.688 78.6801 144.519 77.4139 144.007 77.3198C143.459 77.2196 143.913 78.219 144.168 79.0409C144.424 79.8628 144.493 82.2521 144.395 82.7092C144.299 83.1665 142.854 88.7764 136.493 87.058C130.132 85.3404 131.351 78.9668 132.523 76.9164C133.697 74.8674 135.436 74.5275 133.895 74.1494C132.775 73.8746 126.303 72.062 125.26 71.8314C125.184 71.8146 125.089 71.7856 124.983 71.7492C124.989 71.7553 124.995 71.7641 124.995 71.7641C124.995 71.7641 124.304 71.8764 124.167 72.4901C124.032 73.1031 121.984 85.4583 121.984 85.4583C121.984 85.4583 118.232 81.0204 114.418 85.7316C110.601 90.4422 113.908 96.6545 120.04 94.6803C120.04 94.6803 117.45 102.992 117.874 103.56C118.298 104.128 128.245 105.685 128.367 105.995C128.488 106.307 125.974 106.836 124.899 110.815C123.824 114.793 126.398 117.394 129.962 118.227C133.526 119.059 137.328 117.727 138.046 114.02C138.046 114.02 138.529 112.642 138.148 110.886C137.768 109.13 137.389 109.583 141.618 110.731C144.668 111.559 147.417 112.518 148.876 112.818C149.442 112.935 149.802 112.977 149.945 112.807C150.133 110.055 152.345 101.132 152.05 100.688Z" fill="#009347"/>
<path d="M150.65 100.472C150.127 101.33 148.306 102.224 145.327 100.991C141.772 99.5198 140.857 93.4497 145.28 91.1508C149.306 89.0593 151.065 92.6986 151.743 92.6228C152.423 92.5467 154.253 79.4413 154.288 79.3289C154.293 79.3175 154.326 79.1658 154.379 78.9139C152.016 78.4221 143.441 77.1559 142.93 77.0621C142.38 76.9614 142.836 77.9613 143.091 78.7833C143.344 79.6037 143.414 81.9927 143.317 82.4506C143.221 82.9082 141.774 88.5185 135.415 86.801C129.054 85.083 130.275 78.7093 131.447 76.6587C132.621 74.6095 134.543 74.324 133.422 74.0454C132.3 73.7674 125.226 71.8044 124.184 71.5741C124.107 71.5571 124.01 71.5276 123.907 71.4917C123.911 71.4973 123.918 71.5066 123.918 71.5066C123.918 71.5066 123.228 71.62 123.091 72.2328C122.955 72.8457 120.906 85.2016 120.906 85.2016C120.906 85.2016 117.156 80.7631 113.34 85.4744C109.524 90.1857 112.83 96.398 118.961 94.4239C118.961 94.4239 116.373 102.736 116.796 103.304C117.219 103.872 127.164 105.428 127.286 105.739C127.409 106.05 124.894 106.58 123.819 110.559C122.743 114.538 125.318 117.138 128.882 117.971C132.446 118.802 136.247 117.47 136.965 113.763C136.965 113.763 137.449 112.385 137.068 110.629C136.687 108.873 136.388 108.78 140.618 109.929C144.847 111.076 148.393 112.668 148.909 112.064C149.097 109.312 151.572 98.9558 150.65 100.472Z" fill="#68BD46"/>
<path d="M150.65 100.472C150.127 101.33 148.306 102.224 145.327 100.991C141.772 99.5198 140.857 93.4497 145.28 91.1508C149.306 89.0593 151.065 92.6986 151.743 92.6228C152.423 92.5467 154.253 79.4413 154.288 79.3289C154.293 79.3175 154.326 79.1658 154.379 78.9139C152.016 78.4221 143.441 77.1559 142.93 77.0621C142.38 76.9614 142.836 77.9613 143.091 78.7833C143.344 79.6037 143.414 81.9927 143.317 82.4506C143.221 82.9082 141.774 88.5185 135.415 86.801C129.054 85.083 130.275 78.7093 131.447 76.6587C132.621 74.6095 134.543 74.324 133.422 74.0454C132.3 73.7674 125.226 71.8044 124.184 71.5741C124.107 71.5571 124.01 71.5276 123.907 71.4917C123.911 71.4973 123.918 71.5066 123.918 71.5066C123.918 71.5066 123.228 71.62 123.091 72.2328C122.955 72.8457 120.906 85.2016 120.906 85.2016C120.906 85.2016 117.156 80.7631 113.34 85.4744C109.524 90.1857 112.83 96.398 118.961 94.4239C118.961 94.4239 116.373 102.736 116.796 103.304C117.219 103.872 127.164 105.428 127.286 105.739C127.409 106.05 124.894 106.58 123.819 110.559C122.743 114.538 125.318 117.138 128.882 117.971C132.446 118.802 136.247 117.47 136.965 113.763C136.965 113.763 137.449 112.385 137.068 110.629C136.687 108.873 136.388 108.78 140.618 109.929C144.847 111.076 148.393 112.668 148.909 112.064C149.097 109.312 151.572 98.9558 150.65 100.472Z" fill="#68BD46"/>
<path d="M147.663 105.423C147.791 104.767 147.933 104.025 148.068 103.315C147.194 103.376 146.203 103.269 145.121 102.932C144.806 102.834 144.482 102.716 144.159 102.583C141.745 101.584 140.105 99.0845 139.981 96.2164C139.858 93.2766 141.347 90.7068 143.967 89.3446C145.673 88.4582 147.327 88.2547 148.885 88.7373C149.407 88.8987 149.87 89.1258 150.272 89.3712C150.592 87.7704 151.071 85.0162 151.778 80.285C149.724 79.9341 146.747 79.4753 144.646 79.1529C144.813 80.4289 144.83 82.1115 144.708 82.6929C144.635 83.0374 143.918 86.1033 141.141 87.8039C139.288 88.9396 137.045 89.1631 134.476 88.4684C134.336 88.4311 134.197 88.3903 134.064 88.3483C130.799 87.336 129.381 85.2606 128.765 83.695C127.558 80.629 128.465 77.1652 129.37 75.5854C129.494 75.3689 129.622 75.1689 129.755 74.9828C129.461 74.9025 129.158 74.8205 128.846 74.7353C127.274 74.308 125.433 73.806 124.297 73.5078C123.9 75.8083 122.963 81.4261 122.311 85.3638C122.191 86.0854 121.663 86.6725 120.956 86.867C120.604 86.9653 120.237 86.9544 119.9 86.85C119.565 86.7467 119.258 86.5485 119.024 86.269C119.024 86.269 118.294 85.4445 117.321 85.1427C117.321 85.1427 117.32 85.1425 117.318 85.142C116.909 85.0145 115.831 84.6847 114.351 86.5104C113.278 87.8354 112.893 89.3536 113.293 90.6764C113.587 91.6441 114.263 92.3369 115.197 92.6274C115.974 92.8677 116.923 92.8225 117.94 92.495C118.314 92.3732 118.71 92.3765 119.072 92.4887C119.354 92.5767 119.618 92.7308 119.835 92.9469C120.333 93.4385 120.515 94.1682 120.307 94.8373C119.531 97.3208 118.706 100.252 118.353 101.858C119.587 102.153 121.474 102.519 123.058 102.827C125.196 103.241 126.539 103.506 127.174 103.703C127.438 103.785 128.243 104.034 128.587 104.911C128.853 105.591 128.884 106.593 127.513 107.499C126.912 107.896 125.797 108.633 125.183 110.904C124.319 114.097 126.767 115.372 128.304 115.85C128.486 115.905 128.672 115.955 128.861 116C130.49 116.38 132.119 116.18 133.222 115.466C134 114.961 134.488 114.222 134.674 113.265C134.69 113.176 134.715 113.088 134.744 113.002C134.744 113.002 135.038 112.055 134.784 110.886C134.76 110.778 134.738 110.677 134.717 110.582C134.542 109.818 134.279 108.666 135.209 107.773C136.249 106.777 137.361 107.079 140.663 107.976C141.313 108.152 141.996 108.351 142.748 108.585C143.517 108.823 144.246 109.061 144.917 109.282C145.47 109.463 145.987 109.632 146.452 109.776C146.591 109.819 146.718 109.858 146.834 109.892C147.04 108.629 147.347 107.055 147.663 105.423Z" fill="#97C93D"/>
<path d="M205.743 114.187C205.626 114.156 205.227 114.257 204.664 114.361C202.805 114.706 199.364 115.55 198.049 111.347C197.6 109.912 197.433 108.314 198.015 106.897C198.745 105.118 200.228 103.521 202.168 103.101C203.118 102.896 204.095 102.931 205.034 103.168C205.611 103.313 205.601 104.03 206.014 104.361C206.202 104.512 206.847 104.936 207.083 105.052C207.322 105.169 207.58 104.347 207.667 103.88C207.904 102.595 209.965 94.7254 209.237 94.2566C206.313 93.7487 195.013 91.9985 194.735 91.9242C194.433 91.8435 194.788 91.7829 195.666 90.3187C196.546 88.8538 196.938 86.6658 196.863 85.863C196.789 85.0776 196.584 81.2215 191.841 80.0894C187.097 78.9568 184.002 82.0419 183.678 84.5452C183.357 87.0493 184.583 89.3202 185.098 90.2134C185.613 91.1065 172.167 87.7023 170.718 87.3685C170.615 87.3447 170.466 87.3165 170.285 87.2864C170.241 87.5399 170.214 87.6933 170.21 87.7051C170.18 87.8178 168.869 100.985 168.194 101.088C167.518 101.191 165.615 97.6238 161.677 99.8725C157.347 102.344 158.503 108.373 162.113 109.703C165.139 110.817 166.922 109.852 167.412 108.974C168.274 107.424 166.21 117.868 166.13 120.624C166.13 120.624 166.472 121.363 171.704 122.384C176.937 123.406 179.528 123.612 179.528 123.612C179.528 123.612 175.725 125.509 175.733 130.098C175.741 134.687 180.433 135.509 182.964 135.538C185.493 135.566 188.856 134.306 189.344 130.875C189.835 127.445 188.735 125.86 188.735 125.86C188.735 125.86 193.456 127.176 196.506 127.883C199.555 128.589 202.622 129.031 203.237 128.548C203.855 128.066 206.246 114.322 205.743 114.187Z" fill="#EEA821"/>
<path d="M204.655 114.398C204.15 114.264 198.455 116.574 196.741 111.097C196.293 109.662 196.126 108.064 196.708 106.647C197.437 104.867 198.92 103.271 200.861 102.851C201.811 102.645 202.788 102.681 203.727 102.917C204.567 103.128 205.137 103.535 205.718 104.141C206.181 104.623 206.274 104.097 206.359 103.629C206.597 102.343 208.656 94.4756 207.93 94.0064C205.005 93.498 193.706 91.7481 193.428 91.674C193.127 91.5933 193.48 91.5325 194.36 90.0676C195.239 88.6025 195.631 86.4145 195.557 85.6119C195.483 84.8268 195.278 80.9707 190.534 79.8373C185.79 78.705 182.695 81.7897 182.372 84.2942C182.05 86.798 183.276 89.0681 183.792 89.9623C184.307 90.8555 170.861 87.4504 169.411 87.1175C169.308 87.0935 169.158 87.0661 168.977 87.036C168.934 87.2895 168.906 87.442 168.903 87.4547C168.872 87.5682 167.562 100.736 166.886 100.838C166.211 100.941 164.309 97.3738 160.369 99.6227C156.04 102.094 157.194 108.123 160.806 109.452C163.832 110.566 165.616 109.602 166.105 108.724C166.967 107.173 164.903 117.618 164.823 120.375C164.823 120.375 165.165 121.114 170.398 122.135C175.631 123.156 178.22 123.362 178.22 123.362C178.22 123.362 174.417 125.26 174.425 129.849C174.434 134.438 179.126 135.26 181.656 135.288C184.186 135.317 187.548 134.057 188.037 130.626C188.527 127.195 187.59 125.056 187.59 125.056C187.59 125.056 192.311 126.372 195.361 127.079C198.411 127.786 201.478 128.228 202.094 127.745C202.71 127.262 205.158 114.533 204.655 114.398Z" fill="#EB9609"/>
<path d="M202.5 116.345C201.597 116.429 200.53 116.423 199.443 116.132C197.869 115.712 195.786 114.55 194.801 111.404C192.799 105.006 197.409 101.715 199.354 100.987C200.455 100.575 202.879 100.58 204.441 100.997C204.565 101.03 204.685 101.066 204.8 101.105C205.11 99.765 205.753 96.9637 205.977 95.3544C203.96 95.0235 200.866 94.5343 198.261 94.1224C193.173 93.3168 192.977 93.2825 192.793 93.2334C191.832 92.9767 191.496 92.2594 191.397 91.9632C191.062 90.9655 191.625 90.2396 191.864 89.9295C192.021 89.7281 192.258 89.4237 192.602 88.8508C193.294 87.699 193.568 85.9344 193.539 85.5325L193.532 85.4523C193.413 84.0948 192.931 82.2042 190.143 81.4594L190.149 81.4399C190.049 81.426 189.967 81.4142 189.948 81.4099C187.866 80.9135 186.457 81.4786 185.641 82.0416C184.615 82.7489 184.162 83.6887 184.087 84.2778C183.917 85.6019 184.315 87.113 185.272 88.7707C185.663 89.4511 185.615 90.2919 185.147 90.9142C184.256 92.1008 184.039 92.3915 170.438 89.0802C169.015 102.137 168.647 102.191 167.02 102.439C166.734 102.483 166.44 102.466 166.153 102.389C165.577 102.235 165.169 101.888 164.739 101.523C164.298 101.148 163.797 100.722 163.208 100.564C163.208 100.564 163.206 100.564 163.205 100.563C162.983 100.504 162.321 100.333 161.153 100.998C159.332 102.037 159.268 103.759 159.325 104.451C159.44 105.843 160.237 107.043 161.31 107.438C161.531 107.519 161.748 107.588 161.957 107.644C163.454 108.044 164.195 107.667 164.336 107.526C164.932 106.486 165.921 106.323 166.59 106.501C168.321 106.964 168.099 108.739 167.904 110.304C167.771 111.371 167.558 112.754 167.333 114.222C167.075 115.911 166.791 117.765 166.647 119.048C166.941 119.152 167.344 119.28 167.889 119.426C168.651 119.629 169.567 119.836 170.613 120.04C175.646 121.022 178.2 121.236 178.227 121.238C178.34 121.248 178.451 121.266 178.56 121.295C179.244 121.478 179.778 122.037 179.917 122.751C180.076 123.579 179.665 124.41 178.911 124.786C178.813 124.838 176.151 126.27 176.157 129.59C176.159 130.74 176.493 132.15 179.08 132.841C180.016 133.091 180.931 133.151 181.533 133.158C181.699 133.16 185.596 133.169 186.032 130.11C186.431 127.318 185.723 125.555 185.716 125.538C185.425 124.874 185.547 124.111 186.023 123.563C186.494 123.022 187.237 122.805 187.931 122.99C187.937 122.992 187.943 122.994 187.95 122.996C187.954 122.997 189.132 123.325 190.686 123.74C192.704 124.28 194.417 124.715 195.642 124.998C198.054 125.558 199.722 125.777 200.594 125.816C201.143 123.874 202.091 119.104 202.5 116.345Z" fill="#FF9F01"/>
<path d="M180.099 95.4675C180.113 95.3331 179.946 95.304 179.884 95.4091C179.399 96.2456 178.551 97.1642 177.655 97.5631C176.756 97.9656 175.913 97.6887 175 97.8631C174.737 97.9145 174.622 98.2562 174.849 98.4295C175.787 99.1424 177.221 98.7256 178.149 98.1909C179.026 97.685 180 96.4898 180.099 95.4675Z" fill="#916337"/>
<path d="M191.449 101.647C190.375 101.176 189.259 100.928 188.333 100.161C187.31 99.3142 186.925 97.7592 186.746 96.5069C186.724 96.3649 186.503 96.3613 186.488 96.5081C186.352 97.9784 186.571 99.3111 187.469 100.516C188.234 101.546 190.081 102.464 191.357 102.353C191.733 102.321 191.77 101.79 191.449 101.647Z" fill="#916337"/>
<path d="M183.329 114.203C183.056 111.01 181.14 109.531 178.711 110.481C176.378 111.394 175.685 114.925 176.871 117.196C178.068 119.488 180.863 119.38 182.395 117.388C183.049 116.539 183.432 115.434 183.329 114.203Z" fill="#892614"/>
<path d="M181.836 116.821C180.522 118.747 178.267 118.24 177.321 116.418C176.253 114.36 177.474 111.867 179.235 111.208C180.976 110.556 181.907 111.833 182.488 113.488C182.737 114.534 182.594 115.712 181.836 116.821Z" fill="#F7946C"/>
<path d="M187.006 106.542C187.185 105.907 187.244 105.224 187.144 104.678C187.084 104.345 186.905 103.977 186.642 103.894C186.311 103.789 186.056 104.168 185.886 104.525C185.539 105.242 185.382 106.163 185.341 106.96C185.325 107.284 185.31 107.703 185.397 108C185.52 108.426 185.951 108.299 186.185 108.071C186.549 107.715 186.833 107.151 187.006 106.542Z" fill="#4F3220"/>
<path d="M186.869 104.192C186.694 104.023 186.472 104.221 186.374 104.417C186.276 104.614 186.23 104.848 186.222 105.07C186.209 105.436 186.387 106.216 186.827 105.926C187.327 105.595 187.222 104.532 186.869 104.192Z" fill="white"/>
<path d="M179.147 104.806C179.328 104.172 179.385 103.489 179.286 102.942C179.226 102.61 179.047 102.242 178.784 102.158C178.453 102.054 178.199 102.433 178.026 102.79C177.68 103.508 177.522 104.428 177.483 105.226C177.466 105.549 177.452 105.969 177.538 106.265C177.663 106.691 178.093 106.564 178.326 106.336C178.69 105.979 178.974 105.415 179.147 104.806Z" fill="#4F3220"/>
<path d="M179.012 102.457C178.836 102.288 178.614 102.485 178.515 102.681C178.417 102.88 178.372 103.113 178.364 103.336C178.35 103.701 178.529 104.482 178.968 104.192C179.469 103.86 179.364 102.797 179.012 102.457Z" fill="white"/>
</svg>
