<svg width="97" height="117" viewBox="0 0 97 117" fill="none" xmlns="http://www.w3.org/2000/svg">
<path d="M55.3851 85.3184C56.8749 85.2669 58.3647 85.2453 59.8545 85.2195C58.8252 85.2206 57.796 85.2185 56.7657 85.2195C55.7158 85.2216 54.667 85.2453 53.6191 85.2793C54.2095 85.3184 54.7978 85.3391 55.3851 85.3184Z" fill="#FFEBCF"/>
<path d="M90.4307 93.1849C89.7425 92.5925 89.0377 92.6203 88.2629 92.576C86.0591 92.4503 83.8749 92.9088 81.6876 92.8491C76.7555 92.7141 71.8121 92.7718 66.8935 92.5163C59.1662 92.1145 51.44 92.2061 43.7261 92.3772C38.4994 92.4926 33.2078 92.8758 28.1676 94.617C26.1162 95.3259 24.7624 97.0877 24.7469 99.139C24.6892 99.6902 24.8521 100.291 25.1138 100.886C25.4043 101.546 25.5248 102.255 24.8335 102.737C24.7995 102.761 24.7645 102.763 24.7305 102.783C25.2157 102.976 25.6907 103.241 25.4846 103.862C25.8257 103.914 26.1657 103.967 26.5283 103.993C37.9183 104.79 49.331 105.297 60.7488 105.451C71.4402 105.594 82.5551 106.031 93.1816 104.651C93.2104 103.185 93.2084 101.718 93.1445 100.254C93.0971 99.1699 93.026 98.0861 92.9518 97.0032C92.5686 97.2618 91.9906 97.2742 91.4445 97.2866C83.7698 97.4648 76.1054 96.7745 68.4307 96.9929C61.2103 97.199 53.989 97.4267 46.7707 97.6616C43.5015 97.7677 40.2324 97.8388 36.9653 97.8409C34.9541 97.8419 32.9791 98.1633 30.9803 98.2272C30.2714 98.2499 29.5214 98.2581 29.3534 97.3937C29.1772 96.4881 29.8006 96.0131 30.595 95.8936C32.1301 95.6628 33.6755 95.4516 35.223 95.3661C36.8324 95.2775 38.451 95.3465 40.2386 95.3465C44.9522 95.4753 49.8307 95.1137 54.7102 94.9818C62.0768 94.784 69.4455 94.276 76.8101 94.5212C81.6958 94.684 86.5774 94.7026 91.461 94.7706C91.9277 94.7767 92.4315 94.8077 92.8076 95.0013C92.7345 94.0308 92.6685 93.0603 92.6005 92.0897C92.5747 92.2123 92.5572 92.336 92.5294 92.4586C92.3192 93.3673 91.1766 93.8278 90.4307 93.1849ZM32.4021 98.8712C35.3395 98.8712 38.2769 98.8712 41.2142 98.8712C53.0493 99.1957 64.8895 99.0422 76.7236 99.2452C81.5598 99.3286 86.4002 99.342 91.2374 99.4543C92.1781 99.4759 93.1352 99.5604 93.1064 100.769C93.0796 101.868 92.177 101.995 91.2858 101.982C78.9109 101.789 66.5308 101.821 54.16 101.593C47.2662 101.466 40.3725 101.561 33.4818 101.397C33.1398 101.389 32.7967 101.393 32.4536 101.392C31.4923 101.388 30.562 101.143 30.5589 100.031C30.5548 98.9072 31.5356 98.8712 32.4021 98.8712Z" fill="#FFEBCF"/>
<path d="M92.3257 85.9288C92.3247 85.8412 92.3185 85.7546 92.3185 85.6671C92.3185 85.5208 92.3082 85.3652 92.3072 85.2117C92.1011 85.2137 91.8951 85.2148 91.688 85.2158C91.926 85.4239 92.1413 85.665 92.3257 85.9288Z" fill="#FFEBCF"/>
<path d="M91.6883 85.2157C90.0821 85.2229 88.4748 85.2178 86.8685 85.2178C82.2188 85.2188 77.569 85.2178 72.9193 85.2178C68.5652 85.2178 64.2112 85.2167 59.8561 85.2188C58.3663 85.2456 56.8765 85.2662 55.3867 85.3177C54.8004 85.3383 54.2111 85.3167 53.6217 85.2786C47.9438 85.4619 42.2884 86.0502 36.6166 86.3398C33.7421 86.4861 30.8624 86.4552 28.0157 86.9785C24.8764 87.5555 21.9771 88.5662 19.8073 91.0977C19.2015 91.8045 18.8007 92.5113 18.846 93.4591C19.048 97.6432 20.3873 101.108 24.6528 102.75C24.6785 102.761 24.7043 102.771 24.7301 102.781C24.7651 102.761 24.7991 102.759 24.8331 102.735C25.5244 102.253 25.4039 101.544 25.1133 100.885C24.8506 100.289 24.6888 99.6894 24.7465 99.1371C24.763 97.0858 26.1158 95.324 28.1671 94.6151C33.2074 92.875 38.499 92.4917 43.7257 92.3753C51.4396 92.2042 59.1658 92.1125 66.8931 92.5143C71.8117 92.7699 76.7551 92.7122 81.6872 92.8471C83.8735 92.9069 86.0577 92.4484 88.2625 92.5741C89.0373 92.6184 89.7431 92.5906 90.4303 93.183C91.1762 93.8259 92.3188 93.3654 92.529 92.4556C92.5568 92.333 92.5743 92.2094 92.6001 92.0868C92.9401 90.4661 93.071 88.8238 92.8587 87.1692C92.8051 86.7539 92.6011 86.3212 92.326 85.9266C92.1416 85.6649 91.9263 85.4238 91.6883 85.2157Z" fill="#EDC999"/>
<path d="M76.8092 94.5202C69.4436 94.275 62.0759 94.7829 54.7093 94.9808C49.8297 95.1116 44.9513 95.4743 40.2377 95.3455C38.4501 95.3455 36.8315 95.2765 35.2221 95.3651C33.6736 95.4506 32.1292 95.6628 30.5941 95.8926C29.7997 96.0121 29.1763 96.4871 29.3525 97.3927C29.5205 98.2561 30.2705 98.2478 30.9794 98.2262C32.9782 98.1623 34.9522 97.8409 36.9644 97.8398C40.2315 97.8378 43.5006 97.7667 46.7698 97.6606C53.9881 97.4257 61.2094 97.1969 68.4298 96.9919C76.1045 96.7735 83.7679 97.4638 91.4436 97.2855C91.9897 97.2732 92.5677 97.2608 92.9509 97.0022C93.2106 96.8271 93.3837 96.5427 93.3878 96.0564C93.3919 95.4877 93.1529 95.1755 92.8088 94.9993C92.4327 94.8066 91.9289 94.7757 91.4621 94.7685C86.5765 94.7015 81.6949 94.683 76.8092 94.5202Z" fill="#EDC999"/>
<path d="M32.4539 101.392C32.797 101.393 33.139 101.389 33.4821 101.398C40.3738 101.562 47.2665 101.467 54.1602 101.593C66.5321 101.821 78.9112 101.789 91.2861 101.982C92.1773 101.995 93.0809 101.868 93.1067 100.769C93.1355 99.5605 92.1783 99.476 91.2377 99.4544C86.4004 99.3421 81.5601 99.3287 76.7239 99.2452C64.8898 99.0412 53.0496 99.1947 41.2145 98.8712C38.2771 98.8712 35.3397 98.8712 32.4024 98.8712C31.5359 98.8712 30.555 98.9073 30.5581 100.03C30.5622 101.143 31.4926 101.388 32.4539 101.392Z" fill="#EDC999"/>
<path d="M6.37767 95.9916C6.61876 96.5253 6.84131 97.0683 7.03913 97.6195C8.56397 101.879 11.8888 104.264 15.8503 105.871C19.5872 107.388 23.559 107.952 27.5555 108.291C33.3314 108.782 39.1083 109.272 44.8872 109.717C47.2219 109.897 49.5658 109.861 51.9077 109.999C60.5509 110.503 69.2157 110.523 77.8641 110.281C83.3267 110.128 88.8007 110.143 94.2562 109.747C95.2823 109.673 95.8707 109.916 96.0602 110.627C96.0623 109.217 96.0581 107.806 96.053 106.396C96.0468 104.594 95.7655 104.309 93.9934 104.555C93.7235 104.593 93.4484 104.615 93.1774 104.65C82.5509 106.03 71.436 105.593 60.7446 105.45C49.3268 105.297 37.9152 104.79 26.5242 103.992C26.1615 103.966 25.8215 103.914 25.4805 103.861C25.4764 103.874 25.4764 103.886 25.4712 103.9C25.2466 104.505 24.7201 104.614 24.1401 104.336C20.5938 102.631 17.1794 100.772 15.026 97.2578C11.5271 91.5469 15.2506 82.641 21.7446 81.3325C25.6711 80.5412 29.6635 80.3393 33.6549 80.059C43.9466 79.3357 54.2465 79.2224 64.5557 79.1256C67.424 79.0988 70.312 78.9587 73.1917 78.9308C79.7845 78.8659 86.3558 78.1736 92.958 78.2993C94.4437 78.3271 95.3369 78.4827 95.3204 80.2929C95.3122 81.2408 95.5162 82.2268 95.5018 83.2025C95.4977 83.492 95.474 83.731 95.439 83.9463C95.6996 83.6682 95.8037 83.2828 95.7655 82.7357C95.5657 79.8602 95.3442 76.9825 95.474 74.0977C95.5203 73.0622 94.9186 73.0695 94.1593 73.0695C78.6069 73.0859 63.0865 75.2733 47.5125 75.3557C39.6873 75.3969 31.8859 75.9502 24.069 76.0553C20.9451 76.0357 17.8449 75.9224 14.7633 76.8445C10.842 78.018 7.57901 80.4248 6.29835 84.4399C5.21653 87.8316 4.94763 91.9693 5.25157 95.5084C5.25157 95.5146 5.25258 95.5207 5.25361 95.5269C5.31543 95.5001 5.36903 95.4661 5.44321 95.4517C5.89654 95.358 6.20252 95.6042 6.37767 95.9916Z" fill="#62C33B"/>
<path d="M96.0618 110.628C95.8722 109.917 95.2839 109.674 94.2577 109.748C88.8023 110.144 83.3283 110.129 77.8657 110.282C69.2173 110.524 60.5525 110.504 51.9093 109.999C49.5674 109.862 47.2225 109.897 44.8888 109.718C39.1088 109.273 33.3329 108.783 27.5571 108.292C23.5595 107.953 19.5887 107.389 15.8518 105.872C11.8914 104.264 8.56658 101.879 7.0407 97.6204C6.84289 97.0692 6.62034 96.5262 6.37925 95.9925C6.20513 95.6061 5.8981 95.3589 5.4458 95.4526C5.37161 95.4681 5.31805 95.5021 5.25623 95.5278C4.88326 95.6886 4.71738 96.0327 4.75859 96.4335C5.07077 99.4265 4.95436 102.467 6.08357 105.361C7.32405 108.541 8.9303 111.388 12.0933 113.001C14.2085 114.079 16.5421 114.284 18.8583 114.691C24.3168 115.652 29.8289 115.792 35.3204 115.994C41.6145 116.226 47.9189 116.127 54.2089 116.625C58.6918 116.981 63.19 117.034 68.188 116.899C72.4349 117.224 77.164 116.656 81.9044 116.649C86.0648 116.642 90.2251 116.618 94.3845 116.662C95.6476 116.676 96.1772 116.204 96.1082 114.937C96.0474 113.815 96.0206 112.679 96.1164 111.562C96.1483 111.185 96.1288 110.879 96.0618 110.628Z" fill="#00944A"/>
<path d="M95.3239 80.2929C95.3394 78.4827 94.4471 78.3271 92.9614 78.2993C86.3593 78.1746 79.789 78.866 73.1951 78.9309C70.3165 78.9597 67.4285 79.0988 64.5592 79.1256C54.25 79.2225 43.95 79.3358 33.6584 80.0591C29.6659 80.3393 25.6746 80.5423 21.7481 81.3325C15.2541 82.641 11.5316 91.5469 15.0295 97.2579C17.1828 100.772 20.5972 102.632 24.1435 104.336C24.7236 104.615 25.2491 104.505 25.4747 103.9C25.4798 103.886 25.4798 103.874 25.4839 103.861C25.69 103.24 25.215 102.976 24.7298 102.782C24.704 102.772 24.6783 102.761 24.6525 102.751C20.386 101.109 19.0466 97.6442 18.8457 93.4602C18.8004 92.5123 19.2012 91.8055 19.807 91.0987C21.9768 88.5673 24.8761 87.5566 28.0154 86.9796C30.8621 86.4562 33.7418 86.4871 36.6164 86.3408C42.2882 86.0513 47.9435 85.463 53.6215 85.2796C54.6693 85.2456 55.7181 85.2209 56.768 85.2198C57.7973 85.2188 58.8265 85.2198 59.8568 85.2198C64.2109 85.2178 68.5649 85.2188 72.92 85.2188C77.5698 85.2188 82.2195 85.2188 86.8693 85.2188C88.4765 85.2188 90.0828 85.224 91.689 85.2167C91.8951 85.2157 92.1011 85.2147 92.3082 85.2126C92.6977 85.2095 93.0871 85.2116 93.4766 85.2054C94.7882 85.1838 95.2878 84.8912 95.4434 83.9464C95.4785 83.7311 95.5022 83.492 95.5063 83.2025C95.5197 82.2268 95.3157 81.2398 95.3239 80.2929Z" fill="#00944A"/>
<path d="M27.4012 66.0803C27.8885 66.0401 28.3769 66.0164 28.8653 66.0113C35.9393 65.933 42.9794 65.5003 49.9844 64.5833C49.9926 64.5823 50.0019 64.5802 50.0091 64.5792C51.0476 64.4102 52.0944 64.2783 53.1381 64.1361C53.9335 64.0146 54.7289 63.894 55.5233 63.759C55.5954 63.7467 55.6685 63.7384 55.7417 63.7261C55.9498 63.688 56.159 63.657 56.3661 63.6148C60.4965 62.772 64.7012 62.127 68.4721 60.0644C68.4216 59.7615 68.4783 59.4503 68.6854 59.1423C70.1093 57.0291 69.1181 55.3456 66.8813 54.2277C65.3647 53.4694 63.7173 53.1851 62.0873 53.0151C60.4945 52.8492 58.9058 52.5411 57.281 52.6266C52.6374 52.8719 48.0103 52.2454 43.3657 52.3289C38.2874 52.4206 33.207 52.5659 28.1338 52.7276C24.4731 52.8451 20.8001 52.672 17.1569 52.9811C14.6667 53.1923 12.1806 53.0995 9.70065 53.2778C9.05672 53.3242 8.6652 53.1717 8.39526 52.8039C8.39629 53.5601 8.41999 54.3081 8.4612 55.0499C8.6652 54.9366 8.9073 54.8542 9.17827 54.7985C11.8921 54.2349 14.6358 54.6368 17.363 54.5224C18.1439 54.4894 18.927 54.5172 19.71 54.5172C29.1847 54.2792 38.6604 54.1628 48.1381 54.2154C53.0207 54.2422 57.8919 54.7161 62.7787 54.5255C63.5298 54.4966 64.319 54.508 64.3602 55.5733C64.3993 56.6088 63.6627 56.9797 62.8498 56.9972C60.2132 57.0538 57.5684 57.1868 54.9391 56.9086C54.2096 56.8313 53.4864 56.7509 52.7549 56.7509C45.4201 56.7478 38.0741 56.5016 30.7538 56.82C23.6695 57.127 16.5903 56.8313 9.51417 57.1064C9.20096 57.1188 8.87951 57.1208 8.60442 57.0477C8.89187 60.3333 9.35859 63.518 9.29162 66.7346C9.28441 67.0529 9.31427 67.329 9.36476 67.5835C10.9576 67.4516 12.5494 67.3146 14.1412 67.1817C18.5602 66.8139 22.9812 66.444 27.4012 66.0803ZM11.8674 58.623C18.6468 58.0192 25.4457 58.6189 32.222 58.3026C41.4535 57.8719 50.685 58.1511 59.9155 58.0429C60.3554 58.0378 60.7953 58.0481 61.2353 58.0471C62.1914 58.045 62.9054 58.387 62.8796 59.4596C62.8559 60.4693 62.044 60.5476 61.294 60.5548C58.9964 60.5764 56.6988 60.5672 54.4002 60.5682C52.3963 60.5692 50.3914 60.5682 48.3864 60.5682C45.4531 60.5682 42.5157 60.4631 39.5876 60.5878C30.9949 60.9546 22.3991 60.8289 13.8033 60.8742C13.2253 60.8773 12.6504 61.0782 12.0703 61.0988C11.1977 61.1297 10.289 60.9875 10.2508 59.8934C10.2158 58.8929 11.003 58.7003 11.8674 58.623ZM11.2492 64.2556C10.6042 64.0506 10.1159 63.6715 10.2117 62.874C10.3024 62.1229 10.8587 61.922 11.4635 61.8952C12.4897 61.8489 13.5189 61.8829 14.5472 61.8839C19.1289 61.682 23.7097 61.4687 28.2914 61.2853C29.0033 61.2564 29.8719 61.1452 29.977 62.2126C30.079 63.2511 29.5061 63.7518 28.5026 63.7879C26.8943 63.8466 25.2891 63.9218 23.6818 64.0321C19.9336 64.2896 16.1668 64.2886 12.4072 64.3793C12.0209 64.3886 11.6119 64.371 11.2492 64.2556Z" fill="#FFEBCF"/>
<path d="M9.70176 53.2789C12.1817 53.1007 14.6678 53.1934 17.1581 52.9822C20.8002 52.6731 24.4732 52.8462 28.1349 52.7287C33.207 52.567 38.2885 52.4207 43.3668 52.33C48.0125 52.2466 52.6385 52.873 57.2821 52.6278C58.9069 52.5423 60.4956 52.8493 62.0885 53.0162C63.7184 53.1862 65.3648 53.4706 66.8824 54.2289C69.1182 55.3467 70.1093 57.0302 68.6865 59.1434C68.4794 59.4514 68.4217 59.7626 68.4732 60.0655C68.4928 60.0552 68.5134 60.047 68.533 60.0356C70.5688 58.9126 72.343 57.5485 73.228 55.2355C73.8967 53.4891 73.2837 51.3749 71.527 50.5466C68.4969 49.1175 65.2185 48.4973 61.9514 47.9481C57.5273 47.2053 53.0486 46.9786 48.5709 46.6778C44.3621 46.3955 40.1564 46.3543 35.9693 46.514C30.3737 46.7272 24.7709 46.9858 19.1919 47.5721C17.3044 47.7709 15.3942 47.7514 13.4933 47.876C11.6047 48.0007 9.71825 48.1243 7.8328 48.2737C7.77614 49.54 7.74111 50.8103 8.06359 52.0776C8.14395 52.3939 8.25934 52.6185 8.39637 52.805C8.66734 53.1728 9.05886 53.3253 9.70176 53.2789Z" fill="#EDC999"/>
<path d="M9.51675 57.1072C16.5929 56.8321 23.672 57.1278 30.7564 56.8208C38.0777 56.5034 45.4227 56.7487 52.7574 56.7517C53.4889 56.7517 54.2122 56.8321 54.9417 56.9094C57.571 57.1876 60.2158 57.0547 62.8523 56.998C63.6652 56.9805 64.4019 56.6096 64.3627 55.5741C64.3226 54.5088 63.5333 54.4964 62.7812 54.5263C57.8945 54.7169 53.0222 54.243 48.1407 54.2162C38.6629 54.1636 29.1872 54.2801 19.7126 54.5181C18.9306 54.5181 18.1466 54.4902 17.3656 54.5232C14.6384 54.6386 11.8957 54.2358 9.18088 54.7993C8.90991 54.856 8.66778 54.9384 8.46378 55.0507C8.04856 55.2815 7.80749 55.6483 7.9064 56.2541C7.98676 56.7435 8.25977 56.9557 8.60492 57.0474C8.8831 57.1216 9.20353 57.1196 9.51675 57.1072Z" fill="#EDC999"/>
<path d="M12.0714 61.0994C12.6515 61.0788 13.2264 60.8779 13.8044 60.8748C22.3992 60.8295 30.995 60.9552 39.5887 60.5884C42.5168 60.4637 45.4542 60.5688 48.3875 60.5688C50.3925 60.5688 52.3964 60.5699 54.4013 60.5688C56.6989 60.5678 58.9975 60.5771 61.2951 60.5554C62.0462 60.5482 62.857 60.4699 62.8807 59.4602C62.9065 58.3887 62.1925 58.0467 61.2363 58.0477C60.7964 58.0487 60.3565 58.0384 59.9166 58.0436C50.6861 58.1517 41.4556 57.8725 32.2231 58.3032C25.4468 58.6195 18.6478 58.0199 11.8685 58.6236C11.004 58.7009 10.2159 58.8936 10.2519 59.894C10.2911 60.9882 11.1988 61.1303 12.0714 61.0994Z" fill="#EDC999"/>
<path d="M28.5056 63.7866C29.5091 63.7495 30.082 63.2498 29.98 62.2113C29.8749 61.1439 29.0063 61.2552 28.2944 61.284C23.7126 61.4684 19.1319 61.6807 14.5502 61.8826C13.5219 61.8816 12.4927 61.8486 11.4665 61.8939C10.8607 61.9207 10.3053 62.1216 10.2146 62.8727C10.1178 63.6702 10.6072 64.0493 11.2522 64.2544C11.6159 64.3698 12.0249 64.3873 12.4113 64.378C16.1708 64.2873 19.9376 64.2884 23.6858 64.0308C25.2921 63.9205 26.8973 63.8464 28.5056 63.7866Z" fill="#EDC999"/>
<path d="M88.6679 46.4137C88.298 44.1275 87.4707 41.899 85.5389 40.2958C80.3163 35.8192 72.7034 35.6584 66.1568 35.4678C60.1203 35.2927 54.0797 35.2144 48.039 35.2422C35.3921 35.2999 22.7472 35.8192 10.1466 36.8732C8.08705 37.0452 0.251592 36.4703 0.232016 39.7724C0.224804 40.9305 0.217597 42.0885 0.223778 43.2456C0.430869 43.0065 0.762615 42.8592 1.15928 42.8067C2.84794 42.581 4.53763 42.3028 6.23454 42.2204C10.0879 42.0319 13.9402 41.697 17.8059 41.9062C23.0398 42.1565 28.2696 41.7393 33.486 41.525C42.3909 41.1592 51.2896 41.3034 60.1852 41.3859C64.939 41.4302 69.7299 41.9154 74.3797 43.1044C77.0028 43.7751 79.4189 44.8961 81.4445 46.7929C83.9615 49.1502 83.9316 52.0042 82.9806 54.9127C81.498 59.447 78.266 62.031 73.6554 63.3282C68.5966 64.751 63.4956 65.566 58.2658 65.9039C55.4324 66.0873 52.6249 66.3058 49.807 65.872C49.4196 65.8122 48.7674 65.9307 48.8447 65.2724C48.9127 64.6975 49.5371 64.6531 49.9832 64.5821C42.9782 65.499 35.9381 65.9318 28.8641 66.0101C28.3757 66.0152 27.8863 66.0389 27.4 66.0791C22.979 66.4438 18.559 66.8137 14.139 67.1815C12.5472 67.3144 10.9544 67.4514 9.36254 67.5833C7.31121 67.7523 5.25886 67.9161 3.20856 68.1005C1.94129 68.2149 1.43025 69.0855 1.50958 70.2436C1.60231 71.6025 1.83413 72.9522 2.01237 74.304C2.12158 75.1323 2.5914 75.7567 3.41976 75.7402C25.3178 75.3219 47.0932 75.8927 68.9201 73.3643C71.0899 73.1129 73.3267 73.1861 75.4368 72.5968C79.831 71.3697 82.8663 68.219 85.7625 64.9375C86.3363 64.2874 86.9885 63.6208 87.2069 62.7522C88.5546 57.3854 89.5642 51.9537 88.6679 46.4137Z" fill="#A168BE"/>
<path d="M55.5263 63.7598C54.7319 63.8948 53.9365 64.0154 53.1411 64.1369C54.0127 64.0184 54.8813 63.8855 55.7447 63.7279C55.6715 63.7392 55.5984 63.7475 55.5263 63.7598Z" fill="#FF5C27"/>
<path d="M13.4952 47.8766C15.3951 47.7509 17.3053 47.7705 19.1938 47.5727C24.7729 46.9854 30.3757 46.7279 35.9712 46.5146C40.1594 46.3549 44.3641 46.3961 48.5728 46.6784C53.0495 46.9793 57.5282 47.2059 61.9534 47.9488C65.2215 48.4979 68.4989 49.1182 71.529 50.5472C73.2856 51.3756 73.8987 53.4897 73.23 55.2361C72.345 57.5491 70.5718 58.9132 68.5349 60.0363C68.5153 60.0466 68.4948 60.0548 68.4752 60.0661C64.7043 62.1288 60.4996 62.7738 56.3691 63.6166C56.1621 63.6588 55.9529 63.6897 55.7448 63.7278C54.8814 63.8855 54.0128 64.0194 53.1412 64.1369C52.0975 64.278 51.0517 64.4109 50.0122 64.5799C50.005 64.5809 49.9957 64.583 49.9875 64.584C49.5413 64.6541 48.917 64.6994 48.849 65.2743C48.7707 65.9327 49.4228 65.8142 49.8113 65.8739C52.6281 66.3077 55.4367 66.0882 58.2701 65.9059C63.4999 65.5679 68.5998 64.753 73.6596 63.3301C78.2702 62.033 81.5023 59.449 82.9849 54.9146C83.9358 52.0061 83.9657 49.1532 81.4487 46.7948C79.4231 44.897 77.0071 43.7761 74.3839 43.1064C69.7342 41.9184 64.9433 41.4321 60.1895 41.3878C51.2939 41.3054 42.3951 41.1622 33.4903 41.5269C28.2738 41.7412 23.0451 42.1585 17.8101 41.9081C13.9444 41.699 10.0932 42.0348 6.23883 42.2224C4.54089 42.3048 2.85223 42.584 1.16357 42.8086C0.766904 42.8611 0.435126 43.0085 0.228036 43.2475C0.0281577 43.4773 -0.0563099 43.7925 0.0395081 44.2016C0.233205 45.032 0.154908 45.8562 0.213635 46.6815C0.327999 48.2805 1.14502 48.9646 2.72138 48.773C4.42343 48.567 6.12961 48.4093 7.83682 48.2733C9.71918 48.1239 11.6067 48.0013 13.4952 47.8766Z" fill="#C896E1"/>
<path d="M89.9143 17.0388C83.4388 16.163 76.9212 15.8972 70.4045 15.5562C68.5541 15.4593 66.7047 15.3697 64.8532 15.3408C62.3166 15.3017 59.7718 15.0915 57.2527 15.11C50.528 15.1574 43.7888 15.2646 37.0939 15.9765C33.768 16.3299 30.3856 16.7091 27.5131 18.7563C25.809 19.97 25.4607 21.6968 26.5765 23.4112C26.7012 23.6028 26.8341 23.7986 26.9567 24.0005C27.4997 24.0613 28.0478 24.0778 28.6083 24.018C28.9421 23.982 29.2945 24.0314 29.6273 24.0984C29.9188 24.1571 30.2073 24.324 30.1888 24.6712C30.1888 24.6754 30.1857 24.6764 30.1857 24.6805C30.5504 24.63 30.9151 24.5816 31.2809 24.5404C40.0807 23.5451 49.5574 24.7052 58.4128 24.8835C58.996 24.8958 59.5802 24.9185 60.1633 24.9319C58.895 24.8536 57.6247 24.7877 56.3574 24.7032C51.0081 24.3446 45.6608 24.0139 40.3022 23.8346C39.5284 23.8089 38.7526 23.6585 37.9913 23.4988C37.2834 23.3494 36.9053 22.8631 36.9383 22.1233C36.9754 21.2857 37.5905 21.0353 38.2571 21.0745C42.1938 21.3022 46.1306 21.5402 50.0612 21.8472C52.0549 22.0028 54.0567 22.0295 56.0473 22.1295C60.9165 22.3737 65.7836 22.6931 70.661 22.8435C77.6382 23.0598 84.6134 23.3308 91.5937 23.3998C91.7523 23.4009 91.911 23.4163 92.0697 23.4328C92.0573 23.1464 92.0305 22.8373 91.9862 22.4973C91.9388 22.1264 91.8852 21.7565 91.8306 21.3856C91.538 21.4701 91.2042 21.4969 90.8745 21.4989C90.7272 21.5 90.5809 21.4989 90.4336 21.4989C83.9962 21.1971 77.5548 21.0363 71.1154 20.8272C67.3528 20.7046 63.587 20.8272 59.8326 20.6057C51.5232 20.1152 43.2077 20.4367 34.8962 20.311C34.1245 20.2997 33.3487 20.1245 32.5873 19.9669C31.9403 19.8319 31.5498 19.4311 31.6498 18.7099C31.7569 17.9289 32.3205 17.6023 32.9963 17.6384C40.1343 18.0206 47.2866 17.5117 54.4132 17.8692C58.8651 18.0928 63.3191 17.8022 67.7453 18.1515C71.4637 18.4451 75.1892 18.0856 78.8746 18.4482C82.8701 18.8418 86.8811 18.407 90.8632 18.95C91.0703 18.9778 91.2753 19.0036 91.4731 19.0355C91.3474 18.2133 91.2331 17.3901 91.1414 16.5648C90.9168 16.9316 90.4346 17.1088 89.9143 17.0388Z" fill="#FFEBCF"/>
<path d="M89.5691 12.0792C84.6298 12.1668 79.7297 11.6382 74.8203 11.224C72.8288 11.0561 70.8238 11.0582 68.8271 10.9572C64.5863 10.7439 60.3415 10.3277 56.8189 10.612C49.2884 10.4966 42.5008 10.9046 35.706 10.9706C35.1764 10.9757 34.6468 11.0128 34.1173 11.0334C31.2808 11.4332 28.4383 11.8195 25.6194 11.9792C24.6787 12.1534 23.7401 12.3388 22.8066 12.5542C21.0953 12.9477 20.1742 13.8698 20.1155 15.5111C20.032 17.854 19.3778 20.3257 21.2323 22.374C21.5342 22.7078 21.8072 23.0457 22.2863 23.0983C23.8616 23.2724 25.3813 23.8226 26.9577 23.9977C26.8351 23.7968 26.7012 23.6 26.5775 23.4084C25.4617 21.694 25.8099 19.9682 27.5141 18.7535C30.3876 16.7063 33.7701 16.3281 37.0948 15.9737C43.7897 15.2618 50.5289 15.1557 57.2537 15.1072C59.7728 15.0897 62.3176 15.2999 64.8542 15.338C66.7057 15.3658 68.5561 15.4565 70.4055 15.5534C76.9221 15.8944 83.4398 16.1602 89.9153 17.036C90.4345 17.106 90.9178 16.9288 91.1465 16.561C91.2124 16.4549 91.265 16.3384 91.2814 16.2004C91.4494 14.8239 91.5916 13.4165 91.502 12.0411C90.858 12.04 90.213 12.0679 89.5691 12.0792Z" fill="#EDC999"/>
<path d="M78.8798 18.4474C75.1944 18.0847 71.4688 18.4443 67.7505 18.1506C63.3243 17.8014 58.8703 18.0919 54.4184 17.8683C47.2918 17.5098 40.1394 18.0188 33.0015 17.6376C32.3256 17.6015 31.7631 17.9291 31.6549 18.7091C31.556 19.4313 31.9454 19.8321 32.5925 19.966C33.3539 20.1237 34.1297 20.2988 34.9014 20.3102C43.2128 20.4359 51.5273 20.1144 59.8377 20.6048C63.5911 20.8263 67.3569 20.7037 71.1206 20.8263C77.56 21.0355 84.0024 21.1962 90.4387 21.4981C90.5861 21.4981 90.7324 21.4991 90.8797 21.4981C91.2094 21.496 91.5432 21.4692 91.8358 21.3848C92.3345 21.2405 92.7105 20.9283 92.7332 20.2741C92.7641 19.3664 92.1841 19.148 91.4783 19.0336C91.2815 19.0017 91.0754 18.9769 90.8684 18.9481C86.8862 18.4051 82.8743 18.8409 78.8798 18.4474Z" fill="#EDC999"/>
<path d="M70.6647 22.8427C65.7873 22.6913 60.9201 22.3729 56.0509 22.1287C54.0604 22.0288 52.0575 22.002 50.0649 21.8464C46.1343 21.5394 42.1965 21.3014 38.2607 21.0737C37.5931 21.0346 36.979 21.2849 36.9419 22.1226C36.909 22.8623 37.2861 23.3496 37.9949 23.498C38.7553 23.6577 39.5321 23.8081 40.3059 23.8339C45.6645 24.0132 51.0117 24.3429 56.361 24.7024C57.6293 24.7879 58.8987 24.8529 60.167 24.9312C71.2365 25.1949 82.3215 25.8048 93.3901 25.811C93.764 25.6946 94.0319 25.4298 94.0319 24.8085C94.0319 23.7844 93.3478 23.5083 92.4762 23.4661C92.3422 23.4599 92.2093 23.4444 92.0764 23.431C91.9178 23.4145 91.7591 23.3991 91.6004 23.3981C84.616 23.3301 77.6419 23.0591 70.6647 22.8427Z" fill="#EDC999"/>
<path d="M25.6187 11.9793C28.4376 11.8196 31.2801 11.4332 34.1166 11.0334C31.276 11.1437 28.4355 11.459 25.6187 11.9793Z" fill="#5DE0CD"/>
<path d="M60.1636 24.9311C59.5804 24.9167 58.9962 24.894 58.4131 24.8827C49.5576 24.7034 40.0809 23.5443 31.2811 24.5396C30.9154 24.5808 30.5506 24.6292 30.1859 24.6797C30.1612 24.9878 29.848 24.9651 29.6254 25.0022C29.0021 25.1052 28.3767 25.2474 27.7482 25.2721C26.042 25.3401 24.341 25.267 22.6317 25.5369C19.3152 26.0593 16.7158 23.8462 16.1903 20.574C15.6371 17.1328 15.5546 13.6916 16.7642 10.307C17.4102 8.49678 18.559 7.33152 20.3208 6.69788C23.2396 5.64903 26.2955 5.25958 29.3493 4.92679C39.5246 3.81819 49.7472 3.83982 59.9482 4.10976C66.7585 4.29007 73.5863 4.58885 80.376 5.41825C83.367 5.784 86.3847 6.08485 89.4169 6.10752C91.0231 6.11988 92.6335 6.25382 94.2325 6.42382C95.135 6.51964 95.881 7.19139 96.2993 8.07642C96.6053 6.09618 96.4291 4.1077 96.016 2.10583C95.8233 1.1765 95.2639 0.640741 94.3067 0.580984C92.5047 0.46662 90.7017 0.338861 88.8976 0.272922C71.4515 -0.272107 53.9797 0.0050444 36.5573 1.05183C30.3672 1.42377 23.8166 1.39904 17.7162 2.56637C13.6908 3.33704 12.1608 5.78194 11.4313 9.69709C10.774 13.2279 10.741 16.8752 10.4278 20.4699C10.3959 22.3512 10.7441 24.1862 10.9801 26.0253C11.7559 32.0773 15.7143 34.381 21.2439 34.6046C33.6786 34.6046 46.1308 34.9405 58.5583 35.4134C64.4527 35.638 70.345 35.909 76.2342 36.2263C81.3929 36.5045 86.9679 37.5214 92.0988 36.6848C93.5855 36.4427 94.5334 35.7812 94.7425 34.2203C95.0217 32.1401 95.3782 30.0682 95.6141 27.9829C95.8017 26.321 95.2834 25.8625 93.5505 25.8172C93.4958 25.8172 93.4412 25.8151 93.3866 25.8151C82.3181 25.8048 71.2331 25.1959 60.1636 24.9311Z" fill="#5DE0CD"/>
<path d="M96.2982 8.07544C95.8799 7.19042 95.134 6.51866 94.2314 6.42284C92.6324 6.25284 91.0221 6.11787 89.4158 6.10654C86.3837 6.08387 83.3659 5.78303 80.3749 5.41727C73.5853 4.58788 66.7574 4.28909 59.9471 4.10879C49.7461 3.83885 39.5225 3.81721 29.3483 4.92582C26.2944 5.2586 23.2386 5.64806 20.3197 6.6969C18.5569 7.33054 17.4091 8.49581 16.7631 10.306C15.5546 13.6916 15.637 17.1318 16.1893 20.573C16.7147 23.8442 19.3152 26.0583 22.6307 25.536C24.3399 25.267 26.041 25.3392 27.7472 25.2712C28.3756 25.2464 29 25.1043 29.6244 25.0012C29.8459 24.9641 30.1601 24.9878 30.1848 24.6787C30.1848 24.6746 30.1879 24.6736 30.1879 24.6695C30.2065 24.3233 29.918 24.1553 29.6264 24.0966C29.2947 24.0297 28.9413 23.9802 28.6074 24.0163C28.047 24.076 27.4978 24.0585 26.9559 23.9987C25.3795 23.8236 23.8598 23.2724 22.2845 23.0993C21.8044 23.0467 21.5324 22.7078 21.2305 22.375C19.3759 20.3268 20.0302 17.8551 20.1137 15.5122C20.1724 13.8709 21.0935 12.9498 22.8048 12.5552C23.7383 12.3399 24.6779 12.1544 25.6175 11.9803C28.4344 11.46 31.2749 11.1447 34.1154 11.0345C34.645 11.0139 35.1746 10.9768 35.7042 10.9716C42.499 10.9057 49.2866 10.4977 56.8171 10.6131C60.3397 10.3277 64.5845 10.745 68.8252 10.9582C70.822 11.0582 72.827 11.0571 74.8185 11.2251C79.7279 11.6393 84.627 12.1678 89.5673 12.0802C90.2102 12.0689 90.8551 12.0411 91.5001 12.0452C92.1729 12.0493 92.8457 12.0885 93.5174 12.2203C95.543 12.618 96.2879 12.1111 96.6114 10.1999C96.7361 9.46017 96.6001 8.71423 96.2982 8.07544Z" fill="#00A08D"/>
</svg>
