<svg width="35" height="35" viewBox="0 0 35 35" fill="none" xmlns="http://www.w3.org/2000/svg">
<path d="M17.2114 9.4637L19.3779 7.29725C21.8172 4.85786 25.0108 3.84603 28.3907 3.68068C29.7053 3.61637 30.3626 3.58421 30.8897 4.11131C31.4168 4.6384 31.3846 5.2957 31.3203 6.61033C31.1549 9.99018 30.1431 13.1838 27.7038 15.6231L25.5373 17.7896C23.7532 19.5738 23.246 20.0811 23.6205 22.0163C23.9901 23.4946 24.3479 24.9261 23.2729 26.0011C21.969 27.305 20.7796 27.305 19.4757 26.0011L8.9999 15.5253C7.69602 14.2214 7.69597 13.032 8.9999 11.7281C10.0748 10.6531 11.5064 11.0109 12.9846 11.3805C14.9199 11.7551 15.4272 11.2478 17.2114 9.4637Z" stroke="#A168BE" stroke-width="2.1875" stroke-linejoin="round"/>
<path d="M24.7871 10.2082H24.8002" stroke="#A168BE" stroke-width="2.91667" stroke-linecap="round" stroke-linejoin="round"/>
<path d="M3.64697 31.3542L10.9386 24.0625" stroke="#A168BE" stroke-width="2.1875" stroke-linecap="round"/>
<path d="M12.397 31.3542L15.3136 28.4375" stroke="#A168BE" stroke-width="2.1875" stroke-linecap="round"/>
<path d="M3.64697 22.6042L6.56364 19.6875" stroke="#A168BE" stroke-width="2.1875" stroke-linecap="round"/>
</svg>
