<svg width="48" height="40" viewBox="0 0 48 40" fill="none" xmlns="http://www.w3.org/2000/svg">
<path d="M17.5427 14.866C19.1467 11.353 20.5767 7.82401 21.6737 4.12101C21.8887 3.39601 20.7977 3.14701 20.4687 3.73801C18.7317 6.86201 17.1897 10.07 15.6357 13.284C13.0607 11.515 10.1367 9.50902 7.24372 8.48002C8.55372 5.98502 10.0437 3.25501 10.0217 0.625006C10.0157 -0.0689937 9.16672 -0.153983 8.75672 0.217017C6.39872 2.35402 5.3557 6.49303 4.0167 9.35203C2.6817 12.202 0.137708 15.683 0.000707717 18.844C-0.0242923 19.419 0.617712 20.078 1.18671 19.607C3.75071 17.485 4.88272 13.38 6.26572 10.416C6.31372 10.313 6.3707 10.205 6.4217 10.1C8.6797 12.223 11.8367 13.965 14.5457 15.468C13.0447 18.272 11.0237 21.326 10.5667 24.33C10.4317 25.22 11.4687 25.602 12.0627 25.038C14.6627 22.572 16.0697 18.091 17.5427 14.866Z" fill="#FF9F01"/>
<path d="M20.5132 28.5269C21.7532 28.0819 22.7582 27.2159 22.8742 25.7299C22.9522 24.7439 22.5742 23.6599 21.7642 23.0559C20.6992 22.2619 19.6392 23.2009 18.6592 22.7139C18.4912 22.6309 18.2702 22.7419 18.2432 22.9299C18.1252 23.7409 18.6082 23.9279 19.2892 24.1119C20.1792 24.3519 21.5742 24.1989 21.3042 25.6619C21.0312 27.1409 19.0522 27.2779 17.8962 27.1719C16.7472 27.0669 16.5312 28.5659 17.5942 28.9009C18.7992 29.2809 21.4092 31.0469 18.8682 31.8179C17.3282 32.2849 16.0322 30.9279 14.7382 30.3019C14.0882 29.9869 13.2482 30.8359 13.7672 31.4399C15.4902 33.4489 19.1722 34.9499 21.1302 32.3569C22.2872 30.8259 21.6612 29.4859 20.5132 28.5269Z" fill="#FF9F01"/>
<path d="M40.9108 37.1918C37.2078 34.8478 30.1948 30.9568 31.8118 25.5438C32.5948 22.9198 35.1598 20.8798 37.5798 19.7728C38.6208 19.2968 39.7788 18.9338 40.9248 18.8268C42.5728 18.6728 44.1298 19.7538 45.5848 19.1958C45.1328 19.3688 44.9288 20.0518 45.3658 20.3708C45.4398 20.4248 45.5128 20.4778 45.5868 20.5318C45.8718 20.7398 46.3148 20.8358 46.6178 20.5888C49.0968 18.5768 44.4008 16.6278 42.8508 16.4148C38.8558 15.8658 34.6418 17.9968 31.9148 20.7868C29.2058 23.5588 28.1508 27.3048 30.0018 30.8538C31.7918 34.2848 36.4408 38.5638 40.3288 39.0158C41.4678 39.1498 41.8138 37.7638 40.9108 37.1918Z" fill="#FF9F01"/>
</svg>
