<svg width="65" height="117" viewBox="0 0 65 117" fill="none" xmlns="http://www.w3.org/2000/svg">
<path d="M29.539 21.7563C31.2329 21.7729 32.8296 22.0934 34.1524 23.2559C35.5752 24.5069 36.0016 26.0482 35.4228 27.8401C34.9333 29.3562 34.0203 30.547 32.6586 31.4259C30.1082 33.0712 27.3557 31.6211 26.0922 29.8681C24.8908 28.2014 24.849 26.1793 25.4181 24.2379C25.9144 22.5489 27.3528 21.7651 29.539 21.7563Z" fill="white"/>
<path d="M53.5815 11.3199C53.666 12.6116 53.1493 13.7198 52.0878 14.5133C50.5018 15.6992 48.8778 16.7811 46.7091 15.9701C45.0619 15.3544 44.2645 14.1539 44.079 12.4873C43.9275 11.1179 44.4287 9.89899 45.0551 8.71506C45.87 7.17469 47.3715 7.16301 48.7778 7.12513C51.0583 7.06395 53.7952 8.63831 53.5815 11.3199Z" fill="white"/>
<path d="M46.3314 23.771C46.3139 26.2593 44.3996 28.3416 42.1318 28.3387C39.6823 28.3358 37.9156 26.4973 37.9477 23.9818C37.9797 21.4847 39.8163 19.4869 42.0677 19.4986C44.5482 19.5132 46.3479 21.3157 46.3314 23.771Z" fill="white"/>
<path d="M33.217 17.9104C31.2794 17.9211 29.8225 16.7644 29.7992 15.1968C29.7594 12.4851 31.1269 10.6825 33.2422 10.6582C35.3352 10.634 37.0339 12.2151 37.0271 14.1809C37.0203 16.1039 35.1856 17.9007 33.217 17.9104Z" fill="white"/>
<path d="M43.841 3.10408C43.8332 5.21942 42.4774 6.79475 40.6651 6.7967C38.8528 6.79864 36.7841 4.87462 36.8093 3.21188C36.8384 1.33158 38.3555 -0.00580841 40.4504 1.89692e-05C42.5493 0.00584634 43.8478 1.19562 43.841 3.10408Z" fill="white"/>
<path d="M24.6533 14.9833C25.8751 14.9571 27.1999 16.2362 27.2659 17.5066C27.331 18.7672 26.251 19.9473 24.9991 19.9832C23.7569 20.0182 22.537 18.7721 22.4962 17.4269C22.4574 16.1313 23.448 15.0095 24.6533 14.9833Z" fill="white"/>
<path d="M31.5121 25.1353C32.6212 25.1382 33.4584 25.9191 33.4244 26.9204C33.3933 27.8402 32.6056 28.5763 31.6325 28.5938C30.5554 28.6132 29.9746 27.978 29.9727 26.7795C29.9707 25.683 30.4864 25.1324 31.5121 25.1353Z" fill="#A168BE"/>
<path d="M64.5152 82.9928C63.98 78.6922 62.5853 74.6392 60.4244 70.8815C58.8422 68.1291 56.9687 65.5893 54.4503 63.5886C50.9151 60.7798 46.9427 58.8723 42.545 57.8797C41.6796 57.6845 41.3863 57.3067 41.4067 56.4248C41.4971 52.467 41.1882 42.5984 42.6072 42.2701C42.7635 42.2342 42.8655 41.7476 42.9044 41.4581C43.1209 39.842 43.0005 38.2181 42.9801 36.5971C42.9714 35.9289 42.4304 35.9969 41.9836 35.9775C39.7634 35.8804 24.1218 35.9678 22.0822 35.9814C21.4713 35.9853 20.8429 35.9765 20.8614 36.8992C20.8934 38.4852 20.872 40.0722 20.8759 41.6582C20.8769 42.0642 20.9556 42.4682 21.4645 42.443C22.3998 42.3964 22.1958 55.5478 22.2405 57.4728C22.2599 58.3245 22.0064 58.6994 21.1148 58.9432C15.5769 60.4622 10.5722 62.8378 6.88343 67.522C2.55563 73.0173 0.435433 79.2836 0.033344 86.1648C-0.214319 90.4091 0.948225 94.4261 2.50511 98.3411C4.66803 103.783 8.02169 108.322 13.0391 111.378C20.0339 115.637 27.6376 117.489 35.8921 116.891C42.4799 116.413 48.1364 114.013 52.9818 109.637C57.2028 105.825 60.4884 101.327 62.5912 95.9985C64.2422 91.8076 65.0736 87.4866 64.5152 82.9928ZM60.0601 92.1631C59.592 93.7647 59.0025 95.2856 58.2974 96.725C58.445 97.063 58.3799 97.4699 58.175 97.906C56.0014 102.511 52.8837 106.213 48.5093 108.98C44.2048 111.702 39.6245 113.397 34.6091 114.002C33.7913 114.101 32.9522 114.016 32.1228 114.016C24.8444 113.929 18.1322 111.94 12.2194 107.649C8.30724 104.809 6.03262 100.726 4.30286 96.3112C3.70944 94.7961 3.3695 93.2188 3.0791 91.6182C3.02957 91.3453 3.04415 91.1433 3.08883 90.9685C3.0626 90.7937 3.03054 90.6227 3.00723 90.446C2.50316 86.7155 2.51387 83.0374 3.39963 79.3419C3.65215 78.2881 4.07366 77.3956 4.62629 76.6768C4.73021 75.2589 5.31489 73.7777 6.40072 72.1606C8.45001 69.11 11.1597 66.7441 14.392 64.9784C17.2484 63.4176 20.2427 62.1949 23.3652 61.2868C23.911 61.1285 24.2034 60.9226 24.3277 60.2602C24.5821 58.9014 24.7851 43.7522 24.7851 37.5295C24.7851 36.2126 25.196 36.1611 26.2031 36.1912C28.1281 36.2494 30.0569 36.2077 31.9839 36.2096C34.1002 36.2106 36.2155 36.2106 38.3318 36.2116C38.8932 36.2116 39.4711 36.2359 39.303 37.0468C38.9039 38.9815 38.4921 53.7452 38.4377 59.1743C38.426 60.3116 38.7854 60.7351 39.879 60.9439C45.28 61.9773 49.9837 64.4384 53.8482 68.3321C57.2038 71.7129 59.4327 75.8154 60.5225 80.453C60.5341 80.5045 60.5429 80.5569 60.5545 80.6084C60.7546 80.9949 60.9255 81.4213 61.0391 81.9176C61.8472 85.45 61.0353 88.8308 60.0601 92.1631Z" fill="#A168BE"/>
<path d="M10.5743 74.9618C12.1059 75.395 13.5414 76.0564 14.9507 76.7887C17.8401 78.2893 20.745 79.6966 24.1472 79.6053C25.7565 79.5625 27.1658 79.0371 28.5712 78.3747C30.3067 77.557 31.9452 76.5401 33.8741 76.1419C36.0448 75.6932 38.0844 76.0729 40.0589 76.914C41.4807 77.5201 42.857 78.2446 44.1448 79.108C46.9876 81.0145 49.9712 81.1553 53.1025 79.9297C54.1193 79.5314 55.1557 79.1604 56.2114 78.8875C58.2286 78.366 59.7379 79.0274 60.5567 80.6085C60.545 80.5571 60.5372 80.5046 60.5246 80.4531C59.4349 75.8146 57.2059 71.7121 53.8503 68.3322C49.9858 64.4386 45.2822 61.9775 39.8811 60.9441C38.7875 60.7353 38.4282 60.3118 38.4398 59.1745C38.4932 53.7453 38.905 38.9827 39.3052 37.047C39.4722 36.236 38.8953 36.2127 38.334 36.2117C36.2177 36.2108 34.1023 36.2117 31.986 36.2098C30.0591 36.2079 28.1302 36.2496 26.2052 36.1913C25.1991 36.1612 24.7873 36.2127 24.7873 37.5297C24.7873 43.7524 24.5843 58.9016 24.3298 60.2603C24.2055 60.9227 23.9131 61.1286 23.3673 61.2869C20.2448 62.195 17.2515 63.4178 14.3941 64.9786C11.1619 66.7443 8.45217 69.1102 6.40288 72.1608C5.31704 73.7769 4.73234 75.259 4.62842 76.677C5.959 74.9463 8.07435 74.2557 10.5743 74.9618Z" fill="#F9ECFF"/>
<path d="M60.5552 80.6082C59.7365 79.027 58.2272 78.3656 56.21 78.8871C55.1542 79.1601 54.1179 79.5311 53.101 79.9293C49.9698 81.155 46.9872 81.0142 44.1434 79.1076C42.8556 78.2442 41.4803 77.5197 40.0574 76.9136C38.0829 76.0725 36.0443 75.6928 33.8726 76.1415C31.9438 76.5407 30.3053 77.5566 28.5697 78.3744C27.1644 79.0367 25.7542 79.5612 24.1458 79.6049C20.7426 79.6962 17.8386 78.2879 14.9492 76.7883C13.539 76.056 12.1045 75.3946 10.5729 74.9614C8.07293 74.2554 5.95857 74.9449 4.62605 76.6757C4.07342 77.3944 3.65191 78.2869 3.39939 79.3407C2.51362 83.0362 2.50292 86.7133 3.00699 90.4448C3.03127 90.6216 3.06236 90.7925 3.08859 90.9673C3.18377 90.5914 3.47707 90.3972 3.98794 90.2884C5.10194 90.0514 6.16447 90.3059 7.22117 90.5856C11.1595 91.6297 14.9939 93.0108 18.8749 94.2394C22.3587 95.3417 25.8843 95.7166 29.5594 95.4787C36.2803 95.0445 42.9614 93.8674 49.7319 94.2802C52.463 94.4462 55.096 95.063 57.6192 96.1216C57.9805 96.2731 58.1913 96.481 58.2971 96.7228C59.0022 95.2844 59.5918 93.7625 60.0599 92.161C61.035 88.8287 61.846 85.4488 61.0389 81.9154C60.9262 81.4221 60.7553 80.9947 60.5552 80.6082Z" fill="#DEB2F4"/>
<path d="M57.6178 96.1237C55.0945 95.0641 52.4625 94.4483 49.7304 94.2822C42.96 93.8695 36.2789 95.0456 29.558 95.4807C25.8829 95.7177 22.3573 95.3428 18.8735 94.2414C14.9925 93.0138 11.1581 91.6327 7.21974 90.5877C6.16304 90.308 5.10051 90.0535 3.98651 90.2905C3.47467 90.3993 3.18234 90.5925 3.08715 90.9694C3.04248 91.1442 3.0279 91.3462 3.07743 91.6191C3.36783 93.2197 3.70777 94.796 4.30119 96.3121C6.03095 100.727 8.3046 104.81 12.2177 107.65C18.1296 111.941 24.8427 113.93 32.1211 114.017C32.9505 114.017 33.7906 114.101 34.6074 114.003C39.6229 113.398 44.2032 111.703 48.5076 108.981C52.8821 106.214 55.9997 102.511 58.1733 97.9069C58.3792 97.4708 58.4433 97.0638 58.2957 96.7258C58.1898 96.4821 57.9791 96.2752 57.6178 96.1237Z" fill="#C691E1"/>
<path d="M11.8015 78.1433C11.8151 78.053 11.8015 77.8102 11.887 77.6101C14.4578 71.5759 18.3709 66.9693 25.0374 65.3192C26.235 65.023 27.3752 65.6164 27.5675 66.5915C27.8074 67.8094 27.2062 68.5087 25.7998 68.8059C25.0326 68.9681 24.2566 69.1993 23.5544 69.5421C19.7656 71.3904 17.1627 74.3575 15.5272 78.2113C15.3659 78.592 15.2358 79.0038 14.9949 79.3302C14.5035 79.9945 13.8294 80.2781 13.0058 79.9916C12.224 79.7186 11.7898 79.0844 11.8015 78.1433Z" fill="white"/>
<path d="M14.2095 84.6115C14.2056 85.6158 13.4432 86.4219 12.4739 86.4442C11.389 86.4695 10.409 85.3671 10.4479 84.1667C10.4848 83.0488 11.4356 81.9892 12.3729 82.0242C13.4024 82.063 14.2143 83.2061 14.2095 84.6115Z" fill="white"/>
<path d="M30.9865 50.4466C30.9865 51.9579 31.006 53.4691 30.9807 54.9794C30.9603 56.1545 30.4465 56.6936 29.3782 56.7499C28.3652 56.8033 27.4911 56.1507 27.4736 55.1017C27.4192 51.7782 27.4289 48.4537 27.4707 45.1301C27.4814 44.3085 28.4876 43.479 29.2354 43.4975C30.0056 43.5159 30.9448 44.5105 30.97 45.4603C31.0128 47.1211 30.9817 48.7839 30.9817 50.4466C30.9817 50.4466 30.9846 50.4466 30.9865 50.4466Z" fill="white"/>
<path d="M29.4347 59.1042C30.4468 59.111 30.9946 59.7365 30.9868 60.8757C30.98 61.7945 30.168 62.6385 29.3036 62.6249C28.4325 62.6113 27.571 61.7615 27.5467 60.8922C27.5175 59.8511 28.3149 59.0964 29.4347 59.1042Z" fill="white"/>
</svg>
