<svg width="31" height="34" viewBox="0 0 31 34" fill="none" xmlns="http://www.w3.org/2000/svg">
<path d="M13.4308 0.187722C12.5328 0.380722 12.7548 1.75573 13.6438 1.76173C14.7618 1.71873 15.8688 1.81873 16.9668 2.05973C20.0748 4.37873 20.5038 6.09274 18.2538 7.20274C16.4818 8.66074 14.5478 8.15472 12.5238 7.49372C11.5538 7.17672 10.5808 8.19274 10.8698 9.14774C11.8048 12.2347 10.7928 16.6297 6.55883 15.7197C3.83683 15.1347 2.95082 12.2267 2.22582 9.91773C1.82882 8.65173 0.215823 9.02573 0.0578227 10.2107C-0.544177 14.7357 3.64982 18.9877 8.19482 18.4427C12.6798 17.9047 14.1788 14.3227 13.8298 10.5297C17.2488 10.9987 21.1948 10.1337 21.9048 6.21473C22.7958 1.29873 17.3208 -0.648278 13.4308 0.187722Z" fill="#FF9F01"/>
<path d="M29.8943 17.6675C27.3103 18.0495 24.8543 20.5285 22.7993 22.5825C22.0003 21.8045 20.8813 21.1945 20.1233 20.5395C19.3233 19.8485 18.5353 19.1575 17.7333 18.4815C20.0343 16.7035 22.7813 14.7645 24.4973 12.4285C24.7063 12.1445 24.6463 11.7315 24.4973 11.4415C24.4683 11.3855 24.4393 11.3295 24.4103 11.2735C24.0863 10.6445 23.2653 10.5245 22.6843 10.8205C20.3643 12.0055 18.3483 14.3205 16.2943 15.9275C13.5823 18.0485 10.6143 19.6985 7.79826 21.6525C6.62626 22.4655 7.31926 24.7735 8.85026 24.1475C11.4283 23.0915 13.7753 21.4865 16.0103 19.7985C16.6053 20.7735 17.3183 21.6625 18.1643 22.4985C18.8073 23.1335 19.4813 23.7285 20.1903 24.2885C20.1943 24.2915 20.4503 24.4745 20.6503 24.6055C18.2223 26.6905 14.8613 29.0755 13.8863 32.0325C13.5683 32.9975 14.6883 33.6505 15.4823 33.2595C18.1093 31.9655 20.3163 28.8965 22.4803 26.8945C23.7633 25.7075 25.0463 24.5215 26.3003 23.3045C27.4263 22.2125 28.8843 19.9635 30.3663 19.3825C31.4423 18.9595 31.0253 17.5005 29.8943 17.6675Z" fill="#FF9F01"/>
</svg>
