<svg width="32" height="25" viewBox="0 0 32 25" fill="none" xmlns="http://www.w3.org/2000/svg">
<path d="M15.5524 20.3713C13.1444 19.1173 10.2704 18.9033 7.44643 19.2373C10.6904 15.2583 12.3234 10.1113 10.3864 4.94025C9.48943 2.54525 8.06643 1.98427 5.64643 2.90327C3.33143 3.78127 -0.121566 5.80526 0.00843407 8.58326C0.0244341 8.93526 0.34243 9.20025 0.69643 9.10725C2.21343 8.70625 2.79144 7.62326 4.07544 6.71726C7.02644 4.63426 8.40844 5.94826 8.40844 9.26426C8.40844 14.4193 4.94943 18.4953 0.731434 21.0113C-0.757566 21.8993 0.216433 24.5662 1.95443 23.9132C6.49943 22.2052 10.2374 22.8483 14.8954 22.7983C16.1394 22.7853 16.7314 20.9853 15.5524 20.3713Z" fill="#FF9F01"/>
<path d="M29.7725 12.0193C28.6315 8.26526 27.8355 4.42824 27.3965 0.529237C27.3195 -0.155763 26.2915 -0.196763 26.2955 0.529237C26.3135 3.32424 26.4445 6.10226 26.7525 8.86926C23.9725 9.05626 21.2165 9.44826 18.4305 9.66126C18.0715 7.20226 17.7165 4.74325 17.3035 2.28925C17.1225 1.21125 15.6145 1.59124 15.5245 2.53024C14.9335 8.72024 15.6545 14.9853 16.7455 21.0793C17.1425 23.2973 20.5855 22.3712 20.1445 20.1422C19.6095 17.4402 19.1845 14.7243 18.7795 12.0063C21.5495 12.4753 24.5155 12.5292 27.1565 11.8452C27.1655 11.8982 27.1695 11.9512 27.1785 12.0042C27.6705 14.9702 27.8165 18.6142 30.3695 20.4692C30.7995 20.7822 31.4435 20.4512 31.5665 19.9822C32.2895 17.2422 30.5725 14.6523 29.7725 12.0193Z" fill="#FF9F01"/>
</svg>
