<svg width="117" height="117" viewBox="0 0 117 117" fill="none" xmlns="http://www.w3.org/2000/svg">
<path d="M82.5533 88.936C80.5621 86.0255 74.8366 84.3259 73.1937 88.5241C73.1522 88.6303 73.1345 88.7373 73.1259 88.843C71.8261 87.5423 69.7964 86.5449 68.4475 85.8763C66.7737 85.0461 64.9767 84.4123 63.1383 84.0107C63.8031 82.2598 64.1771 80.1499 64.6561 78.5473C65.5801 75.4573 67.0052 72.191 67.5121 69.0101C68.2108 64.6326 63.2588 61.8534 60.4521 59.2259C57.9004 56.8383 53.7752 50.7172 49.9463 50.7594C47.607 50.7859 44.4739 52.9359 42.295 53.8557C39.4523 55.0562 36.5673 56.1263 33.974 57.8091C32.8441 58.5424 33.8871 60.019 35.0091 59.7422C38.9955 58.7607 42.7839 56.7163 46.5331 55.0504C47.9355 54.4268 49.3858 53.3221 50.9789 53.7298C52.4538 54.107 55.0113 57.7199 56.1238 58.8279C59.4201 62.1096 63.765 65.2295 63.7926 70.3521C63.8043 72.4717 62.1389 75.5342 61.4862 77.5666C60.9518 79.2294 60.6706 81.5394 59.768 82.982C57.9396 85.9025 52.1938 86.4337 49.1468 87.3786C43.7387 89.055 40.7538 86.3648 36.7567 83.3788C34.5143 81.7029 32.8959 80.8382 31.7849 78.2012C30.6241 75.4451 31.2379 73.377 31.5703 70.4608C32.0054 66.6438 32.4103 62.8232 32.5617 58.984C32.5766 58.5921 32.3305 58.3904 32.0332 58.3401C32.0555 58.0767 31.9664 57.8036 31.7015 57.5972C29.967 56.2496 27.8287 55.4592 25.9059 54.4166C24.639 53.7302 23.1859 52.5562 21.6969 52.1127C23.2184 50.6068 23.0731 47.8432 21.2825 46.3713C18.7463 44.2854 14.0147 44.9259 12.0882 47.535C10.0489 50.2962 10.5827 54.7731 13.6791 56.5038C15.9704 57.7846 19.9704 57.0626 20.7822 54.4126C21.8557 55.3815 23.407 56.0578 24.535 56.6552C26.5375 57.7139 28.6837 58.9346 30.9574 59.2272C30.9641 59.2279 30.9707 59.2255 30.9773 59.2262C29.5657 64.8911 27.533 71.8979 27.8 77.7135C28.0188 82.4648 34.1202 85.3264 37.4473 87.8868C39.265 89.2856 40.7095 90.4308 42.2718 91.0764C41.1841 92.4749 40.3336 94.1318 39.5759 95.6537C38.9058 96.9988 37.8008 98.8916 37.374 100.654C34.2956 99.6925 30.3428 102.131 29.2402 104.94C27.9305 108.275 29.4043 112.033 32.9181 113.103C35.9048 114.014 40.5242 113.072 40.9503 109.394C41.1345 107.806 40.2792 104.321 38.5662 103.34C38.6559 103.291 38.7502 103.264 38.8334 103.183C40.2975 101.764 40.7304 98.8135 41.5937 96.9565C42.4354 95.1449 43.6112 93.419 44.4529 91.5957C45.4392 91.6845 46.5188 91.6029 47.7989 91.2661C51.154 90.3835 54.5781 89.3567 57.8575 88.2311C59.6733 87.608 61.2019 87.2853 62.2758 85.7211C63.9845 86.3985 65.6405 87.1724 67.2095 88.1763C68.455 88.9742 69.7047 90.3266 71.0383 91.2635C70.2834 92.7043 70.1066 94.619 70.5491 96.088C71.7889 100.2 76.9635 100.586 80.1822 98.6488C83.5816 96.6033 84.8568 92.3032 82.5533 88.936ZM15.9122 55.0856C13.3218 54.8056 12.5502 51.9597 13.3164 49.8252C14.0245 47.85 16.2921 47.0935 18.2539 47.3766C19.0849 47.4955 19.9612 47.8218 20.4391 48.5646C21.0445 49.5063 20.9823 51.1903 19.7996 51.7277C19.2219 51.9903 19.3055 52.672 19.7171 52.9198C19.7211 52.9332 19.7168 52.9476 19.7217 52.9608C19.7249 52.9692 19.7305 52.9756 19.7336 52.9841C18.5899 53.9894 17.6262 55.2711 15.9122 55.0856ZM36.5059 103.393C36.0786 103.63 36.0883 104.368 36.4695 104.634C37.8004 105.564 38.9068 107.688 38.3923 109.333C37.6996 111.547 33.6427 111.387 32.1927 109.961C30.7773 108.568 31.0476 106.111 32.2628 104.694C33.6208 103.11 35.4963 103.173 37.3125 102.812C37.3479 102.918 37.3915 103.015 37.4501 103.098C37.1517 103.125 36.8392 103.208 36.5059 103.393ZM80.0973 95.5009C78.9017 96.8991 76.8452 97.6921 75.0271 97.3021C73.5716 96.9913 72.6818 95.9251 72.6066 94.445C72.5868 94.066 72.9409 92.9669 73.1511 92.2288C73.7829 92.2972 74.2088 91.848 74.3111 91.2986C74.4086 91.1192 74.4578 90.9108 74.4138 90.7212C74.3424 90.4127 74.211 90.1949 74.0561 90.02C74.2907 90.051 74.5415 90.0022 74.7817 89.8251C76.6844 88.4224 78.7363 88.295 80.2629 90.2838C81.5 91.8971 81.4152 93.961 80.0973 95.5009Z" fill="#FF9F01"/>
<path d="M106.338 59.9994C104.552 57.6338 99.4638 56.6078 98.0757 59.9072C97.7689 60.6354 98.4775 61.4704 99.251 61.169C100.982 60.4963 102.863 59.645 104.263 61.4997C105.585 63.2511 105.019 65.7346 103.673 67.2615C102.582 68.5 100.28 70.0412 98.5553 69.6738C96.7326 69.2855 95.5933 66.1521 96.6704 64.5622C96.704 64.538 96.7487 64.5319 96.7757 64.4984C96.9579 64.2714 97.019 64.112 96.9926 63.824C96.9785 63.666 96.8931 63.5314 96.7785 63.4247C97.2283 62.5705 97.145 61.4062 96.0271 60.9075C92.4408 59.3084 88.9945 57.2493 85.374 55.7419C85.9222 54.1103 86.271 52.2617 86.7016 50.8213C87.6256 47.7312 89.0506 44.465 89.5579 41.285C90.2563 36.9065 85.3046 34.1283 82.4979 31.5007C79.9462 29.1132 75.821 22.9921 71.9921 23.0343C69.6528 23.0608 66.5188 25.2111 64.3408 26.1306C61.4981 27.3311 58.6132 28.4012 56.0195 30.0831C54.8896 30.8164 55.9316 32.2932 57.0546 32.0162C61.041 31.0346 64.8284 28.9906 68.5785 27.3244C69.981 26.7007 71.4313 25.596 73.0244 26.0038C74.4993 26.381 77.0568 29.9939 78.1693 31.1018C81.4656 34.3835 85.8105 37.5034 85.838 42.626C85.8498 44.7457 84.1843 47.8082 83.5317 49.8406C82.9973 51.5033 82.7161 53.8134 81.8135 55.256C79.9851 58.1764 74.2393 58.7077 71.1923 59.6525C65.7841 61.329 62.7993 58.6387 58.8022 55.6527C56.5598 53.9769 54.9414 53.1121 53.8304 50.4751C52.6696 47.719 53.2833 45.651 53.6158 42.7347C54.0509 38.9178 54.4561 35.0981 54.6071 31.258C54.6421 30.3505 53.2938 30.4128 53.1009 31.1945C51.687 36.9105 49.5742 44.0688 49.8464 49.9871C50.0652 54.7384 56.1666 57.6 59.4937 60.1604C63.1278 62.9574 65.2734 64.743 69.8456 63.5407C73.2008 62.658 76.6248 61.6312 79.9043 60.5057C81.8032 59.8537 83.394 59.5461 84.4722 57.7872C84.5152 57.7167 84.5519 57.6347 84.5926 57.5608C87.4492 60.2392 91.1659 62.3191 94.5246 64.2006C94.6379 64.264 94.7426 64.2644 94.8534 64.301C94.6754 64.6449 94.5416 65.0214 94.4452 65.3552C93.9468 67.0803 94.2245 69.0601 95.3767 70.4746C97.8369 73.4951 102.234 72.024 104.757 69.8596C107.55 67.4606 108.695 63.1205 106.338 59.9994Z" fill="#FF9F01"/>
<path d="M52.1923 30.0352C51.0046 29.2264 49.6424 28.7452 48.3622 28.1033C47.0115 27.4268 45.7854 26.5181 44.4383 25.8542C44.2921 25.7828 44.1527 25.7494 44.0171 25.7349C44.0627 25.72 44.1115 25.7221 44.1532 25.6937C46.998 23.7036 44.7263 19.9382 42.4254 18.6375C39.6809 17.0861 35.626 17.1433 33.5306 19.7631C31.5549 22.2316 32.3351 26.5247 34.3744 28.7492C36.4749 31.0404 40.7608 30.3409 42.3818 27.7914C42.7927 27.1449 42.2704 25.9597 41.3835 26.3974C39.8599 27.1484 38.0074 28.9316 36.237 27.6881C34.6619 26.5819 33.9617 23.2152 34.802 21.5483C35.8126 19.5456 38.5999 19.3007 40.4992 19.9486C42.9632 20.7882 43.9409 22.7075 43.3369 25.185C43.2637 25.4866 43.4948 25.7025 43.7586 25.7545C42.8828 25.8902 42.4166 27.1465 43.1842 27.8708C44.3172 28.9392 45.9238 29.7208 47.3319 30.362C48.7228 30.9947 50.182 31.5528 51.7247 31.5567C52.4534 31.5559 52.7947 30.4455 52.1923 30.0352Z" fill="#FF9F01"/>
<path d="M84.8866 3.64841C82.5052 1.5399 78.7837 1.81847 76.5185 3.96588C74.1639 6.19684 73.6145 11.3234 76.3388 13.4843C76.4918 13.6055 76.661 13.6555 76.8278 13.6648C76.148 14.9324 75.8114 16.436 75.1878 17.751C74.5721 19.0502 73.6463 20.2847 73.2033 21.6519C72.9971 22.2892 73.6001 22.8124 74.1947 22.4635C75.5241 21.6814 76.4213 20.1928 77.1828 18.8925C77.9484 17.5833 78.8695 15.8413 78.9769 14.307C78.9853 14.1864 78.9657 14.0795 78.9457 13.9717C81.2309 15.1502 84.5083 13.8589 85.9483 11.8914C87.7655 9.40732 87.1458 5.64987 84.8866 3.64841ZM83.8022 10.7368C82.4566 12.4023 80.4349 12.2847 78.5307 12.0986C77.9503 12.042 77.6673 12.5595 77.8501 13.0122C77.8124 13.0113 77.7753 13.0177 77.7372 13.0212C77.7837 12.8598 77.7884 12.6809 77.7188 12.4944C76.888 10.262 76.1222 7.38308 78.2273 5.55048C79.6691 4.29417 82.0294 4.19794 83.4074 5.57402C84.749 6.91247 85.0215 9.22728 83.8022 10.7368Z" fill="#FF9F01"/>
<path d="M55.5531 65.4853C53.611 64.6399 51.9267 63.5585 50.3467 62.1532C50.0686 61.9058 49.6448 61.8569 49.3037 61.981C46.4172 63.0271 43.5247 64.0797 40.6743 65.2223C39.9455 65.5145 40.3646 66.5119 41.09 66.3363C43.2736 65.8096 47.1605 63.9548 49.2895 64.423C50.7119 64.7365 52.4954 66.2527 53.9979 67.1127C53.8932 69.2576 53.7875 71.4029 53.6837 73.5476C53.6297 74.6756 53.8046 75.5219 53.0207 76.2787C52.2925 76.9816 50.7961 77.2251 49.8632 77.5796C47.663 78.4166 44.873 78.1107 42.977 76.4935C40.7857 74.6257 42.4121 70.7976 43.1473 68.5774C43.4843 67.5583 41.991 66.8315 41.5996 67.8709C40.7828 70.0382 39.0194 74.3658 40.1358 76.6368C40.9722 78.3377 45.2317 80.4649 47.0593 80.5973C48.4339 80.697 49.9063 79.8776 51.1443 79.4167C52.3148 78.981 54.3983 78.6977 55.231 77.6569C56.0097 76.6833 55.8036 75.0898 55.8548 73.9254C55.961 71.5013 56.0641 69.0773 56.1685 66.6539C56.1894 66.1722 56.031 65.6933 55.5531 65.4853Z" fill="#FF9F01"/>
<path d="M75.0738 36.7062C73.7365 35.9169 72.3069 34.7458 70.7052 34.8184C68.2542 34.9292 64.7579 37.5157 62.7052 38.7566C62.145 39.0948 62.6589 39.8797 63.2192 39.7165C67.3782 38.5083 71.7029 35.633 75.3886 39.4834C77.5178 41.7085 77.1746 49.1212 74.1087 50.5128C70.9116 51.9651 67.5824 52.7943 64.3289 50.9429C62.0916 49.6698 62.5131 49.3118 63.0295 46.7827C63.4048 44.9424 63.7811 43.1017 64.1564 41.2614C64.3972 40.0817 62.5507 39.7642 62.3168 40.9423C61.6762 44.1657 61.0672 47.3964 60.3725 50.609C60.288 51.0003 60.5356 51.4608 60.904 51.6157C63.0913 52.5319 65.8955 54.2574 68.291 54.5387C70.4564 54.7927 72.3635 53.2902 74.4495 52.6847C78.3257 51.5596 78.2279 49.7101 78.6547 45.6849C78.8199 44.1311 79.6657 41.0489 78.9134 39.4874C78.2735 38.1646 76.202 37.3729 75.0738 36.7062Z" fill="#FF9F01"/>
<path d="M69.5011 43.2808C67.9945 43.843 68.8654 46.1853 70.3747 45.6221C71.8813 45.06 71.0095 42.718 69.5011 43.2808Z" fill="#FF9F01"/>
<path d="M49.4525 70.4891C49.4239 70.441 49.3956 70.3939 49.368 70.3456C49.0213 69.7598 48.1694 69.5248 47.5539 69.6744C46.8104 69.8558 46.4165 70.3678 46.203 71.0772C46.1855 71.136 46.1676 71.1939 46.1497 71.2518C45.7619 72.5408 47.2281 73.6011 48.3638 73.3438C49.7124 73.0391 50.1084 71.5977 49.4525 70.4891Z" fill="#FF9F01"/>
</svg>
