<svg width="91" height="111" viewBox="0 0 91 111" fill="none" xmlns="http://www.w3.org/2000/svg">
<path d="M86.9969 66.2973C81.3629 59.1083 74.4999 52.8173 66.9429 47.6993C58.8109 42.1913 50.5289 38.4243 43.4989 31.4353C41.1329 27.8803 38.7589 24.3513 36.7089 20.5693C34.3399 16.1993 32.7819 11.3893 30.3049 7.10933C33.2799 5.17433 35.5829 2.67632 32.0319 0.547319C30.2569 -0.516681 27.7009 0.213339 25.9309 0.705339C20.8089 2.13134 15.7369 4.80133 10.9569 7.09233C7.6819 8.66033 -2.54311 11.7453 0.588895 17.3793C2.34889 20.5443 5.61489 20.2713 8.5189 18.8923C13.5889 27.0843 16.8899 36.4403 18.8029 45.8453C18.3319 57.1993 18.3139 68.6013 18.3929 79.9623C18.4499 88.1863 17.8279 98.4383 21.8939 105.884C25.1599 111.864 30.4229 111.207 36.2409 109.432C46.2849 106.369 56.0189 102.305 65.2329 97.2653C72.5059 93.2853 82.1599 88.5673 87.7709 82.3443C92.7619 76.8083 91.1849 71.6423 86.9969 66.2973ZM86.8809 76.8353C85.9229 80.5663 80.8639 83.7233 77.9159 85.9213C74.0979 88.7683 70.0019 91.2523 65.8539 93.5853C58.8379 97.5313 51.5159 100.93 43.9719 103.738C40.5509 105.012 35.5329 107.546 31.9079 107.64C24.3319 107.836 23.3359 102.249 22.4669 96.4183C19.9409 79.4693 21.7369 61.7493 20.8919 44.6453C20.8689 44.1723 20.5339 43.9113 20.1439 43.8333C20.0809 38.7213 18.6629 33.6533 16.7559 28.9433C15.7859 26.5473 14.6589 24.2133 13.3839 21.9643C11.7649 19.1083 9.98789 18.2573 12.8269 15.8823C13.0669 15.6813 13.3239 15.4523 13.3739 15.1433C13.4669 14.5713 12.7679 14.1463 12.1939 14.2293C11.6209 14.3133 11.1489 14.7013 10.6409 14.9803C7.2269 16.8613 4.04389 13.1393 8.22989 11.0043C11.2789 9.44932 14.3699 7.97633 17.4989 6.59233C20.2479 5.37733 23.7459 3.14732 26.7539 2.91832C28.6609 1.72032 29.3649 2.46233 28.8639 5.14333C28.3139 5.46233 27.7629 5.78133 27.2129 6.10033C26.6309 6.76433 24.4119 7.83934 23.7429 8.30434C22.7869 8.96734 23.8009 10.5223 24.8269 10.0233C25.4799 9.70533 26.8069 9.10132 28.2419 8.32732C28.5999 10.9233 29.4069 13.5853 30.4819 16.2213C28.5359 16.5863 26.3329 17.9513 25.1089 19.0093C24.6249 19.4273 24.5699 20.0023 24.7549 20.5733C24.8329 20.8153 25.0109 20.9463 25.1969 21.1053C25.5409 21.4003 26.1159 21.4063 26.5079 21.2263C27.7019 20.6823 28.8109 19.9683 29.9829 19.3763C30.5069 19.1123 31.0319 18.8803 31.5219 18.5983C32.7599 21.1853 34.2649 23.7093 35.9279 26.0863C34.6559 26.5103 33.3779 26.9173 32.1249 27.3943C31.2699 27.7203 29.9129 28.3913 30.4979 29.5393C31.1249 30.7703 32.8449 29.9883 33.7429 29.6383C34.9739 29.1563 36.0909 28.4833 37.1829 27.7603C38.4049 29.3763 39.6719 30.9363 40.9979 32.3443C43.2129 38.0813 48.6479 41.4493 53.7699 44.3973C54.0979 44.5863 54.4199 44.7753 54.7479 44.9643C54.7279 44.9803 54.7009 44.9743 54.6819 44.9943C51.6279 47.9873 47.1999 48.1033 43.7139 50.4453C39.8019 53.0723 38.0679 57.4163 32.8929 58.2463C28.7199 58.9163 21.9539 57.7453 21.6609 63.7763C21.6219 64.5683 22.8229 64.9413 23.0779 64.1063C24.6979 58.8003 31.2239 61.2253 35.0769 60.1723C37.7669 59.4363 39.5089 57.9523 41.4119 56.0343C45.1169 52.3003 48.0489 51.5043 52.6619 49.4343C54.7249 48.5083 55.6669 47.9193 55.9989 45.6923V45.6903C61.4419 48.8363 66.7519 52.0133 71.6309 56.0743C76.2469 59.9133 88.6699 69.8693 86.8809 76.8353Z" fill="#FF9F01"/>
<path d="M67.1648 56.8503C64.2998 55.1533 60.9928 52.6563 57.6028 52.2613C56.7858 52.1663 56.4398 53.4683 57.2688 53.6953C60.7878 54.6573 64.2808 58.2073 67.0808 60.4973C69.6078 62.5633 72.0378 65.6413 75.3198 66.2553C76.2898 66.4363 76.8188 65.3383 76.5338 64.5603C75.2188 60.9643 70.2928 58.7023 67.1648 56.8503Z" fill="#FF9F01"/>
<path d="M80.3535 70.1072C79.7385 69.3872 78.3675 70.1562 78.8865 71.0322C79.6895 72.3882 79.9494 73.9752 80.5684 75.4102C81.1484 76.7552 83.3305 76.1192 83.0505 74.6592C82.6945 72.8002 81.5405 71.4972 80.3535 70.1072Z" fill="#FF9F01"/>
<path d="M26.6723 99.0054C26.1833 99.9574 25.1743 101.474 25.6213 102.549C25.7193 102.784 26.0113 102.816 26.1973 102.679C26.6923 102.316 26.7133 101.902 26.9013 101.324C27.1173 100.658 27.3783 100.012 27.6663 99.3744C27.9523 98.7424 26.9773 98.4114 26.6723 99.0054Z" fill="#FF9F01"/>
<path d="M31.2313 96.6795C30.4603 98.0565 29.7783 99.4755 29.2283 100.955C28.8333 102.018 27.9403 103.724 28.6513 104.759C28.7603 104.917 29.0473 104.982 29.2153 104.886C30.2213 104.31 30.3053 102.526 30.6473 101.485C31.1223 100.044 31.7183 98.6525 32.4093 97.3015C32.7533 96.6295 31.6043 96.0135 31.2313 96.6795Z" fill="#FF9F01"/>
<path d="M38.7594 92.8812C37.5784 94.7042 36.5124 96.5692 35.5364 98.5102C34.7424 100.088 33.2364 102.206 33.5554 104.022C33.6244 104.414 34.0584 104.539 34.3624 104.323C35.7824 103.313 36.2804 100.949 37.0044 99.4092C37.9394 97.4222 38.9394 95.4592 39.9544 93.5112C40.3104 92.8252 39.1754 92.2392 38.7594 92.8812Z" fill="#FF9F01"/>
<path d="M45.1702 91.2663C44.4122 93.5893 43.5312 95.8603 42.5312 98.0893C42.0452 99.1723 41.5292 100.239 40.9812 101.292C40.4492 102.314 39.8462 103.04 39.8262 104.188C39.8212 104.492 40.1492 104.853 40.4742 104.652C42.1402 103.621 42.9222 101.037 43.7012 99.3053C44.8032 96.8543 45.6802 94.3143 46.4292 91.7353C46.6672 90.9133 45.4402 90.4363 45.1702 91.2663Z" fill="#FF9F01"/>
<path d="M52.9243 89.3852C52.4703 91.1042 51.8813 92.7892 51.1683 94.4192C50.5383 95.8562 49.2283 97.3481 49.0463 98.9081C48.9963 99.3351 49.5173 99.8021 49.9313 99.5421C51.3073 98.6781 51.9873 96.6742 52.6013 95.2252C53.3573 93.4382 53.8543 91.5891 54.2053 89.6841C54.3403 88.9511 53.1173 88.6562 52.9243 89.3852Z" fill="#FF9F01"/>
<path d="M60.5395 84.1986C59.8855 86.1216 59.1745 88.0216 58.4705 89.9266C57.9365 91.3736 56.6925 93.3716 57.0585 94.9136C57.1655 95.3676 57.6325 95.5306 58.0085 95.2676C59.3155 94.3576 59.6715 92.0126 60.1435 90.5516C60.7685 88.6146 61.2955 86.6416 61.8135 84.6746C62.0325 83.8446 60.8265 83.3536 60.5395 84.1986Z" fill="#FF9F01"/>
<path d="M68.2213 79.7464C67.4123 81.7804 66.7493 83.8554 66.2593 85.9884C65.8693 87.6884 65.1963 89.8364 65.6623 91.5534C65.8243 92.1524 66.6043 92.2764 66.8703 91.6734C67.5673 90.0874 67.4283 88.0424 67.7293 86.3304C68.0973 84.2304 68.6573 82.1814 69.3473 80.1654C69.5983 79.4344 68.5073 79.0264 68.2213 79.7464Z" fill="#FF9F01"/>
<path d="M74.9385 77.6804C74.5745 79.1864 74.1805 80.6864 73.7495 82.1764C73.4295 83.2814 72.6805 84.5904 73.0865 85.7204C73.1865 85.9984 73.5395 86.0164 73.7445 85.8694C74.7445 85.1504 74.8615 83.3395 75.1525 82.2045C75.5135 80.7965 75.8355 79.3805 76.1335 77.9585C76.2765 77.2775 75.1035 76.9974 74.9385 77.6804Z" fill="#FF9F01"/>
<path d="M78.8027 78.1874C78.8067 79.0564 78.7127 79.8904 78.4877 80.7334C78.3167 81.3754 78.0297 81.8504 78.3897 82.4574C78.5397 82.7104 78.7747 82.8023 79.0567 82.7063C80.5087 82.2123 80.1987 79.3434 80.0457 78.1514C79.9577 77.4604 78.7997 77.4664 78.8027 78.1874Z" fill="#FF9F01"/>
<path d="M20.2352 26.0054C19.1832 23.9874 18.3302 21.8224 16.9822 19.9814C16.6192 19.4854 15.8162 19.8984 15.9122 20.4694C16.2902 22.7214 17.3272 24.8344 18.2132 26.9274C19.0932 29.0044 19.8232 31.4584 21.4752 33.0414C22.1142 33.6534 23.2892 33.2784 23.1342 32.2844C22.7822 30.0194 21.2852 28.0194 20.2352 26.0054Z" fill="#FF9F01"/>
<path d="M24.484 38.0495C24.048 37.3335 22.967 37.7855 23.278 38.6005C23.854 40.1095 24.014 41.6625 24.308 43.2385C24.375 43.5975 24.632 43.9865 25.004 44.0875C25.313 44.1725 25.552 44.2285 25.84 44.0585C26.269 43.8035 26.534 43.4074 26.465 42.8914C26.229 41.1344 25.396 39.5465 24.484 38.0495Z" fill="#FF9F01"/>
</svg>
