<svg width="42" height="42" viewBox="0 0 42 42" fill="none" xmlns="http://www.w3.org/2000/svg">
<path fill-rule="evenodd" clip-rule="evenodd" d="M27.8095 29.5923C27.0881 32.5768 26.659 36.9167 24.48 39.165C21.0008 42.754 17.2171 37.0805 16.055 34.3676C15.7469 33.6477 15.4464 32.923 15.1791 32.1865C14.8608 31.3104 14.5578 30.4272 14.2888 29.5346C11.4348 30.5776 7.76057 31.4093 4.73351 30.8607C2.19719 30.4008 0.981938 28.4681 1.88335 26.0074C2.95936 23.0692 5.48275 20.4642 7.64746 18.287C6.73101 15.1854 5.75309 12.0117 5.61195 8.77962C5.47662 5.67257 7.78791 4.16983 10.6702 5.05626C11.6014 5.34253 12.4977 5.73539 13.3634 6.1805C14.5282 6.77974 17.2004 8.44033 17.8945 8.84079C17.9966 8.84087 18.5495 8.26145 18.6566 8.17031C19.3847 7.55165 20.1205 6.95135 20.8846 6.37705C21.4613 5.94391 22.0419 5.51504 22.6268 5.09329C24.7083 3.59214 29.8829 -0.694622 31.7289 3.14088C31.9163 3.53077 32.023 3.94681 32.0929 4.37186C32.2078 5.07396 32.1892 5.81358 32.1549 6.5223C32.0906 7.85298 31.8807 9.17008 31.6805 10.4848C31.3821 12.4486 30.9505 14.4087 30.7351 16.3847C30.7326 16.4091 30.7271 16.4332 30.7205 16.457C31.7383 17.0782 32.7637 17.6933 33.7657 18.3401C35.9521 19.751 39.8101 21.1964 39.502 24.0092C39.3357 25.5303 38.0031 26.4726 36.7097 27.038C34.0824 28.1858 31.1993 28.578 28.3861 28.9896" fill="#FF8A00"/>
<path d="M27.8095 29.5923C27.0881 32.5768 26.659 36.9167 24.48 39.165C21.0008 42.754 17.2171 37.0805 16.055 34.3676C15.7469 33.6477 15.4464 32.923 15.1791 32.1865C14.8608 31.3104 14.5578 30.4272 14.2888 29.5346C11.4348 30.5776 7.76057 31.4093 4.73351 30.8607C2.19718 30.4008 0.981939 28.4681 1.88335 26.0074C2.95936 23.0692 5.48275 20.4642 7.64746 18.287C6.73101 15.1854 5.75309 12.0117 5.61195 8.77961C5.47662 5.67257 7.78791 4.16983 10.6702 5.05626C11.6014 5.34253 12.4977 5.73539 13.3634 6.1805C14.5282 6.77974 17.2004 8.44033 17.8945 8.84079C17.9966 8.84087 18.5495 8.26145 18.6566 8.17031C19.3847 7.55165 20.1205 6.95135 20.8846 6.37705C21.4613 5.94391 22.0419 5.51504 22.6268 5.09329C24.7083 3.59214 29.8829 -0.694622 31.7289 3.14088C31.9163 3.53077 32.023 3.94681 32.0929 4.37186C32.2079 5.07396 32.1892 5.81358 32.1549 6.5223C32.0906 7.85298 31.8807 9.17008 31.6805 10.4848C31.3821 12.4486 30.9505 14.4087 30.7351 16.3847C30.7326 16.4091 30.7271 16.4332 30.7205 16.457C31.7383 17.0782 32.7637 17.6933 33.7657 18.3401C35.9521 19.751 39.8101 21.1964 39.502 24.0092C39.3357 25.5303 38.0031 26.4726 36.7097 27.038C34.0824 28.1858 31.1993 28.578 28.3861 28.9896" stroke="white" stroke-width="3.17444" stroke-miterlimit="1.5" stroke-linecap="round" stroke-linejoin="round"/>
</svg>
