<svg width="190" height="117" viewBox="0 0 190 117" fill="none" xmlns="http://www.w3.org/2000/svg">
<path d="M0 116.999L89.7093 114.548L69.4993 7.03467L0 116.999ZM61.7006 47.8269L71.4771 99.8348L28.082 101.021L61.7006 47.8269Z" fill="#FDDD00"/>
<path d="M22.5391 96.697L30.9625 96.4669L58.0561 53.5997L56.1577 43.5044L22.5391 96.697Z" fill="white"/>
<path d="M65.8521 12.8063L84.1636 110.225L2.87781 112.445L0 116.999L89.7093 114.548L69.4993 7.03369L65.8521 12.8063Z" fill="#287C74"/>
<path d="M58.0534 53.5997L65.9315 95.5123L30.9598 96.4668L28.082 101.021L71.4772 99.8349L61.7007 47.827L58.0534 53.5997Z" fill="white"/>
<path d="M2.875 112.445L84.1608 110.224L65.8483 12.8062L2.875 112.445ZM58.0506 53.5994L61.6988 47.8268L71.4753 99.8347L28.0802 101.02L30.958 96.4666L22.5345 96.6967L56.1541 43.5031L58.0506 53.5994Z" fill="#1E756D"/>
<path d="M55.8755 29.2775L54.9453 30.7256L60.5075 34.3009L61.4377 32.8528L55.8755 29.2775Z" fill="white"/>
<path d="M45.3286 46.0564L44.3984 47.5045L49.9606 51.0799L50.8908 49.6318L45.3286 46.0564Z" fill="white"/>
<path d="M34.7818 62.8376L33.8516 64.2856L39.4138 67.861L40.3439 66.4129L34.7818 62.8376Z" fill="white"/>
<path d="M24.2349 79.6188L23.3047 81.0669L28.8669 84.6422L29.7971 83.1942L24.2349 79.6188Z" fill="white"/>
<path d="M13.688 96.403L12.7578 97.8511L18.32 101.426L19.2502 99.9783L13.688 96.403Z" fill="white"/>
<path d="M54.2765 32.2687L53.918 32.8313L58.8761 35.9935L59.2347 35.431L54.2765 32.2687Z" fill="white"/>
<path d="M52.3 35.3027L51.9414 35.8652L56.8996 39.0275L57.2581 38.4649L52.3 35.3027Z" fill="white"/>
<path d="M50.2765 38.1294L49.918 38.692L54.8753 41.8537L55.2338 41.2911L50.2765 38.1294Z" fill="white"/>
<path d="M48.6047 40.7044L48.2461 41.267L53.2043 44.4292L53.5628 43.8666L48.6047 40.7044Z" fill="white"/>
<path d="M46.7179 43.7325L46.3594 44.295L51.3167 47.4567L51.6752 46.8942L46.7179 43.7325Z" fill="white"/>
<path d="M43.7258 48.9621L43.3672 49.5247L48.3245 52.6864L48.6831 52.1238L43.7258 48.9621Z" fill="white"/>
<path d="M41.7492 51.996L41.3906 52.5586L46.3488 55.7208L46.7074 55.1583L41.7492 51.996Z" fill="white"/>
<path d="M39.7258 54.8169L39.3672 55.3795L44.3253 58.5418L44.6839 57.9792L39.7258 54.8169Z" fill="white"/>
<path d="M38.0578 57.3984L37.6992 57.9609L42.6565 61.1226L43.0151 60.5601L38.0578 57.3984Z" fill="white"/>
<path d="M36.1672 60.4198L35.8086 60.9824L40.7659 64.1441L41.1245 63.5815L36.1672 60.4198Z" fill="white"/>
<path d="M32.6828 65.8005L32.3242 66.363L37.2815 69.5247L37.6401 68.9622L32.6828 65.8005Z" fill="white"/>
<path d="M30.7062 68.8349L30.3477 69.3975L35.305 72.5592L35.6635 71.9966L30.7062 68.8349Z" fill="white"/>
<path d="M28.6789 71.6623L28.3203 72.2249L33.2776 75.3866L33.6362 74.824L28.6789 71.6623Z" fill="white"/>
<path d="M27.007 74.2362L26.6484 74.7988L31.6057 77.9605L31.9643 77.398L27.007 74.2362Z" fill="white"/>
<path d="M25.1203 77.2657L24.7617 77.8282L29.719 80.99L30.0776 80.4274L25.1203 77.2657Z" fill="white"/>
<path d="M22.4523 82.6305L22.0938 83.1931L27.0511 86.3548L27.4096 85.7923L22.4523 82.6305Z" fill="white"/>
<path d="M20.4758 85.6645L20.1172 86.2271L25.0745 89.3888L25.4331 88.8262L20.4758 85.6645Z" fill="white"/>
<path d="M18.4523 88.4854L18.0938 89.048L23.0511 92.2097L23.4096 91.6471L18.4523 88.4854Z" fill="white"/>
<path d="M16.7804 91.0668L16.4219 91.6294L21.3792 94.7911L21.7377 94.2285L16.7804 91.0668Z" fill="white"/>
<path d="M14.8937 94.0879L14.5352 94.6505L19.4925 97.8122L19.851 97.2496L14.8937 94.0879Z" fill="white"/>
<path d="M165.735 116.303L115.509 107.568C111.454 106.862 108.824 102.511 109.635 97.8482L124.89 10.0671C126.013 3.60414 131.479 -0.842151 137.098 0.134523L181.657 7.88362C187.277 8.8613 190.921 14.8922 189.798 21.3551L174.543 109.136C173.733 113.8 169.79 117.008 165.735 116.303Z" fill="#287C74"/>
<path d="M184.102 22.2987L182.643 30.6899C182.088 33.8862 179.045 36.0295 175.849 35.4718L133.259 28.0653C130.81 27.6393 128.98 25.7543 128.509 23.4573C128.365 22.7569 128.35 22.0174 128.478 21.2688L129.032 18.0775L129.063 17.8947L129.935 12.8796C130.49 9.68335 133.533 7.54012 136.729 8.09778L142.932 9.17493L164.285 12.8887L173.158 14.4321L179.321 15.5032C182.518 16.0599 184.656 19.1025 184.102 22.2987Z" fill="white"/>
<path d="M170.819 81.5193L166.803 104.616C166.474 106.516 164.666 107.789 162.767 107.457L155.965 106.275C154.067 105.945 152.795 104.137 153.127 102.236L153.501 100.081L157.14 79.1399C157.469 77.2408 159.277 75.9687 161.176 76.2983L166.918 77.2961L167.977 77.481C169.876 77.8116 171.147 79.6182 170.819 81.5193Z" fill="white"/>
<path d="M141.378 41.4715L140.562 46.1721C140.232 48.0732 138.426 49.3452 136.525 49.0146L129.726 47.831C128.841 47.6783 128.095 47.205 127.581 46.5529C126.989 45.8003 126.708 44.8105 126.884 43.7947L127.7 39.0942C128.031 37.1941 129.837 35.923 131.736 36.2526L133.735 36.6002L138.537 37.4352C140.437 37.7668 141.707 39.5735 141.378 41.4715Z" fill="#D3F9D8"/>
<path d="M137.284 58.6497L136.468 63.3501C136.138 65.2512 134.332 66.5233 132.431 66.1927L125.632 65.0091C124.747 64.8563 124.001 64.3831 123.488 63.7309C122.895 62.9783 122.614 61.9886 122.791 60.9728L123.606 56.2723C123.938 54.3722 125.744 53.1011 127.642 53.4307L129.641 53.7783L134.443 54.6133C136.343 54.9439 137.614 56.7516 137.284 58.6497Z" fill="#D3F9D8"/>
<path d="M155.354 61.8872L154.539 66.5877C154.208 68.4888 152.402 69.7609 150.502 69.4303L143.703 68.2466C142.818 68.0939 142.071 67.6206 141.558 66.9685C140.965 66.2159 140.684 65.2262 140.861 64.2103L141.677 59.5098C142.008 57.6097 143.814 56.3386 145.712 56.6682L147.711 57.0159L152.514 57.8509C154.412 58.1815 155.684 59.9881 155.354 61.8872Z" fill="#D3F9D8"/>
<path d="M173.397 64.965L172.582 69.6655C172.251 71.5666 170.445 72.8387 168.545 72.5081L161.746 71.3244C160.861 71.1717 160.114 70.6984 159.601 70.0463C159.008 69.2937 158.727 68.304 158.904 67.2881L159.72 62.5876C160.052 60.6875 161.858 59.4164 163.756 59.746L165.755 60.0937L170.558 60.9286C172.455 61.2592 173.727 63.0659 173.397 64.965Z" fill="#D3F9D8"/>
<path d="M134.425 74.9082L133.609 79.6087C133.279 81.5098 131.473 82.7819 129.572 82.4513L122.773 81.2676C121.888 81.1149 121.142 80.6416 120.628 79.9895C120.036 79.2369 119.754 78.2472 119.931 77.2313L120.747 72.5308C121.078 70.6307 122.884 69.3596 124.783 69.6892L126.782 70.0369L131.584 70.8719C133.484 71.2025 134.754 73.0091 134.425 74.9082Z" fill="#D3F9D8"/>
<path d="M152.651 78.4534L151.836 83.1539C151.505 85.055 149.699 86.327 147.799 85.9965L140.999 84.8128C140.114 84.6601 139.368 84.1868 138.855 83.5347C138.262 82.7821 137.981 81.7924 138.158 80.7765L138.973 76.076C139.305 74.1759 141.111 72.9048 143.009 73.2344L145.008 73.5821L149.811 74.417C151.71 74.7476 152.981 76.5543 152.651 78.4534Z" fill="#D3F9D8"/>
<path d="M131.366 92.1028L130.55 96.8033C130.22 98.7044 128.414 99.9765 126.513 99.6459L119.714 98.4622C118.829 98.3095 118.083 97.8362 117.57 97.1841C116.977 96.4315 116.696 95.4417 116.873 94.4259L117.688 89.7254C118.02 87.8253 119.826 86.5542 121.724 86.8838L123.723 87.2314L128.525 88.0665C130.425 88.397 131.696 90.2037 131.366 92.1028Z" fill="#D3F9D8"/>
<path d="M149.96 95.3372L149.144 100.038C148.814 101.939 147.008 103.211 145.107 102.88L138.308 101.697C137.423 101.544 136.677 101.071 136.163 100.418C135.571 99.6659 135.29 98.6761 135.466 97.6603L136.282 92.9598C136.613 91.0597 138.42 89.7886 140.318 90.1182L142.317 90.4658L147.119 91.3008C149.018 91.6314 150.289 93.4381 149.96 95.3372Z" fill="#D3F9D8"/>
<path d="M159.241 44.5621L158.425 49.2626C158.095 51.1637 156.289 52.4358 154.388 52.1052L147.589 50.9216C146.704 50.7688 145.958 50.2956 145.445 49.6435C144.852 48.8909 144.571 47.9011 144.748 46.8853L145.563 42.1848C145.895 40.2847 147.701 39.0136 149.599 39.3431L151.598 39.6908L156.4 40.5258C158.3 40.8564 159.571 42.663 159.241 44.5621Z" fill="#D3F9D8"/>
<path d="M177.184 46.7881L176.368 51.4886C176.037 53.3897 174.231 54.6618 172.33 54.3312L165.531 53.1475C164.646 52.9948 163.899 52.5215 163.386 51.8694C162.793 51.1168 162.512 50.1271 162.689 49.1112L163.505 44.4107C163.836 42.5106 165.642 41.2395 167.541 41.5691L169.539 41.9168L174.342 42.7518C176.241 43.0823 177.513 44.889 177.184 46.7881Z" fill="#D3F9D8"/>
<path d="M175.789 31.8935L169.593 31.0254C168.547 30.8787 167.817 29.9111 167.964 28.8641L169.435 18.3638C169.581 17.3168 170.549 16.5873 171.595 16.734L177.791 17.6021C178.837 17.7488 179.567 18.7165 179.42 19.7635L177.949 30.2638C177.803 31.3108 176.836 32.0402 175.789 31.8935Z" fill="#287C74"/>
<path d="M169.37 28.8485L170.672 19.552C170.756 18.9471 171.315 18.5261 171.92 18.6105L176.911 19.3098C177.249 19.3571 177.483 19.6685 177.436 20.0062L176.148 29.2022C176.056 29.8623 175.446 30.3215 174.786 30.2291L169.894 29.5438C169.558 29.4976 169.323 29.1861 169.37 28.8485Z" fill="#D3F9D8"/>
<path d="M176.212 23.5359L171.555 22.8834L171.306 24.6596L175.963 25.3121L176.212 23.5359Z" fill="#287C74"/>
<path d="M162.844 30.1783L156.649 29.3102C155.602 29.1635 154.873 28.1958 155.019 27.1488L156.49 16.6486C156.636 15.6016 157.604 14.8721 158.65 15.0188L164.846 15.8869C165.893 16.0336 166.622 17.0012 166.475 18.0482L165.005 28.5485C164.857 29.5945 163.891 30.324 162.844 30.1783Z" fill="#287C74"/>
<path d="M157.006 26.9046L158.308 17.6082C158.392 17.0033 158.952 16.5822 159.556 16.6667L164.548 17.366C164.885 17.4132 165.119 17.7247 165.072 18.0623L163.784 27.2584C163.692 27.9185 163.082 28.3777 162.422 28.2852L157.53 27.6C157.194 27.5538 156.959 27.2413 157.006 26.9046Z" fill="#D3F9D8"/>
<path d="M163.556 21.7074L158.898 21.0549L158.65 22.8311L163.307 23.4836L163.556 21.7074Z" fill="#287C74"/>
</svg>
